<?xml version="1.0" encoding="utf-8" standalone="no"?>
<!DOCTYPE svg PUBLIC "-//W3C//DTD SVG 1.1//EN"
  "http://www.w3.org/Graphics/SVG/1.1/DTD/svg11.dtd">
<svg xmlns:xlink="http://www.w3.org/1999/xlink" width="1137.791406pt" height="616.353125pt" viewBox="0 0 1137.791406 616.353125" xmlns="http://www.w3.org/2000/svg" version="1.1">
 <metadata>
  <rdf:RDF xmlns:dc="http://purl.org/dc/elements/1.1/" xmlns:cc="http://creativecommons.org/ns#" xmlns:rdf="http://www.w3.org/1999/02/22-rdf-syntax-ns#">
   <cc:Work>
    <dc:type rdf:resource="http://purl.org/dc/dcmitype/StillImage"/>
    <dc:date>2026-03-13T05:03:20.279255</dc:date>
    <dc:format>image/svg+xml</dc:format>
    <dc:creator>
     <cc:Agent>
      <dc:title>Matplotlib v3.10.8, https://matplotlib.org/</dc:title>
     </cc:Agent>
    </dc:creator>
   </cc:Work>
  </rdf:RDF>
 </metadata>
 <defs>
  <style type="text/css">*{stroke-linejoin: round; stroke-linecap: butt}</style>
 </defs>
 <g id="figure_1">
  <g id="patch_1">
   <path d="M 0 616.353125 
L 1137.791406 616.353125 
L 1137.791406 0 
L 0 0 
z
" style="fill: #ffffff"/>
  </g>
  <g id="axes_1">
   <g id="patch_2">
    <path d="M 14.591406 250.156875 
L 521.864134 250.156875 
L 521.864134 28.396875 
L 14.591406 28.396875 
z
" style="fill: #ffffff"/>
   </g>
   <g id="patch_3">
    <path d="M 37.649258 250.156875 
L 38.556187 250.156875 
L 38.556187 95.324443 
L 37.649258 95.324443 
z
" clip-path="url(#p94505478c5)" style="fill: #1e90ff; opacity: 0.5"/>
   </g>
   <g id="patch_4">
    <path d="M 38.556187 250.156875 
L 39.463116 250.156875 
L 39.463116 38.956875 
L 38.556187 38.956875 
z
" clip-path="url(#p94505478c5)" style="fill: #1e90ff; opacity: 0.5"/>
   </g>
   <g id="patch_5">
    <path d="M 39.463116 250.156875 
L 40.370045 250.156875 
L 40.370045 149.908243 
L 39.463116 149.908243 
z
" clip-path="url(#p94505478c5)" style="fill: #1e90ff; opacity: 0.5"/>
   </g>
   <g id="patch_6">
    <path d="M 40.370045 250.156875 
L 41.276974 250.156875 
L 41.276974 192.005514 
L 40.370045 192.005514 
z
" clip-path="url(#p94505478c5)" style="fill: #1e90ff; opacity: 0.5"/>
   </g>
   <g id="patch_7">
    <path d="M 41.276974 250.156875 
L 42.183903 250.156875 
L 42.183903 207.702814 
L 41.276974 207.702814 
z
" clip-path="url(#p94505478c5)" style="fill: #1e90ff; opacity: 0.5"/>
   </g>
   <g id="patch_8">
    <path d="M 42.183903 250.156875 
L 43.090832 250.156875 
L 43.090832 205.205546 
L 42.183903 205.205546 
z
" clip-path="url(#p94505478c5)" style="fill: #1e90ff; opacity: 0.5"/>
   </g>
   <g id="patch_9">
    <path d="M 43.090832 250.156875 
L 43.997761 250.156875 
L 43.997761 225.540655 
L 43.090832 225.540655 
z
" clip-path="url(#p94505478c5)" style="fill: #1e90ff; opacity: 0.5"/>
   </g>
   <g id="patch_10">
    <path d="M 43.997761 250.156875 
L 44.90469 250.156875 
L 44.90469 236.243359 
L 43.997761 236.243359 
z
" clip-path="url(#p94505478c5)" style="fill: #1e90ff; opacity: 0.5"/>
   </g>
   <g id="patch_11">
    <path d="M 44.90469 250.156875 
L 45.811619 250.156875 
L 45.811619 233.389305 
L 44.90469 233.389305 
z
" clip-path="url(#p94505478c5)" style="fill: #1e90ff; opacity: 0.5"/>
   </g>
   <g id="patch_12">
    <path d="M 45.811619 250.156875 
L 46.718548 250.156875 
L 46.718548 233.032548 
L 45.811619 233.032548 
z
" clip-path="url(#p94505478c5)" style="fill: #1e90ff; opacity: 0.5"/>
   </g>
   <g id="patch_13">
    <path d="M 46.718548 250.156875 
L 47.625477 250.156875 
L 47.625477 240.524441 
L 46.718548 240.524441 
z
" clip-path="url(#p94505478c5)" style="fill: #1e90ff; opacity: 0.5"/>
   </g>
   <g id="patch_14">
    <path d="M 47.625477 250.156875 
L 48.532407 250.156875 
L 48.532407 245.875799 
L 47.625477 245.875799 
z
" clip-path="url(#p94505478c5)" style="fill: #1e90ff; opacity: 0.5"/>
   </g>
   <g id="patch_15">
    <path d="M 48.532407 250.156875 
L 49.439336 250.156875 
L 49.439336 244.805523 
L 48.532407 244.805523 
z
" clip-path="url(#p94505478c5)" style="fill: #1e90ff; opacity: 0.5"/>
   </g>
   <g id="patch_16">
    <path d="M 49.439336 250.156875 
L 50.346264 250.156875 
L 50.346264 241.237955 
L 49.439336 241.237955 
z
" clip-path="url(#p94505478c5)" style="fill: #1e90ff; opacity: 0.5"/>
   </g>
   <g id="patch_17">
    <path d="M 50.346264 250.156875 
L 51.253193 250.156875 
L 51.253193 247.659577 
L 50.346264 247.659577 
z
" clip-path="url(#p94505478c5)" style="fill: #1e90ff; opacity: 0.5"/>
   </g>
   <g id="patch_18">
    <path d="M 51.253193 250.156875 
L 52.160122 250.156875 
L 52.160122 247.30282 
L 51.253193 247.30282 
z
" clip-path="url(#p94505478c5)" style="fill: #1e90ff; opacity: 0.5"/>
   </g>
   <g id="patch_19">
    <path d="M 52.160122 250.156875 
L 53.067051 250.156875 
L 53.067051 246.946064 
L 52.160122 246.946064 
z
" clip-path="url(#p94505478c5)" style="fill: #1e90ff; opacity: 0.5"/>
   </g>
   <g id="patch_20">
    <path d="M 53.067051 250.156875 
L 53.97398 250.156875 
L 53.97398 246.946064 
L 53.067051 246.946064 
z
" clip-path="url(#p94505478c5)" style="fill: #1e90ff; opacity: 0.5"/>
   </g>
   <g id="patch_21">
    <path d="M 53.97398 250.156875 
L 54.880909 250.156875 
L 54.880909 249.443361 
L 53.97398 249.443361 
z
" clip-path="url(#p94505478c5)" style="fill: #1e90ff; opacity: 0.5"/>
   </g>
   <g id="patch_22">
    <path d="M 54.880909 250.156875 
L 55.787838 250.156875 
L 55.787838 249.800118 
L 54.880909 249.800118 
z
" clip-path="url(#p94505478c5)" style="fill: #1e90ff; opacity: 0.5"/>
   </g>
   <g id="patch_23">
    <path d="M 55.787838 250.156875 
L 56.694768 250.156875 
L 56.694768 249.800119 
L 55.787838 249.800119 
z
" clip-path="url(#p94505478c5)" style="fill: #1e90ff; opacity: 0.5"/>
   </g>
   <g id="patch_24">
    <path d="M 56.694768 250.156875 
L 57.601695 250.156875 
L 57.601695 249.44336 
L 56.694768 249.44336 
z
" clip-path="url(#p94505478c5)" style="fill: #1e90ff; opacity: 0.5"/>
   </g>
   <g id="patch_25">
    <path d="M 57.601695 250.156875 
L 58.508624 250.156875 
L 58.508624 248.373091 
L 57.601695 248.373091 
z
" clip-path="url(#p94505478c5)" style="fill: #1e90ff; opacity: 0.5"/>
   </g>
   <g id="patch_26">
    <path d="M 58.508624 250.156875 
L 59.415556 250.156875 
L 59.415556 249.086607 
L 58.508624 249.086607 
z
" clip-path="url(#p94505478c5)" style="fill: #1e90ff; opacity: 0.5"/>
   </g>
   <g id="patch_27">
    <path d="M 59.415556 250.156875 
L 60.322484 250.156875 
L 60.322484 250.156875 
L 59.415556 250.156875 
z
" clip-path="url(#p94505478c5)" style="fill: #1e90ff; opacity: 0.5"/>
   </g>
   <g id="patch_28">
    <path d="M 60.322484 250.156875 
L 61.229414 250.156875 
L 61.229414 250.156875 
L 60.322484 250.156875 
z
" clip-path="url(#p94505478c5)" style="fill: #1e90ff; opacity: 0.5"/>
   </g>
   <g id="patch_29">
    <path d="M 61.229414 250.156875 
L 62.136341 250.156875 
L 62.136341 250.156875 
L 61.229414 250.156875 
z
" clip-path="url(#p94505478c5)" style="fill: #1e90ff; opacity: 0.5"/>
   </g>
   <g id="patch_30">
    <path d="M 62.136341 250.156875 
L 63.043272 250.156875 
L 63.043272 249.800119 
L 62.136341 249.800119 
z
" clip-path="url(#p94505478c5)" style="fill: #1e90ff; opacity: 0.5"/>
   </g>
   <g id="patch_31">
    <path d="M 63.043272 250.156875 
L 63.950199 250.156875 
L 63.950199 250.156875 
L 63.043272 250.156875 
z
" clip-path="url(#p94505478c5)" style="fill: #1e90ff; opacity: 0.5"/>
   </g>
   <g id="patch_32">
    <path d="M 63.950199 250.156875 
L 64.85713 250.156875 
L 64.85713 249.800119 
L 63.950199 249.800119 
z
" clip-path="url(#p94505478c5)" style="fill: #1e90ff; opacity: 0.5"/>
   </g>
   <g id="patch_33">
    <path d="M 64.85713 250.156875 
L 65.764056 250.156875 
L 65.764056 249.800117 
L 64.85713 249.800117 
z
" clip-path="url(#p94505478c5)" style="fill: #1e90ff; opacity: 0.5"/>
   </g>
   <g id="patch_34">
    <path d="M 65.764056 250.156875 
L 66.670985 250.156875 
L 66.670985 249.800118 
L 65.764056 249.800118 
z
" clip-path="url(#p94505478c5)" style="fill: #1e90ff; opacity: 0.5"/>
   </g>
   <g id="matplotlib.axis_1">
    <g id="xtick_1">
     <g id="line2d_1">
      <defs>
       <path id="mabf8ddf52d" d="M 0 0 
L 0 3.5 
" style="stroke: #000000; stroke-width: 0.8"/>
      </defs>
      <g>
       <use xlink:href="#mabf8ddf52d" x="40.820313" y="250.156875" style="stroke: #000000; stroke-width: 0.8"/>
      </g>
     </g>
     <g id="text_1">
      <!-- 0e+00 -->
      <g transform="translate(7.2 272.35375) scale(0.2 -0.2)">
       <defs>
        <path id="DejaVuSans-30" d="M 2034 4250 
Q 1547 4250 1301 3770 
Q 1056 3291 1056 2328 
Q 1056 1369 1301 889 
Q 1547 409 2034 409 
Q 2525 409 2770 889 
Q 3016 1369 3016 2328 
Q 3016 3291 2770 3770 
Q 2525 4250 2034 4250 
z
M 2034 4750 
Q 2819 4750 3233 4129 
Q 3647 3509 3647 2328 
Q 3647 1150 3233 529 
Q 2819 -91 2034 -91 
Q 1250 -91 836 529 
Q 422 1150 422 2328 
Q 422 3509 836 4129 
Q 1250 4750 2034 4750 
z
" transform="scale(0.015625)"/>
        <path id="DejaVuSans-65" d="M 3597 1894 
L 3597 1613 
L 953 1613 
Q 991 1019 1311 708 
Q 1631 397 2203 397 
Q 2534 397 2845 478 
Q 3156 559 3463 722 
L 3463 178 
Q 3153 47 2828 -22 
Q 2503 -91 2169 -91 
Q 1331 -91 842 396 
Q 353 884 353 1716 
Q 353 2575 817 3079 
Q 1281 3584 2069 3584 
Q 2775 3584 3186 3129 
Q 3597 2675 3597 1894 
z
M 3022 2063 
Q 3016 2534 2758 2815 
Q 2500 3097 2075 3097 
Q 1594 3097 1305 2825 
Q 1016 2553 972 2059 
L 3022 2063 
z
" transform="scale(0.015625)"/>
        <path id="DejaVuSans-2b" d="M 2944 4013 
L 2944 2272 
L 4684 2272 
L 4684 1741 
L 2944 1741 
L 2944 0 
L 2419 0 
L 2419 1741 
L 678 1741 
L 678 2272 
L 2419 2272 
L 2419 4013 
L 2944 4013 
z
" transform="scale(0.015625)"/>
       </defs>
       <use xlink:href="#DejaVuSans-30"/>
       <use xlink:href="#DejaVuSans-65" transform="translate(63.623047 0)"/>
       <use xlink:href="#DejaVuSans-2b" transform="translate(125.146484 0)"/>
       <use xlink:href="#DejaVuSans-30" transform="translate(208.935547 0)"/>
       <use xlink:href="#DejaVuSans-30" transform="translate(272.558594 0)"/>
      </g>
     </g>
    </g>
    <g id="xtick_2">
     <g id="line2d_2">
      <g>
       <use xlink:href="#mabf8ddf52d" x="135.87241" y="250.156875" style="stroke: #000000; stroke-width: 0.8"/>
      </g>
     </g>
     <g id="text_2">
      <!-- 6e-01 -->
      <g transform="translate(107.023972 272.35375) scale(0.2 -0.2)">
       <defs>
        <path id="DejaVuSans-36" d="M 2113 2584 
Q 1688 2584 1439 2293 
Q 1191 2003 1191 1497 
Q 1191 994 1439 701 
Q 1688 409 2113 409 
Q 2538 409 2786 701 
Q 3034 994 3034 1497 
Q 3034 2003 2786 2293 
Q 2538 2584 2113 2584 
z
M 3366 4563 
L 3366 3988 
Q 3128 4100 2886 4159 
Q 2644 4219 2406 4219 
Q 1781 4219 1451 3797 
Q 1122 3375 1075 2522 
Q 1259 2794 1537 2939 
Q 1816 3084 2150 3084 
Q 2853 3084 3261 2657 
Q 3669 2231 3669 1497 
Q 3669 778 3244 343 
Q 2819 -91 2113 -91 
Q 1303 -91 875 529 
Q 447 1150 447 2328 
Q 447 3434 972 4092 
Q 1497 4750 2381 4750 
Q 2619 4750 2861 4703 
Q 3103 4656 3366 4563 
z
" transform="scale(0.015625)"/>
        <path id="DejaVuSans-2d" d="M 313 2009 
L 1997 2009 
L 1997 1497 
L 313 1497 
L 313 2009 
z
" transform="scale(0.015625)"/>
        <path id="DejaVuSans-31" d="M 794 531 
L 1825 531 
L 1825 4091 
L 703 3866 
L 703 4441 
L 1819 4666 
L 2450 4666 
L 2450 531 
L 3481 531 
L 3481 0 
L 794 0 
L 794 531 
z
" transform="scale(0.015625)"/>
       </defs>
       <use xlink:href="#DejaVuSans-36"/>
       <use xlink:href="#DejaVuSans-65" transform="translate(63.623047 0)"/>
       <use xlink:href="#DejaVuSans-2d" transform="translate(125.146484 0)"/>
       <use xlink:href="#DejaVuSans-30" transform="translate(161.230469 0)"/>
       <use xlink:href="#DejaVuSans-31" transform="translate(224.853516 0)"/>
      </g>
     </g>
    </g>
    <g id="xtick_3">
     <g id="line2d_3">
      <g>
       <use xlink:href="#mabf8ddf52d" x="230.924507" y="250.156875" style="stroke: #000000; stroke-width: 0.8"/>
      </g>
     </g>
     <g id="text_3">
      <!-- 1e+00 -->
      <g transform="translate(197.304194 272.35375) scale(0.2 -0.2)">
       <use xlink:href="#DejaVuSans-31"/>
       <use xlink:href="#DejaVuSans-65" transform="translate(63.623047 0)"/>
       <use xlink:href="#DejaVuSans-2b" transform="translate(125.146484 0)"/>
       <use xlink:href="#DejaVuSans-30" transform="translate(208.935547 0)"/>
       <use xlink:href="#DejaVuSans-30" transform="translate(272.558594 0)"/>
      </g>
     </g>
    </g>
    <g id="xtick_4">
     <g id="line2d_4">
      <g>
       <use xlink:href="#mabf8ddf52d" x="325.976604" y="250.156875" style="stroke: #000000; stroke-width: 0.8"/>
      </g>
     </g>
     <g id="text_4">
      <!-- 2e+00 -->
      <g transform="translate(292.356291 272.35375) scale(0.2 -0.2)">
       <defs>
        <path id="DejaVuSans-32" d="M 1228 531 
L 3431 531 
L 3431 0 
L 469 0 
L 469 531 
Q 828 903 1448 1529 
Q 2069 2156 2228 2338 
Q 2531 2678 2651 2914 
Q 2772 3150 2772 3378 
Q 2772 3750 2511 3984 
Q 2250 4219 1831 4219 
Q 1534 4219 1204 4116 
Q 875 4013 500 3803 
L 500 4441 
Q 881 4594 1212 4672 
Q 1544 4750 1819 4750 
Q 2544 4750 2975 4387 
Q 3406 4025 3406 3419 
Q 3406 3131 3298 2873 
Q 3191 2616 2906 2266 
Q 2828 2175 2409 1742 
Q 1991 1309 1228 531 
z
" transform="scale(0.015625)"/>
       </defs>
       <use xlink:href="#DejaVuSans-32"/>
       <use xlink:href="#DejaVuSans-65" transform="translate(63.623047 0)"/>
       <use xlink:href="#DejaVuSans-2b" transform="translate(125.146484 0)"/>
       <use xlink:href="#DejaVuSans-30" transform="translate(208.935547 0)"/>
       <use xlink:href="#DejaVuSans-30" transform="translate(272.558594 0)"/>
      </g>
     </g>
    </g>
    <g id="xtick_5">
     <g id="line2d_5">
      <g>
       <use xlink:href="#mabf8ddf52d" x="421.028701" y="250.156875" style="stroke: #000000; stroke-width: 0.8"/>
      </g>
     </g>
     <g id="text_5">
      <!-- 2e+00 -->
      <g transform="translate(387.408389 272.35375) scale(0.2 -0.2)">
       <use xlink:href="#DejaVuSans-32"/>
       <use xlink:href="#DejaVuSans-65" transform="translate(63.623047 0)"/>
       <use xlink:href="#DejaVuSans-2b" transform="translate(125.146484 0)"/>
       <use xlink:href="#DejaVuSans-30" transform="translate(208.935547 0)"/>
       <use xlink:href="#DejaVuSans-30" transform="translate(272.558594 0)"/>
      </g>
     </g>
    </g>
    <g id="xtick_6">
     <g id="line2d_6">
      <g>
       <use xlink:href="#mabf8ddf52d" x="516.080798" y="250.156875" style="stroke: #000000; stroke-width: 0.8"/>
      </g>
     </g>
     <g id="text_6">
      <!-- 3e+00 -->
      <g transform="translate(482.460486 272.35375) scale(0.2 -0.2)">
       <defs>
        <path id="DejaVuSans-33" d="M 2597 2516 
Q 3050 2419 3304 2112 
Q 3559 1806 3559 1356 
Q 3559 666 3084 287 
Q 2609 -91 1734 -91 
Q 1441 -91 1130 -33 
Q 819 25 488 141 
L 488 750 
Q 750 597 1062 519 
Q 1375 441 1716 441 
Q 2309 441 2620 675 
Q 2931 909 2931 1356 
Q 2931 1769 2642 2001 
Q 2353 2234 1838 2234 
L 1294 2234 
L 1294 2753 
L 1863 2753 
Q 2328 2753 2575 2939 
Q 2822 3125 2822 3475 
Q 2822 3834 2567 4026 
Q 2313 4219 1838 4219 
Q 1578 4219 1281 4162 
Q 984 4106 628 3988 
L 628 4550 
Q 988 4650 1302 4700 
Q 1616 4750 1894 4750 
Q 2613 4750 3031 4423 
Q 3450 4097 3450 3541 
Q 3450 3153 3228 2886 
Q 3006 2619 2597 2516 
z
" transform="scale(0.015625)"/>
       </defs>
       <use xlink:href="#DejaVuSans-33"/>
       <use xlink:href="#DejaVuSans-65" transform="translate(63.623047 0)"/>
       <use xlink:href="#DejaVuSans-2b" transform="translate(125.146484 0)"/>
       <use xlink:href="#DejaVuSans-30" transform="translate(208.935547 0)"/>
       <use xlink:href="#DejaVuSans-30" transform="translate(272.558594 0)"/>
      </g>
     </g>
    </g>
   </g>
   <g id="matplotlib.axis_2"/>
   <g id="patch_35">
    <path d="M 14.591406 250.156875 
L 521.864134 250.156875 
" style="fill: none; stroke: #000000; stroke-width: 0.8; stroke-linejoin: miter; stroke-linecap: square"/>
   </g>
   <g id="text_7">
    <!-- Level 1 -->
    <g transform="translate(232.287145 22.396875) scale(0.2 -0.2)">
     <defs>
      <path id="DejaVuSans-4c" d="M 628 4666 
L 1259 4666 
L 1259 531 
L 3531 531 
L 3531 0 
L 628 0 
L 628 4666 
z
" transform="scale(0.015625)"/>
      <path id="DejaVuSans-76" d="M 191 3500 
L 800 3500 
L 1894 563 
L 2988 3500 
L 3597 3500 
L 2284 0 
L 1503 0 
L 191 3500 
z
" transform="scale(0.015625)"/>
      <path id="DejaVuSans-6c" d="M 603 4863 
L 1178 4863 
L 1178 0 
L 603 0 
L 603 4863 
z
" transform="scale(0.015625)"/>
      <path id="DejaVuSans-20" transform="scale(0.015625)"/>
     </defs>
     <use xlink:href="#DejaVuSans-4c"/>
     <use xlink:href="#DejaVuSans-65" transform="translate(53.962891 0)"/>
     <use xlink:href="#DejaVuSans-76" transform="translate(115.486328 0)"/>
     <use xlink:href="#DejaVuSans-65" transform="translate(174.666016 0)"/>
     <use xlink:href="#DejaVuSans-6c" transform="translate(236.189453 0)"/>
     <use xlink:href="#DejaVuSans-20" transform="translate(263.972656 0)"/>
     <use xlink:href="#DejaVuSans-31" transform="translate(295.759766 0)"/>
    </g>
   </g>
   <g id="legend_1">
    <g id="patch_36">
     <path d="M 419.264134 103.109375 
L 507.864134 103.109375 
Q 511.864134 103.109375 511.864134 99.109375 
L 511.864134 42.396875 
Q 511.864134 38.396875 507.864134 38.396875 
L 419.264134 38.396875 
Q 415.264134 38.396875 415.264134 42.396875 
L 415.264134 99.109375 
Q 415.264134 103.109375 419.264134 103.109375 
z
" style="fill: #ffffff; opacity: 0.8; stroke: #cccccc; stroke-linejoin: miter"/>
    </g>
    <g id="patch_37">
     <path d="M 423.264134 61.59375 
L 463.264134 61.59375 
L 463.264134 47.59375 
L 423.264134 47.59375 
z
" style="fill: #1e90ff; opacity: 0.5"/>
    </g>
    <g id="text_8">
     <!-- $H_0$ -->
     <g transform="translate(479.264134 61.59375) scale(0.2 -0.2)">
      <defs>
       <path id="DejaVuSans-Oblique-48" d="M 1081 4666 
L 1716 4666 
L 1344 2753 
L 3634 2753 
L 4006 4666 
L 4641 4666 
L 3731 0 
L 3097 0 
L 3531 2222 
L 1241 2222 
L 806 0 
L 172 0 
L 1081 4666 
z
" transform="scale(0.015625)"/>
      </defs>
      <use xlink:href="#DejaVuSans-Oblique-48" transform="translate(0 0.09375)"/>
      <use xlink:href="#DejaVuSans-30" transform="translate(75.195312 -16.3125) scale(0.7)"/>
     </g>
    </g>
    <g id="patch_38">
     <path d="M 423.264134 90.95 
L 463.264134 90.95 
L 463.264134 76.95 
L 423.264134 76.95 
z
" style="fill: #ff6347; opacity: 0.5"/>
    </g>
    <g id="text_9">
     <!-- $H_1$ -->
     <g transform="translate(479.264134 90.95) scale(0.2 -0.2)">
      <use xlink:href="#DejaVuSans-Oblique-48" transform="translate(0 0.09375)"/>
      <use xlink:href="#DejaVuSans-31" transform="translate(75.195312 -16.3125) scale(0.7)"/>
     </g>
    </g>
   </g>
  </g>
  <g id="axes_2">
   <g id="patch_39">
    <path d="M 623.318679 250.156875 
L 1130.591406 250.156875 
L 1130.591406 28.396875 
L 623.318679 28.396875 
z
" style="fill: #ffffff"/>
   </g>
   <g id="patch_40">
    <path d="M 646.37653 250.156875 
L 647.052774 250.156875 
L 647.052774 248.455936 
L 646.37653 248.455936 
z
" clip-path="url(#pc86bfcfd2d)" style="fill: #1e90ff; opacity: 0.5"/>
   </g>
   <g id="patch_41">
    <path d="M 647.052774 250.156875 
L 647.729018 250.156875 
L 647.729018 201.113117 
L 647.052774 201.113117 
z
" clip-path="url(#pc86bfcfd2d)" style="fill: #1e90ff; opacity: 0.5"/>
   </g>
   <g id="patch_42">
    <path d="M 647.729018 250.156875 
L 648.405261 250.156875 
L 648.405261 38.956875 
L 647.729018 38.956875 
z
" clip-path="url(#pc86bfcfd2d)" style="fill: #1e90ff; opacity: 0.5"/>
   </g>
   <g id="patch_43">
    <path d="M 648.405261 250.156875 
L 649.081505 250.156875 
L 649.081505 155.471253 
L 648.405261 155.471253 
z
" clip-path="url(#pc86bfcfd2d)" style="fill: #1e90ff; opacity: 0.5"/>
   </g>
   <g id="patch_44">
    <path d="M 649.081505 250.156875 
L 649.757748 250.156875 
L 649.757748 186.93863 
L 649.081505 186.93863 
z
" clip-path="url(#pc86bfcfd2d)" style="fill: #1e90ff; opacity: 0.5"/>
   </g>
   <g id="patch_45">
    <path d="M 649.757748 250.156875 
L 650.433992 250.156875 
L 650.433992 209.334318 
L 649.757748 209.334318 
z
" clip-path="url(#pc86bfcfd2d)" style="fill: #1e90ff; opacity: 0.5"/>
   </g>
   <g id="patch_46">
    <path d="M 650.433992 250.156875 
L 651.110236 250.156875 
L 651.110236 220.106947 
L 650.433992 220.106947 
z
" clip-path="url(#pc86bfcfd2d)" style="fill: #1e90ff; opacity: 0.5"/>
   </g>
   <g id="patch_47">
    <path d="M 651.110236 250.156875 
L 651.786479 250.156875 
L 651.786479 227.477684 
L 651.110236 227.477684 
z
" clip-path="url(#pc86bfcfd2d)" style="fill: #1e90ff; opacity: 0.5"/>
   </g>
   <g id="patch_48">
    <path d="M 651.786479 250.156875 
L 652.462723 250.156875 
L 652.462723 237.68332 
L 651.786479 237.68332 
z
" clip-path="url(#pc86bfcfd2d)" style="fill: #1e90ff; opacity: 0.5"/>
   </g>
   <g id="patch_49">
    <path d="M 652.462723 250.156875 
L 653.138966 250.156875 
L 653.138966 237.116336 
L 652.462723 237.116336 
z
" clip-path="url(#pc86bfcfd2d)" style="fill: #1e90ff; opacity: 0.5"/>
   </g>
   <g id="patch_50">
    <path d="M 653.138966 250.156875 
L 653.81521 250.156875 
L 653.81521 241.368694 
L 653.138966 241.368694 
z
" clip-path="url(#pc86bfcfd2d)" style="fill: #1e90ff; opacity: 0.5"/>
   </g>
   <g id="patch_51">
    <path d="M 653.81521 250.156875 
L 654.491453 250.156875 
L 654.491453 242.502643 
L 653.81521 242.502643 
z
" clip-path="url(#pc86bfcfd2d)" style="fill: #1e90ff; opacity: 0.5"/>
   </g>
   <g id="patch_52">
    <path d="M 654.491453 250.156875 
L 655.167698 250.156875 
L 655.167698 245.904529 
L 654.491453 245.904529 
z
" clip-path="url(#pc86bfcfd2d)" style="fill: #1e90ff; opacity: 0.5"/>
   </g>
   <g id="patch_53">
    <path d="M 655.167698 250.156875 
L 655.843941 250.156875 
L 655.843941 245.054054 
L 655.167698 245.054054 
z
" clip-path="url(#pc86bfcfd2d)" style="fill: #1e90ff; opacity: 0.5"/>
   </g>
   <g id="patch_54">
    <path d="M 655.843941 250.156875 
L 656.520185 250.156875 
L 656.520185 246.188019 
L 655.843941 246.188019 
z
" clip-path="url(#pc86bfcfd2d)" style="fill: #1e90ff; opacity: 0.5"/>
   </g>
   <g id="patch_55">
    <path d="M 656.520185 250.156875 
L 657.196428 250.156875 
L 657.196428 246.754994 
L 656.520185 246.754994 
z
" clip-path="url(#pc86bfcfd2d)" style="fill: #1e90ff; opacity: 0.5"/>
   </g>
   <g id="patch_56">
    <path d="M 657.196428 250.156875 
L 657.872671 250.156875 
L 657.872671 247.605464 
L 657.196428 247.605464 
z
" clip-path="url(#pc86bfcfd2d)" style="fill: #1e90ff; opacity: 0.5"/>
   </g>
   <g id="patch_57">
    <path d="M 657.872671 250.156875 
L 658.548915 250.156875 
L 658.548915 248.455937 
L 657.872671 248.455937 
z
" clip-path="url(#pc86bfcfd2d)" style="fill: #1e90ff; opacity: 0.5"/>
   </g>
   <g id="patch_58">
    <path d="M 658.548915 250.156875 
L 659.225159 250.156875 
L 659.225159 249.589895 
L 658.548915 249.589895 
z
" clip-path="url(#pc86bfcfd2d)" style="fill: #1e90ff; opacity: 0.5"/>
   </g>
   <g id="patch_59">
    <path d="M 659.225159 250.156875 
L 659.901403 250.156875 
L 659.901403 249.589896 
L 659.225159 249.589896 
z
" clip-path="url(#pc86bfcfd2d)" style="fill: #1e90ff; opacity: 0.5"/>
   </g>
   <g id="patch_60">
    <path d="M 659.901403 250.156875 
L 660.577646 250.156875 
L 660.577646 249.589895 
L 659.901403 249.589895 
z
" clip-path="url(#pc86bfcfd2d)" style="fill: #1e90ff; opacity: 0.5"/>
   </g>
   <g id="patch_61">
    <path d="M 660.577646 250.156875 
L 661.25389 250.156875 
L 661.25389 249.873385 
L 660.577646 249.873385 
z
" clip-path="url(#pc86bfcfd2d)" style="fill: #1e90ff; opacity: 0.5"/>
   </g>
   <g id="patch_62">
    <path d="M 661.25389 250.156875 
L 661.930134 250.156875 
L 661.930134 249.589896 
L 661.25389 249.589896 
z
" clip-path="url(#pc86bfcfd2d)" style="fill: #1e90ff; opacity: 0.5"/>
   </g>
   <g id="patch_63">
    <path d="M 661.930134 250.156875 
L 662.606376 250.156875 
L 662.606376 249.589894 
L 661.930134 249.589894 
z
" clip-path="url(#pc86bfcfd2d)" style="fill: #1e90ff; opacity: 0.5"/>
   </g>
   <g id="patch_64">
    <path d="M 662.606376 250.156875 
L 663.28262 250.156875 
L 663.28262 250.156875 
L 662.606376 250.156875 
z
" clip-path="url(#pc86bfcfd2d)" style="fill: #1e90ff; opacity: 0.5"/>
   </g>
   <g id="patch_65">
    <path d="M 663.28262 250.156875 
L 663.958864 250.156875 
L 663.958864 249.873385 
L 663.28262 249.873385 
z
" clip-path="url(#pc86bfcfd2d)" style="fill: #1e90ff; opacity: 0.5"/>
   </g>
   <g id="patch_66">
    <path d="M 663.958864 250.156875 
L 664.635107 250.156875 
L 664.635107 249.873385 
L 663.958864 249.873385 
z
" clip-path="url(#pc86bfcfd2d)" style="fill: #1e90ff; opacity: 0.5"/>
   </g>
   <g id="patch_67">
    <path d="M 664.635107 250.156875 
L 665.311351 250.156875 
L 665.311351 250.156875 
L 664.635107 250.156875 
z
" clip-path="url(#pc86bfcfd2d)" style="fill: #1e90ff; opacity: 0.5"/>
   </g>
   <g id="patch_68">
    <path d="M 665.311351 250.156875 
L 665.987595 250.156875 
L 665.987595 250.156875 
L 665.311351 250.156875 
z
" clip-path="url(#pc86bfcfd2d)" style="fill: #1e90ff; opacity: 0.5"/>
   </g>
   <g id="patch_69">
    <path d="M 665.987595 250.156875 
L 666.663839 250.156875 
L 666.663839 250.156875 
L 665.987595 250.156875 
z
" clip-path="url(#pc86bfcfd2d)" style="fill: #1e90ff; opacity: 0.5"/>
   </g>
   <g id="patch_70">
    <path d="M 666.663839 250.156875 
L 667.340081 250.156875 
L 667.340081 250.156875 
L 666.663839 250.156875 
z
" clip-path="url(#pc86bfcfd2d)" style="fill: #1e90ff; opacity: 0.5"/>
   </g>
   <g id="patch_71">
    <path d="M 667.340081 250.156875 
L 668.016325 250.156875 
L 668.016325 249.589896 
L 667.340081 249.589896 
z
" clip-path="url(#pc86bfcfd2d)" style="fill: #1e90ff; opacity: 0.5"/>
   </g>
   <g id="matplotlib.axis_3">
    <g id="xtick_7">
     <g id="line2d_7">
      <g>
       <use xlink:href="#mabf8ddf52d" x="649.43505" y="250.156875" style="stroke: #000000; stroke-width: 0.8"/>
      </g>
     </g>
     <g id="text_10">
      <!-- 0e+00 -->
      <g transform="translate(615.814738 272.35375) scale(0.2 -0.2)">
       <use xlink:href="#DejaVuSans-30"/>
       <use xlink:href="#DejaVuSans-65" transform="translate(63.623047 0)"/>
       <use xlink:href="#DejaVuSans-2b" transform="translate(125.146484 0)"/>
       <use xlink:href="#DejaVuSans-30" transform="translate(208.935547 0)"/>
       <use xlink:href="#DejaVuSans-30" transform="translate(272.558594 0)"/>
      </g>
     </g>
    </g>
    <g id="xtick_8">
     <g id="line2d_8">
      <g>
       <use xlink:href="#mabf8ddf52d" x="737.208154" y="250.156875" style="stroke: #000000; stroke-width: 0.8"/>
      </g>
     </g>
     <g id="text_11">
      <!-- 6e+00 -->
      <g transform="translate(703.587842 272.35375) scale(0.2 -0.2)">
       <use xlink:href="#DejaVuSans-36"/>
       <use xlink:href="#DejaVuSans-65" transform="translate(63.623047 0)"/>
       <use xlink:href="#DejaVuSans-2b" transform="translate(125.146484 0)"/>
       <use xlink:href="#DejaVuSans-30" transform="translate(208.935547 0)"/>
       <use xlink:href="#DejaVuSans-30" transform="translate(272.558594 0)"/>
      </g>
     </g>
    </g>
    <g id="xtick_9">
     <g id="line2d_9">
      <g>
       <use xlink:href="#mabf8ddf52d" x="824.981259" y="250.156875" style="stroke: #000000; stroke-width: 0.8"/>
      </g>
     </g>
     <g id="text_12">
      <!-- 1e+01 -->
      <g transform="translate(791.360946 272.35375) scale(0.2 -0.2)">
       <use xlink:href="#DejaVuSans-31"/>
       <use xlink:href="#DejaVuSans-65" transform="translate(63.623047 0)"/>
       <use xlink:href="#DejaVuSans-2b" transform="translate(125.146484 0)"/>
       <use xlink:href="#DejaVuSans-30" transform="translate(208.935547 0)"/>
       <use xlink:href="#DejaVuSans-31" transform="translate(272.558594 0)"/>
      </g>
     </g>
    </g>
    <g id="xtick_10">
     <g id="line2d_10">
      <g>
       <use xlink:href="#mabf8ddf52d" x="912.754363" y="250.156875" style="stroke: #000000; stroke-width: 0.8"/>
      </g>
     </g>
     <g id="text_13">
      <!-- 2e+01 -->
      <g transform="translate(879.13405 272.35375) scale(0.2 -0.2)">
       <use xlink:href="#DejaVuSans-32"/>
       <use xlink:href="#DejaVuSans-65" transform="translate(63.623047 0)"/>
       <use xlink:href="#DejaVuSans-2b" transform="translate(125.146484 0)"/>
       <use xlink:href="#DejaVuSans-30" transform="translate(208.935547 0)"/>
       <use xlink:href="#DejaVuSans-31" transform="translate(272.558594 0)"/>
      </g>
     </g>
    </g>
    <g id="xtick_11">
     <g id="line2d_11">
      <g>
       <use xlink:href="#mabf8ddf52d" x="1000.527467" y="250.156875" style="stroke: #000000; stroke-width: 0.8"/>
      </g>
     </g>
     <g id="text_14">
      <!-- 2e+01 -->
      <g transform="translate(966.907154 272.35375) scale(0.2 -0.2)">
       <use xlink:href="#DejaVuSans-32"/>
       <use xlink:href="#DejaVuSans-65" transform="translate(63.623047 0)"/>
       <use xlink:href="#DejaVuSans-2b" transform="translate(125.146484 0)"/>
       <use xlink:href="#DejaVuSans-30" transform="translate(208.935547 0)"/>
       <use xlink:href="#DejaVuSans-31" transform="translate(272.558594 0)"/>
      </g>
     </g>
    </g>
    <g id="xtick_12">
     <g id="line2d_12">
      <g>
       <use xlink:href="#mabf8ddf52d" x="1088.300571" y="250.156875" style="stroke: #000000; stroke-width: 0.8"/>
      </g>
     </g>
     <g id="text_15">
      <!-- 3e+01 -->
      <g transform="translate(1054.680258 272.35375) scale(0.2 -0.2)">
       <use xlink:href="#DejaVuSans-33"/>
       <use xlink:href="#DejaVuSans-65" transform="translate(63.623047 0)"/>
       <use xlink:href="#DejaVuSans-2b" transform="translate(125.146484 0)"/>
       <use xlink:href="#DejaVuSans-30" transform="translate(208.935547 0)"/>
       <use xlink:href="#DejaVuSans-31" transform="translate(272.558594 0)"/>
      </g>
     </g>
    </g>
   </g>
   <g id="matplotlib.axis_4"/>
   <g id="patch_72">
    <path d="M 623.318679 250.156875 
L 1130.591406 250.156875 
" style="fill: none; stroke: #000000; stroke-width: 0.8; stroke-linejoin: miter; stroke-linecap: square"/>
   </g>
   <g id="text_16">
    <!-- Level 2 -->
    <g transform="translate(841.014418 22.396875) scale(0.2 -0.2)">
     <use xlink:href="#DejaVuSans-4c"/>
     <use xlink:href="#DejaVuSans-65" transform="translate(53.962891 0)"/>
     <use xlink:href="#DejaVuSans-76" transform="translate(115.486328 0)"/>
     <use xlink:href="#DejaVuSans-65" transform="translate(174.666016 0)"/>
     <use xlink:href="#DejaVuSans-6c" transform="translate(236.189453 0)"/>
     <use xlink:href="#DejaVuSans-20" transform="translate(263.972656 0)"/>
     <use xlink:href="#DejaVuSans-32" transform="translate(295.759766 0)"/>
    </g>
   </g>
   <g id="legend_2">
    <g id="patch_73">
     <path d="M 1027.991406 103.109375 
L 1116.591406 103.109375 
Q 1120.591406 103.109375 1120.591406 99.109375 
L 1120.591406 42.396875 
Q 1120.591406 38.396875 1116.591406 38.396875 
L 1027.991406 38.396875 
Q 1023.991406 38.396875 1023.991406 42.396875 
L 1023.991406 99.109375 
Q 1023.991406 103.109375 1027.991406 103.109375 
z
" style="fill: #ffffff; opacity: 0.8; stroke: #cccccc; stroke-linejoin: miter"/>
    </g>
    <g id="patch_74">
     <path d="M 1031.991406 61.59375 
L 1071.991406 61.59375 
L 1071.991406 47.59375 
L 1031.991406 47.59375 
z
" style="fill: #1e90ff; opacity: 0.5"/>
    </g>
    <g id="text_17">
     <!-- $H_0$ -->
     <g transform="translate(1087.991406 61.59375) scale(0.2 -0.2)">
      <use xlink:href="#DejaVuSans-Oblique-48" transform="translate(0 0.09375)"/>
      <use xlink:href="#DejaVuSans-30" transform="translate(75.195312 -16.3125) scale(0.7)"/>
     </g>
    </g>
    <g id="patch_75">
     <path d="M 1031.991406 90.95 
L 1071.991406 90.95 
L 1071.991406 76.95 
L 1031.991406 76.95 
z
" style="fill: #ff6347; opacity: 0.5"/>
    </g>
    <g id="text_18">
     <!-- $H_1$ -->
     <g transform="translate(1087.991406 90.95) scale(0.2 -0.2)">
      <use xlink:href="#DejaVuSans-Oblique-48" transform="translate(0 0.09375)"/>
      <use xlink:href="#DejaVuSans-31" transform="translate(75.195312 -16.3125) scale(0.7)"/>
     </g>
    </g>
   </g>
  </g>
  <g id="axes_3">
   <g id="patch_76">
    <path d="M 14.591406 582.796875 
L 521.864134 582.796875 
L 521.864134 361.036875 
L 14.591406 361.036875 
z
" style="fill: #ffffff"/>
   </g>
   <g id="patch_77">
    <path d="M 37.649258 582.796875 
L 38.19263 582.796875 
L 38.19263 582.494729 
L 37.649258 582.494729 
z
" clip-path="url(#pfcec982914)" style="fill: #1e90ff; opacity: 0.5"/>
   </g>
   <g id="patch_78">
    <path d="M 38.19263 582.796875 
L 38.736002 582.796875 
L 38.736002 582.494729 
L 38.19263 582.494729 
z
" clip-path="url(#pfcec982914)" style="fill: #1e90ff; opacity: 0.5"/>
   </g>
   <g id="patch_79">
    <path d="M 38.736002 582.796875 
L 39.279373 582.796875 
L 39.279373 579.775416 
L 38.736002 579.775416 
z
" clip-path="url(#pfcec982914)" style="fill: #1e90ff; opacity: 0.5"/>
   </g>
   <g id="patch_80">
    <path d="M 39.279373 582.796875 
L 39.822745 582.796875 
L 39.822745 573.430355 
L 39.279373 573.430355 
z
" clip-path="url(#pfcec982914)" style="fill: #1e90ff; opacity: 0.5"/>
   </g>
   <g id="patch_81">
    <path d="M 39.822745 582.796875 
L 40.366117 582.796875 
L 40.366117 530.827798 
L 39.822745 530.827798 
z
" clip-path="url(#pfcec982914)" style="fill: #1e90ff; opacity: 0.5"/>
   </g>
   <g id="patch_82">
    <path d="M 40.366117 582.796875 
L 40.909489 582.796875 
L 40.909489 371.596875 
L 40.366117 371.596875 
z
" clip-path="url(#pfcec982914)" style="fill: #1e90ff; opacity: 0.5"/>
   </g>
   <g id="patch_83">
    <path d="M 40.909489 582.796875 
L 41.452861 582.796875 
L 41.452861 458.312755 
L 40.909489 458.312755 
z
" clip-path="url(#pfcec982914)" style="fill: #1e90ff; opacity: 0.5"/>
   </g>
   <g id="patch_84">
    <path d="M 41.452861 582.796875 
L 41.996233 582.796875 
L 41.996233 516.022654 
L 41.452861 516.022654 
z
" clip-path="url(#pfcec982914)" style="fill: #1e90ff; opacity: 0.5"/>
   </g>
   <g id="patch_85">
    <path d="M 41.996233 582.796875 
L 42.539605 582.796875 
L 42.539605 540.194318 
L 41.996233 540.194318 
z
" clip-path="url(#pfcec982914)" style="fill: #1e90ff; opacity: 0.5"/>
   </g>
   <g id="patch_86">
    <path d="M 42.539605 582.796875 
L 43.082977 582.796875 
L 43.082977 552.582296 
L 42.539605 552.582296 
z
" clip-path="url(#pfcec982914)" style="fill: #1e90ff; opacity: 0.5"/>
   </g>
   <g id="patch_87">
    <path d="M 43.082977 582.796875 
L 43.626349 582.796875 
L 43.626349 561.646651 
L 43.082977 561.646651 
z
" clip-path="url(#pfcec982914)" style="fill: #1e90ff; opacity: 0.5"/>
   </g>
   <g id="patch_88">
    <path d="M 43.626349 582.796875 
L 44.169721 582.796875 
L 44.169721 567.085294 
L 43.626349 567.085294 
z
" clip-path="url(#pfcec982914)" style="fill: #1e90ff; opacity: 0.5"/>
   </g>
   <g id="patch_89">
    <path d="M 44.169721 582.796875 
L 44.713093 582.796875 
L 44.713093 572.826064 
L 44.169721 572.826064 
z
" clip-path="url(#pfcec982914)" style="fill: #1e90ff; opacity: 0.5"/>
   </g>
   <g id="patch_90">
    <path d="M 44.713093 582.796875 
L 45.256464 582.796875 
L 45.256464 574.638932 
L 44.713093 574.638932 
z
" clip-path="url(#pfcec982914)" style="fill: #1e90ff; opacity: 0.5"/>
   </g>
   <g id="patch_91">
    <path d="M 45.256464 582.796875 
L 45.799836 582.796875 
L 45.799836 576.451813 
L 45.256464 576.451813 
z
" clip-path="url(#pfcec982914)" style="fill: #1e90ff; opacity: 0.5"/>
   </g>
   <g id="patch_92">
    <path d="M 45.799836 582.796875 
L 46.343208 582.796875 
L 46.343208 580.379709 
L 45.799836 580.379709 
z
" clip-path="url(#pfcec982914)" style="fill: #1e90ff; opacity: 0.5"/>
   </g>
   <g id="patch_93">
    <path d="M 46.343208 582.796875 
L 46.88658 582.796875 
L 46.88658 577.056105 
L 46.343208 577.056105 
z
" clip-path="url(#pfcec982914)" style="fill: #1e90ff; opacity: 0.5"/>
   </g>
   <g id="patch_94">
    <path d="M 46.88658 582.796875 
L 47.429952 582.796875 
L 47.429952 580.984 
L 46.88658 580.984 
z
" clip-path="url(#pfcec982914)" style="fill: #1e90ff; opacity: 0.5"/>
   </g>
   <g id="patch_95">
    <path d="M 47.429952 582.796875 
L 47.973324 582.796875 
L 47.973324 580.379709 
L 47.429952 580.379709 
z
" clip-path="url(#pfcec982914)" style="fill: #1e90ff; opacity: 0.5"/>
   </g>
   <g id="patch_96">
    <path d="M 47.973324 582.796875 
L 48.516696 582.796875 
L 48.516696 581.588292 
L 47.973324 581.588292 
z
" clip-path="url(#pfcec982914)" style="fill: #1e90ff; opacity: 0.5"/>
   </g>
   <g id="patch_97">
    <path d="M 48.516696 582.796875 
L 49.060068 582.796875 
L 49.060068 582.494729 
L 48.516696 582.494729 
z
" clip-path="url(#pfcec982914)" style="fill: #1e90ff; opacity: 0.5"/>
   </g>
   <g id="patch_98">
    <path d="M 49.060068 582.796875 
L 49.60344 582.796875 
L 49.60344 582.192584 
L 49.060068 582.192584 
z
" clip-path="url(#pfcec982914)" style="fill: #1e90ff; opacity: 0.5"/>
   </g>
   <g id="patch_99">
    <path d="M 49.60344 582.796875 
L 50.146812 582.796875 
L 50.146812 582.796875 
L 49.60344 582.796875 
z
" clip-path="url(#pfcec982914)" style="fill: #1e90ff; opacity: 0.5"/>
   </g>
   <g id="patch_100">
    <path d="M 50.146812 582.796875 
L 50.690184 582.796875 
L 50.690184 582.494729 
L 50.146812 582.494729 
z
" clip-path="url(#pfcec982914)" style="fill: #1e90ff; opacity: 0.5"/>
   </g>
   <g id="patch_101">
    <path d="M 50.690184 582.796875 
L 51.233556 582.796875 
L 51.233556 582.494729 
L 50.690184 582.494729 
z
" clip-path="url(#pfcec982914)" style="fill: #1e90ff; opacity: 0.5"/>
   </g>
   <g id="patch_102">
    <path d="M 51.233556 582.796875 
L 51.776928 582.796875 
L 51.776928 582.192583 
L 51.233556 582.192583 
z
" clip-path="url(#pfcec982914)" style="fill: #1e90ff; opacity: 0.5"/>
   </g>
   <g id="patch_103">
    <path d="M 51.776928 582.796875 
L 52.3203 582.796875 
L 52.3203 582.796875 
L 51.776928 582.796875 
z
" clip-path="url(#pfcec982914)" style="fill: #1e90ff; opacity: 0.5"/>
   </g>
   <g id="patch_104">
    <path d="M 52.3203 582.796875 
L 52.86367 582.796875 
L 52.86367 582.796875 
L 52.3203 582.796875 
z
" clip-path="url(#pfcec982914)" style="fill: #1e90ff; opacity: 0.5"/>
   </g>
   <g id="patch_105">
    <path d="M 52.86367 582.796875 
L 53.407042 582.796875 
L 53.407042 582.494729 
L 52.86367 582.494729 
z
" clip-path="url(#pfcec982914)" style="fill: #1e90ff; opacity: 0.5"/>
   </g>
   <g id="patch_106">
    <path d="M 53.407042 582.796875 
L 53.950414 582.796875 
L 53.950414 582.192583 
L 53.407042 582.192583 
z
" clip-path="url(#pfcec982914)" style="fill: #1e90ff; opacity: 0.5"/>
   </g>
   <g id="patch_107">
    <path d="M 53.950414 582.796875 
L 54.493786 582.796875 
L 54.493786 582.796875 
L 53.950414 582.796875 
z
" clip-path="url(#pfcec982914)" style="fill: #1e90ff; opacity: 0.5"/>
   </g>
   <g id="patch_108">
    <path d="M 54.493786 582.796875 
L 55.037158 582.796875 
L 55.037158 582.192583 
L 54.493786 582.192583 
z
" clip-path="url(#pfcec982914)" style="fill: #1e90ff; opacity: 0.5"/>
   </g>
   <g id="matplotlib.axis_5">
    <g id="xtick_13">
     <g id="line2d_13">
      <g>
       <use xlink:href="#mabf8ddf52d" x="41.559442" y="582.796875" style="stroke: #000000; stroke-width: 0.8"/>
      </g>
     </g>
     <g id="text_19">
      <!-- 0e+00 -->
      <g transform="translate(7.93913 604.99375) scale(0.2 -0.2)">
       <use xlink:href="#DejaVuSans-30"/>
       <use xlink:href="#DejaVuSans-65" transform="translate(63.623047 0)"/>
       <use xlink:href="#DejaVuSans-2b" transform="translate(125.146484 0)"/>
       <use xlink:href="#DejaVuSans-30" transform="translate(208.935547 0)"/>
       <use xlink:href="#DejaVuSans-30" transform="translate(272.558594 0)"/>
      </g>
     </g>
    </g>
    <g id="xtick_14">
     <g id="line2d_14">
      <g>
       <use xlink:href="#mabf8ddf52d" x="138.162517" y="582.796875" style="stroke: #000000; stroke-width: 0.8"/>
      </g>
     </g>
     <g id="text_20">
      <!-- 2e+01 -->
      <g transform="translate(104.542205 604.99375) scale(0.2 -0.2)">
       <use xlink:href="#DejaVuSans-32"/>
       <use xlink:href="#DejaVuSans-65" transform="translate(63.623047 0)"/>
       <use xlink:href="#DejaVuSans-2b" transform="translate(125.146484 0)"/>
       <use xlink:href="#DejaVuSans-30" transform="translate(208.935547 0)"/>
       <use xlink:href="#DejaVuSans-31" transform="translate(272.558594 0)"/>
      </g>
     </g>
    </g>
    <g id="xtick_15">
     <g id="line2d_15">
      <g>
       <use xlink:href="#mabf8ddf52d" x="234.765592" y="582.796875" style="stroke: #000000; stroke-width: 0.8"/>
      </g>
     </g>
     <g id="text_21">
      <!-- 5e+01 -->
      <g transform="translate(201.14528 604.99375) scale(0.2 -0.2)">
       <defs>
        <path id="DejaVuSans-35" d="M 691 4666 
L 3169 4666 
L 3169 4134 
L 1269 4134 
L 1269 2991 
Q 1406 3038 1543 3061 
Q 1681 3084 1819 3084 
Q 2600 3084 3056 2656 
Q 3513 2228 3513 1497 
Q 3513 744 3044 326 
Q 2575 -91 1722 -91 
Q 1428 -91 1123 -41 
Q 819 9 494 109 
L 494 744 
Q 775 591 1075 516 
Q 1375 441 1709 441 
Q 2250 441 2565 725 
Q 2881 1009 2881 1497 
Q 2881 1984 2565 2268 
Q 2250 2553 1709 2553 
Q 1456 2553 1204 2497 
Q 953 2441 691 2322 
L 691 4666 
z
" transform="scale(0.015625)"/>
       </defs>
       <use xlink:href="#DejaVuSans-35"/>
       <use xlink:href="#DejaVuSans-65" transform="translate(63.623047 0)"/>
       <use xlink:href="#DejaVuSans-2b" transform="translate(125.146484 0)"/>
       <use xlink:href="#DejaVuSans-30" transform="translate(208.935547 0)"/>
       <use xlink:href="#DejaVuSans-31" transform="translate(272.558594 0)"/>
      </g>
     </g>
    </g>
    <g id="xtick_16">
     <g id="line2d_16">
      <g>
       <use xlink:href="#mabf8ddf52d" x="331.368667" y="582.796875" style="stroke: #000000; stroke-width: 0.8"/>
      </g>
     </g>
     <g id="text_22">
      <!-- 8e+01 -->
      <g transform="translate(297.748354 604.99375) scale(0.2 -0.2)">
       <defs>
        <path id="DejaVuSans-38" d="M 2034 2216 
Q 1584 2216 1326 1975 
Q 1069 1734 1069 1313 
Q 1069 891 1326 650 
Q 1584 409 2034 409 
Q 2484 409 2743 651 
Q 3003 894 3003 1313 
Q 3003 1734 2745 1975 
Q 2488 2216 2034 2216 
z
M 1403 2484 
Q 997 2584 770 2862 
Q 544 3141 544 3541 
Q 544 4100 942 4425 
Q 1341 4750 2034 4750 
Q 2731 4750 3128 4425 
Q 3525 4100 3525 3541 
Q 3525 3141 3298 2862 
Q 3072 2584 2669 2484 
Q 3125 2378 3379 2068 
Q 3634 1759 3634 1313 
Q 3634 634 3220 271 
Q 2806 -91 2034 -91 
Q 1263 -91 848 271 
Q 434 634 434 1313 
Q 434 1759 690 2068 
Q 947 2378 1403 2484 
z
M 1172 3481 
Q 1172 3119 1398 2916 
Q 1625 2713 2034 2713 
Q 2441 2713 2670 2916 
Q 2900 3119 2900 3481 
Q 2900 3844 2670 4047 
Q 2441 4250 2034 4250 
Q 1625 4250 1398 4047 
Q 1172 3844 1172 3481 
z
" transform="scale(0.015625)"/>
       </defs>
       <use xlink:href="#DejaVuSans-38"/>
       <use xlink:href="#DejaVuSans-65" transform="translate(63.623047 0)"/>
       <use xlink:href="#DejaVuSans-2b" transform="translate(125.146484 0)"/>
       <use xlink:href="#DejaVuSans-30" transform="translate(208.935547 0)"/>
       <use xlink:href="#DejaVuSans-31" transform="translate(272.558594 0)"/>
      </g>
     </g>
    </g>
    <g id="xtick_17">
     <g id="line2d_17">
      <g>
       <use xlink:href="#mabf8ddf52d" x="427.971742" y="582.796875" style="stroke: #000000; stroke-width: 0.8"/>
      </g>
     </g>
     <g id="text_23">
      <!-- 1e+02 -->
      <g transform="translate(394.351429 604.99375) scale(0.2 -0.2)">
       <use xlink:href="#DejaVuSans-31"/>
       <use xlink:href="#DejaVuSans-65" transform="translate(63.623047 0)"/>
       <use xlink:href="#DejaVuSans-2b" transform="translate(125.146484 0)"/>
       <use xlink:href="#DejaVuSans-30" transform="translate(208.935547 0)"/>
       <use xlink:href="#DejaVuSans-32" transform="translate(272.558594 0)"/>
      </g>
     </g>
    </g>
   </g>
   <g id="matplotlib.axis_6"/>
   <g id="patch_109">
    <path d="M 14.591406 582.796875 
L 521.864134 582.796875 
" style="fill: none; stroke: #000000; stroke-width: 0.8; stroke-linejoin: miter; stroke-linecap: square"/>
   </g>
   <g id="text_24">
    <!-- Level 3 -->
    <g transform="translate(232.287145 355.036875) scale(0.2 -0.2)">
     <use xlink:href="#DejaVuSans-4c"/>
     <use xlink:href="#DejaVuSans-65" transform="translate(53.962891 0)"/>
     <use xlink:href="#DejaVuSans-76" transform="translate(115.486328 0)"/>
     <use xlink:href="#DejaVuSans-65" transform="translate(174.666016 0)"/>
     <use xlink:href="#DejaVuSans-6c" transform="translate(236.189453 0)"/>
     <use xlink:href="#DejaVuSans-20" transform="translate(263.972656 0)"/>
     <use xlink:href="#DejaVuSans-33" transform="translate(295.759766 0)"/>
    </g>
   </g>
   <g id="legend_3">
    <g id="patch_110">
     <path d="M 419.264134 435.749375 
L 507.864134 435.749375 
Q 511.864134 435.749375 511.864134 431.749375 
L 511.864134 375.036875 
Q 511.864134 371.036875 507.864134 371.036875 
L 419.264134 371.036875 
Q 415.264134 371.036875 415.264134 375.036875 
L 415.264134 431.749375 
Q 415.264134 435.749375 419.264134 435.749375 
z
" style="fill: #ffffff; opacity: 0.8; stroke: #cccccc; stroke-linejoin: miter"/>
    </g>
    <g id="patch_111">
     <path d="M 423.264134 394.23375 
L 463.264134 394.23375 
L 463.264134 380.23375 
L 423.264134 380.23375 
z
" style="fill: #1e90ff; opacity: 0.5"/>
    </g>
    <g id="text_25">
     <!-- $H_0$ -->
     <g transform="translate(479.264134 394.23375) scale(0.2 -0.2)">
      <use xlink:href="#DejaVuSans-Oblique-48" transform="translate(0 0.09375)"/>
      <use xlink:href="#DejaVuSans-30" transform="translate(75.195312 -16.3125) scale(0.7)"/>
     </g>
    </g>
    <g id="patch_112">
     <path d="M 423.264134 423.59 
L 463.264134 423.59 
L 463.264134 409.59 
L 423.264134 409.59 
z
" style="fill: #ff6347; opacity: 0.5"/>
    </g>
    <g id="text_26">
     <!-- $H_1$ -->
     <g transform="translate(479.264134 423.59) scale(0.2 -0.2)">
      <use xlink:href="#DejaVuSans-Oblique-48" transform="translate(0 0.09375)"/>
      <use xlink:href="#DejaVuSans-31" transform="translate(75.195312 -16.3125) scale(0.7)"/>
     </g>
    </g>
   </g>
  </g>
  <g id="axes_4">
   <g id="patch_113">
    <path d="M 623.318679 582.796875 
L 1130.591406 582.796875 
L 1130.591406 361.036875 
L 623.318679 361.036875 
z
" style="fill: #ffffff"/>
   </g>
   <g id="patch_114">
    <path d="M 646.37653 582.796875 
L 646.917267 582.796875 
L 646.917267 582.516769 
L 646.37653 582.516769 
z
" clip-path="url(#pc367656faa)" style="fill: #1e90ff; opacity: 0.5"/>
   </g>
   <g id="patch_115">
    <path d="M 646.917267 582.796875 
L 647.458004 582.796875 
L 647.458004 582.796875 
L 646.917267 582.796875 
z
" clip-path="url(#pc367656faa)" style="fill: #1e90ff; opacity: 0.5"/>
   </g>
   <g id="patch_116">
    <path d="M 647.458004 582.796875 
L 647.99874 582.796875 
L 647.99874 582.796875 
L 647.458004 582.796875 
z
" clip-path="url(#pc367656faa)" style="fill: #1e90ff; opacity: 0.5"/>
   </g>
   <g id="patch_117">
    <path d="M 647.99874 582.796875 
L 648.539477 582.796875 
L 648.539477 582.796875 
L 647.99874 582.796875 
z
" clip-path="url(#pc367656faa)" style="fill: #1e90ff; opacity: 0.5"/>
   </g>
   <g id="patch_118">
    <path d="M 648.539477 582.796875 
L 649.080214 582.796875 
L 649.080214 580.556026 
L 648.539477 580.556026 
z
" clip-path="url(#pc367656faa)" style="fill: #1e90ff; opacity: 0.5"/>
   </g>
   <g id="patch_119">
    <path d="M 649.080214 582.796875 
L 649.62095 582.796875 
L 649.62095 580.556024 
L 649.080214 580.556024 
z
" clip-path="url(#pc367656faa)" style="fill: #1e90ff; opacity: 0.5"/>
   </g>
   <g id="patch_120">
    <path d="M 649.62095 582.796875 
L 650.161687 582.796875 
L 650.161687 579.995814 
L 649.62095 579.995814 
z
" clip-path="url(#pc367656faa)" style="fill: #1e90ff; opacity: 0.5"/>
   </g>
   <g id="patch_121">
    <path d="M 650.161687 582.796875 
L 650.702424 582.796875 
L 650.702424 576.634536 
L 650.161687 576.634536 
z
" clip-path="url(#pc367656faa)" style="fill: #1e90ff; opacity: 0.5"/>
   </g>
   <g id="patch_122">
    <path d="M 650.702424 582.796875 
L 651.24316 582.796875 
L 651.24316 550.304542 
L 650.702424 550.304542 
z
" clip-path="url(#pc367656faa)" style="fill: #1e90ff; opacity: 0.5"/>
   </g>
   <g id="patch_123">
    <path d="M 651.24316 582.796875 
L 651.783897 582.796875 
L 651.783897 371.596875 
L 651.24316 371.596875 
z
" clip-path="url(#pc367656faa)" style="fill: #1e90ff; opacity: 0.5"/>
   </g>
   <g id="patch_124">
    <path d="M 651.783897 582.796875 
L 652.324633 582.796875 
L 652.324633 428.458293 
L 651.783897 428.458293 
z
" clip-path="url(#pc367656faa)" style="fill: #1e90ff; opacity: 0.5"/>
   </g>
   <g id="patch_125">
    <path d="M 652.324633 582.796875 
L 652.86537 582.796875 
L 652.86537 517.812209 
L 652.324633 517.812209 
z
" clip-path="url(#pc367656faa)" style="fill: #1e90ff; opacity: 0.5"/>
   </g>
   <g id="patch_126">
    <path d="M 652.86537 582.796875 
L 653.406107 582.796875 
L 653.406107 550.304567 
L 652.86537 550.304567 
z
" clip-path="url(#pc367656faa)" style="fill: #1e90ff; opacity: 0.5"/>
   </g>
   <g id="patch_127">
    <path d="M 653.406107 582.796875 
L 653.946844 582.796875 
L 653.946844 558.147538 
L 653.406107 558.147538 
z
" clip-path="url(#pc367656faa)" style="fill: #1e90ff; opacity: 0.5"/>
   </g>
   <g id="patch_128">
    <path d="M 653.946844 582.796875 
L 654.48758 582.796875 
L 654.48758 568.231335 
L 653.946844 568.231335 
z
" clip-path="url(#pc367656faa)" style="fill: #1e90ff; opacity: 0.5"/>
   </g>
   <g id="patch_129">
    <path d="M 654.48758 582.796875 
L 655.028317 582.796875 
L 655.028317 576.354435 
L 654.48758 576.354435 
z
" clip-path="url(#pc367656faa)" style="fill: #1e90ff; opacity: 0.5"/>
   </g>
   <g id="patch_130">
    <path d="M 655.028317 582.796875 
L 655.569054 582.796875 
L 655.569054 575.514116 
L 655.028317 575.514116 
z
" clip-path="url(#pc367656faa)" style="fill: #1e90ff; opacity: 0.5"/>
   </g>
   <g id="patch_131">
    <path d="M 655.569054 582.796875 
L 656.10979 582.796875 
L 656.10979 580.275916 
L 655.569054 580.275916 
z
" clip-path="url(#pc367656faa)" style="fill: #1e90ff; opacity: 0.5"/>
   </g>
   <g id="patch_132">
    <path d="M 656.10979 582.796875 
L 656.650527 582.796875 
L 656.650527 580.27592 
L 656.10979 580.27592 
z
" clip-path="url(#pc367656faa)" style="fill: #1e90ff; opacity: 0.5"/>
   </g>
   <g id="patch_133">
    <path d="M 656.650527 582.796875 
L 657.191263 582.796875 
L 657.191263 580.556026 
L 656.650527 580.556026 
z
" clip-path="url(#pc367656faa)" style="fill: #1e90ff; opacity: 0.5"/>
   </g>
   <g id="patch_134">
    <path d="M 657.191263 582.796875 
L 657.732 582.796875 
L 657.732 581.676449 
L 657.191263 581.676449 
z
" clip-path="url(#pc367656faa)" style="fill: #1e90ff; opacity: 0.5"/>
   </g>
   <g id="patch_135">
    <path d="M 657.732 582.796875 
L 658.272736 582.796875 
L 658.272736 582.516769 
L 657.732 582.516769 
z
" clip-path="url(#pc367656faa)" style="fill: #1e90ff; opacity: 0.5"/>
   </g>
   <g id="patch_136">
    <path d="M 658.272736 582.796875 
L 658.813473 582.796875 
L 658.813473 582.516769 
L 658.272736 582.516769 
z
" clip-path="url(#pc367656faa)" style="fill: #1e90ff; opacity: 0.5"/>
   </g>
   <g id="patch_137">
    <path d="M 658.813473 582.796875 
L 659.354209 582.796875 
L 659.354209 581.956555 
L 658.813473 581.956555 
z
" clip-path="url(#pc367656faa)" style="fill: #1e90ff; opacity: 0.5"/>
   </g>
   <g id="patch_138">
    <path d="M 659.354209 582.796875 
L 659.894947 582.796875 
L 659.894947 582.516769 
L 659.354209 582.516769 
z
" clip-path="url(#pc367656faa)" style="fill: #1e90ff; opacity: 0.5"/>
   </g>
   <g id="patch_139">
    <path d="M 659.894947 582.796875 
L 660.435683 582.796875 
L 660.435683 582.796875 
L 659.894947 582.796875 
z
" clip-path="url(#pc367656faa)" style="fill: #1e90ff; opacity: 0.5"/>
   </g>
   <g id="patch_140">
    <path d="M 660.435683 582.796875 
L 660.976419 582.796875 
L 660.976419 582.516768 
L 660.435683 582.516768 
z
" clip-path="url(#pc367656faa)" style="fill: #1e90ff; opacity: 0.5"/>
   </g>
   <g id="patch_141">
    <path d="M 660.976419 582.796875 
L 661.517157 582.796875 
L 661.517157 582.516769 
L 660.976419 582.516769 
z
" clip-path="url(#pc367656faa)" style="fill: #1e90ff; opacity: 0.5"/>
   </g>
   <g id="patch_142">
    <path d="M 661.517157 582.796875 
L 662.057893 582.796875 
L 662.057893 582.516768 
L 661.517157 582.516768 
z
" clip-path="url(#pc367656faa)" style="fill: #1e90ff; opacity: 0.5"/>
   </g>
   <g id="patch_143">
    <path d="M 662.057893 582.796875 
L 662.598629 582.796875 
L 662.598629 582.796875 
L 662.057893 582.796875 
z
" clip-path="url(#pc367656faa)" style="fill: #1e90ff; opacity: 0.5"/>
   </g>
   <g id="patch_144">
    <path d="M 662.598629 582.796875 
L 663.139366 582.796875 
L 663.139366 582.796875 
L 662.598629 582.796875 
z
" clip-path="url(#pc367656faa)" style="fill: #1e90ff; opacity: 0.5"/>
   </g>
   <g id="patch_145">
    <path d="M 663.139366 582.796875 
L 663.680102 582.796875 
L 663.680102 582.236662 
L 663.139366 582.236662 
z
" clip-path="url(#pc367656faa)" style="fill: #1e90ff; opacity: 0.5"/>
   </g>
   <g id="matplotlib.axis_7">
    <g id="xtick_18">
     <g id="line2d_18">
      <g>
       <use xlink:href="#mabf8ddf52d" x="652.175449" y="582.796875" style="stroke: #000000; stroke-width: 0.8"/>
      </g>
     </g>
     <g id="text_27">
      <!-- 0e+00 -->
      <g transform="translate(618.555137 604.99375) scale(0.2 -0.2)">
       <use xlink:href="#DejaVuSans-30"/>
       <use xlink:href="#DejaVuSans-65" transform="translate(63.623047 0)"/>
       <use xlink:href="#DejaVuSans-2b" transform="translate(125.146484 0)"/>
       <use xlink:href="#DejaVuSans-30" transform="translate(208.935547 0)"/>
       <use xlink:href="#DejaVuSans-30" transform="translate(272.558594 0)"/>
      </g>
     </g>
    </g>
    <g id="xtick_19">
     <g id="line2d_19">
      <g>
       <use xlink:href="#mabf8ddf52d" x="740.464771" y="582.796875" style="stroke: #000000; stroke-width: 0.8"/>
      </g>
     </g>
     <g id="text_28">
      <!-- 5e+01 -->
      <g transform="translate(706.844459 604.99375) scale(0.2 -0.2)">
       <use xlink:href="#DejaVuSans-35"/>
       <use xlink:href="#DejaVuSans-65" transform="translate(63.623047 0)"/>
       <use xlink:href="#DejaVuSans-2b" transform="translate(125.146484 0)"/>
       <use xlink:href="#DejaVuSans-30" transform="translate(208.935547 0)"/>
       <use xlink:href="#DejaVuSans-31" transform="translate(272.558594 0)"/>
      </g>
     </g>
    </g>
    <g id="xtick_20">
     <g id="line2d_20">
      <g>
       <use xlink:href="#mabf8ddf52d" x="828.754093" y="582.796875" style="stroke: #000000; stroke-width: 0.8"/>
      </g>
     </g>
     <g id="text_29">
      <!-- 1e+02 -->
      <g transform="translate(795.133781 604.99375) scale(0.2 -0.2)">
       <use xlink:href="#DejaVuSans-31"/>
       <use xlink:href="#DejaVuSans-65" transform="translate(63.623047 0)"/>
       <use xlink:href="#DejaVuSans-2b" transform="translate(125.146484 0)"/>
       <use xlink:href="#DejaVuSans-30" transform="translate(208.935547 0)"/>
       <use xlink:href="#DejaVuSans-32" transform="translate(272.558594 0)"/>
      </g>
     </g>
    </g>
    <g id="xtick_21">
     <g id="line2d_21">
      <g>
       <use xlink:href="#mabf8ddf52d" x="917.043415" y="582.796875" style="stroke: #000000; stroke-width: 0.8"/>
      </g>
     </g>
     <g id="text_30">
      <!-- 2e+02 -->
      <g transform="translate(883.423103 604.99375) scale(0.2 -0.2)">
       <use xlink:href="#DejaVuSans-32"/>
       <use xlink:href="#DejaVuSans-65" transform="translate(63.623047 0)"/>
       <use xlink:href="#DejaVuSans-2b" transform="translate(125.146484 0)"/>
       <use xlink:href="#DejaVuSans-30" transform="translate(208.935547 0)"/>
       <use xlink:href="#DejaVuSans-32" transform="translate(272.558594 0)"/>
      </g>
     </g>
    </g>
    <g id="xtick_22">
     <g id="line2d_22">
      <g>
       <use xlink:href="#mabf8ddf52d" x="1005.332737" y="582.796875" style="stroke: #000000; stroke-width: 0.8"/>
      </g>
     </g>
     <g id="text_31">
      <!-- 2e+02 -->
      <g transform="translate(971.712425 604.99375) scale(0.2 -0.2)">
       <use xlink:href="#DejaVuSans-32"/>
       <use xlink:href="#DejaVuSans-65" transform="translate(63.623047 0)"/>
       <use xlink:href="#DejaVuSans-2b" transform="translate(125.146484 0)"/>
       <use xlink:href="#DejaVuSans-30" transform="translate(208.935547 0)"/>
       <use xlink:href="#DejaVuSans-32" transform="translate(272.558594 0)"/>
      </g>
     </g>
    </g>
    <g id="xtick_23">
     <g id="line2d_23">
      <g>
       <use xlink:href="#mabf8ddf52d" x="1093.622059" y="582.796875" style="stroke: #000000; stroke-width: 0.8"/>
      </g>
     </g>
     <g id="text_32">
      <!-- 2e+02 -->
      <g transform="translate(1060.001747 604.99375) scale(0.2 -0.2)">
       <use xlink:href="#DejaVuSans-32"/>
       <use xlink:href="#DejaVuSans-65" transform="translate(63.623047 0)"/>
       <use xlink:href="#DejaVuSans-2b" transform="translate(125.146484 0)"/>
       <use xlink:href="#DejaVuSans-30" transform="translate(208.935547 0)"/>
       <use xlink:href="#DejaVuSans-32" transform="translate(272.558594 0)"/>
      </g>
     </g>
    </g>
   </g>
   <g id="matplotlib.axis_8"/>
   <g id="patch_146">
    <path d="M 623.318679 582.796875 
L 1130.591406 582.796875 
" style="fill: none; stroke: #000000; stroke-width: 0.8; stroke-linejoin: miter; stroke-linecap: square"/>
   </g>
   <g id="text_33">
    <!-- Level 4 -->
    <g transform="translate(841.014418 355.036875) scale(0.2 -0.2)">
     <defs>
      <path id="DejaVuSans-34" d="M 2419 4116 
L 825 1625 
L 2419 1625 
L 2419 4116 
z
M 2253 4666 
L 3047 4666 
L 3047 1625 
L 3713 1625 
L 3713 1100 
L 3047 1100 
L 3047 0 
L 2419 0 
L 2419 1100 
L 313 1100 
L 313 1709 
L 2253 4666 
z
" transform="scale(0.015625)"/>
     </defs>
     <use xlink:href="#DejaVuSans-4c"/>
     <use xlink:href="#DejaVuSans-65" transform="translate(53.962891 0)"/>
     <use xlink:href="#DejaVuSans-76" transform="translate(115.486328 0)"/>
     <use xlink:href="#DejaVuSans-65" transform="translate(174.666016 0)"/>
     <use xlink:href="#DejaVuSans-6c" transform="translate(236.189453 0)"/>
     <use xlink:href="#DejaVuSans-20" transform="translate(263.972656 0)"/>
     <use xlink:href="#DejaVuSans-34" transform="translate(295.759766 0)"/>
    </g>
   </g>
   <g id="legend_4">
    <g id="patch_147">
     <path d="M 1027.991406 435.749375 
L 1116.591406 435.749375 
Q 1120.591406 435.749375 1120.591406 431.749375 
L 1120.591406 375.036875 
Q 1120.591406 371.036875 1116.591406 371.036875 
L 1027.991406 371.036875 
Q 1023.991406 371.036875 1023.991406 375.036875 
L 1023.991406 431.749375 
Q 1023.991406 435.749375 1027.991406 435.749375 
z
" style="fill: #ffffff; opacity: 0.8; stroke: #cccccc; stroke-linejoin: miter"/>
    </g>
    <g id="patch_148">
     <path d="M 1031.991406 394.23375 
L 1071.991406 394.23375 
L 1071.991406 380.23375 
L 1031.991406 380.23375 
z
" style="fill: #1e90ff; opacity: 0.5"/>
    </g>
    <g id="text_34">
     <!-- $H_0$ -->
     <g transform="translate(1087.991406 394.23375) scale(0.2 -0.2)">
      <use xlink:href="#DejaVuSans-Oblique-48" transform="translate(0 0.09375)"/>
      <use xlink:href="#DejaVuSans-30" transform="translate(75.195312 -16.3125) scale(0.7)"/>
     </g>
    </g>
    <g id="patch_149">
     <path d="M 1031.991406 423.59 
L 1071.991406 423.59 
L 1071.991406 409.59 
L 1031.991406 409.59 
z
" style="fill: #ff6347; opacity: 0.5"/>
    </g>
    <g id="text_35">
     <!-- $H_1$ -->
     <g transform="translate(1087.991406 423.59) scale(0.2 -0.2)">
      <use xlink:href="#DejaVuSans-Oblique-48" transform="translate(0 0.09375)"/>
      <use xlink:href="#DejaVuSans-31" transform="translate(75.195312 -16.3125) scale(0.7)"/>
     </g>
    </g>
   </g>
  </g>
  <g id="axes_5">
   <g id="patch_150">
    <path d="M 113.342381 250.156875 
L 125.388131 250.156875 
L 125.388131 247.783839 
L 113.342381 247.783839 
z
" clip-path="url(#p94505478c5)" style="fill: #ff6347; opacity: 0.5"/>
   </g>
   <g id="patch_151">
    <path d="M 125.388131 250.156875 
L 137.433876 250.156875 
L 137.433876 250.156875 
L 125.388131 250.156875 
z
" clip-path="url(#p94505478c5)" style="fill: #ff6347; opacity: 0.5"/>
   </g>
   <g id="patch_152">
    <path d="M 137.433876 250.156875 
L 149.479621 250.156875 
L 149.479621 250.156875 
L 137.433876 250.156875 
z
" clip-path="url(#p94505478c5)" style="fill: #ff6347; opacity: 0.5"/>
   </g>
   <g id="patch_153">
    <path d="M 149.479621 250.156875 
L 161.525366 250.156875 
L 161.525366 243.037763 
L 149.479621 243.037763 
z
" clip-path="url(#p94505478c5)" style="fill: #ff6347; opacity: 0.5"/>
   </g>
   <g id="patch_154">
    <path d="M 161.525366 250.156875 
L 173.571111 250.156875 
L 173.571111 245.4108 
L 161.525366 245.4108 
z
" clip-path="url(#p94505478c5)" style="fill: #ff6347; opacity: 0.5"/>
   </g>
   <g id="patch_155">
    <path d="M 173.571111 250.156875 
L 185.616865 250.156875 
L 185.616865 232.359108 
L 173.571111 232.359108 
z
" clip-path="url(#p94505478c5)" style="fill: #ff6347; opacity: 0.5"/>
   </g>
   <g id="patch_156">
    <path d="M 185.616865 250.156875 
L 197.66262 250.156875 
L 197.66262 216.934377 
L 185.616865 216.934377 
z
" clip-path="url(#p94505478c5)" style="fill: #ff6347; opacity: 0.5"/>
   </g>
   <g id="patch_157">
    <path d="M 197.66262 250.156875 
L 209.708365 250.156875 
L 209.708365 201.509608 
L 197.66262 201.509608 
z
" clip-path="url(#p94505478c5)" style="fill: #ff6347; opacity: 0.5"/>
   </g>
   <g id="patch_158">
    <path d="M 209.708365 250.156875 
L 221.75411 250.156875 
L 221.75411 186.084864 
L 209.708365 186.084864 
z
" clip-path="url(#p94505478c5)" style="fill: #ff6347; opacity: 0.5"/>
   </g>
   <g id="patch_159">
    <path d="M 221.75411 250.156875 
L 233.799855 250.156875 
L 233.799855 138.624116 
L 221.75411 138.624116 
z
" clip-path="url(#p94505478c5)" style="fill: #ff6347; opacity: 0.5"/>
   </g>
   <g id="patch_160">
    <path d="M 233.799855 250.156875 
L 245.8456 250.156875 
L 245.8456 98.28248 
L 233.799855 98.28248 
z
" clip-path="url(#p94505478c5)" style="fill: #ff6347; opacity: 0.5"/>
   </g>
   <g id="patch_161">
    <path d="M 245.8456 250.156875 
L 257.891345 250.156875 
L 257.891345 70.992549 
L 245.8456 70.992549 
z
" clip-path="url(#p94505478c5)" style="fill: #ff6347; opacity: 0.5"/>
   </g>
   <g id="patch_162">
    <path d="M 257.891345 250.156875 
L 269.93709 250.156875 
L 269.93709 66.246474 
L 257.891345 66.246474 
z
" clip-path="url(#p94505478c5)" style="fill: #ff6347; opacity: 0.5"/>
   </g>
   <g id="patch_163">
    <path d="M 269.93709 250.156875 
L 281.982854 250.156875 
L 281.982854 38.956875 
L 269.93709 38.956875 
z
" clip-path="url(#p94505478c5)" style="fill: #ff6347; opacity: 0.5"/>
   </g>
   <g id="patch_164">
    <path d="M 281.982854 250.156875 
L 294.028599 250.156875 
L 294.028599 48.448694 
L 281.982854 48.448694 
z
" clip-path="url(#p94505478c5)" style="fill: #ff6347; opacity: 0.5"/>
   </g>
   <g id="patch_165">
    <path d="M 294.028599 250.156875 
L 306.074344 250.156875 
L 306.074344 52.00825 
L 294.028599 52.00825 
z
" clip-path="url(#p94505478c5)" style="fill: #ff6347; opacity: 0.5"/>
   </g>
   <g id="patch_166">
    <path d="M 306.074344 250.156875 
L 318.120089 250.156875 
L 318.120089 75.738624 
L 306.074344 75.738624 
z
" clip-path="url(#p94505478c5)" style="fill: #ff6347; opacity: 0.5"/>
   </g>
   <g id="patch_167">
    <path d="M 318.120089 250.156875 
L 330.165834 250.156875 
L 330.165834 78.111661 
L 318.120089 78.111661 
z
" clip-path="url(#p94505478c5)" style="fill: #ff6347; opacity: 0.5"/>
   </g>
   <g id="patch_168">
    <path d="M 330.165834 250.156875 
L 342.211579 250.156875 
L 342.211579 92.349886 
L 330.165834 92.349886 
z
" clip-path="url(#p94505478c5)" style="fill: #ff6347; opacity: 0.5"/>
   </g>
   <g id="patch_169">
    <path d="M 342.211579 250.156875 
L 354.257324 250.156875 
L 354.257324 148.116266 
L 342.211579 148.116266 
z
" clip-path="url(#p94505478c5)" style="fill: #ff6347; opacity: 0.5"/>
   </g>
   <g id="patch_170">
    <path d="M 354.257324 250.156875 
L 366.303088 250.156875 
L 366.303088 140.997324 
L 354.257324 140.997324 
z
" clip-path="url(#p94505478c5)" style="fill: #ff6347; opacity: 0.5"/>
   </g>
   <g id="patch_171">
    <path d="M 366.303088 250.156875 
L 378.348833 250.156875 
L 378.348833 181.33879 
L 366.303088 181.33879 
z
" clip-path="url(#p94505478c5)" style="fill: #ff6347; opacity: 0.5"/>
   </g>
   <g id="patch_172">
    <path d="M 378.348833 250.156875 
L 390.394578 250.156875 
L 390.394578 174.219677 
L 378.348833 174.219677 
z
" clip-path="url(#p94505478c5)" style="fill: #ff6347; opacity: 0.5"/>
   </g>
   <g id="patch_173">
    <path d="M 390.394578 250.156875 
L 402.440323 250.156875 
L 402.440323 193.203977 
L 390.394578 193.203977 
z
" clip-path="url(#p94505478c5)" style="fill: #ff6347; opacity: 0.5"/>
   </g>
   <g id="patch_174">
    <path d="M 402.440323 250.156875 
L 414.486068 250.156875 
L 414.486068 219.307388 
L 402.440323 219.307388 
z
" clip-path="url(#p94505478c5)" style="fill: #ff6347; opacity: 0.5"/>
   </g>
   <g id="patch_175">
    <path d="M 414.486068 250.156875 
L 426.531813 250.156875 
L 426.531813 227.613019 
L 414.486068 227.613019 
z
" clip-path="url(#p94505478c5)" style="fill: #ff6347; opacity: 0.5"/>
   </g>
   <g id="patch_176">
    <path d="M 426.531813 250.156875 
L 438.577558 250.156875 
L 438.577558 237.105169 
L 426.531813 237.105169 
z
" clip-path="url(#p94505478c5)" style="fill: #ff6347; opacity: 0.5"/>
   </g>
   <g id="patch_177">
    <path d="M 438.577558 250.156875 
L 450.623303 250.156875 
L 450.623303 240.664725 
L 438.577558 240.664725 
z
" clip-path="url(#p94505478c5)" style="fill: #ff6347; opacity: 0.5"/>
   </g>
   <g id="patch_178">
    <path d="M 450.623303 250.156875 
L 462.669048 250.156875 
L 462.669048 239.478207 
L 450.623303 239.478207 
z
" clip-path="url(#p94505478c5)" style="fill: #ff6347; opacity: 0.5"/>
   </g>
   <g id="patch_179">
    <path d="M 462.669048 250.156875 
L 474.714793 250.156875 
L 474.714793 246.597319 
L 462.669048 246.597319 
z
" clip-path="url(#p94505478c5)" style="fill: #ff6347; opacity: 0.5"/>
   </g>
   <g id="patch_180">
    <path d="M 474.714793 250.156875 
L 486.760538 250.156875 
L 486.760538 247.783838 
L 474.714793 247.783838 
z
" clip-path="url(#p94505478c5)" style="fill: #ff6347; opacity: 0.5"/>
   </g>
   <g id="patch_181">
    <path d="M 486.760538 250.156875 
L 498.806283 250.156875 
L 498.806283 245.4108 
L 486.760538 245.4108 
z
" clip-path="url(#p94505478c5)" style="fill: #ff6347; opacity: 0.5"/>
   </g>
   <g id="matplotlib.axis_9"/>
   <g id="patch_182">
    <path d="M 14.591406 250.156875 
L 521.864134 250.156875 
" style="fill: none; stroke: #000000; stroke-width: 0.8; stroke-linejoin: miter; stroke-linecap: square"/>
   </g>
  </g>
  <g id="axes_6">
   <g id="patch_183">
    <path d="M 715.979638 250.156875 
L 728.215698 250.156875 
L 728.215698 248.970358 
L 715.979638 248.970358 
z
" clip-path="url(#pc86bfcfd2d)" style="fill: #ff6347; opacity: 0.5"/>
   </g>
   <g id="patch_184">
    <path d="M 728.215698 250.156875 
L 740.451757 250.156875 
L 740.451757 247.783841 
L 728.215698 247.783841 
z
" clip-path="url(#pc86bfcfd2d)" style="fill: #ff6347; opacity: 0.5"/>
   </g>
   <g id="patch_185">
    <path d="M 740.451757 250.156875 
L 752.687817 250.156875 
L 752.687817 246.597324 
L 740.451757 246.597324 
z
" clip-path="url(#pc86bfcfd2d)" style="fill: #ff6347; opacity: 0.5"/>
   </g>
   <g id="patch_186">
    <path d="M 752.687817 250.156875 
L 764.923876 250.156875 
L 764.923876 245.410808 
L 752.687817 245.410808 
z
" clip-path="url(#pc86bfcfd2d)" style="fill: #ff6347; opacity: 0.5"/>
   </g>
   <g id="patch_187">
    <path d="M 764.923876 250.156875 
L 777.159935 250.156875 
L 777.159935 222.866987 
L 764.923876 222.866987 
z
" clip-path="url(#pc86bfcfd2d)" style="fill: #ff6347; opacity: 0.5"/>
   </g>
   <g id="patch_188">
    <path d="M 777.159935 250.156875 
L 789.395995 250.156875 
L 789.395995 211.001819 
L 777.159935 211.001819 
z
" clip-path="url(#pc86bfcfd2d)" style="fill: #ff6347; opacity: 0.5"/>
   </g>
   <g id="patch_189">
    <path d="M 789.395995 250.156875 
L 801.632054 250.156875 
L 801.632054 196.763617 
L 789.395995 196.763617 
z
" clip-path="url(#pc86bfcfd2d)" style="fill: #ff6347; opacity: 0.5"/>
   </g>
   <g id="patch_190">
    <path d="M 801.632054 250.156875 
L 813.868114 250.156875 
L 813.868114 137.437774 
L 801.632054 137.437774 
z
" clip-path="url(#pc86bfcfd2d)" style="fill: #ff6347; opacity: 0.5"/>
   </g>
   <g id="patch_191">
    <path d="M 813.868114 250.156875 
L 826.104173 250.156875 
L 826.104173 125.572605 
L 813.868114 125.572605 
z
" clip-path="url(#pc86bfcfd2d)" style="fill: #ff6347; opacity: 0.5"/>
   </g>
   <g id="patch_192">
    <path d="M 826.104173 250.156875 
L 838.340233 250.156875 
L 838.340233 68.619796 
L 826.104173 68.619796 
z
" clip-path="url(#pc86bfcfd2d)" style="fill: #ff6347; opacity: 0.5"/>
   </g>
   <g id="patch_193">
    <path d="M 838.340233 250.156875 
L 850.576292 250.156875 
L 850.576292 70.99283 
L 838.340233 70.99283 
z
" clip-path="url(#pc86bfcfd2d)" style="fill: #ff6347; opacity: 0.5"/>
   </g>
   <g id="patch_194">
    <path d="M 850.576292 250.156875 
L 862.812352 250.156875 
L 862.812352 38.956875 
L 850.576292 38.956875 
z
" clip-path="url(#pc86bfcfd2d)" style="fill: #ff6347; opacity: 0.5"/>
   </g>
   <g id="patch_195">
    <path d="M 862.812352 250.156875 
L 875.048411 250.156875 
L 875.048411 56.754628 
L 862.812352 56.754628 
z
" clip-path="url(#pc86bfcfd2d)" style="fill: #ff6347; opacity: 0.5"/>
   </g>
   <g id="patch_196">
    <path d="M 875.048411 250.156875 
L 887.284457 250.156875 
L 887.284457 44.889225 
L 875.048411 44.889225 
z
" clip-path="url(#pc86bfcfd2d)" style="fill: #ff6347; opacity: 0.5"/>
   </g>
   <g id="patch_197">
    <path d="M 887.284457 250.156875 
L 899.520516 250.156875 
L 899.520516 73.365864 
L 887.284457 73.365864 
z
" clip-path="url(#pc86bfcfd2d)" style="fill: #ff6347; opacity: 0.5"/>
   </g>
   <g id="patch_198">
    <path d="M 899.520516 250.156875 
L 911.756576 250.156875 
L 911.756576 72.179347 
L 899.520516 72.179347 
z
" clip-path="url(#pc86bfcfd2d)" style="fill: #ff6347; opacity: 0.5"/>
   </g>
   <g id="patch_199">
    <path d="M 911.756576 250.156875 
L 923.992635 250.156875 
L 923.992635 100.655751 
L 911.756576 100.655751 
z
" clip-path="url(#pc86bfcfd2d)" style="fill: #ff6347; opacity: 0.5"/>
   </g>
   <g id="patch_200">
    <path d="M 923.992635 250.156875 
L 936.228695 250.156875 
L 936.228695 100.655751 
L 923.992635 100.655751 
z
" clip-path="url(#pc86bfcfd2d)" style="fill: #ff6347; opacity: 0.5"/>
   </g>
   <g id="patch_201">
    <path d="M 936.228695 250.156875 
L 948.464754 250.156875 
L 948.464754 150.489459 
L 936.228695 150.489459 
z
" clip-path="url(#pc86bfcfd2d)" style="fill: #ff6347; opacity: 0.5"/>
   </g>
   <g id="patch_202">
    <path d="M 948.464754 250.156875 
L 960.700814 250.156875 
L 960.700814 175.406313 
L 948.464754 175.406313 
z
" clip-path="url(#pc86bfcfd2d)" style="fill: #ff6347; opacity: 0.5"/>
   </g>
   <g id="patch_203">
    <path d="M 960.700814 250.156875 
L 972.936873 250.156875 
L 972.936873 168.287212 
L 960.700814 168.287212 
z
" clip-path="url(#pc86bfcfd2d)" style="fill: #ff6347; opacity: 0.5"/>
   </g>
   <g id="patch_204">
    <path d="M 972.936873 250.156875 
L 985.172933 250.156875 
L 985.172933 199.13665 
L 972.936873 199.13665 
z
" clip-path="url(#pc86bfcfd2d)" style="fill: #ff6347; opacity: 0.5"/>
   </g>
   <g id="patch_205">
    <path d="M 985.172933 250.156875 
L 997.408992 250.156875 
L 997.408992 212.188336 
L 985.172933 212.188336 
z
" clip-path="url(#pc86bfcfd2d)" style="fill: #ff6347; opacity: 0.5"/>
   </g>
   <g id="patch_206">
    <path d="M 997.408992 250.156875 
L 1009.645052 250.156875 
L 1009.645052 216.934403 
L 997.408992 216.934403 
z
" clip-path="url(#pc86bfcfd2d)" style="fill: #ff6347; opacity: 0.5"/>
   </g>
   <g id="patch_207">
    <path d="M 1009.645052 250.156875 
L 1021.881111 250.156875 
L 1021.881111 234.732156 
L 1009.645052 234.732156 
z
" clip-path="url(#pc86bfcfd2d)" style="fill: #ff6347; opacity: 0.5"/>
   </g>
   <g id="patch_208">
    <path d="M 1021.881111 250.156875 
L 1034.117171 250.156875 
L 1034.117171 227.613055 
L 1021.881111 227.613055 
z
" clip-path="url(#pc86bfcfd2d)" style="fill: #ff6347; opacity: 0.5"/>
   </g>
   <g id="patch_209">
    <path d="M 1034.117171 250.156875 
L 1046.35323 250.156875 
L 1046.35323 244.224291 
L 1034.117171 244.224291 
z
" clip-path="url(#pc86bfcfd2d)" style="fill: #ff6347; opacity: 0.5"/>
   </g>
   <g id="patch_210">
    <path d="M 1046.35323 250.156875 
L 1058.589289 250.156875 
L 1058.589289 247.783841 
L 1046.35323 247.783841 
z
" clip-path="url(#pc86bfcfd2d)" style="fill: #ff6347; opacity: 0.5"/>
   </g>
   <g id="patch_211">
    <path d="M 1058.589289 250.156875 
L 1070.825349 250.156875 
L 1070.825349 246.597324 
L 1058.589289 246.597324 
z
" clip-path="url(#pc86bfcfd2d)" style="fill: #ff6347; opacity: 0.5"/>
   </g>
   <g id="patch_212">
    <path d="M 1070.825349 250.156875 
L 1083.061408 250.156875 
L 1083.061408 244.224291 
L 1070.825349 244.224291 
z
" clip-path="url(#pc86bfcfd2d)" style="fill: #ff6347; opacity: 0.5"/>
   </g>
   <g id="patch_213">
    <path d="M 1083.061408 250.156875 
L 1095.297468 250.156875 
L 1095.297468 250.156875 
L 1083.061408 250.156875 
z
" clip-path="url(#pc86bfcfd2d)" style="fill: #ff6347; opacity: 0.5"/>
   </g>
   <g id="patch_214">
    <path d="M 1095.297468 250.156875 
L 1107.533555 250.156875 
L 1107.533555 247.783847 
L 1095.297468 247.783847 
z
" clip-path="url(#pc86bfcfd2d)" style="fill: #ff6347; opacity: 0.5"/>
   </g>
   <g id="matplotlib.axis_10"/>
   <g id="patch_215">
    <path d="M 623.318679 250.156875 
L 1130.591406 250.156875 
" style="fill: none; stroke: #000000; stroke-width: 0.8; stroke-linejoin: miter; stroke-linecap: square"/>
   </g>
  </g>
  <g id="axes_7">
   <g id="patch_216">
    <path d="M 96.566142 582.796875 
L 109.13615 582.796875 
L 109.13615 580.463172 
L 96.566142 580.463172 
z
" clip-path="url(#pfcec982914)" style="fill: #ff6347; opacity: 0.5"/>
   </g>
   <g id="patch_217">
    <path d="M 109.13615 582.796875 
L 121.70615 582.796875 
L 121.70615 575.795762 
L 109.13615 575.795762 
z
" clip-path="url(#pfcec982914)" style="fill: #ff6347; opacity: 0.5"/>
   </g>
   <g id="patch_218">
    <path d="M 121.70615 582.796875 
L 134.276151 582.796875 
L 134.276151 573.462057 
L 121.70615 573.462057 
z
" clip-path="url(#pfcec982914)" style="fill: #ff6347; opacity: 0.5"/>
   </g>
   <g id="patch_219">
    <path d="M 134.276151 582.796875 
L 146.846159 582.796875 
L 146.846159 550.125033 
L 134.276151 550.125033 
z
" clip-path="url(#pfcec982914)" style="fill: #ff6347; opacity: 0.5"/>
   </g>
   <g id="patch_220">
    <path d="M 146.846159 582.796875 
L 159.416159 582.796875 
L 159.416159 533.789083 
L 146.846159 533.789083 
z
" clip-path="url(#pfcec982914)" style="fill: #ff6347; opacity: 0.5"/>
   </g>
   <g id="patch_221">
    <path d="M 159.416159 582.796875 
L 171.986167 582.796875 
L 171.986167 470.77913 
L 159.416159 470.77913 
z
" clip-path="url(#pfcec982914)" style="fill: #ff6347; opacity: 0.5"/>
   </g>
   <g id="patch_222">
    <path d="M 171.986167 582.796875 
L 184.556168 582.796875 
L 184.556168 454.443133 
L 171.986167 454.443133 
z
" clip-path="url(#pfcec982914)" style="fill: #ff6347; opacity: 0.5"/>
   </g>
   <g id="patch_223">
    <path d="M 184.556168 582.796875 
L 197.126183 582.796875 
L 197.126183 404.268698 
L 184.556168 404.268698 
z
" clip-path="url(#pfcec982914)" style="fill: #ff6347; opacity: 0.5"/>
   </g>
   <g id="patch_224">
    <path d="M 197.126183 582.796875 
L 209.696168 582.796875 
L 209.696168 394.933451 
L 197.126183 394.933451 
z
" clip-path="url(#pfcec982914)" style="fill: #ff6347; opacity: 0.5"/>
   </g>
   <g id="patch_225">
    <path d="M 209.696168 582.796875 
L 222.266184 582.796875 
L 222.266184 382.098532 
L 209.696168 382.098532 
z
" clip-path="url(#pfcec982914)" style="fill: #ff6347; opacity: 0.5"/>
   </g>
   <g id="patch_226">
    <path d="M 222.266184 582.796875 
L 234.836199 582.796875 
L 234.836199 371.596875 
L 222.266184 371.596875 
z
" clip-path="url(#pfcec982914)" style="fill: #ff6347; opacity: 0.5"/>
   </g>
   <g id="patch_227">
    <path d="M 234.836199 582.796875 
L 247.406185 582.796875 
L 247.406185 390.266037 
L 234.836199 390.266037 
z
" clip-path="url(#pfcec982914)" style="fill: #ff6347; opacity: 0.5"/>
   </g>
   <g id="patch_228">
    <path d="M 247.406185 582.796875 
L 259.9762 582.796875 
L 259.9762 398.434444 
L 247.406185 398.434444 
z
" clip-path="url(#pfcec982914)" style="fill: #ff6347; opacity: 0.5"/>
   </g>
   <g id="patch_229">
    <path d="M 259.9762 582.796875 
L 272.546215 582.796875 
L 272.546215 421.771461 
L 259.9762 421.771461 
z
" clip-path="url(#pfcec982914)" style="fill: #ff6347; opacity: 0.5"/>
   </g>
   <g id="patch_230">
    <path d="M 272.546215 582.796875 
L 285.116201 582.796875 
L 285.116201 432.272765 
L 272.546215 432.272765 
z
" clip-path="url(#pfcec982914)" style="fill: #ff6347; opacity: 0.5"/>
   </g>
   <g id="patch_231">
    <path d="M 285.116201 582.796875 
L 297.686216 582.796875 
L 297.686216 454.443284 
L 285.116201 454.443284 
z
" clip-path="url(#pfcec982914)" style="fill: #ff6347; opacity: 0.5"/>
   </g>
   <g id="patch_232">
    <path d="M 297.686216 582.796875 
L 310.256202 582.796875 
L 310.256202 467.278372 
L 297.686216 467.278372 
z
" clip-path="url(#pfcec982914)" style="fill: #ff6347; opacity: 0.5"/>
   </g>
   <g id="patch_233">
    <path d="M 310.256202 582.796875 
L 322.826217 582.796875 
L 322.826217 501.117317 
L 310.256202 501.117317 
z
" clip-path="url(#pfcec982914)" style="fill: #ff6347; opacity: 0.5"/>
   </g>
   <g id="patch_234">
    <path d="M 322.826217 582.796875 
L 335.396232 582.796875 
L 335.396232 517.453229 
L 322.826217 517.453229 
z
" clip-path="url(#pfcec982914)" style="fill: #ff6347; opacity: 0.5"/>
   </g>
   <g id="patch_235">
    <path d="M 335.396232 582.796875 
L 347.966218 582.796875 
L 347.966218 543.123854 
L 335.396232 543.123854 
z
" clip-path="url(#pfcec982914)" style="fill: #ff6347; opacity: 0.5"/>
   </g>
   <g id="patch_236">
    <path d="M 347.966218 582.796875 
L 360.536233 582.796875 
L 360.536233 545.457648 
L 347.966218 545.457648 
z
" clip-path="url(#pfcec982914)" style="fill: #ff6347; opacity: 0.5"/>
   </g>
   <g id="patch_237">
    <path d="M 360.536233 582.796875 
L 373.106248 582.796875 
L 373.106248 546.624499 
L 360.536233 546.624499 
z
" clip-path="url(#pfcec982914)" style="fill: #ff6347; opacity: 0.5"/>
   </g>
   <g id="patch_238">
    <path d="M 373.106248 582.796875 
L 385.676234 582.796875 
L 385.676234 554.792389 
L 373.106248 554.792389 
z
" clip-path="url(#pfcec982914)" style="fill: #ff6347; opacity: 0.5"/>
   </g>
   <g id="patch_239">
    <path d="M 385.676234 582.796875 
L 398.246249 582.796875 
L 398.246249 566.460963 
L 385.676234 566.460963 
z
" clip-path="url(#pfcec982914)" style="fill: #ff6347; opacity: 0.5"/>
   </g>
   <g id="patch_240">
    <path d="M 398.246249 582.796875 
L 410.816264 582.796875 
L 410.816264 573.462068 
L 398.246249 573.462068 
z
" clip-path="url(#pfcec982914)" style="fill: #ff6347; opacity: 0.5"/>
   </g>
   <g id="patch_241">
    <path d="M 410.816264 582.796875 
L 423.38625 582.796875 
L 423.38625 574.6289 
L 410.816264 574.6289 
z
" clip-path="url(#pfcec982914)" style="fill: #ff6347; opacity: 0.5"/>
   </g>
   <g id="patch_242">
    <path d="M 423.38625 582.796875 
L 435.956265 582.796875 
L 435.956265 578.129472 
L 423.38625 578.129472 
z
" clip-path="url(#pfcec982914)" style="fill: #ff6347; opacity: 0.5"/>
   </g>
   <g id="patch_243">
    <path d="M 435.956265 582.796875 
L 448.526281 582.796875 
L 448.526281 579.296323 
L 435.956265 579.296323 
z
" clip-path="url(#pfcec982914)" style="fill: #ff6347; opacity: 0.5"/>
   </g>
   <g id="patch_244">
    <path d="M 448.526281 582.796875 
L 461.096266 582.796875 
L 461.096266 581.630021 
L 448.526281 581.630021 
z
" clip-path="url(#pfcec982914)" style="fill: #ff6347; opacity: 0.5"/>
   </g>
   <g id="patch_245">
    <path d="M 461.096266 582.796875 
L 473.666282 582.796875 
L 473.666282 580.463173 
L 461.096266 580.463173 
z
" clip-path="url(#pfcec982914)" style="fill: #ff6347; opacity: 0.5"/>
   </g>
   <g id="patch_246">
    <path d="M 473.666282 582.796875 
L 486.236267 582.796875 
L 486.236267 580.463168 
L 473.666282 580.463168 
z
" clip-path="url(#pfcec982914)" style="fill: #ff6347; opacity: 0.5"/>
   </g>
   <g id="patch_247">
    <path d="M 486.236267 582.796875 
L 498.806283 582.796875 
L 498.806283 580.463173 
L 486.236267 580.463173 
z
" clip-path="url(#pfcec982914)" style="fill: #ff6347; opacity: 0.5"/>
   </g>
   <g id="matplotlib.axis_11"/>
   <g id="patch_248">
    <path d="M 14.591406 582.796875 
L 521.864134 582.796875 
" style="fill: none; stroke: #000000; stroke-width: 0.8; stroke-linejoin: miter; stroke-linecap: square"/>
   </g>
  </g>
  <g id="axes_8">
   <g id="patch_249">
    <path d="M 688.894857 582.796875 
L 701.977317 582.796875 
L 701.977317 577.594909 
L 688.894857 577.594909 
z
" clip-path="url(#pc367656faa)" style="fill: #ff6347; opacity: 0.5"/>
   </g>
   <g id="patch_250">
    <path d="M 701.977317 582.796875 
L 715.059773 582.796875 
L 715.059773 571.352546 
L 701.977317 571.352546 
z
" clip-path="url(#pc367656faa)" style="fill: #ff6347; opacity: 0.5"/>
   </g>
   <g id="patch_251">
    <path d="M 715.059773 582.796875 
L 728.14223 582.796875 
L 728.14223 560.94861 
L 715.059773 560.94861 
z
" clip-path="url(#pc367656faa)" style="fill: #ff6347; opacity: 0.5"/>
   </g>
   <g id="patch_252">
    <path d="M 728.14223 582.796875 
L 741.224693 582.796875 
L 741.224693 486.040324 
L 728.14223 486.040324 
z
" clip-path="url(#pc367656faa)" style="fill: #ff6347; opacity: 0.5"/>
   </g>
   <g id="patch_253">
    <path d="M 741.224693 582.796875 
L 754.307156 582.796875 
L 754.307156 482.919145 
L 741.224693 482.919145 
z
" clip-path="url(#pc367656faa)" style="fill: #ff6347; opacity: 0.5"/>
   </g>
   <g id="patch_254">
    <path d="M 754.307156 582.796875 
L 767.389606 582.796875 
L 767.389606 420.495397 
L 754.307156 420.495397 
z
" clip-path="url(#pc367656faa)" style="fill: #ff6347; opacity: 0.5"/>
   </g>
   <g id="patch_255">
    <path d="M 767.389606 582.796875 
L 780.472069 582.796875 
L 780.472069 378.879844 
L 767.389606 378.879844 
z
" clip-path="url(#pc367656faa)" style="fill: #ff6347; opacity: 0.5"/>
   </g>
   <g id="patch_256">
    <path d="M 780.472069 582.796875 
L 793.554532 582.796875 
L 793.554532 417.374385 
L 780.472069 417.374385 
z
" clip-path="url(#pc367656faa)" style="fill: #ff6347; opacity: 0.5"/>
   </g>
   <g id="patch_257">
    <path d="M 793.554532 582.796875 
L 806.636982 582.796875 
L 806.636982 371.596875 
L 793.554532 371.596875 
z
" clip-path="url(#pc367656faa)" style="fill: #ff6347; opacity: 0.5"/>
   </g>
   <g id="patch_258">
    <path d="M 806.636982 582.796875 
L 819.719445 582.796875 
L 819.719445 400.728097 
L 806.636982 400.728097 
z
" clip-path="url(#pc367656faa)" style="fill: #ff6347; opacity: 0.5"/>
   </g>
   <g id="patch_259">
    <path d="M 819.719445 582.796875 
L 832.801909 582.796875 
L 832.801909 425.697529 
L 819.719445 425.697529 
z
" clip-path="url(#pc367656faa)" style="fill: #ff6347; opacity: 0.5"/>
   </g>
   <g id="patch_260">
    <path d="M 832.801909 582.796875 
L 845.884358 582.796875 
L 845.884358 422.576185 
L 832.801909 422.576185 
z
" clip-path="url(#pc367656faa)" style="fill: #ff6347; opacity: 0.5"/>
   </g>
   <g id="patch_261">
    <path d="M 845.884358 582.796875 
L 858.966822 582.796875 
L 858.966822 456.90932 
L 845.884358 456.90932 
z
" clip-path="url(#pc367656faa)" style="fill: #ff6347; opacity: 0.5"/>
   </g>
   <g id="patch_262">
    <path d="M 858.966822 582.796875 
L 872.049285 582.796875 
L 872.049285 478.757573 
L 858.966822 478.757573 
z
" clip-path="url(#pc367656faa)" style="fill: #ff6347; opacity: 0.5"/>
   </g>
   <g id="patch_263">
    <path d="M 872.049285 582.796875 
L 885.131735 582.796875 
L 885.131735 476.676678 
L 872.049285 476.676678 
z
" clip-path="url(#pc367656faa)" style="fill: #ff6347; opacity: 0.5"/>
   </g>
   <g id="patch_264">
    <path d="M 885.131735 582.796875 
L 898.214198 582.796875 
L 898.214198 503.727006 
L 885.131735 503.727006 
z
" clip-path="url(#pc367656faa)" style="fill: #ff6347; opacity: 0.5"/>
   </g>
   <g id="patch_265">
    <path d="M 898.214198 582.796875 
L 911.296661 582.796875 
L 911.296661 532.85801 
L 898.214198 532.85801 
z
" clip-path="url(#pc367656faa)" style="fill: #ff6347; opacity: 0.5"/>
   </g>
   <g id="patch_266">
    <path d="M 911.296661 582.796875 
L 924.379124 582.796875 
L 924.379124 540.140761 
L 911.296661 540.140761 
z
" clip-path="url(#pc367656faa)" style="fill: #ff6347; opacity: 0.5"/>
   </g>
   <g id="patch_267">
    <path d="M 924.379124 582.796875 
L 937.461587 582.796875 
L 937.461587 546.383119 
L 924.379124 546.383119 
z
" clip-path="url(#pc367656faa)" style="fill: #ff6347; opacity: 0.5"/>
   </g>
   <g id="patch_268">
    <path d="M 937.461587 582.796875 
L 950.544051 582.796875 
L 950.544051 555.746657 
L 937.461587 555.746657 
z
" clip-path="url(#pc367656faa)" style="fill: #ff6347; opacity: 0.5"/>
   </g>
   <g id="patch_269">
    <path d="M 950.544051 582.796875 
L 963.626514 582.796875 
L 963.626514 561.989015 
L 950.544051 561.989015 
z
" clip-path="url(#pc367656faa)" style="fill: #ff6347; opacity: 0.5"/>
   </g>
   <g id="patch_270">
    <path d="M 963.626514 582.796875 
L 976.708977 582.796875 
L 976.708977 570.312159 
L 963.626514 570.312159 
z
" clip-path="url(#pc367656faa)" style="fill: #ff6347; opacity: 0.5"/>
   </g>
   <g id="patch_271">
    <path d="M 976.708977 582.796875 
L 989.791413 582.796875 
L 989.791413 565.110157 
L 976.708977 565.110157 
z
" clip-path="url(#pc367656faa)" style="fill: #ff6347; opacity: 0.5"/>
   </g>
   <g id="patch_272">
    <path d="M 989.791413 582.796875 
L 1002.873877 582.796875 
L 1002.873877 576.554517 
L 989.791413 576.554517 
z
" clip-path="url(#pc367656faa)" style="fill: #ff6347; opacity: 0.5"/>
   </g>
   <g id="patch_273">
    <path d="M 1002.873877 582.796875 
L 1015.95634 582.796875 
L 1015.95634 574.473731 
L 1002.873877 574.473731 
z
" clip-path="url(#pc367656faa)" style="fill: #ff6347; opacity: 0.5"/>
   </g>
   <g id="patch_274">
    <path d="M 1015.95634 582.796875 
L 1029.038803 582.796875 
L 1029.038803 581.756482 
L 1015.95634 581.756482 
z
" clip-path="url(#pc367656faa)" style="fill: #ff6347; opacity: 0.5"/>
   </g>
   <g id="patch_275">
    <path d="M 1029.038803 582.796875 
L 1042.121266 582.796875 
L 1042.121266 580.716089 
L 1029.038803 580.716089 
z
" clip-path="url(#pc367656faa)" style="fill: #ff6347; opacity: 0.5"/>
   </g>
   <g id="patch_276">
    <path d="M 1042.121266 582.796875 
L 1055.203729 582.796875 
L 1055.203729 576.554517 
L 1042.121266 576.554517 
z
" clip-path="url(#pc367656faa)" style="fill: #ff6347; opacity: 0.5"/>
   </g>
   <g id="patch_277">
    <path d="M 1055.203729 582.796875 
L 1068.286166 582.796875 
L 1068.286166 581.75648 
L 1055.203729 581.75648 
z
" clip-path="url(#pc367656faa)" style="fill: #ff6347; opacity: 0.5"/>
   </g>
   <g id="patch_278">
    <path d="M 1068.286166 582.796875 
L 1081.368629 582.796875 
L 1081.368629 581.756482 
L 1068.286166 581.756482 
z
" clip-path="url(#pc367656faa)" style="fill: #ff6347; opacity: 0.5"/>
   </g>
   <g id="patch_279">
    <path d="M 1081.368629 582.796875 
L 1094.451092 582.796875 
L 1094.451092 580.716089 
L 1081.368629 580.716089 
z
" clip-path="url(#pc367656faa)" style="fill: #ff6347; opacity: 0.5"/>
   </g>
   <g id="patch_280">
    <path d="M 1094.451092 582.796875 
L 1107.533555 582.796875 
L 1107.533555 579.675696 
L 1094.451092 579.675696 
z
" clip-path="url(#pc367656faa)" style="fill: #ff6347; opacity: 0.5"/>
   </g>
   <g id="matplotlib.axis_12"/>
   <g id="patch_281">
    <path d="M 623.318679 582.796875 
L 1130.591406 582.796875 
" style="fill: none; stroke: #000000; stroke-width: 0.8; stroke-linejoin: miter; stroke-linecap: square"/>
   </g>
  </g>
 </g>
 <defs>
  <clipPath id="p94505478c5">
   <rect x="14.591406" y="28.396875" width="507.272727" height="221.76"/>
  </clipPath>
  <clipPath id="pc86bfcfd2d">
   <rect x="623.318679" y="28.396875" width="507.272727" height="221.76"/>
  </clipPath>
  <clipPath id="pfcec982914">
   <rect x="14.591406" y="361.036875" width="507.272727" height="221.76"/>
  </clipPath>
  <clipPath id="pc367656faa">
   <rect x="623.318679" y="361.036875" width="507.272727" height="221.76"/>
  </clipPath>
 </defs>
</svg>
