<?xml version="1.0" encoding="utf-8" standalone="no"?>
<!DOCTYPE svg PUBLIC "-//W3C//DTD SVG 1.1//EN"
  "http://www.w3.org/Graphics/SVG/1.1/DTD/svg11.dtd">
<svg xmlns:xlink="http://www.w3.org/1999/xlink" width="1000.654375pt" height="351.121094pt" viewBox="0 0 1000.654375 351.121094" xmlns="http://www.w3.org/2000/svg" version="1.1">
 <metadata>
  <rdf:RDF xmlns:dc="http://purl.org/dc/elements/1.1/" xmlns:cc="http://creativecommons.org/ns#" xmlns:rdf="http://www.w3.org/1999/02/22-rdf-syntax-ns#">
   <cc:Work>
    <dc:type rdf:resource="http://purl.org/dc/dcmitype/StillImage"/>
    <dc:date>2026-03-13T04:57:52.679037</dc:date>
    <dc:format>image/svg+xml</dc:format>
    <dc:creator>
     <cc:Agent>
      <dc:title>Matplotlib v3.10.8, https://matplotlib.org/</dc:title>
     </cc:Agent>
    </dc:creator>
   </cc:Work>
  </rdf:RDF>
 </metadata>
 <defs>
  <style type="text/css">*{stroke-linejoin: round; stroke-linecap: butt}</style>
 </defs>
 <g id="figure_1">
  <g id="patch_1">
   <path d="M 0 351.121094 
L 1000.654375 351.121094 
L 1000.654375 0 
L 0 0 
z
" style="fill: #ffffff"/>
  </g>
  <g id="axes_1">
   <g id="patch_2">
    <path d="M 39.384375 307.757969 
L 487.294375 307.757969 
L 487.294375 23.077969 
L 39.384375 23.077969 
z
" style="fill: #ffffff"/>
   </g>
   <g id="FillBetweenPolyCollection_1">
    <path d="M 59.74392 101.034678 
L 59.74392 278.703002 
L 88.828985 250.199852 
L 117.91405 246.425152 
L 146.999115 287.319965 
L 176.08418 259.55914 
L 205.169245 276.969687 
L 234.25431 233.932584 
L 263.339375 257.687483 
L 292.42444 271.567023 
L 321.509505 250.254848 
L 350.59457 260.548205 
L 379.679635 274.912497 
L 408.7647 247.728723 
L 437.849765 281.687841 
L 466.93483 294.817969 
L 466.93483 156.83308 
L 466.93483 156.83308 
L 437.849765 85.359243 
L 408.7647 68.555983 
L 379.679635 70.983597 
L 350.59457 102.268682 
L 321.509505 91.411047 
L 292.42444 74.329071 
L 263.339375 92.438809 
L 234.25431 82.352122 
L 205.169245 77.386803 
L 176.08418 52.495368 
L 146.999115 58.576129 
L 117.91405 36.017969 
L 88.828985 95.696242 
L 59.74392 101.034678 
z
" clip-path="url(#p928bcdbbb1)" style="fill: #ff6347; fill-opacity: 0.3"/>
   </g>
   <g id="matplotlib.axis_1">
    <g id="xtick_1">
     <g id="line2d_1">
      <path d="M 59.74392 307.757969 
L 59.74392 23.077969 
" clip-path="url(#p928bcdbbb1)" style="fill: none; stroke: #000000; stroke-opacity: 0.15; stroke-width: 0.8; stroke-linecap: square"/>
     </g>
     <g id="line2d_2">
      <defs>
       <path id="mdd529df129" d="M 0 0 
L 0 3.5 
" style="stroke: #000000; stroke-width: 0.8"/>
      </defs>
      <g>
       <use xlink:href="#mdd529df129" x="59.74392" y="307.757969" style="stroke: #000000; stroke-width: 0.8"/>
      </g>
     </g>
     <g id="text_1">
      <!-- 0.0 -->
      <g transform="translate(50.202045 323.876094) scale(0.12 -0.12)">
       <defs>
        <path id="DejaVuSans-30" d="M 2034 4250 
Q 1547 4250 1301 3770 
Q 1056 3291 1056 2328 
Q 1056 1369 1301 889 
Q 1547 409 2034 409 
Q 2525 409 2770 889 
Q 3016 1369 3016 2328 
Q 3016 3291 2770 3770 
Q 2525 4250 2034 4250 
z
M 2034 4750 
Q 2819 4750 3233 4129 
Q 3647 3509 3647 2328 
Q 3647 1150 3233 529 
Q 2819 -91 2034 -91 
Q 1250 -91 836 529 
Q 422 1150 422 2328 
Q 422 3509 836 4129 
Q 1250 4750 2034 4750 
z
" transform="scale(0.015625)"/>
        <path id="DejaVuSans-2e" d="M 684 794 
L 1344 794 
L 1344 0 
L 684 0 
L 684 794 
z
" transform="scale(0.015625)"/>
       </defs>
       <use xlink:href="#DejaVuSans-30"/>
       <use xlink:href="#DejaVuSans-2e" transform="translate(63.623047 0)"/>
       <use xlink:href="#DejaVuSans-30" transform="translate(95.410156 0)"/>
      </g>
     </g>
    </g>
    <g id="xtick_2">
     <g id="line2d_3">
      <path d="M 127.609072 307.757969 
L 127.609072 23.077969 
" clip-path="url(#p928bcdbbb1)" style="fill: none; stroke: #000000; stroke-opacity: 0.15; stroke-width: 0.8; stroke-linecap: square"/>
     </g>
     <g id="line2d_4">
      <g>
       <use xlink:href="#mdd529df129" x="127.609072" y="307.757969" style="stroke: #000000; stroke-width: 0.8"/>
      </g>
     </g>
     <g id="text_2">
      <!-- 0.1 -->
      <g transform="translate(118.067197 323.876094) scale(0.12 -0.12)">
       <defs>
        <path id="DejaVuSans-31" d="M 794 531 
L 1825 531 
L 1825 4091 
L 703 3866 
L 703 4441 
L 1819 4666 
L 2450 4666 
L 2450 531 
L 3481 531 
L 3481 0 
L 794 0 
L 794 531 
z
" transform="scale(0.015625)"/>
       </defs>
       <use xlink:href="#DejaVuSans-30"/>
       <use xlink:href="#DejaVuSans-2e" transform="translate(63.623047 0)"/>
       <use xlink:href="#DejaVuSans-31" transform="translate(95.410156 0)"/>
      </g>
     </g>
    </g>
    <g id="xtick_3">
     <g id="line2d_5">
      <path d="M 195.474223 307.757969 
L 195.474223 23.077969 
" clip-path="url(#p928bcdbbb1)" style="fill: none; stroke: #000000; stroke-opacity: 0.15; stroke-width: 0.8; stroke-linecap: square"/>
     </g>
     <g id="line2d_6">
      <g>
       <use xlink:href="#mdd529df129" x="195.474223" y="307.757969" style="stroke: #000000; stroke-width: 0.8"/>
      </g>
     </g>
     <g id="text_3">
      <!-- 0.2 -->
      <g transform="translate(185.932348 323.876094) scale(0.12 -0.12)">
       <defs>
        <path id="DejaVuSans-32" d="M 1228 531 
L 3431 531 
L 3431 0 
L 469 0 
L 469 531 
Q 828 903 1448 1529 
Q 2069 2156 2228 2338 
Q 2531 2678 2651 2914 
Q 2772 3150 2772 3378 
Q 2772 3750 2511 3984 
Q 2250 4219 1831 4219 
Q 1534 4219 1204 4116 
Q 875 4013 500 3803 
L 500 4441 
Q 881 4594 1212 4672 
Q 1544 4750 1819 4750 
Q 2544 4750 2975 4387 
Q 3406 4025 3406 3419 
Q 3406 3131 3298 2873 
Q 3191 2616 2906 2266 
Q 2828 2175 2409 1742 
Q 1991 1309 1228 531 
z
" transform="scale(0.015625)"/>
       </defs>
       <use xlink:href="#DejaVuSans-30"/>
       <use xlink:href="#DejaVuSans-2e" transform="translate(63.623047 0)"/>
       <use xlink:href="#DejaVuSans-32" transform="translate(95.410156 0)"/>
      </g>
     </g>
    </g>
    <g id="xtick_4">
     <g id="line2d_7">
      <path d="M 263.339375 307.757969 
L 263.339375 23.077969 
" clip-path="url(#p928bcdbbb1)" style="fill: none; stroke: #000000; stroke-opacity: 0.15; stroke-width: 0.8; stroke-linecap: square"/>
     </g>
     <g id="line2d_8">
      <g>
       <use xlink:href="#mdd529df129" x="263.339375" y="307.757969" style="stroke: #000000; stroke-width: 0.8"/>
      </g>
     </g>
     <g id="text_4">
      <!-- 0.3 -->
      <g transform="translate(253.7975 323.876094) scale(0.12 -0.12)">
       <defs>
        <path id="DejaVuSans-33" d="M 2597 2516 
Q 3050 2419 3304 2112 
Q 3559 1806 3559 1356 
Q 3559 666 3084 287 
Q 2609 -91 1734 -91 
Q 1441 -91 1130 -33 
Q 819 25 488 141 
L 488 750 
Q 750 597 1062 519 
Q 1375 441 1716 441 
Q 2309 441 2620 675 
Q 2931 909 2931 1356 
Q 2931 1769 2642 2001 
Q 2353 2234 1838 2234 
L 1294 2234 
L 1294 2753 
L 1863 2753 
Q 2328 2753 2575 2939 
Q 2822 3125 2822 3475 
Q 2822 3834 2567 4026 
Q 2313 4219 1838 4219 
Q 1578 4219 1281 4162 
Q 984 4106 628 3988 
L 628 4550 
Q 988 4650 1302 4700 
Q 1616 4750 1894 4750 
Q 2613 4750 3031 4423 
Q 3450 4097 3450 3541 
Q 3450 3153 3228 2886 
Q 3006 2619 2597 2516 
z
" transform="scale(0.015625)"/>
       </defs>
       <use xlink:href="#DejaVuSans-30"/>
       <use xlink:href="#DejaVuSans-2e" transform="translate(63.623047 0)"/>
       <use xlink:href="#DejaVuSans-33" transform="translate(95.410156 0)"/>
      </g>
     </g>
    </g>
    <g id="xtick_5">
     <g id="line2d_9">
      <path d="M 331.204527 307.757969 
L 331.204527 23.077969 
" clip-path="url(#p928bcdbbb1)" style="fill: none; stroke: #000000; stroke-opacity: 0.15; stroke-width: 0.8; stroke-linecap: square"/>
     </g>
     <g id="line2d_10">
      <g>
       <use xlink:href="#mdd529df129" x="331.204527" y="307.757969" style="stroke: #000000; stroke-width: 0.8"/>
      </g>
     </g>
     <g id="text_5">
      <!-- 0.4 -->
      <g transform="translate(321.662652 323.876094) scale(0.12 -0.12)">
       <defs>
        <path id="DejaVuSans-34" d="M 2419 4116 
L 825 1625 
L 2419 1625 
L 2419 4116 
z
M 2253 4666 
L 3047 4666 
L 3047 1625 
L 3713 1625 
L 3713 1100 
L 3047 1100 
L 3047 0 
L 2419 0 
L 2419 1100 
L 313 1100 
L 313 1709 
L 2253 4666 
z
" transform="scale(0.015625)"/>
       </defs>
       <use xlink:href="#DejaVuSans-30"/>
       <use xlink:href="#DejaVuSans-2e" transform="translate(63.623047 0)"/>
       <use xlink:href="#DejaVuSans-34" transform="translate(95.410156 0)"/>
      </g>
     </g>
    </g>
    <g id="xtick_6">
     <g id="line2d_11">
      <path d="M 399.069678 307.757969 
L 399.069678 23.077969 
" clip-path="url(#p928bcdbbb1)" style="fill: none; stroke: #000000; stroke-opacity: 0.15; stroke-width: 0.8; stroke-linecap: square"/>
     </g>
     <g id="line2d_12">
      <g>
       <use xlink:href="#mdd529df129" x="399.069678" y="307.757969" style="stroke: #000000; stroke-width: 0.8"/>
      </g>
     </g>
     <g id="text_6">
      <!-- 0.5 -->
      <g transform="translate(389.527803 323.876094) scale(0.12 -0.12)">
       <defs>
        <path id="DejaVuSans-35" d="M 691 4666 
L 3169 4666 
L 3169 4134 
L 1269 4134 
L 1269 2991 
Q 1406 3038 1543 3061 
Q 1681 3084 1819 3084 
Q 2600 3084 3056 2656 
Q 3513 2228 3513 1497 
Q 3513 744 3044 326 
Q 2575 -91 1722 -91 
Q 1428 -91 1123 -41 
Q 819 9 494 109 
L 494 744 
Q 775 591 1075 516 
Q 1375 441 1709 441 
Q 2250 441 2565 725 
Q 2881 1009 2881 1497 
Q 2881 1984 2565 2268 
Q 2250 2553 1709 2553 
Q 1456 2553 1204 2497 
Q 953 2441 691 2322 
L 691 4666 
z
" transform="scale(0.015625)"/>
       </defs>
       <use xlink:href="#DejaVuSans-30"/>
       <use xlink:href="#DejaVuSans-2e" transform="translate(63.623047 0)"/>
       <use xlink:href="#DejaVuSans-35" transform="translate(95.410156 0)"/>
      </g>
     </g>
    </g>
    <g id="xtick_7">
     <g id="line2d_13">
      <path d="M 466.93483 307.757969 
L 466.93483 23.077969 
" clip-path="url(#p928bcdbbb1)" style="fill: none; stroke: #000000; stroke-opacity: 0.15; stroke-width: 0.8; stroke-linecap: square"/>
     </g>
     <g id="line2d_14">
      <g>
       <use xlink:href="#mdd529df129" x="466.93483" y="307.757969" style="stroke: #000000; stroke-width: 0.8"/>
      </g>
     </g>
     <g id="text_7">
      <!-- 0.6 -->
      <g transform="translate(457.392955 323.876094) scale(0.12 -0.12)">
       <defs>
        <path id="DejaVuSans-36" d="M 2113 2584 
Q 1688 2584 1439 2293 
Q 1191 2003 1191 1497 
Q 1191 994 1439 701 
Q 1688 409 2113 409 
Q 2538 409 2786 701 
Q 3034 994 3034 1497 
Q 3034 2003 2786 2293 
Q 2538 2584 2113 2584 
z
M 3366 4563 
L 3366 3988 
Q 3128 4100 2886 4159 
Q 2644 4219 2406 4219 
Q 1781 4219 1451 3797 
Q 1122 3375 1075 2522 
Q 1259 2794 1537 2939 
Q 1816 3084 2150 3084 
Q 2853 3084 3261 2657 
Q 3669 2231 3669 1497 
Q 3669 778 3244 343 
Q 2819 -91 2113 -91 
Q 1303 -91 875 529 
Q 447 1150 447 2328 
Q 447 3434 972 4092 
Q 1497 4750 2381 4750 
Q 2619 4750 2861 4703 
Q 3103 4656 3366 4563 
z
" transform="scale(0.015625)"/>
       </defs>
       <use xlink:href="#DejaVuSans-30"/>
       <use xlink:href="#DejaVuSans-2e" transform="translate(63.623047 0)"/>
       <use xlink:href="#DejaVuSans-36" transform="translate(95.410156 0)"/>
      </g>
     </g>
    </g>
    <g id="text_8">
     <!-- $\alpha_1 - \alpha_0$ -->
     <g transform="translate(238.839375 341.009531) scale(0.14 -0.14)">
      <defs>
       <path id="DejaVuSans-Oblique-3b1" d="M 2619 1628 
L 2622 2350 
Q 2625 3088 2069 3091 
Q 1653 3094 1394 2747 
Q 1069 2319 959 1747 
Q 825 1059 994 731 
Q 1169 397 1547 397 
Q 1966 397 2319 1063 
L 2619 1628 
z
M 2166 3578 
Q 3141 3594 3128 2584 
Q 3128 2584 3616 3500 
L 4128 3500 
L 3119 1603 
L 3109 919 
Q 3109 766 3194 638 
Q 3291 488 3391 488 
L 3669 488 
L 3575 0 
L 3228 0 
Q 2934 0 2722 263 
Q 2622 394 2619 669 
Q 2416 334 2066 50 
Q 1900 -81 1453 -78 
Q 722 -72 456 397 
Q 184 884 353 1747 
Q 534 2675 1009 3097 
Q 1544 3569 2166 3578 
z
" transform="scale(0.015625)"/>
       <path id="DejaVuSans-2212" d="M 678 2272 
L 4684 2272 
L 4684 1741 
L 678 1741 
L 678 2272 
z
" transform="scale(0.015625)"/>
      </defs>
      <use xlink:href="#DejaVuSans-Oblique-3b1" transform="translate(0 0.84375)"/>
      <use xlink:href="#DejaVuSans-31" transform="translate(65.917969 -15.5625) scale(0.7)"/>
      <use xlink:href="#DejaVuSans-2212" transform="translate(132.670898 0.84375)"/>
      <use xlink:href="#DejaVuSans-Oblique-3b1" transform="translate(235.942383 0.84375)"/>
      <use xlink:href="#DejaVuSans-30" transform="translate(301.860352 -15.5625) scale(0.7)"/>
     </g>
    </g>
   </g>
   <g id="matplotlib.axis_2">
    <g id="ytick_1">
     <g id="line2d_15">
      <path d="M 39.384375 297.738893 
L 487.294375 297.738893 
" clip-path="url(#p928bcdbbb1)" style="fill: none; stroke: #000000; stroke-opacity: 0.15; stroke-width: 0.8; stroke-linecap: square"/>
     </g>
     <g id="line2d_16">
      <defs>
       <path id="m158e639db7" d="M 0 0 
L -3.5 0 
" style="stroke: #000000; stroke-width: 0.8"/>
      </defs>
      <g>
       <use xlink:href="#m158e639db7" x="39.384375" y="297.738893" style="stroke: #000000; stroke-width: 0.8"/>
      </g>
     </g>
     <g id="text_9">
      <!-- 1 -->
      <g transform="translate(24.749375 302.297956) scale(0.12 -0.12)">
       <use xlink:href="#DejaVuSans-31"/>
      </g>
     </g>
    </g>
    <g id="ytick_2">
     <g id="line2d_17">
      <path d="M 39.384375 266.012407 
L 487.294375 266.012407 
" clip-path="url(#p928bcdbbb1)" style="fill: none; stroke: #000000; stroke-opacity: 0.15; stroke-width: 0.8; stroke-linecap: square"/>
     </g>
     <g id="line2d_18">
      <g>
       <use xlink:href="#m158e639db7" x="39.384375" y="266.012407" style="stroke: #000000; stroke-width: 0.8"/>
      </g>
     </g>
     <g id="text_10">
      <!-- 2 -->
      <g transform="translate(24.749375 270.571469) scale(0.12 -0.12)">
       <use xlink:href="#DejaVuSans-32"/>
      </g>
     </g>
    </g>
    <g id="ytick_3">
     <g id="line2d_19">
      <path d="M 39.384375 234.285921 
L 487.294375 234.285921 
" clip-path="url(#p928bcdbbb1)" style="fill: none; stroke: #000000; stroke-opacity: 0.15; stroke-width: 0.8; stroke-linecap: square"/>
     </g>
     <g id="line2d_20">
      <g>
       <use xlink:href="#m158e639db7" x="39.384375" y="234.285921" style="stroke: #000000; stroke-width: 0.8"/>
      </g>
     </g>
     <g id="text_11">
      <!-- 3 -->
      <g transform="translate(24.749375 238.844983) scale(0.12 -0.12)">
       <use xlink:href="#DejaVuSans-33"/>
      </g>
     </g>
    </g>
    <g id="ytick_4">
     <g id="line2d_21">
      <path d="M 39.384375 202.559434 
L 487.294375 202.559434 
" clip-path="url(#p928bcdbbb1)" style="fill: none; stroke: #000000; stroke-opacity: 0.15; stroke-width: 0.8; stroke-linecap: square"/>
     </g>
     <g id="line2d_22">
      <g>
       <use xlink:href="#m158e639db7" x="39.384375" y="202.559434" style="stroke: #000000; stroke-width: 0.8"/>
      </g>
     </g>
     <g id="text_12">
      <!-- 4 -->
      <g transform="translate(24.749375 207.118497) scale(0.12 -0.12)">
       <use xlink:href="#DejaVuSans-34"/>
      </g>
     </g>
    </g>
    <g id="ytick_5">
     <g id="line2d_23">
      <path d="M 39.384375 170.832948 
L 487.294375 170.832948 
" clip-path="url(#p928bcdbbb1)" style="fill: none; stroke: #000000; stroke-opacity: 0.15; stroke-width: 0.8; stroke-linecap: square"/>
     </g>
     <g id="line2d_24">
      <g>
       <use xlink:href="#m158e639db7" x="39.384375" y="170.832948" style="stroke: #000000; stroke-width: 0.8"/>
      </g>
     </g>
     <g id="text_13">
      <!-- 5 -->
      <g transform="translate(24.749375 175.39201) scale(0.12 -0.12)">
       <use xlink:href="#DejaVuSans-35"/>
      </g>
     </g>
    </g>
    <g id="ytick_6">
     <g id="line2d_25">
      <path d="M 39.384375 139.106461 
L 487.294375 139.106461 
" clip-path="url(#p928bcdbbb1)" style="fill: none; stroke: #000000; stroke-opacity: 0.15; stroke-width: 0.8; stroke-linecap: square"/>
     </g>
     <g id="line2d_26">
      <g>
       <use xlink:href="#m158e639db7" x="39.384375" y="139.106461" style="stroke: #000000; stroke-width: 0.8"/>
      </g>
     </g>
     <g id="text_14">
      <!-- 6 -->
      <g transform="translate(24.749375 143.665524) scale(0.12 -0.12)">
       <use xlink:href="#DejaVuSans-36"/>
      </g>
     </g>
    </g>
    <g id="ytick_7">
     <g id="line2d_27">
      <path d="M 39.384375 107.379975 
L 487.294375 107.379975 
" clip-path="url(#p928bcdbbb1)" style="fill: none; stroke: #000000; stroke-opacity: 0.15; stroke-width: 0.8; stroke-linecap: square"/>
     </g>
     <g id="line2d_28">
      <g>
       <use xlink:href="#m158e639db7" x="39.384375" y="107.379975" style="stroke: #000000; stroke-width: 0.8"/>
      </g>
     </g>
     <g id="text_15">
      <!-- 7 -->
      <g transform="translate(24.749375 111.939037) scale(0.12 -0.12)">
       <defs>
        <path id="DejaVuSans-37" d="M 525 4666 
L 3525 4666 
L 3525 4397 
L 1831 0 
L 1172 0 
L 2766 4134 
L 525 4134 
L 525 4666 
z
" transform="scale(0.015625)"/>
       </defs>
       <use xlink:href="#DejaVuSans-37"/>
      </g>
     </g>
    </g>
    <g id="ytick_8">
     <g id="line2d_29">
      <path d="M 39.384375 75.653488 
L 487.294375 75.653488 
" clip-path="url(#p928bcdbbb1)" style="fill: none; stroke: #000000; stroke-opacity: 0.15; stroke-width: 0.8; stroke-linecap: square"/>
     </g>
     <g id="line2d_30">
      <g>
       <use xlink:href="#m158e639db7" x="39.384375" y="75.653488" style="stroke: #000000; stroke-width: 0.8"/>
      </g>
     </g>
     <g id="text_16">
      <!-- 8 -->
      <g transform="translate(24.749375 80.212551) scale(0.12 -0.12)">
       <defs>
        <path id="DejaVuSans-38" d="M 2034 2216 
Q 1584 2216 1326 1975 
Q 1069 1734 1069 1313 
Q 1069 891 1326 650 
Q 1584 409 2034 409 
Q 2484 409 2743 651 
Q 3003 894 3003 1313 
Q 3003 1734 2745 1975 
Q 2488 2216 2034 2216 
z
M 1403 2484 
Q 997 2584 770 2862 
Q 544 3141 544 3541 
Q 544 4100 942 4425 
Q 1341 4750 2034 4750 
Q 2731 4750 3128 4425 
Q 3525 4100 3525 3541 
Q 3525 3141 3298 2862 
Q 3072 2584 2669 2484 
Q 3125 2378 3379 2068 
Q 3634 1759 3634 1313 
Q 3634 634 3220 271 
Q 2806 -91 2034 -91 
Q 1263 -91 848 271 
Q 434 634 434 1313 
Q 434 1759 690 2068 
Q 947 2378 1403 2484 
z
M 1172 3481 
Q 1172 3119 1398 2916 
Q 1625 2713 2034 2713 
Q 2441 2713 2670 2916 
Q 2900 3119 2900 3481 
Q 2900 3844 2670 4047 
Q 2441 4250 2034 4250 
Q 1625 4250 1398 4047 
Q 1172 3844 1172 3481 
z
" transform="scale(0.015625)"/>
       </defs>
       <use xlink:href="#DejaVuSans-38"/>
      </g>
     </g>
    </g>
    <g id="ytick_9">
     <g id="line2d_31">
      <path d="M 39.384375 43.927002 
L 487.294375 43.927002 
" clip-path="url(#p928bcdbbb1)" style="fill: none; stroke: #000000; stroke-opacity: 0.15; stroke-width: 0.8; stroke-linecap: square"/>
     </g>
     <g id="line2d_32">
      <g>
       <use xlink:href="#m158e639db7" x="39.384375" y="43.927002" style="stroke: #000000; stroke-width: 0.8"/>
      </g>
     </g>
     <g id="text_17">
      <!-- 9 -->
      <g transform="translate(24.749375 48.486065) scale(0.12 -0.12)">
       <defs>
        <path id="DejaVuSans-39" d="M 703 97 
L 703 672 
Q 941 559 1184 500 
Q 1428 441 1663 441 
Q 2288 441 2617 861 
Q 2947 1281 2994 2138 
Q 2813 1869 2534 1725 
Q 2256 1581 1919 1581 
Q 1219 1581 811 2004 
Q 403 2428 403 3163 
Q 403 3881 828 4315 
Q 1253 4750 1959 4750 
Q 2769 4750 3195 4129 
Q 3622 3509 3622 2328 
Q 3622 1225 3098 567 
Q 2575 -91 1691 -91 
Q 1453 -91 1209 -44 
Q 966 3 703 97 
z
M 1959 2075 
Q 2384 2075 2632 2365 
Q 2881 2656 2881 3163 
Q 2881 3666 2632 3958 
Q 2384 4250 1959 4250 
Q 1534 4250 1286 3958 
Q 1038 3666 1038 3163 
Q 1038 2656 1286 2365 
Q 1534 2075 1959 2075 
z
" transform="scale(0.015625)"/>
       </defs>
       <use xlink:href="#DejaVuSans-39"/>
      </g>
     </g>
    </g>
    <g id="text_18">
     <!-- Type 1 Error (%) -->
     <g transform="translate(17.837813 221.794219) rotate(-90) scale(0.14 -0.14)">
      <defs>
       <path id="DejaVuSans-54" d="M -19 4666 
L 3928 4666 
L 3928 4134 
L 2272 4134 
L 2272 0 
L 1638 0 
L 1638 4134 
L -19 4134 
L -19 4666 
z
" transform="scale(0.015625)"/>
       <path id="DejaVuSans-79" d="M 2059 -325 
Q 1816 -950 1584 -1140 
Q 1353 -1331 966 -1331 
L 506 -1331 
L 506 -850 
L 844 -850 
Q 1081 -850 1212 -737 
Q 1344 -625 1503 -206 
L 1606 56 
L 191 3500 
L 800 3500 
L 1894 763 
L 2988 3500 
L 3597 3500 
L 2059 -325 
z
" transform="scale(0.015625)"/>
       <path id="DejaVuSans-70" d="M 1159 525 
L 1159 -1331 
L 581 -1331 
L 581 3500 
L 1159 3500 
L 1159 2969 
Q 1341 3281 1617 3432 
Q 1894 3584 2278 3584 
Q 2916 3584 3314 3078 
Q 3713 2572 3713 1747 
Q 3713 922 3314 415 
Q 2916 -91 2278 -91 
Q 1894 -91 1617 61 
Q 1341 213 1159 525 
z
M 3116 1747 
Q 3116 2381 2855 2742 
Q 2594 3103 2138 3103 
Q 1681 3103 1420 2742 
Q 1159 2381 1159 1747 
Q 1159 1113 1420 752 
Q 1681 391 2138 391 
Q 2594 391 2855 752 
Q 3116 1113 3116 1747 
z
" transform="scale(0.015625)"/>
       <path id="DejaVuSans-65" d="M 3597 1894 
L 3597 1613 
L 953 1613 
Q 991 1019 1311 708 
Q 1631 397 2203 397 
Q 2534 397 2845 478 
Q 3156 559 3463 722 
L 3463 178 
Q 3153 47 2828 -22 
Q 2503 -91 2169 -91 
Q 1331 -91 842 396 
Q 353 884 353 1716 
Q 353 2575 817 3079 
Q 1281 3584 2069 3584 
Q 2775 3584 3186 3129 
Q 3597 2675 3597 1894 
z
M 3022 2063 
Q 3016 2534 2758 2815 
Q 2500 3097 2075 3097 
Q 1594 3097 1305 2825 
Q 1016 2553 972 2059 
L 3022 2063 
z
" transform="scale(0.015625)"/>
       <path id="DejaVuSans-20" transform="scale(0.015625)"/>
       <path id="DejaVuSans-45" d="M 628 4666 
L 3578 4666 
L 3578 4134 
L 1259 4134 
L 1259 2753 
L 3481 2753 
L 3481 2222 
L 1259 2222 
L 1259 531 
L 3634 531 
L 3634 0 
L 628 0 
L 628 4666 
z
" transform="scale(0.015625)"/>
       <path id="DejaVuSans-72" d="M 2631 2963 
Q 2534 3019 2420 3045 
Q 2306 3072 2169 3072 
Q 1681 3072 1420 2755 
Q 1159 2438 1159 1844 
L 1159 0 
L 581 0 
L 581 3500 
L 1159 3500 
L 1159 2956 
Q 1341 3275 1631 3429 
Q 1922 3584 2338 3584 
Q 2397 3584 2469 3576 
Q 2541 3569 2628 3553 
L 2631 2963 
z
" transform="scale(0.015625)"/>
       <path id="DejaVuSans-6f" d="M 1959 3097 
Q 1497 3097 1228 2736 
Q 959 2375 959 1747 
Q 959 1119 1226 758 
Q 1494 397 1959 397 
Q 2419 397 2687 759 
Q 2956 1122 2956 1747 
Q 2956 2369 2687 2733 
Q 2419 3097 1959 3097 
z
M 1959 3584 
Q 2709 3584 3137 3096 
Q 3566 2609 3566 1747 
Q 3566 888 3137 398 
Q 2709 -91 1959 -91 
Q 1206 -91 779 398 
Q 353 888 353 1747 
Q 353 2609 779 3096 
Q 1206 3584 1959 3584 
z
" transform="scale(0.015625)"/>
       <path id="DejaVuSans-28" d="M 1984 4856 
Q 1566 4138 1362 3434 
Q 1159 2731 1159 2009 
Q 1159 1288 1364 580 
Q 1569 -128 1984 -844 
L 1484 -844 
Q 1016 -109 783 600 
Q 550 1309 550 2009 
Q 550 2706 781 3412 
Q 1013 4119 1484 4856 
L 1984 4856 
z
" transform="scale(0.015625)"/>
       <path id="DejaVuSans-25" d="M 4653 2053 
Q 4381 2053 4226 1822 
Q 4072 1591 4072 1178 
Q 4072 772 4226 539 
Q 4381 306 4653 306 
Q 4919 306 5073 539 
Q 5228 772 5228 1178 
Q 5228 1588 5073 1820 
Q 4919 2053 4653 2053 
z
M 4653 2450 
Q 5147 2450 5437 2106 
Q 5728 1763 5728 1178 
Q 5728 594 5436 251 
Q 5144 -91 4653 -91 
Q 4153 -91 3862 251 
Q 3572 594 3572 1178 
Q 3572 1766 3864 2108 
Q 4156 2450 4653 2450 
z
M 1428 4353 
Q 1159 4353 1004 4120 
Q 850 3888 850 3481 
Q 850 3069 1003 2837 
Q 1156 2606 1428 2606 
Q 1700 2606 1854 2837 
Q 2009 3069 2009 3481 
Q 2009 3884 1853 4118 
Q 1697 4353 1428 4353 
z
M 4250 4750 
L 4750 4750 
L 1831 -91 
L 1331 -91 
L 4250 4750 
z
M 1428 4750 
Q 1922 4750 2215 4408 
Q 2509 4066 2509 3481 
Q 2509 2891 2217 2550 
Q 1925 2209 1428 2209 
Q 931 2209 642 2551 
Q 353 2894 353 3481 
Q 353 4063 643 4406 
Q 934 4750 1428 4750 
z
" transform="scale(0.015625)"/>
       <path id="DejaVuSans-29" d="M 513 4856 
L 1013 4856 
Q 1481 4119 1714 3412 
Q 1947 2706 1947 2009 
Q 1947 1309 1714 600 
Q 1481 -109 1013 -844 
L 513 -844 
Q 928 -128 1133 580 
Q 1338 1288 1338 2009 
Q 1338 2731 1133 3434 
Q 928 4138 513 4856 
z
" transform="scale(0.015625)"/>
      </defs>
      <use xlink:href="#DejaVuSans-54"/>
      <use xlink:href="#DejaVuSans-79" transform="translate(45.458984 0)"/>
      <use xlink:href="#DejaVuSans-70" transform="translate(104.638672 0)"/>
      <use xlink:href="#DejaVuSans-65" transform="translate(168.115234 0)"/>
      <use xlink:href="#DejaVuSans-20" transform="translate(229.638672 0)"/>
      <use xlink:href="#DejaVuSans-31" transform="translate(261.425781 0)"/>
      <use xlink:href="#DejaVuSans-20" transform="translate(325.048828 0)"/>
      <use xlink:href="#DejaVuSans-45" transform="translate(356.835938 0)"/>
      <use xlink:href="#DejaVuSans-72" transform="translate(420.019531 0)"/>
      <use xlink:href="#DejaVuSans-72" transform="translate(459.382812 0)"/>
      <use xlink:href="#DejaVuSans-6f" transform="translate(498.246094 0)"/>
      <use xlink:href="#DejaVuSans-72" transform="translate(559.427734 0)"/>
      <use xlink:href="#DejaVuSans-20" transform="translate(600.541016 0)"/>
      <use xlink:href="#DejaVuSans-28" transform="translate(632.328125 0)"/>
      <use xlink:href="#DejaVuSans-25" transform="translate(671.341797 0)"/>
      <use xlink:href="#DejaVuSans-29" transform="translate(766.361328 0)"/>
     </g>
    </g>
   </g>
   <g id="line2d_33">
    <path d="M 59.74392 189.86884 
L 88.828985 172.948047 
L 117.91405 141.22156 
L 146.999115 172.948047 
L 176.08418 156.027254 
L 205.169245 177.178245 
L 234.25431 158.142353 
L 263.339375 175.063146 
L 292.42444 172.948047 
L 321.509505 170.832948 
L 350.59457 181.408443 
L 379.679635 172.948047 
L 408.7647 158.142353 
L 437.849765 183.523542 
L 466.93483 225.825524 
" clip-path="url(#p928bcdbbb1)" style="fill: none; stroke: #ff6347; stroke-width: 2; stroke-linecap: square"/>
   </g>
   <g id="patch_3">
    <path d="M 39.384375 307.757969 
L 39.384375 23.077969 
" style="fill: none; stroke: #000000; stroke-width: 0.8; stroke-linejoin: miter; stroke-linecap: square"/>
   </g>
   <g id="patch_4">
    <path d="M 39.384375 307.757969 
L 487.294375 307.757969 
" style="fill: none; stroke: #000000; stroke-width: 0.8; stroke-linejoin: miter; stroke-linecap: square"/>
   </g>
   <g id="text_19">
    <!-- Type 1 Error (%) — [strong_T1/rbf] Same mu -->
    <g transform="translate(118.947969 17.077969) scale(0.13 -0.13)">
     <defs>
      <path id="DejaVuSans-2014" d="M 313 1978 
L 6088 1978 
L 6088 1528 
L 313 1528 
L 313 1978 
z
" transform="scale(0.015625)"/>
      <path id="DejaVuSans-5b" d="M 550 4863 
L 1875 4863 
L 1875 4416 
L 1125 4416 
L 1125 -397 
L 1875 -397 
L 1875 -844 
L 550 -844 
L 550 4863 
z
" transform="scale(0.015625)"/>
      <path id="DejaVuSans-73" d="M 2834 3397 
L 2834 2853 
Q 2591 2978 2328 3040 
Q 2066 3103 1784 3103 
Q 1356 3103 1142 2972 
Q 928 2841 928 2578 
Q 928 2378 1081 2264 
Q 1234 2150 1697 2047 
L 1894 2003 
Q 2506 1872 2764 1633 
Q 3022 1394 3022 966 
Q 3022 478 2636 193 
Q 2250 -91 1575 -91 
Q 1294 -91 989 -36 
Q 684 19 347 128 
L 347 722 
Q 666 556 975 473 
Q 1284 391 1588 391 
Q 1994 391 2212 530 
Q 2431 669 2431 922 
Q 2431 1156 2273 1281 
Q 2116 1406 1581 1522 
L 1381 1569 
Q 847 1681 609 1914 
Q 372 2147 372 2553 
Q 372 3047 722 3315 
Q 1072 3584 1716 3584 
Q 2034 3584 2315 3537 
Q 2597 3491 2834 3397 
z
" transform="scale(0.015625)"/>
      <path id="DejaVuSans-74" d="M 1172 4494 
L 1172 3500 
L 2356 3500 
L 2356 3053 
L 1172 3053 
L 1172 1153 
Q 1172 725 1289 603 
Q 1406 481 1766 481 
L 2356 481 
L 2356 0 
L 1766 0 
Q 1100 0 847 248 
Q 594 497 594 1153 
L 594 3053 
L 172 3053 
L 172 3500 
L 594 3500 
L 594 4494 
L 1172 4494 
z
" transform="scale(0.015625)"/>
      <path id="DejaVuSans-6e" d="M 3513 2113 
L 3513 0 
L 2938 0 
L 2938 2094 
Q 2938 2591 2744 2837 
Q 2550 3084 2163 3084 
Q 1697 3084 1428 2787 
Q 1159 2491 1159 1978 
L 1159 0 
L 581 0 
L 581 3500 
L 1159 3500 
L 1159 2956 
Q 1366 3272 1645 3428 
Q 1925 3584 2291 3584 
Q 2894 3584 3203 3211 
Q 3513 2838 3513 2113 
z
" transform="scale(0.015625)"/>
      <path id="DejaVuSans-67" d="M 2906 1791 
Q 2906 2416 2648 2759 
Q 2391 3103 1925 3103 
Q 1463 3103 1205 2759 
Q 947 2416 947 1791 
Q 947 1169 1205 825 
Q 1463 481 1925 481 
Q 2391 481 2648 825 
Q 2906 1169 2906 1791 
z
M 3481 434 
Q 3481 -459 3084 -895 
Q 2688 -1331 1869 -1331 
Q 1566 -1331 1297 -1286 
Q 1028 -1241 775 -1147 
L 775 -588 
Q 1028 -725 1275 -790 
Q 1522 -856 1778 -856 
Q 2344 -856 2625 -561 
Q 2906 -266 2906 331 
L 2906 616 
Q 2728 306 2450 153 
Q 2172 0 1784 0 
Q 1141 0 747 490 
Q 353 981 353 1791 
Q 353 2603 747 3093 
Q 1141 3584 1784 3584 
Q 2172 3584 2450 3431 
Q 2728 3278 2906 2969 
L 2906 3500 
L 3481 3500 
L 3481 434 
z
" transform="scale(0.015625)"/>
      <path id="DejaVuSans-5f" d="M 3263 -1063 
L 3263 -1509 
L -63 -1509 
L -63 -1063 
L 3263 -1063 
z
" transform="scale(0.015625)"/>
      <path id="DejaVuSans-2f" d="M 1625 4666 
L 2156 4666 
L 531 -594 
L 0 -594 
L 1625 4666 
z
" transform="scale(0.015625)"/>
      <path id="DejaVuSans-62" d="M 3116 1747 
Q 3116 2381 2855 2742 
Q 2594 3103 2138 3103 
Q 1681 3103 1420 2742 
Q 1159 2381 1159 1747 
Q 1159 1113 1420 752 
Q 1681 391 2138 391 
Q 2594 391 2855 752 
Q 3116 1113 3116 1747 
z
M 1159 2969 
Q 1341 3281 1617 3432 
Q 1894 3584 2278 3584 
Q 2916 3584 3314 3078 
Q 3713 2572 3713 1747 
Q 3713 922 3314 415 
Q 2916 -91 2278 -91 
Q 1894 -91 1617 61 
Q 1341 213 1159 525 
L 1159 0 
L 581 0 
L 581 4863 
L 1159 4863 
L 1159 2969 
z
" transform="scale(0.015625)"/>
      <path id="DejaVuSans-66" d="M 2375 4863 
L 2375 4384 
L 1825 4384 
Q 1516 4384 1395 4259 
Q 1275 4134 1275 3809 
L 1275 3500 
L 2222 3500 
L 2222 3053 
L 1275 3053 
L 1275 0 
L 697 0 
L 697 3053 
L 147 3053 
L 147 3500 
L 697 3500 
L 697 3744 
Q 697 4328 969 4595 
Q 1241 4863 1831 4863 
L 2375 4863 
z
" transform="scale(0.015625)"/>
      <path id="DejaVuSans-5d" d="M 1947 4863 
L 1947 -844 
L 622 -844 
L 622 -397 
L 1369 -397 
L 1369 4416 
L 622 4416 
L 622 4863 
L 1947 4863 
z
" transform="scale(0.015625)"/>
      <path id="DejaVuSans-53" d="M 3425 4513 
L 3425 3897 
Q 3066 4069 2747 4153 
Q 2428 4238 2131 4238 
Q 1616 4238 1336 4038 
Q 1056 3838 1056 3469 
Q 1056 3159 1242 3001 
Q 1428 2844 1947 2747 
L 2328 2669 
Q 3034 2534 3370 2195 
Q 3706 1856 3706 1288 
Q 3706 609 3251 259 
Q 2797 -91 1919 -91 
Q 1588 -91 1214 -16 
Q 841 59 441 206 
L 441 856 
Q 825 641 1194 531 
Q 1563 422 1919 422 
Q 2459 422 2753 634 
Q 3047 847 3047 1241 
Q 3047 1584 2836 1778 
Q 2625 1972 2144 2069 
L 1759 2144 
Q 1053 2284 737 2584 
Q 422 2884 422 3419 
Q 422 4038 858 4394 
Q 1294 4750 2059 4750 
Q 2388 4750 2728 4690 
Q 3069 4631 3425 4513 
z
" transform="scale(0.015625)"/>
      <path id="DejaVuSans-61" d="M 2194 1759 
Q 1497 1759 1228 1600 
Q 959 1441 959 1056 
Q 959 750 1161 570 
Q 1363 391 1709 391 
Q 2188 391 2477 730 
Q 2766 1069 2766 1631 
L 2766 1759 
L 2194 1759 
z
M 3341 1997 
L 3341 0 
L 2766 0 
L 2766 531 
Q 2569 213 2275 61 
Q 1981 -91 1556 -91 
Q 1019 -91 701 211 
Q 384 513 384 1019 
Q 384 1609 779 1909 
Q 1175 2209 1959 2209 
L 2766 2209 
L 2766 2266 
Q 2766 2663 2505 2880 
Q 2244 3097 1772 3097 
Q 1472 3097 1187 3025 
Q 903 2953 641 2809 
L 641 3341 
Q 956 3463 1253 3523 
Q 1550 3584 1831 3584 
Q 2591 3584 2966 3190 
Q 3341 2797 3341 1997 
z
" transform="scale(0.015625)"/>
      <path id="DejaVuSans-6d" d="M 3328 2828 
Q 3544 3216 3844 3400 
Q 4144 3584 4550 3584 
Q 5097 3584 5394 3201 
Q 5691 2819 5691 2113 
L 5691 0 
L 5113 0 
L 5113 2094 
Q 5113 2597 4934 2840 
Q 4756 3084 4391 3084 
Q 3944 3084 3684 2787 
Q 3425 2491 3425 1978 
L 3425 0 
L 2847 0 
L 2847 2094 
Q 2847 2600 2669 2842 
Q 2491 3084 2119 3084 
Q 1678 3084 1418 2786 
Q 1159 2488 1159 1978 
L 1159 0 
L 581 0 
L 581 3500 
L 1159 3500 
L 1159 2956 
Q 1356 3278 1631 3431 
Q 1906 3584 2284 3584 
Q 2666 3584 2933 3390 
Q 3200 3197 3328 2828 
z
" transform="scale(0.015625)"/>
      <path id="DejaVuSans-75" d="M 544 1381 
L 544 3500 
L 1119 3500 
L 1119 1403 
Q 1119 906 1312 657 
Q 1506 409 1894 409 
Q 2359 409 2629 706 
Q 2900 1003 2900 1516 
L 2900 3500 
L 3475 3500 
L 3475 0 
L 2900 0 
L 2900 538 
Q 2691 219 2414 64 
Q 2138 -91 1772 -91 
Q 1169 -91 856 284 
Q 544 659 544 1381 
z
M 1991 3584 
L 1991 3584 
z
" transform="scale(0.015625)"/>
     </defs>
     <use xlink:href="#DejaVuSans-54"/>
     <use xlink:href="#DejaVuSans-79" transform="translate(45.458984 0)"/>
     <use xlink:href="#DejaVuSans-70" transform="translate(104.638672 0)"/>
     <use xlink:href="#DejaVuSans-65" transform="translate(168.115234 0)"/>
     <use xlink:href="#DejaVuSans-20" transform="translate(229.638672 0)"/>
     <use xlink:href="#DejaVuSans-31" transform="translate(261.425781 0)"/>
     <use xlink:href="#DejaVuSans-20" transform="translate(325.048828 0)"/>
     <use xlink:href="#DejaVuSans-45" transform="translate(356.835938 0)"/>
     <use xlink:href="#DejaVuSans-72" transform="translate(420.019531 0)"/>
     <use xlink:href="#DejaVuSans-72" transform="translate(459.382812 0)"/>
     <use xlink:href="#DejaVuSans-6f" transform="translate(498.246094 0)"/>
     <use xlink:href="#DejaVuSans-72" transform="translate(559.427734 0)"/>
     <use xlink:href="#DejaVuSans-20" transform="translate(600.541016 0)"/>
     <use xlink:href="#DejaVuSans-28" transform="translate(632.328125 0)"/>
     <use xlink:href="#DejaVuSans-25" transform="translate(671.341797 0)"/>
     <use xlink:href="#DejaVuSans-29" transform="translate(766.361328 0)"/>
     <use xlink:href="#DejaVuSans-20" transform="translate(805.375 0)"/>
     <use xlink:href="#DejaVuSans-2014" transform="translate(837.162109 0)"/>
     <use xlink:href="#DejaVuSans-20" transform="translate(937.162109 0)"/>
     <use xlink:href="#DejaVuSans-5b" transform="translate(968.949219 0)"/>
     <use xlink:href="#DejaVuSans-73" transform="translate(1007.962891 0)"/>
     <use xlink:href="#DejaVuSans-74" transform="translate(1060.0625 0)"/>
     <use xlink:href="#DejaVuSans-72" transform="translate(1099.271484 0)"/>
     <use xlink:href="#DejaVuSans-6f" transform="translate(1138.134766 0)"/>
     <use xlink:href="#DejaVuSans-6e" transform="translate(1199.316406 0)"/>
     <use xlink:href="#DejaVuSans-67" transform="translate(1262.695312 0)"/>
     <use xlink:href="#DejaVuSans-5f" transform="translate(1326.171875 0)"/>
     <use xlink:href="#DejaVuSans-54" transform="translate(1376.171875 0)"/>
     <use xlink:href="#DejaVuSans-31" transform="translate(1437.255859 0)"/>
     <use xlink:href="#DejaVuSans-2f" transform="translate(1500.878906 0)"/>
     <use xlink:href="#DejaVuSans-72" transform="translate(1534.570312 0)"/>
     <use xlink:href="#DejaVuSans-62" transform="translate(1575.683594 0)"/>
     <use xlink:href="#DejaVuSans-66" transform="translate(1639.160156 0)"/>
     <use xlink:href="#DejaVuSans-5d" transform="translate(1674.365234 0)"/>
     <use xlink:href="#DejaVuSans-20" transform="translate(1713.378906 0)"/>
     <use xlink:href="#DejaVuSans-53" transform="translate(1745.166016 0)"/>
     <use xlink:href="#DejaVuSans-61" transform="translate(1808.642578 0)"/>
     <use xlink:href="#DejaVuSans-6d" transform="translate(1869.921875 0)"/>
     <use xlink:href="#DejaVuSans-65" transform="translate(1967.333984 0)"/>
     <use xlink:href="#DejaVuSans-20" transform="translate(2028.857422 0)"/>
     <use xlink:href="#DejaVuSans-6d" transform="translate(2060.644531 0)"/>
     <use xlink:href="#DejaVuSans-75" transform="translate(2158.056641 0)"/>
    </g>
   </g>
  </g>
  <g id="axes_2">
   <g id="patch_5">
    <path d="M 545.544375 307.757969 
L 993.454375 307.757969 
L 993.454375 23.077969 
L 545.544375 23.077969 
z
" style="fill: #ffffff"/>
   </g>
   <g id="FillBetweenPolyCollection_2">
    <path d="M 565.90392 45.150679 
L 565.90392 91.516089 
L 594.988985 76.631899 
L 624.07405 82.079223 
L 653.159115 96.316908 
L 682.24418 115.823672 
L 711.329245 111.09855 
L 740.41431 126.47258 
L 769.499375 136.341198 
L 798.58444 174.200583 
L 827.669505 166.142816 
L 856.75457 195.345947 
L 885.839635 175.929185 
L 914.9247 221.889311 
L 944.009765 241.983136 
L 973.09483 294.817969 
L 973.09483 182.335497 
L 973.09483 182.335497 
L 944.009765 156.329901 
L 914.9247 139.169456 
L 885.839635 109.754663 
L 856.75457 124.993036 
L 827.669505 100.480708 
L 798.58444 78.560887 
L 769.499375 71.368596 
L 740.41431 63.043269 
L 711.329245 48.960434 
L 682.24418 56.36461 
L 653.159115 36.017969 
L 624.07405 45.057384 
L 594.988985 46.172815 
L 565.90392 45.150679 
z
" clip-path="url(#p7144118265)" style="fill: #1e90ff; fill-opacity: 0.3"/>
   </g>
   <g id="matplotlib.axis_3">
    <g id="xtick_8">
     <g id="line2d_34">
      <path d="M 565.90392 307.757969 
L 565.90392 23.077969 
" clip-path="url(#p7144118265)" style="fill: none; stroke: #000000; stroke-opacity: 0.15; stroke-width: 0.8; stroke-linecap: square"/>
     </g>
     <g id="line2d_35">
      <g>
       <use xlink:href="#mdd529df129" x="565.90392" y="307.757969" style="stroke: #000000; stroke-width: 0.8"/>
      </g>
     </g>
     <g id="text_20">
      <!-- 0.0 -->
      <g transform="translate(556.362045 323.876094) scale(0.12 -0.12)">
       <use xlink:href="#DejaVuSans-30"/>
       <use xlink:href="#DejaVuSans-2e" transform="translate(63.623047 0)"/>
       <use xlink:href="#DejaVuSans-30" transform="translate(95.410156 0)"/>
      </g>
     </g>
    </g>
    <g id="xtick_9">
     <g id="line2d_36">
      <path d="M 633.769072 307.757969 
L 633.769072 23.077969 
" clip-path="url(#p7144118265)" style="fill: none; stroke: #000000; stroke-opacity: 0.15; stroke-width: 0.8; stroke-linecap: square"/>
     </g>
     <g id="line2d_37">
      <g>
       <use xlink:href="#mdd529df129" x="633.769072" y="307.757969" style="stroke: #000000; stroke-width: 0.8"/>
      </g>
     </g>
     <g id="text_21">
      <!-- 0.1 -->
      <g transform="translate(624.227197 323.876094) scale(0.12 -0.12)">
       <use xlink:href="#DejaVuSans-30"/>
       <use xlink:href="#DejaVuSans-2e" transform="translate(63.623047 0)"/>
       <use xlink:href="#DejaVuSans-31" transform="translate(95.410156 0)"/>
      </g>
     </g>
    </g>
    <g id="xtick_10">
     <g id="line2d_38">
      <path d="M 701.634223 307.757969 
L 701.634223 23.077969 
" clip-path="url(#p7144118265)" style="fill: none; stroke: #000000; stroke-opacity: 0.15; stroke-width: 0.8; stroke-linecap: square"/>
     </g>
     <g id="line2d_39">
      <g>
       <use xlink:href="#mdd529df129" x="701.634223" y="307.757969" style="stroke: #000000; stroke-width: 0.8"/>
      </g>
     </g>
     <g id="text_22">
      <!-- 0.2 -->
      <g transform="translate(692.092348 323.876094) scale(0.12 -0.12)">
       <use xlink:href="#DejaVuSans-30"/>
       <use xlink:href="#DejaVuSans-2e" transform="translate(63.623047 0)"/>
       <use xlink:href="#DejaVuSans-32" transform="translate(95.410156 0)"/>
      </g>
     </g>
    </g>
    <g id="xtick_11">
     <g id="line2d_40">
      <path d="M 769.499375 307.757969 
L 769.499375 23.077969 
" clip-path="url(#p7144118265)" style="fill: none; stroke: #000000; stroke-opacity: 0.15; stroke-width: 0.8; stroke-linecap: square"/>
     </g>
     <g id="line2d_41">
      <g>
       <use xlink:href="#mdd529df129" x="769.499375" y="307.757969" style="stroke: #000000; stroke-width: 0.8"/>
      </g>
     </g>
     <g id="text_23">
      <!-- 0.3 -->
      <g transform="translate(759.9575 323.876094) scale(0.12 -0.12)">
       <use xlink:href="#DejaVuSans-30"/>
       <use xlink:href="#DejaVuSans-2e" transform="translate(63.623047 0)"/>
       <use xlink:href="#DejaVuSans-33" transform="translate(95.410156 0)"/>
      </g>
     </g>
    </g>
    <g id="xtick_12">
     <g id="line2d_42">
      <path d="M 837.364527 307.757969 
L 837.364527 23.077969 
" clip-path="url(#p7144118265)" style="fill: none; stroke: #000000; stroke-opacity: 0.15; stroke-width: 0.8; stroke-linecap: square"/>
     </g>
     <g id="line2d_43">
      <g>
       <use xlink:href="#mdd529df129" x="837.364527" y="307.757969" style="stroke: #000000; stroke-width: 0.8"/>
      </g>
     </g>
     <g id="text_24">
      <!-- 0.4 -->
      <g transform="translate(827.822652 323.876094) scale(0.12 -0.12)">
       <use xlink:href="#DejaVuSans-30"/>
       <use xlink:href="#DejaVuSans-2e" transform="translate(63.623047 0)"/>
       <use xlink:href="#DejaVuSans-34" transform="translate(95.410156 0)"/>
      </g>
     </g>
    </g>
    <g id="xtick_13">
     <g id="line2d_44">
      <path d="M 905.229678 307.757969 
L 905.229678 23.077969 
" clip-path="url(#p7144118265)" style="fill: none; stroke: #000000; stroke-opacity: 0.15; stroke-width: 0.8; stroke-linecap: square"/>
     </g>
     <g id="line2d_45">
      <g>
       <use xlink:href="#mdd529df129" x="905.229678" y="307.757969" style="stroke: #000000; stroke-width: 0.8"/>
      </g>
     </g>
     <g id="text_25">
      <!-- 0.5 -->
      <g transform="translate(895.687803 323.876094) scale(0.12 -0.12)">
       <use xlink:href="#DejaVuSans-30"/>
       <use xlink:href="#DejaVuSans-2e" transform="translate(63.623047 0)"/>
       <use xlink:href="#DejaVuSans-35" transform="translate(95.410156 0)"/>
      </g>
     </g>
    </g>
    <g id="xtick_14">
     <g id="line2d_46">
      <path d="M 973.09483 307.757969 
L 973.09483 23.077969 
" clip-path="url(#p7144118265)" style="fill: none; stroke: #000000; stroke-opacity: 0.15; stroke-width: 0.8; stroke-linecap: square"/>
     </g>
     <g id="line2d_47">
      <g>
       <use xlink:href="#mdd529df129" x="973.09483" y="307.757969" style="stroke: #000000; stroke-width: 0.8"/>
      </g>
     </g>
     <g id="text_26">
      <!-- 0.6 -->
      <g transform="translate(963.552955 323.876094) scale(0.12 -0.12)">
       <use xlink:href="#DejaVuSans-30"/>
       <use xlink:href="#DejaVuSans-2e" transform="translate(63.623047 0)"/>
       <use xlink:href="#DejaVuSans-36" transform="translate(95.410156 0)"/>
      </g>
     </g>
    </g>
    <g id="text_27">
     <!-- $\alpha_1 - \alpha_0$ -->
     <g transform="translate(744.999375 341.009531) scale(0.14 -0.14)">
      <use xlink:href="#DejaVuSans-Oblique-3b1" transform="translate(0 0.84375)"/>
      <use xlink:href="#DejaVuSans-31" transform="translate(65.917969 -15.5625) scale(0.7)"/>
      <use xlink:href="#DejaVuSans-2212" transform="translate(132.670898 0.84375)"/>
      <use xlink:href="#DejaVuSans-Oblique-3b1" transform="translate(235.942383 0.84375)"/>
      <use xlink:href="#DejaVuSans-30" transform="translate(301.860352 -15.5625) scale(0.7)"/>
     </g>
    </g>
   </g>
   <g id="matplotlib.axis_4">
    <g id="ytick_10">
     <g id="line2d_48">
      <path d="M 545.544375 287.527112 
L 993.454375 287.527112 
" clip-path="url(#p7144118265)" style="fill: none; stroke: #000000; stroke-opacity: 0.15; stroke-width: 0.8; stroke-linecap: square"/>
     </g>
     <g id="line2d_49">
      <g>
       <use xlink:href="#m158e639db7" x="545.544375" y="287.527112" style="stroke: #000000; stroke-width: 0.8"/>
      </g>
     </g>
     <g id="text_28">
      <!-- 60 -->
      <g transform="translate(523.274375 292.086175) scale(0.12 -0.12)">
       <use xlink:href="#DejaVuSans-36"/>
       <use xlink:href="#DejaVuSans-30" transform="translate(63.623047 0)"/>
      </g>
     </g>
    </g>
    <g id="ytick_11">
     <g id="line2d_50">
      <path d="M 545.544375 255.037923 
L 993.454375 255.037923 
" clip-path="url(#p7144118265)" style="fill: none; stroke: #000000; stroke-opacity: 0.15; stroke-width: 0.8; stroke-linecap: square"/>
     </g>
     <g id="line2d_51">
      <g>
       <use xlink:href="#m158e639db7" x="545.544375" y="255.037923" style="stroke: #000000; stroke-width: 0.8"/>
      </g>
     </g>
     <g id="text_29">
      <!-- 65 -->
      <g transform="translate(523.274375 259.596986) scale(0.12 -0.12)">
       <use xlink:href="#DejaVuSans-36"/>
       <use xlink:href="#DejaVuSans-35" transform="translate(63.623047 0)"/>
      </g>
     </g>
    </g>
    <g id="ytick_12">
     <g id="line2d_52">
      <path d="M 545.544375 222.548734 
L 993.454375 222.548734 
" clip-path="url(#p7144118265)" style="fill: none; stroke: #000000; stroke-opacity: 0.15; stroke-width: 0.8; stroke-linecap: square"/>
     </g>
     <g id="line2d_53">
      <g>
       <use xlink:href="#m158e639db7" x="545.544375" y="222.548734" style="stroke: #000000; stroke-width: 0.8"/>
      </g>
     </g>
     <g id="text_30">
      <!-- 70 -->
      <g transform="translate(523.274375 227.107797) scale(0.12 -0.12)">
       <use xlink:href="#DejaVuSans-37"/>
       <use xlink:href="#DejaVuSans-30" transform="translate(63.623047 0)"/>
      </g>
     </g>
    </g>
    <g id="ytick_13">
     <g id="line2d_54">
      <path d="M 545.544375 190.059545 
L 993.454375 190.059545 
" clip-path="url(#p7144118265)" style="fill: none; stroke: #000000; stroke-opacity: 0.15; stroke-width: 0.8; stroke-linecap: square"/>
     </g>
     <g id="line2d_55">
      <g>
       <use xlink:href="#m158e639db7" x="545.544375" y="190.059545" style="stroke: #000000; stroke-width: 0.8"/>
      </g>
     </g>
     <g id="text_31">
      <!-- 75 -->
      <g transform="translate(523.274375 194.618608) scale(0.12 -0.12)">
       <use xlink:href="#DejaVuSans-37"/>
       <use xlink:href="#DejaVuSans-35" transform="translate(63.623047 0)"/>
      </g>
     </g>
    </g>
    <g id="ytick_14">
     <g id="line2d_56">
      <path d="M 545.544375 157.570357 
L 993.454375 157.570357 
" clip-path="url(#p7144118265)" style="fill: none; stroke: #000000; stroke-opacity: 0.15; stroke-width: 0.8; stroke-linecap: square"/>
     </g>
     <g id="line2d_57">
      <g>
       <use xlink:href="#m158e639db7" x="545.544375" y="157.570357" style="stroke: #000000; stroke-width: 0.8"/>
      </g>
     </g>
     <g id="text_32">
      <!-- 80 -->
      <g transform="translate(523.274375 162.129419) scale(0.12 -0.12)">
       <use xlink:href="#DejaVuSans-38"/>
       <use xlink:href="#DejaVuSans-30" transform="translate(63.623047 0)"/>
      </g>
     </g>
    </g>
    <g id="ytick_15">
     <g id="line2d_58">
      <path d="M 545.544375 125.081168 
L 993.454375 125.081168 
" clip-path="url(#p7144118265)" style="fill: none; stroke: #000000; stroke-opacity: 0.15; stroke-width: 0.8; stroke-linecap: square"/>
     </g>
     <g id="line2d_59">
      <g>
       <use xlink:href="#m158e639db7" x="545.544375" y="125.081168" style="stroke: #000000; stroke-width: 0.8"/>
      </g>
     </g>
     <g id="text_33">
      <!-- 85 -->
      <g transform="translate(523.274375 129.64023) scale(0.12 -0.12)">
       <use xlink:href="#DejaVuSans-38"/>
       <use xlink:href="#DejaVuSans-35" transform="translate(63.623047 0)"/>
      </g>
     </g>
    </g>
    <g id="ytick_16">
     <g id="line2d_60">
      <path d="M 545.544375 92.591979 
L 993.454375 92.591979 
" clip-path="url(#p7144118265)" style="fill: none; stroke: #000000; stroke-opacity: 0.15; stroke-width: 0.8; stroke-linecap: square"/>
     </g>
     <g id="line2d_61">
      <g>
       <use xlink:href="#m158e639db7" x="545.544375" y="92.591979" style="stroke: #000000; stroke-width: 0.8"/>
      </g>
     </g>
     <g id="text_34">
      <!-- 90 -->
      <g transform="translate(523.274375 97.151041) scale(0.12 -0.12)">
       <use xlink:href="#DejaVuSans-39"/>
       <use xlink:href="#DejaVuSans-30" transform="translate(63.623047 0)"/>
      </g>
     </g>
    </g>
    <g id="ytick_17">
     <g id="line2d_62">
      <path d="M 545.544375 60.10279 
L 993.454375 60.10279 
" clip-path="url(#p7144118265)" style="fill: none; stroke: #000000; stroke-opacity: 0.15; stroke-width: 0.8; stroke-linecap: square"/>
     </g>
     <g id="line2d_63">
      <g>
       <use xlink:href="#m158e639db7" x="545.544375" y="60.10279" style="stroke: #000000; stroke-width: 0.8"/>
      </g>
     </g>
     <g id="text_35">
      <!-- 95 -->
      <g transform="translate(523.274375 64.661852) scale(0.12 -0.12)">
       <use xlink:href="#DejaVuSans-39"/>
       <use xlink:href="#DejaVuSans-35" transform="translate(63.623047 0)"/>
      </g>
     </g>
    </g>
    <g id="ytick_18">
     <g id="line2d_64">
      <path d="M 545.544375 27.613601 
L 993.454375 27.613601 
" clip-path="url(#p7144118265)" style="fill: none; stroke: #000000; stroke-opacity: 0.15; stroke-width: 0.8; stroke-linecap: square"/>
     </g>
     <g id="line2d_65">
      <g>
       <use xlink:href="#m158e639db7" x="545.544375" y="27.613601" style="stroke: #000000; stroke-width: 0.8"/>
      </g>
     </g>
     <g id="text_36">
      <!-- 100 -->
      <g transform="translate(515.639375 32.172663) scale(0.12 -0.12)">
       <use xlink:href="#DejaVuSans-31"/>
       <use xlink:href="#DejaVuSans-30" transform="translate(63.623047 0)"/>
       <use xlink:href="#DejaVuSans-30" transform="translate(127.246094 0)"/>
      </g>
     </g>
    </g>
    <g id="text_37">
     <!-- Type 2 Error (%) -->
     <g transform="translate(508.727812 221.794219) rotate(-90) scale(0.14 -0.14)">
      <use xlink:href="#DejaVuSans-54"/>
      <use xlink:href="#DejaVuSans-79" transform="translate(45.458984 0)"/>
      <use xlink:href="#DejaVuSans-70" transform="translate(104.638672 0)"/>
      <use xlink:href="#DejaVuSans-65" transform="translate(168.115234 0)"/>
      <use xlink:href="#DejaVuSans-20" transform="translate(229.638672 0)"/>
      <use xlink:href="#DejaVuSans-32" transform="translate(261.425781 0)"/>
      <use xlink:href="#DejaVuSans-20" transform="translate(325.048828 0)"/>
      <use xlink:href="#DejaVuSans-45" transform="translate(356.835938 0)"/>
      <use xlink:href="#DejaVuSans-72" transform="translate(420.019531 0)"/>
      <use xlink:href="#DejaVuSans-72" transform="translate(459.382812 0)"/>
      <use xlink:href="#DejaVuSans-6f" transform="translate(498.246094 0)"/>
      <use xlink:href="#DejaVuSans-72" transform="translate(559.427734 0)"/>
      <use xlink:href="#DejaVuSans-20" transform="translate(600.541016 0)"/>
      <use xlink:href="#DejaVuSans-28" transform="translate(632.328125 0)"/>
      <use xlink:href="#DejaVuSans-25" transform="translate(671.341797 0)"/>
      <use xlink:href="#DejaVuSans-29" transform="translate(766.361328 0)"/>
     </g>
    </g>
   </g>
   <g id="line2d_66">
    <path d="M 565.90392 68.333384 
L 594.988985 61.402357 
L 624.07405 63.568303 
L 653.159115 66.167438 
L 682.24418 86.094141 
L 711.329245 80.029492 
L 740.41431 94.757924 
L 769.499375 103.854897 
L 798.58444 126.380735 
L 827.669505 133.311762 
L 856.75457 160.169492 
L 885.839635 142.841924 
L 914.9247 180.529383 
L 944.009765 199.156518 
L 973.09483 238.576733 
" clip-path="url(#p7144118265)" style="fill: none; stroke: #1e90ff; stroke-width: 2; stroke-linecap: square"/>
   </g>
   <g id="patch_6">
    <path d="M 545.544375 307.757969 
L 545.544375 23.077969 
" style="fill: none; stroke: #000000; stroke-width: 0.8; stroke-linejoin: miter; stroke-linecap: square"/>
   </g>
   <g id="patch_7">
    <path d="M 545.544375 307.757969 
L 993.454375 307.757969 
" style="fill: none; stroke: #000000; stroke-width: 0.8; stroke-linejoin: miter; stroke-linecap: square"/>
   </g>
   <g id="text_38">
    <!-- Type 2 Error (%) — [strong_T1/rbf] Same mu -->
    <g transform="translate(625.107969 17.077969) scale(0.13 -0.13)">
     <use xlink:href="#DejaVuSans-54"/>
     <use xlink:href="#DejaVuSans-79" transform="translate(45.458984 0)"/>
     <use xlink:href="#DejaVuSans-70" transform="translate(104.638672 0)"/>
     <use xlink:href="#DejaVuSans-65" transform="translate(168.115234 0)"/>
     <use xlink:href="#DejaVuSans-20" transform="translate(229.638672 0)"/>
     <use xlink:href="#DejaVuSans-32" transform="translate(261.425781 0)"/>
     <use xlink:href="#DejaVuSans-20" transform="translate(325.048828 0)"/>
     <use xlink:href="#DejaVuSans-45" transform="translate(356.835938 0)"/>
     <use xlink:href="#DejaVuSans-72" transform="translate(420.019531 0)"/>
     <use xlink:href="#DejaVuSans-72" transform="translate(459.382812 0)"/>
     <use xlink:href="#DejaVuSans-6f" transform="translate(498.246094 0)"/>
     <use xlink:href="#DejaVuSans-72" transform="translate(559.427734 0)"/>
     <use xlink:href="#DejaVuSans-20" transform="translate(600.541016 0)"/>
     <use xlink:href="#DejaVuSans-28" transform="translate(632.328125 0)"/>
     <use xlink:href="#DejaVuSans-25" transform="translate(671.341797 0)"/>
     <use xlink:href="#DejaVuSans-29" transform="translate(766.361328 0)"/>
     <use xlink:href="#DejaVuSans-20" transform="translate(805.375 0)"/>
     <use xlink:href="#DejaVuSans-2014" transform="translate(837.162109 0)"/>
     <use xlink:href="#DejaVuSans-20" transform="translate(937.162109 0)"/>
     <use xlink:href="#DejaVuSans-5b" transform="translate(968.949219 0)"/>
     <use xlink:href="#DejaVuSans-73" transform="translate(1007.962891 0)"/>
     <use xlink:href="#DejaVuSans-74" transform="translate(1060.0625 0)"/>
     <use xlink:href="#DejaVuSans-72" transform="translate(1099.271484 0)"/>
     <use xlink:href="#DejaVuSans-6f" transform="translate(1138.134766 0)"/>
     <use xlink:href="#DejaVuSans-6e" transform="translate(1199.316406 0)"/>
     <use xlink:href="#DejaVuSans-67" transform="translate(1262.695312 0)"/>
     <use xlink:href="#DejaVuSans-5f" transform="translate(1326.171875 0)"/>
     <use xlink:href="#DejaVuSans-54" transform="translate(1376.171875 0)"/>
     <use xlink:href="#DejaVuSans-31" transform="translate(1437.255859 0)"/>
     <use xlink:href="#DejaVuSans-2f" transform="translate(1500.878906 0)"/>
     <use xlink:href="#DejaVuSans-72" transform="translate(1534.570312 0)"/>
     <use xlink:href="#DejaVuSans-62" transform="translate(1575.683594 0)"/>
     <use xlink:href="#DejaVuSans-66" transform="translate(1639.160156 0)"/>
     <use xlink:href="#DejaVuSans-5d" transform="translate(1674.365234 0)"/>
     <use xlink:href="#DejaVuSans-20" transform="translate(1713.378906 0)"/>
     <use xlink:href="#DejaVuSans-53" transform="translate(1745.166016 0)"/>
     <use xlink:href="#DejaVuSans-61" transform="translate(1808.642578 0)"/>
     <use xlink:href="#DejaVuSans-6d" transform="translate(1869.921875 0)"/>
     <use xlink:href="#DejaVuSans-65" transform="translate(1967.333984 0)"/>
     <use xlink:href="#DejaVuSans-20" transform="translate(2028.857422 0)"/>
     <use xlink:href="#DejaVuSans-6d" transform="translate(2060.644531 0)"/>
     <use xlink:href="#DejaVuSans-75" transform="translate(2158.056641 0)"/>
    </g>
   </g>
  </g>
 </g>
 <defs>
  <clipPath id="p928bcdbbb1">
   <rect x="39.384375" y="23.077969" width="447.91" height="284.68"/>
  </clipPath>
  <clipPath id="p7144118265">
   <rect x="545.544375" y="23.077969" width="447.91" height="284.68"/>
  </clipPath>
 </defs>
</svg>
