<?xml version="1.0" encoding="utf-8" standalone="no"?>
<!DOCTYPE svg PUBLIC "-//W3C//DTD SVG 1.1//EN"
  "http://www.w3.org/Graphics/SVG/1.1/DTD/svg11.dtd">
<svg xmlns:xlink="http://www.w3.org/1999/xlink" width="1008pt" height="360pt" viewBox="0 0 1008 360" xmlns="http://www.w3.org/2000/svg" version="1.1">
 <metadata>
  <rdf:RDF xmlns:dc="http://purl.org/dc/elements/1.1/" xmlns:cc="http://creativecommons.org/ns#" xmlns:rdf="http://www.w3.org/1999/02/22-rdf-syntax-ns#">
   <cc:Work>
    <dc:type rdf:resource="http://purl.org/dc/dcmitype/StillImage"/>
    <dc:date>2026-04-01T01:31:15.545386</dc:date>
    <dc:format>image/svg+xml</dc:format>
    <dc:creator>
     <cc:Agent>
      <dc:title>Matplotlib v3.10.8, https://matplotlib.org/</dc:title>
     </cc:Agent>
    </dc:creator>
   </cc:Work>
  </rdf:RDF>
 </metadata>
 <defs>
  <style type="text/css">*{stroke-linejoin: round; stroke-linecap: butt}</style>
 </defs>
 <g id="figure_1">
  <g id="patch_1">
   <path d="M 0 360 
L 1008 360 
L 1008 0 
L 0 0 
z
" style="fill: #ffffff"/>
  </g>
  <g id="axes_1">
   <g id="patch_2">
    <path d="M 41.15 312.28 
L 492.3 312.28 
L 492.3 26.88 
L 41.15 26.88 
z
" style="fill: #ffffff"/>
   </g>
   <g id="FillBetweenPolyCollection_1">
    <defs>
     <path id="mb5f72a3521" d="M 61.656818 -277.55883 
L 61.656818 -114.960272 
L 130.012879 -142.767919 
L 198.368939 -161.243869 
L 266.725 -141.178733 
L 335.081061 -131.013942 
L 403.437121 -116.701361 
L 471.793182 -97.049471 
L 471.793182 -306.657017 
L 471.793182 -306.657017 
L 403.437121 -273.580264 
L 335.081061 -288.354887 
L 266.725 -255.815324 
L 198.368939 -296.162071 
L 130.012879 -281.075863 
L 61.656818 -277.55883 
z
" style="stroke: #440154; stroke-opacity: 0.2"/>
    </defs>
    <g clip-path="url(#pd69218f01b)">
     <use xlink:href="#mb5f72a3521" x="0" y="360" style="fill: #440154; fill-opacity: 0.2; stroke: #440154; stroke-opacity: 0.2"/>
    </g>
   </g>
   <g id="FillBetweenPolyCollection_2">
    <defs>
     <path id="ma161c5da8f" d="M 61.656818 -258.781208 
L 61.656818 -131.500418 
L 130.012879 -133.575955 
L 198.368939 -192.903336 
L 266.725 -143.472595 
L 335.081061 -181.379174 
L 403.437121 -133.133122 
L 471.793182 -137.582646 
L 471.793182 -275.07375 
L 471.793182 -275.07375 
L 403.437121 -304.135524 
L 335.081061 -300.639014 
L 266.725 -289.321096 
L 198.368939 -315.964578 
L 130.012879 -243.280808 
L 61.656818 -258.781208 
z
" style="stroke: #3e4a89; stroke-opacity: 0.2"/>
    </defs>
    <g clip-path="url(#pd69218f01b)">
     <use xlink:href="#ma161c5da8f" x="0" y="360" style="fill: #3e4a89; fill-opacity: 0.2; stroke: #3e4a89; stroke-opacity: 0.2"/>
    </g>
   </g>
   <g id="FillBetweenPolyCollection_3">
    <defs>
     <path id="mab88bd56d3" d="M 61.656818 -231.318116 
L 61.656818 -85.126764 
L 130.012879 -60.692727 
L 198.368939 -151.39515 
L 266.725 -121.504162 
L 335.081061 -110.450986 
L 403.437121 -114.883896 
L 471.793182 -178.710321 
L 471.793182 -303.307867 
L 471.793182 -303.307867 
L 403.437121 -320.147273 
L 335.081061 -214.943803 
L 266.725 -246.402693 
L 198.368939 -314.960698 
L 130.012879 -186.390361 
L 61.656818 -231.318116 
z
" style="stroke: #25848e; stroke-opacity: 0.2"/>
    </defs>
    <g clip-path="url(#pd69218f01b)">
     <use xlink:href="#mab88bd56d3" x="0" y="360" style="fill: #25848e; fill-opacity: 0.2; stroke: #25848e; stroke-opacity: 0.2"/>
    </g>
   </g>
   <g id="FillBetweenPolyCollection_4">
    <defs>
     <path id="m0eeea2dd4d" d="M 61.656818 -221.481757 
L 61.656818 -103.913032 
L 130.012879 -151.275565 
L 198.368939 -111.225777 
L 266.725 -142.536468 
L 335.081061 -173.949867 
L 403.437121 -127.579452 
L 471.793182 -117.938529 
L 471.793182 -252.205802 
L 471.793182 -252.205802 
L 403.437121 -242.56488 
L 335.081061 -270.03121 
L 266.725 -301.444609 
L 198.368939 -241.018738 
L 130.012879 -263.618309 
L 61.656818 -221.481757 
z
" style="stroke: #38b977; stroke-opacity: 0.2"/>
    </defs>
    <g clip-path="url(#pd69218f01b)">
     <use xlink:href="#m0eeea2dd4d" x="0" y="360" style="fill: #38b977; fill-opacity: 0.2; stroke: #38b977; stroke-opacity: 0.2"/>
    </g>
   </g>
   <g id="FillBetweenPolyCollection_5">
    <defs>
     <path id="mba0803ac9d" d="M 61.656818 -290.492006 
L 61.656818 -169.151411 
L 130.012879 -115.047575 
L 198.368939 -160.58762 
L 266.725 -121.834104 
L 335.081061 -156.698002 
L 403.437121 -138.325402 
L 471.793182 -140.941781 
L 471.793182 -271.714616 
L 471.793182 -271.714616 
L 403.437121 -247.481269 
L 335.081061 -305.182892 
L 266.725 -281.872384 
L 198.368939 -287.868411 
L 130.012879 -257.334233 
L 61.656818 -290.492006 
z
" style="stroke: #bddf26; stroke-opacity: 0.2"/>
    </defs>
    <g clip-path="url(#pd69218f01b)">
     <use xlink:href="#mba0803ac9d" x="0" y="360" style="fill: #bddf26; fill-opacity: 0.2; stroke: #bddf26; stroke-opacity: 0.2"/>
    </g>
   </g>
   <g id="matplotlib.axis_1">
    <g id="xtick_1">
     <g id="line2d_1">
      <path d="M 61.656818 312.28 
L 61.656818 26.88 
" clip-path="url(#pd69218f01b)" style="fill: none; stroke-dasharray: 2.96,1.28; stroke-dashoffset: 0; stroke: #b0b0b0; stroke-opacity: 0.6; stroke-width: 0.8"/>
     </g>
     <g id="line2d_2">
      <defs>
       <path id="ma8dfdd5838" d="M 0 0 
L 0 3.5 
" style="stroke: #000000; stroke-width: 0.8"/>
      </defs>
      <g>
       <use xlink:href="#ma8dfdd5838" x="61.656818" y="312.28" style="stroke: #000000; stroke-width: 0.8"/>
      </g>
     </g>
     <g id="text_1">
      <!-- 2 -->
      <g transform="translate(58.475568 326.878438) scale(0.1 -0.1)">
       <defs>
        <path id="DejaVuSans-32" d="M 1228 531 
L 3431 531 
L 3431 0 
L 469 0 
L 469 531 
Q 828 903 1448 1529 
Q 2069 2156 2228 2338 
Q 2531 2678 2651 2914 
Q 2772 3150 2772 3378 
Q 2772 3750 2511 3984 
Q 2250 4219 1831 4219 
Q 1534 4219 1204 4116 
Q 875 4013 500 3803 
L 500 4441 
Q 881 4594 1212 4672 
Q 1544 4750 1819 4750 
Q 2544 4750 2975 4387 
Q 3406 4025 3406 3419 
Q 3406 3131 3298 2873 
Q 3191 2616 2906 2266 
Q 2828 2175 2409 1742 
Q 1991 1309 1228 531 
z
" transform="scale(0.015625)"/>
       </defs>
       <use xlink:href="#DejaVuSans-32"/>
      </g>
     </g>
    </g>
    <g id="xtick_2">
     <g id="line2d_3">
      <path d="M 130.012879 312.28 
L 130.012879 26.88 
" clip-path="url(#pd69218f01b)" style="fill: none; stroke-dasharray: 2.96,1.28; stroke-dashoffset: 0; stroke: #b0b0b0; stroke-opacity: 0.6; stroke-width: 0.8"/>
     </g>
     <g id="line2d_4">
      <g>
       <use xlink:href="#ma8dfdd5838" x="130.012879" y="312.28" style="stroke: #000000; stroke-width: 0.8"/>
      </g>
     </g>
     <g id="text_2">
      <!-- 3 -->
      <g transform="translate(126.831629 326.878438) scale(0.1 -0.1)">
       <defs>
        <path id="DejaVuSans-33" d="M 2597 2516 
Q 3050 2419 3304 2112 
Q 3559 1806 3559 1356 
Q 3559 666 3084 287 
Q 2609 -91 1734 -91 
Q 1441 -91 1130 -33 
Q 819 25 488 141 
L 488 750 
Q 750 597 1062 519 
Q 1375 441 1716 441 
Q 2309 441 2620 675 
Q 2931 909 2931 1356 
Q 2931 1769 2642 2001 
Q 2353 2234 1838 2234 
L 1294 2234 
L 1294 2753 
L 1863 2753 
Q 2328 2753 2575 2939 
Q 2822 3125 2822 3475 
Q 2822 3834 2567 4026 
Q 2313 4219 1838 4219 
Q 1578 4219 1281 4162 
Q 984 4106 628 3988 
L 628 4550 
Q 988 4650 1302 4700 
Q 1616 4750 1894 4750 
Q 2613 4750 3031 4423 
Q 3450 4097 3450 3541 
Q 3450 3153 3228 2886 
Q 3006 2619 2597 2516 
z
" transform="scale(0.015625)"/>
       </defs>
       <use xlink:href="#DejaVuSans-33"/>
      </g>
     </g>
    </g>
    <g id="xtick_3">
     <g id="line2d_5">
      <path d="M 198.368939 312.28 
L 198.368939 26.88 
" clip-path="url(#pd69218f01b)" style="fill: none; stroke-dasharray: 2.96,1.28; stroke-dashoffset: 0; stroke: #b0b0b0; stroke-opacity: 0.6; stroke-width: 0.8"/>
     </g>
     <g id="line2d_6">
      <g>
       <use xlink:href="#ma8dfdd5838" x="198.368939" y="312.28" style="stroke: #000000; stroke-width: 0.8"/>
      </g>
     </g>
     <g id="text_3">
      <!-- 4 -->
      <g transform="translate(195.187689 326.878438) scale(0.1 -0.1)">
       <defs>
        <path id="DejaVuSans-34" d="M 2419 4116 
L 825 1625 
L 2419 1625 
L 2419 4116 
z
M 2253 4666 
L 3047 4666 
L 3047 1625 
L 3713 1625 
L 3713 1100 
L 3047 1100 
L 3047 0 
L 2419 0 
L 2419 1100 
L 313 1100 
L 313 1709 
L 2253 4666 
z
" transform="scale(0.015625)"/>
       </defs>
       <use xlink:href="#DejaVuSans-34"/>
      </g>
     </g>
    </g>
    <g id="xtick_4">
     <g id="line2d_7">
      <path d="M 266.725 312.28 
L 266.725 26.88 
" clip-path="url(#pd69218f01b)" style="fill: none; stroke-dasharray: 2.96,1.28; stroke-dashoffset: 0; stroke: #b0b0b0; stroke-opacity: 0.6; stroke-width: 0.8"/>
     </g>
     <g id="line2d_8">
      <g>
       <use xlink:href="#ma8dfdd5838" x="266.725" y="312.28" style="stroke: #000000; stroke-width: 0.8"/>
      </g>
     </g>
     <g id="text_4">
      <!-- 5 -->
      <g transform="translate(263.54375 326.878438) scale(0.1 -0.1)">
       <defs>
        <path id="DejaVuSans-35" d="M 691 4666 
L 3169 4666 
L 3169 4134 
L 1269 4134 
L 1269 2991 
Q 1406 3038 1543 3061 
Q 1681 3084 1819 3084 
Q 2600 3084 3056 2656 
Q 3513 2228 3513 1497 
Q 3513 744 3044 326 
Q 2575 -91 1722 -91 
Q 1428 -91 1123 -41 
Q 819 9 494 109 
L 494 744 
Q 775 591 1075 516 
Q 1375 441 1709 441 
Q 2250 441 2565 725 
Q 2881 1009 2881 1497 
Q 2881 1984 2565 2268 
Q 2250 2553 1709 2553 
Q 1456 2553 1204 2497 
Q 953 2441 691 2322 
L 691 4666 
z
" transform="scale(0.015625)"/>
       </defs>
       <use xlink:href="#DejaVuSans-35"/>
      </g>
     </g>
    </g>
    <g id="xtick_5">
     <g id="line2d_9">
      <path d="M 335.081061 312.28 
L 335.081061 26.88 
" clip-path="url(#pd69218f01b)" style="fill: none; stroke-dasharray: 2.96,1.28; stroke-dashoffset: 0; stroke: #b0b0b0; stroke-opacity: 0.6; stroke-width: 0.8"/>
     </g>
     <g id="line2d_10">
      <g>
       <use xlink:href="#ma8dfdd5838" x="335.081061" y="312.28" style="stroke: #000000; stroke-width: 0.8"/>
      </g>
     </g>
     <g id="text_5">
      <!-- 6 -->
      <g transform="translate(331.899811 326.878438) scale(0.1 -0.1)">
       <defs>
        <path id="DejaVuSans-36" d="M 2113 2584 
Q 1688 2584 1439 2293 
Q 1191 2003 1191 1497 
Q 1191 994 1439 701 
Q 1688 409 2113 409 
Q 2538 409 2786 701 
Q 3034 994 3034 1497 
Q 3034 2003 2786 2293 
Q 2538 2584 2113 2584 
z
M 3366 4563 
L 3366 3988 
Q 3128 4100 2886 4159 
Q 2644 4219 2406 4219 
Q 1781 4219 1451 3797 
Q 1122 3375 1075 2522 
Q 1259 2794 1537 2939 
Q 1816 3084 2150 3084 
Q 2853 3084 3261 2657 
Q 3669 2231 3669 1497 
Q 3669 778 3244 343 
Q 2819 -91 2113 -91 
Q 1303 -91 875 529 
Q 447 1150 447 2328 
Q 447 3434 972 4092 
Q 1497 4750 2381 4750 
Q 2619 4750 2861 4703 
Q 3103 4656 3366 4563 
z
" transform="scale(0.015625)"/>
       </defs>
       <use xlink:href="#DejaVuSans-36"/>
      </g>
     </g>
    </g>
    <g id="xtick_6">
     <g id="line2d_11">
      <path d="M 403.437121 312.28 
L 403.437121 26.88 
" clip-path="url(#pd69218f01b)" style="fill: none; stroke-dasharray: 2.96,1.28; stroke-dashoffset: 0; stroke: #b0b0b0; stroke-opacity: 0.6; stroke-width: 0.8"/>
     </g>
     <g id="line2d_12">
      <g>
       <use xlink:href="#ma8dfdd5838" x="403.437121" y="312.28" style="stroke: #000000; stroke-width: 0.8"/>
      </g>
     </g>
     <g id="text_6">
      <!-- 7 -->
      <g transform="translate(400.255871 326.878438) scale(0.1 -0.1)">
       <defs>
        <path id="DejaVuSans-37" d="M 525 4666 
L 3525 4666 
L 3525 4397 
L 1831 0 
L 1172 0 
L 2766 4134 
L 525 4134 
L 525 4666 
z
" transform="scale(0.015625)"/>
       </defs>
       <use xlink:href="#DejaVuSans-37"/>
      </g>
     </g>
    </g>
    <g id="xtick_7">
     <g id="line2d_13">
      <path d="M 471.793182 312.28 
L 471.793182 26.88 
" clip-path="url(#pd69218f01b)" style="fill: none; stroke-dasharray: 2.96,1.28; stroke-dashoffset: 0; stroke: #b0b0b0; stroke-opacity: 0.6; stroke-width: 0.8"/>
     </g>
     <g id="line2d_14">
      <g>
       <use xlink:href="#ma8dfdd5838" x="471.793182" y="312.28" style="stroke: #000000; stroke-width: 0.8"/>
      </g>
     </g>
     <g id="text_7">
      <!-- 8 -->
      <g transform="translate(468.611932 326.878438) scale(0.1 -0.1)">
       <defs>
        <path id="DejaVuSans-38" d="M 2034 2216 
Q 1584 2216 1326 1975 
Q 1069 1734 1069 1313 
Q 1069 891 1326 650 
Q 1584 409 2034 409 
Q 2484 409 2743 651 
Q 3003 894 3003 1313 
Q 3003 1734 2745 1975 
Q 2488 2216 2034 2216 
z
M 1403 2484 
Q 997 2584 770 2862 
Q 544 3141 544 3541 
Q 544 4100 942 4425 
Q 1341 4750 2034 4750 
Q 2731 4750 3128 4425 
Q 3525 4100 3525 3541 
Q 3525 3141 3298 2862 
Q 3072 2584 2669 2484 
Q 3125 2378 3379 2068 
Q 3634 1759 3634 1313 
Q 3634 634 3220 271 
Q 2806 -91 2034 -91 
Q 1263 -91 848 271 
Q 434 634 434 1313 
Q 434 1759 690 2068 
Q 947 2378 1403 2484 
z
M 1172 3481 
Q 1172 3119 1398 2916 
Q 1625 2713 2034 2713 
Q 2441 2713 2670 2916 
Q 2900 3119 2900 3481 
Q 2900 3844 2670 4047 
Q 2441 4250 2034 4250 
Q 1625 4250 1398 4047 
Q 1172 3844 1172 3481 
z
" transform="scale(0.015625)"/>
       </defs>
       <use xlink:href="#DejaVuSans-38"/>
      </g>
     </g>
    </g>
    <g id="text_8">
     <!-- $\alpha_1$ (with $\mu_1 = 100 - 10\alpha_1$) -->
     <g transform="translate(191.425 342.078125) scale(0.12 -0.12)">
      <defs>
       <path id="DejaVuSans-Oblique-3b1" d="M 2619 1628 
L 2622 2350 
Q 2625 3088 2069 3091 
Q 1653 3094 1394 2747 
Q 1069 2319 959 1747 
Q 825 1059 994 731 
Q 1169 397 1547 397 
Q 1966 397 2319 1063 
L 2619 1628 
z
M 2166 3578 
Q 3141 3594 3128 2584 
Q 3128 2584 3616 3500 
L 4128 3500 
L 3119 1603 
L 3109 919 
Q 3109 766 3194 638 
Q 3291 488 3391 488 
L 3669 488 
L 3575 0 
L 3228 0 
Q 2934 0 2722 263 
Q 2622 394 2619 669 
Q 2416 334 2066 50 
Q 1900 -81 1453 -78 
Q 722 -72 456 397 
Q 184 884 353 1747 
Q 534 2675 1009 3097 
Q 1544 3569 2166 3578 
z
" transform="scale(0.015625)"/>
       <path id="DejaVuSans-31" d="M 794 531 
L 1825 531 
L 1825 4091 
L 703 3866 
L 703 4441 
L 1819 4666 
L 2450 4666 
L 2450 531 
L 3481 531 
L 3481 0 
L 794 0 
L 794 531 
z
" transform="scale(0.015625)"/>
       <path id="DejaVuSans-20" transform="scale(0.015625)"/>
       <path id="DejaVuSans-28" d="M 1984 4856 
Q 1566 4138 1362 3434 
Q 1159 2731 1159 2009 
Q 1159 1288 1364 580 
Q 1569 -128 1984 -844 
L 1484 -844 
Q 1016 -109 783 600 
Q 550 1309 550 2009 
Q 550 2706 781 3412 
Q 1013 4119 1484 4856 
L 1984 4856 
z
" transform="scale(0.015625)"/>
       <path id="DejaVuSans-77" d="M 269 3500 
L 844 3500 
L 1563 769 
L 2278 3500 
L 2956 3500 
L 3675 769 
L 4391 3500 
L 4966 3500 
L 4050 0 
L 3372 0 
L 2619 2869 
L 1863 0 
L 1184 0 
L 269 3500 
z
" transform="scale(0.015625)"/>
       <path id="DejaVuSans-69" d="M 603 3500 
L 1178 3500 
L 1178 0 
L 603 0 
L 603 3500 
z
M 603 4863 
L 1178 4863 
L 1178 4134 
L 603 4134 
L 603 4863 
z
" transform="scale(0.015625)"/>
       <path id="DejaVuSans-74" d="M 1172 4494 
L 1172 3500 
L 2356 3500 
L 2356 3053 
L 1172 3053 
L 1172 1153 
Q 1172 725 1289 603 
Q 1406 481 1766 481 
L 2356 481 
L 2356 0 
L 1766 0 
Q 1100 0 847 248 
Q 594 497 594 1153 
L 594 3053 
L 172 3053 
L 172 3500 
L 594 3500 
L 594 4494 
L 1172 4494 
z
" transform="scale(0.015625)"/>
       <path id="DejaVuSans-68" d="M 3513 2113 
L 3513 0 
L 2938 0 
L 2938 2094 
Q 2938 2591 2744 2837 
Q 2550 3084 2163 3084 
Q 1697 3084 1428 2787 
Q 1159 2491 1159 1978 
L 1159 0 
L 581 0 
L 581 4863 
L 1159 4863 
L 1159 2956 
Q 1366 3272 1645 3428 
Q 1925 3584 2291 3584 
Q 2894 3584 3203 3211 
Q 3513 2838 3513 2113 
z
" transform="scale(0.015625)"/>
       <path id="DejaVuSans-Oblique-3bc" d="M -84 -1331 
L 856 3500 
L 1434 3500 
L 1009 1322 
Q 997 1256 987 1175 
Q 978 1094 978 1013 
Q 978 722 1161 565 
Q 1344 409 1684 409 
Q 2147 409 2431 671 
Q 2716 934 2816 1459 
L 3213 3500 
L 3788 3500 
L 3266 809 
Q 3253 750 3248 706 
Q 3244 663 3244 628 
Q 3244 531 3283 486 
Q 3322 441 3406 441 
Q 3438 441 3492 456 
Q 3547 472 3647 513 
L 3559 50 
Q 3422 -19 3297 -55 
Q 3172 -91 3053 -91 
Q 2847 -91 2730 40 
Q 2613 172 2613 403 
Q 2438 153 2195 31 
Q 1953 -91 1625 -91 
Q 1334 -91 1117 43 
Q 900 178 831 397 
L 494 -1331 
L -84 -1331 
z
" transform="scale(0.015625)"/>
       <path id="DejaVuSans-3d" d="M 678 2906 
L 4684 2906 
L 4684 2381 
L 678 2381 
L 678 2906 
z
M 678 1631 
L 4684 1631 
L 4684 1100 
L 678 1100 
L 678 1631 
z
" transform="scale(0.015625)"/>
       <path id="DejaVuSans-30" d="M 2034 4250 
Q 1547 4250 1301 3770 
Q 1056 3291 1056 2328 
Q 1056 1369 1301 889 
Q 1547 409 2034 409 
Q 2525 409 2770 889 
Q 3016 1369 3016 2328 
Q 3016 3291 2770 3770 
Q 2525 4250 2034 4250 
z
M 2034 4750 
Q 2819 4750 3233 4129 
Q 3647 3509 3647 2328 
Q 3647 1150 3233 529 
Q 2819 -91 2034 -91 
Q 1250 -91 836 529 
Q 422 1150 422 2328 
Q 422 3509 836 4129 
Q 1250 4750 2034 4750 
z
" transform="scale(0.015625)"/>
       <path id="DejaVuSans-2212" d="M 678 2272 
L 4684 2272 
L 4684 1741 
L 678 1741 
L 678 2272 
z
" transform="scale(0.015625)"/>
       <path id="DejaVuSans-29" d="M 513 4856 
L 1013 4856 
Q 1481 4119 1714 3412 
Q 1947 2706 1947 2009 
Q 1947 1309 1714 600 
Q 1481 -109 1013 -844 
L 513 -844 
Q 928 -128 1133 580 
Q 1338 1288 1338 2009 
Q 1338 2731 1133 3434 
Q 928 4138 513 4856 
z
" transform="scale(0.015625)"/>
      </defs>
      <use xlink:href="#DejaVuSans-Oblique-3b1" transform="translate(0 0.015625)"/>
      <use xlink:href="#DejaVuSans-31" transform="translate(65.917969 -16.390625) scale(0.7)"/>
      <use xlink:href="#DejaVuSans-20" transform="translate(113.188477 0.015625)"/>
      <use xlink:href="#DejaVuSans-28" transform="translate(144.975586 0.015625)"/>
      <use xlink:href="#DejaVuSans-77" transform="translate(183.989258 0.015625)"/>
      <use xlink:href="#DejaVuSans-69" transform="translate(265.776367 0.015625)"/>
      <use xlink:href="#DejaVuSans-74" transform="translate(293.55957 0.015625)"/>
      <use xlink:href="#DejaVuSans-68" transform="translate(332.768555 0.015625)"/>
      <use xlink:href="#DejaVuSans-20" transform="translate(396.147461 0.015625)"/>
      <use xlink:href="#DejaVuSans-Oblique-3bc" transform="translate(427.93457 0.015625)"/>
      <use xlink:href="#DejaVuSans-31" transform="translate(491.557617 -16.390625) scale(0.7)"/>
      <use xlink:href="#DejaVuSans-3d" transform="translate(558.310547 0.015625)"/>
      <use xlink:href="#DejaVuSans-31" transform="translate(661.582031 0.015625)"/>
      <use xlink:href="#DejaVuSans-30" transform="translate(725.205078 0.015625)"/>
      <use xlink:href="#DejaVuSans-30" transform="translate(788.828125 0.015625)"/>
      <use xlink:href="#DejaVuSans-2212" transform="translate(871.933594 0.015625)"/>
      <use xlink:href="#DejaVuSans-31" transform="translate(975.205078 0.015625)"/>
      <use xlink:href="#DejaVuSans-30" transform="translate(1038.828125 0.015625)"/>
      <use xlink:href="#DejaVuSans-Oblique-3b1" transform="translate(1102.451172 0.015625)"/>
      <use xlink:href="#DejaVuSans-31" transform="translate(1168.369141 -16.390625) scale(0.7)"/>
      <use xlink:href="#DejaVuSans-29" transform="translate(1215.639648 0.015625)"/>
     </g>
    </g>
   </g>
   <g id="matplotlib.axis_2">
    <g id="ytick_1">
     <g id="line2d_15">
      <path d="M 41.15 267.783136 
L 492.3 267.783136 
" clip-path="url(#pd69218f01b)" style="fill: none; stroke-dasharray: 2.96,1.28; stroke-dashoffset: 0; stroke: #b0b0b0; stroke-opacity: 0.6; stroke-width: 0.8"/>
     </g>
     <g id="line2d_16">
      <defs>
       <path id="m023d9161fb" d="M 0 0 
L -3.5 0 
" style="stroke: #000000; stroke-width: 0.8"/>
      </defs>
      <g>
       <use xlink:href="#m023d9161fb" x="41.15" y="267.783136" style="stroke: #000000; stroke-width: 0.8"/>
      </g>
     </g>
     <g id="text_9">
      <!-- 3 -->
      <g transform="translate(27.7875 271.582354) scale(0.1 -0.1)">
       <use xlink:href="#DejaVuSans-33"/>
      </g>
     </g>
    </g>
    <g id="ytick_2">
     <g id="line2d_17">
      <path d="M 41.15 211.846207 
L 492.3 211.846207 
" clip-path="url(#pd69218f01b)" style="fill: none; stroke-dasharray: 2.96,1.28; stroke-dashoffset: 0; stroke: #b0b0b0; stroke-opacity: 0.6; stroke-width: 0.8"/>
     </g>
     <g id="line2d_18">
      <g>
       <use xlink:href="#m023d9161fb" x="41.15" y="211.846207" style="stroke: #000000; stroke-width: 0.8"/>
      </g>
     </g>
     <g id="text_10">
      <!-- 4 -->
      <g transform="translate(27.7875 215.645426) scale(0.1 -0.1)">
       <use xlink:href="#DejaVuSans-34"/>
      </g>
     </g>
    </g>
    <g id="ytick_3">
     <g id="line2d_19">
      <path d="M 41.15 155.909279 
L 492.3 155.909279 
" clip-path="url(#pd69218f01b)" style="fill: none; stroke-dasharray: 2.96,1.28; stroke-dashoffset: 0; stroke: #b0b0b0; stroke-opacity: 0.6; stroke-width: 0.8"/>
     </g>
     <g id="line2d_20">
      <g>
       <use xlink:href="#m023d9161fb" x="41.15" y="155.909279" style="stroke: #000000; stroke-width: 0.8"/>
      </g>
     </g>
     <g id="text_11">
      <!-- 5 -->
      <g transform="translate(27.7875 159.708497) scale(0.1 -0.1)">
       <use xlink:href="#DejaVuSans-35"/>
      </g>
     </g>
    </g>
    <g id="ytick_4">
     <g id="line2d_21">
      <path d="M 41.15 99.97235 
L 492.3 99.97235 
" clip-path="url(#pd69218f01b)" style="fill: none; stroke-dasharray: 2.96,1.28; stroke-dashoffset: 0; stroke: #b0b0b0; stroke-opacity: 0.6; stroke-width: 0.8"/>
     </g>
     <g id="line2d_22">
      <g>
       <use xlink:href="#m023d9161fb" x="41.15" y="99.97235" style="stroke: #000000; stroke-width: 0.8"/>
      </g>
     </g>
     <g id="text_12">
      <!-- 6 -->
      <g transform="translate(27.7875 103.771569) scale(0.1 -0.1)">
       <use xlink:href="#DejaVuSans-36"/>
      </g>
     </g>
    </g>
    <g id="ytick_5">
     <g id="line2d_23">
      <path d="M 41.15 44.035422 
L 492.3 44.035422 
" clip-path="url(#pd69218f01b)" style="fill: none; stroke-dasharray: 2.96,1.28; stroke-dashoffset: 0; stroke: #b0b0b0; stroke-opacity: 0.6; stroke-width: 0.8"/>
     </g>
     <g id="line2d_24">
      <g>
       <use xlink:href="#m023d9161fb" x="41.15" y="44.035422" style="stroke: #000000; stroke-width: 0.8"/>
      </g>
     </g>
     <g id="text_13">
      <!-- 7 -->
      <g transform="translate(27.7875 47.834641) scale(0.1 -0.1)">
       <use xlink:href="#DejaVuSans-37"/>
      </g>
     </g>
    </g>
    <g id="text_14">
     <!-- P[Type 1 Error] (%) -->
     <g transform="translate(21.291875 226.202187) rotate(-90) scale(0.12 -0.12)">
      <defs>
       <path id="DejaVuSans-50" d="M 1259 4147 
L 1259 2394 
L 2053 2394 
Q 2494 2394 2734 2622 
Q 2975 2850 2975 3272 
Q 2975 3691 2734 3919 
Q 2494 4147 2053 4147 
L 1259 4147 
z
M 628 4666 
L 2053 4666 
Q 2838 4666 3239 4311 
Q 3641 3956 3641 3272 
Q 3641 2581 3239 2228 
Q 2838 1875 2053 1875 
L 1259 1875 
L 1259 0 
L 628 0 
L 628 4666 
z
" transform="scale(0.015625)"/>
       <path id="DejaVuSans-5b" d="M 550 4863 
L 1875 4863 
L 1875 4416 
L 1125 4416 
L 1125 -397 
L 1875 -397 
L 1875 -844 
L 550 -844 
L 550 4863 
z
" transform="scale(0.015625)"/>
       <path id="DejaVuSans-54" d="M -19 4666 
L 3928 4666 
L 3928 4134 
L 2272 4134 
L 2272 0 
L 1638 0 
L 1638 4134 
L -19 4134 
L -19 4666 
z
" transform="scale(0.015625)"/>
       <path id="DejaVuSans-79" d="M 2059 -325 
Q 1816 -950 1584 -1140 
Q 1353 -1331 966 -1331 
L 506 -1331 
L 506 -850 
L 844 -850 
Q 1081 -850 1212 -737 
Q 1344 -625 1503 -206 
L 1606 56 
L 191 3500 
L 800 3500 
L 1894 763 
L 2988 3500 
L 3597 3500 
L 2059 -325 
z
" transform="scale(0.015625)"/>
       <path id="DejaVuSans-70" d="M 1159 525 
L 1159 -1331 
L 581 -1331 
L 581 3500 
L 1159 3500 
L 1159 2969 
Q 1341 3281 1617 3432 
Q 1894 3584 2278 3584 
Q 2916 3584 3314 3078 
Q 3713 2572 3713 1747 
Q 3713 922 3314 415 
Q 2916 -91 2278 -91 
Q 1894 -91 1617 61 
Q 1341 213 1159 525 
z
M 3116 1747 
Q 3116 2381 2855 2742 
Q 2594 3103 2138 3103 
Q 1681 3103 1420 2742 
Q 1159 2381 1159 1747 
Q 1159 1113 1420 752 
Q 1681 391 2138 391 
Q 2594 391 2855 752 
Q 3116 1113 3116 1747 
z
" transform="scale(0.015625)"/>
       <path id="DejaVuSans-65" d="M 3597 1894 
L 3597 1613 
L 953 1613 
Q 991 1019 1311 708 
Q 1631 397 2203 397 
Q 2534 397 2845 478 
Q 3156 559 3463 722 
L 3463 178 
Q 3153 47 2828 -22 
Q 2503 -91 2169 -91 
Q 1331 -91 842 396 
Q 353 884 353 1716 
Q 353 2575 817 3079 
Q 1281 3584 2069 3584 
Q 2775 3584 3186 3129 
Q 3597 2675 3597 1894 
z
M 3022 2063 
Q 3016 2534 2758 2815 
Q 2500 3097 2075 3097 
Q 1594 3097 1305 2825 
Q 1016 2553 972 2059 
L 3022 2063 
z
" transform="scale(0.015625)"/>
       <path id="DejaVuSans-45" d="M 628 4666 
L 3578 4666 
L 3578 4134 
L 1259 4134 
L 1259 2753 
L 3481 2753 
L 3481 2222 
L 1259 2222 
L 1259 531 
L 3634 531 
L 3634 0 
L 628 0 
L 628 4666 
z
" transform="scale(0.015625)"/>
       <path id="DejaVuSans-72" d="M 2631 2963 
Q 2534 3019 2420 3045 
Q 2306 3072 2169 3072 
Q 1681 3072 1420 2755 
Q 1159 2438 1159 1844 
L 1159 0 
L 581 0 
L 581 3500 
L 1159 3500 
L 1159 2956 
Q 1341 3275 1631 3429 
Q 1922 3584 2338 3584 
Q 2397 3584 2469 3576 
Q 2541 3569 2628 3553 
L 2631 2963 
z
" transform="scale(0.015625)"/>
       <path id="DejaVuSans-6f" d="M 1959 3097 
Q 1497 3097 1228 2736 
Q 959 2375 959 1747 
Q 959 1119 1226 758 
Q 1494 397 1959 397 
Q 2419 397 2687 759 
Q 2956 1122 2956 1747 
Q 2956 2369 2687 2733 
Q 2419 3097 1959 3097 
z
M 1959 3584 
Q 2709 3584 3137 3096 
Q 3566 2609 3566 1747 
Q 3566 888 3137 398 
Q 2709 -91 1959 -91 
Q 1206 -91 779 398 
Q 353 888 353 1747 
Q 353 2609 779 3096 
Q 1206 3584 1959 3584 
z
" transform="scale(0.015625)"/>
       <path id="DejaVuSans-5d" d="M 1947 4863 
L 1947 -844 
L 622 -844 
L 622 -397 
L 1369 -397 
L 1369 4416 
L 622 4416 
L 622 4863 
L 1947 4863 
z
" transform="scale(0.015625)"/>
       <path id="DejaVuSans-25" d="M 4653 2053 
Q 4381 2053 4226 1822 
Q 4072 1591 4072 1178 
Q 4072 772 4226 539 
Q 4381 306 4653 306 
Q 4919 306 5073 539 
Q 5228 772 5228 1178 
Q 5228 1588 5073 1820 
Q 4919 2053 4653 2053 
z
M 4653 2450 
Q 5147 2450 5437 2106 
Q 5728 1763 5728 1178 
Q 5728 594 5436 251 
Q 5144 -91 4653 -91 
Q 4153 -91 3862 251 
Q 3572 594 3572 1178 
Q 3572 1766 3864 2108 
Q 4156 2450 4653 2450 
z
M 1428 4353 
Q 1159 4353 1004 4120 
Q 850 3888 850 3481 
Q 850 3069 1003 2837 
Q 1156 2606 1428 2606 
Q 1700 2606 1854 2837 
Q 2009 3069 2009 3481 
Q 2009 3884 1853 4118 
Q 1697 4353 1428 4353 
z
M 4250 4750 
L 4750 4750 
L 1831 -91 
L 1331 -91 
L 4250 4750 
z
M 1428 4750 
Q 1922 4750 2215 4408 
Q 2509 4066 2509 3481 
Q 2509 2891 2217 2550 
Q 1925 2209 1428 2209 
Q 931 2209 642 2551 
Q 353 2894 353 3481 
Q 353 4063 643 4406 
Q 934 4750 1428 4750 
z
" transform="scale(0.015625)"/>
      </defs>
      <use xlink:href="#DejaVuSans-50"/>
      <use xlink:href="#DejaVuSans-5b" transform="translate(60.302734 0)"/>
      <use xlink:href="#DejaVuSans-54" transform="translate(99.316406 0)"/>
      <use xlink:href="#DejaVuSans-79" transform="translate(144.775391 0)"/>
      <use xlink:href="#DejaVuSans-70" transform="translate(203.955078 0)"/>
      <use xlink:href="#DejaVuSans-65" transform="translate(267.431641 0)"/>
      <use xlink:href="#DejaVuSans-20" transform="translate(328.955078 0)"/>
      <use xlink:href="#DejaVuSans-31" transform="translate(360.742188 0)"/>
      <use xlink:href="#DejaVuSans-20" transform="translate(424.365234 0)"/>
      <use xlink:href="#DejaVuSans-45" transform="translate(456.152344 0)"/>
      <use xlink:href="#DejaVuSans-72" transform="translate(519.335938 0)"/>
      <use xlink:href="#DejaVuSans-72" transform="translate(558.699219 0)"/>
      <use xlink:href="#DejaVuSans-6f" transform="translate(597.5625 0)"/>
      <use xlink:href="#DejaVuSans-72" transform="translate(658.744141 0)"/>
      <use xlink:href="#DejaVuSans-5d" transform="translate(699.857422 0)"/>
      <use xlink:href="#DejaVuSans-20" transform="translate(738.871094 0)"/>
      <use xlink:href="#DejaVuSans-28" transform="translate(770.658203 0)"/>
      <use xlink:href="#DejaVuSans-25" transform="translate(809.671875 0)"/>
      <use xlink:href="#DejaVuSans-29" transform="translate(904.691406 0)"/>
     </g>
    </g>
   </g>
   <g id="line2d_25">
    <path d="M 61.656818 163.740449 
L 130.012879 148.078109 
L 198.368939 131.29703 
L 266.725 161.502972 
L 335.081061 150.315586 
L 403.437121 164.859187 
L 471.793182 158.146756 
" clip-path="url(#pd69218f01b)" style="fill: none; stroke: #440154; stroke-width: 1.5; stroke-linecap: square"/>
    <defs>
     <path id="m7c5494a20b" d="M 0 3 
C 0.795609 3 1.55874 2.683901 2.12132 2.12132 
C 2.683901 1.55874 3 0.795609 3 0 
C 3 -0.795609 2.683901 -1.55874 2.12132 -2.12132 
C 1.55874 -2.683901 0.795609 -3 0 -3 
C -0.795609 -3 -1.55874 -2.683901 -2.12132 -2.12132 
C -2.683901 -1.55874 -3 -0.795609 -3 0 
C -3 0.795609 -2.683901 1.55874 -2.12132 2.12132 
C -1.55874 2.683901 -0.795609 3 0 3 
z
" style="stroke: #440154"/>
    </defs>
    <g clip-path="url(#pd69218f01b)">
     <use xlink:href="#m7c5494a20b" x="61.656818" y="163.740449" style="fill: #440154; stroke: #440154"/>
     <use xlink:href="#m7c5494a20b" x="130.012879" y="148.078109" style="fill: #440154; stroke: #440154"/>
     <use xlink:href="#m7c5494a20b" x="198.368939" y="131.29703" style="fill: #440154; stroke: #440154"/>
     <use xlink:href="#m7c5494a20b" x="266.725" y="161.502972" style="fill: #440154; stroke: #440154"/>
     <use xlink:href="#m7c5494a20b" x="335.081061" y="150.315586" style="fill: #440154; stroke: #440154"/>
     <use xlink:href="#m7c5494a20b" x="403.437121" y="164.859187" style="fill: #440154; stroke: #440154"/>
     <use xlink:href="#m7c5494a20b" x="471.793182" y="158.146756" style="fill: #440154; stroke: #440154"/>
    </g>
   </g>
   <g id="line2d_26">
    <path d="M 61.656818 164.859187 
L 130.012879 171.571619 
L 198.368939 105.566043 
L 266.725 143.603154 
L 335.081061 118.990906 
L 403.437121 141.365677 
L 471.793182 153.671802 
" clip-path="url(#pd69218f01b)" style="fill: none; stroke: #3e4a89; stroke-width: 1.5; stroke-linecap: square"/>
    <defs>
     <path id="m708803e2bd" d="M 0 3 
C 0.795609 3 1.55874 2.683901 2.12132 2.12132 
C 2.683901 1.55874 3 0.795609 3 0 
C 3 -0.795609 2.683901 -1.55874 2.12132 -2.12132 
C 1.55874 -2.683901 0.795609 -3 0 -3 
C -0.795609 -3 -1.55874 -2.683901 -2.12132 -2.12132 
C -2.683901 -1.55874 -3 -0.795609 -3 0 
C -3 0.795609 -2.683901 1.55874 -2.12132 2.12132 
C -1.55874 2.683901 -0.795609 3 0 3 
z
" style="stroke: #3e4a89"/>
    </defs>
    <g clip-path="url(#pd69218f01b)">
     <use xlink:href="#m708803e2bd" x="61.656818" y="164.859187" style="fill: #3e4a89; stroke: #3e4a89"/>
     <use xlink:href="#m708803e2bd" x="130.012879" y="171.571619" style="fill: #3e4a89; stroke: #3e4a89"/>
     <use xlink:href="#m708803e2bd" x="198.368939" y="105.566043" style="fill: #3e4a89; stroke: #3e4a89"/>
     <use xlink:href="#m708803e2bd" x="266.725" y="143.603154" style="fill: #3e4a89; stroke: #3e4a89"/>
     <use xlink:href="#m708803e2bd" x="335.081061" y="118.990906" style="fill: #3e4a89; stroke: #3e4a89"/>
     <use xlink:href="#m708803e2bd" x="403.437121" y="141.365677" style="fill: #3e4a89; stroke: #3e4a89"/>
     <use xlink:href="#m708803e2bd" x="471.793182" y="153.671802" style="fill: #3e4a89; stroke: #3e4a89"/>
    </g>
   </g>
   <g id="line2d_27">
    <path d="M 61.656818 201.77756 
L 130.012879 236.458456 
L 198.368939 126.822076 
L 266.725 176.046573 
L 335.081061 197.302606 
L 403.437121 142.484416 
L 471.793182 118.990906 
" clip-path="url(#pd69218f01b)" style="fill: none; stroke: #25848e; stroke-width: 1.5; stroke-linecap: square"/>
    <defs>
     <path id="m850b71debb" d="M 0 3 
C 0.795609 3 1.55874 2.683901 2.12132 2.12132 
C 2.683901 1.55874 3 0.795609 3 0 
C 3 -0.795609 2.683901 -1.55874 2.12132 -2.12132 
C 1.55874 -2.683901 0.795609 -3 0 -3 
C -0.795609 -3 -1.55874 -2.683901 -2.12132 -2.12132 
C -2.683901 -1.55874 -3 -0.795609 -3 0 
C -3 0.795609 -2.683901 1.55874 -2.12132 2.12132 
C -1.55874 2.683901 -0.795609 3 0 3 
z
" style="stroke: #25848e"/>
    </defs>
    <g clip-path="url(#pd69218f01b)">
     <use xlink:href="#m850b71debb" x="61.656818" y="201.77756" style="fill: #25848e; stroke: #25848e"/>
     <use xlink:href="#m850b71debb" x="130.012879" y="236.458456" style="fill: #25848e; stroke: #25848e"/>
     <use xlink:href="#m850b71debb" x="198.368939" y="126.822076" style="fill: #25848e; stroke: #25848e"/>
     <use xlink:href="#m850b71debb" x="266.725" y="176.046573" style="fill: #25848e; stroke: #25848e"/>
     <use xlink:href="#m850b71debb" x="335.081061" y="197.302606" style="fill: #25848e; stroke: #25848e"/>
     <use xlink:href="#m850b71debb" x="403.437121" y="142.484416" style="fill: #25848e; stroke: #25848e"/>
     <use xlink:href="#m850b71debb" x="471.793182" y="118.990906" style="fill: #25848e; stroke: #25848e"/>
    </g>
   </g>
   <g id="line2d_28">
    <path d="M 61.656818 197.302606 
L 130.012879 152.553063 
L 198.368939 183.877743 
L 266.725 138.009462 
L 335.081061 138.009462 
L 403.437121 174.927834 
L 471.793182 174.927834 
" clip-path="url(#pd69218f01b)" style="fill: none; stroke: #38b977; stroke-width: 1.5; stroke-linecap: square"/>
    <defs>
     <path id="mf0f3603c20" d="M 0 3 
C 0.795609 3 1.55874 2.683901 2.12132 2.12132 
C 2.683901 1.55874 3 0.795609 3 0 
C 3 -0.795609 2.683901 -1.55874 2.12132 -2.12132 
C 1.55874 -2.683901 0.795609 -3 0 -3 
C -0.795609 -3 -1.55874 -2.683901 -2.12132 -2.12132 
C -2.683901 -1.55874 -3 -0.795609 -3 0 
C -3 0.795609 -2.683901 1.55874 -2.12132 2.12132 
C -1.55874 2.683901 -0.795609 3 0 3 
z
" style="stroke: #38b977"/>
    </defs>
    <g clip-path="url(#pd69218f01b)">
     <use xlink:href="#mf0f3603c20" x="61.656818" y="197.302606" style="fill: #38b977; stroke: #38b977"/>
     <use xlink:href="#mf0f3603c20" x="130.012879" y="152.553063" style="fill: #38b977; stroke: #38b977"/>
     <use xlink:href="#mf0f3603c20" x="198.368939" y="183.877743" style="fill: #38b977; stroke: #38b977"/>
     <use xlink:href="#mf0f3603c20" x="266.725" y="138.009462" style="fill: #38b977; stroke: #38b977"/>
     <use xlink:href="#mf0f3603c20" x="335.081061" y="138.009462" style="fill: #38b977; stroke: #38b977"/>
     <use xlink:href="#mf0f3603c20" x="403.437121" y="174.927834" style="fill: #38b977; stroke: #38b977"/>
     <use xlink:href="#mf0f3603c20" x="471.793182" y="174.927834" style="fill: #38b977; stroke: #38b977"/>
    </g>
   </g>
   <g id="line2d_29">
    <path d="M 61.656818 130.178292 
L 130.012879 173.809096 
L 198.368939 135.771984 
L 266.725 158.146756 
L 335.081061 129.059553 
L 403.437121 167.096664 
L 471.793182 153.671802 
" clip-path="url(#pd69218f01b)" style="fill: none; stroke: #bddf26; stroke-width: 1.5; stroke-linecap: square"/>
    <defs>
     <path id="m6bbdbe035b" d="M 0 3 
C 0.795609 3 1.55874 2.683901 2.12132 2.12132 
C 2.683901 1.55874 3 0.795609 3 0 
C 3 -0.795609 2.683901 -1.55874 2.12132 -2.12132 
C 1.55874 -2.683901 0.795609 -3 0 -3 
C -0.795609 -3 -1.55874 -2.683901 -2.12132 -2.12132 
C -2.683901 -1.55874 -3 -0.795609 -3 0 
C -3 0.795609 -2.683901 1.55874 -2.12132 2.12132 
C -1.55874 2.683901 -0.795609 3 0 3 
z
" style="stroke: #bddf26"/>
    </defs>
    <g clip-path="url(#pd69218f01b)">
     <use xlink:href="#m6bbdbe035b" x="61.656818" y="130.178292" style="fill: #bddf26; stroke: #bddf26"/>
     <use xlink:href="#m6bbdbe035b" x="130.012879" y="173.809096" style="fill: #bddf26; stroke: #bddf26"/>
     <use xlink:href="#m6bbdbe035b" x="198.368939" y="135.771984" style="fill: #bddf26; stroke: #bddf26"/>
     <use xlink:href="#m6bbdbe035b" x="266.725" y="158.146756" style="fill: #bddf26; stroke: #bddf26"/>
     <use xlink:href="#m6bbdbe035b" x="335.081061" y="129.059553" style="fill: #bddf26; stroke: #bddf26"/>
     <use xlink:href="#m6bbdbe035b" x="403.437121" y="167.096664" style="fill: #bddf26; stroke: #bddf26"/>
     <use xlink:href="#m6bbdbe035b" x="471.793182" y="153.671802" style="fill: #bddf26; stroke: #bddf26"/>
    </g>
   </g>
   <g id="line2d_30">
    <path d="M 41.15 155.909279 
L 492.3 155.909279 
" clip-path="url(#pd69218f01b)" style="fill: none; stroke-dasharray: 5.55,2.4; stroke-dashoffset: 0; stroke: #ff0000; stroke-width: 1.5"/>
   </g>
   <g id="patch_3">
    <path d="M 41.15 312.28 
L 41.15 26.88 
" style="fill: none; stroke: #000000; stroke-width: 0.8; stroke-linejoin: miter; stroke-linecap: square"/>
   </g>
   <g id="patch_4">
    <path d="M 492.3 312.28 
L 492.3 26.88 
" style="fill: none; stroke: #000000; stroke-width: 0.8; stroke-linejoin: miter; stroke-linecap: square"/>
   </g>
   <g id="patch_5">
    <path d="M 41.15 312.28 
L 492.3 312.28 
" style="fill: none; stroke: #000000; stroke-width: 0.8; stroke-linejoin: miter; stroke-linecap: square"/>
   </g>
   <g id="patch_6">
    <path d="M 41.15 26.88 
L 492.3 26.88 
" style="fill: none; stroke: #000000; stroke-width: 0.8; stroke-linejoin: miter; stroke-linecap: square"/>
   </g>
   <g id="text_15">
    <!-- Type 1 Error vs Alpha (10 reps, 512 paths/rep) -->
    <g transform="translate(116.72125 20.88) scale(0.13 -0.13)">
     <defs>
      <path id="DejaVuSans-76" d="M 191 3500 
L 800 3500 
L 1894 563 
L 2988 3500 
L 3597 3500 
L 2284 0 
L 1503 0 
L 191 3500 
z
" transform="scale(0.015625)"/>
      <path id="DejaVuSans-73" d="M 2834 3397 
L 2834 2853 
Q 2591 2978 2328 3040 
Q 2066 3103 1784 3103 
Q 1356 3103 1142 2972 
Q 928 2841 928 2578 
Q 928 2378 1081 2264 
Q 1234 2150 1697 2047 
L 1894 2003 
Q 2506 1872 2764 1633 
Q 3022 1394 3022 966 
Q 3022 478 2636 193 
Q 2250 -91 1575 -91 
Q 1294 -91 989 -36 
Q 684 19 347 128 
L 347 722 
Q 666 556 975 473 
Q 1284 391 1588 391 
Q 1994 391 2212 530 
Q 2431 669 2431 922 
Q 2431 1156 2273 1281 
Q 2116 1406 1581 1522 
L 1381 1569 
Q 847 1681 609 1914 
Q 372 2147 372 2553 
Q 372 3047 722 3315 
Q 1072 3584 1716 3584 
Q 2034 3584 2315 3537 
Q 2597 3491 2834 3397 
z
" transform="scale(0.015625)"/>
      <path id="DejaVuSans-41" d="M 2188 4044 
L 1331 1722 
L 3047 1722 
L 2188 4044 
z
M 1831 4666 
L 2547 4666 
L 4325 0 
L 3669 0 
L 3244 1197 
L 1141 1197 
L 716 0 
L 50 0 
L 1831 4666 
z
" transform="scale(0.015625)"/>
      <path id="DejaVuSans-6c" d="M 603 4863 
L 1178 4863 
L 1178 0 
L 603 0 
L 603 4863 
z
" transform="scale(0.015625)"/>
      <path id="DejaVuSans-61" d="M 2194 1759 
Q 1497 1759 1228 1600 
Q 959 1441 959 1056 
Q 959 750 1161 570 
Q 1363 391 1709 391 
Q 2188 391 2477 730 
Q 2766 1069 2766 1631 
L 2766 1759 
L 2194 1759 
z
M 3341 1997 
L 3341 0 
L 2766 0 
L 2766 531 
Q 2569 213 2275 61 
Q 1981 -91 1556 -91 
Q 1019 -91 701 211 
Q 384 513 384 1019 
Q 384 1609 779 1909 
Q 1175 2209 1959 2209 
L 2766 2209 
L 2766 2266 
Q 2766 2663 2505 2880 
Q 2244 3097 1772 3097 
Q 1472 3097 1187 3025 
Q 903 2953 641 2809 
L 641 3341 
Q 956 3463 1253 3523 
Q 1550 3584 1831 3584 
Q 2591 3584 2966 3190 
Q 3341 2797 3341 1997 
z
" transform="scale(0.015625)"/>
      <path id="DejaVuSans-2c" d="M 750 794 
L 1409 794 
L 1409 256 
L 897 -744 
L 494 -744 
L 750 256 
L 750 794 
z
" transform="scale(0.015625)"/>
      <path id="DejaVuSans-2f" d="M 1625 4666 
L 2156 4666 
L 531 -594 
L 0 -594 
L 1625 4666 
z
" transform="scale(0.015625)"/>
     </defs>
     <use xlink:href="#DejaVuSans-54"/>
     <use xlink:href="#DejaVuSans-79" transform="translate(45.458984 0)"/>
     <use xlink:href="#DejaVuSans-70" transform="translate(104.638672 0)"/>
     <use xlink:href="#DejaVuSans-65" transform="translate(168.115234 0)"/>
     <use xlink:href="#DejaVuSans-20" transform="translate(229.638672 0)"/>
     <use xlink:href="#DejaVuSans-31" transform="translate(261.425781 0)"/>
     <use xlink:href="#DejaVuSans-20" transform="translate(325.048828 0)"/>
     <use xlink:href="#DejaVuSans-45" transform="translate(356.835938 0)"/>
     <use xlink:href="#DejaVuSans-72" transform="translate(420.019531 0)"/>
     <use xlink:href="#DejaVuSans-72" transform="translate(459.382812 0)"/>
     <use xlink:href="#DejaVuSans-6f" transform="translate(498.246094 0)"/>
     <use xlink:href="#DejaVuSans-72" transform="translate(559.427734 0)"/>
     <use xlink:href="#DejaVuSans-20" transform="translate(600.541016 0)"/>
     <use xlink:href="#DejaVuSans-76" transform="translate(632.328125 0)"/>
     <use xlink:href="#DejaVuSans-73" transform="translate(691.507812 0)"/>
     <use xlink:href="#DejaVuSans-20" transform="translate(743.607422 0)"/>
     <use xlink:href="#DejaVuSans-41" transform="translate(775.394531 0)"/>
     <use xlink:href="#DejaVuSans-6c" transform="translate(843.802734 0)"/>
     <use xlink:href="#DejaVuSans-70" transform="translate(871.585938 0)"/>
     <use xlink:href="#DejaVuSans-68" transform="translate(935.0625 0)"/>
     <use xlink:href="#DejaVuSans-61" transform="translate(998.441406 0)"/>
     <use xlink:href="#DejaVuSans-20" transform="translate(1059.720703 0)"/>
     <use xlink:href="#DejaVuSans-28" transform="translate(1091.507812 0)"/>
     <use xlink:href="#DejaVuSans-31" transform="translate(1130.521484 0)"/>
     <use xlink:href="#DejaVuSans-30" transform="translate(1194.144531 0)"/>
     <use xlink:href="#DejaVuSans-20" transform="translate(1257.767578 0)"/>
     <use xlink:href="#DejaVuSans-72" transform="translate(1289.554688 0)"/>
     <use xlink:href="#DejaVuSans-65" transform="translate(1328.417969 0)"/>
     <use xlink:href="#DejaVuSans-70" transform="translate(1389.941406 0)"/>
     <use xlink:href="#DejaVuSans-73" transform="translate(1453.417969 0)"/>
     <use xlink:href="#DejaVuSans-2c" transform="translate(1505.517578 0)"/>
     <use xlink:href="#DejaVuSans-20" transform="translate(1537.304688 0)"/>
     <use xlink:href="#DejaVuSans-35" transform="translate(1569.091797 0)"/>
     <use xlink:href="#DejaVuSans-31" transform="translate(1632.714844 0)"/>
     <use xlink:href="#DejaVuSans-32" transform="translate(1696.337891 0)"/>
     <use xlink:href="#DejaVuSans-20" transform="translate(1759.960938 0)"/>
     <use xlink:href="#DejaVuSans-70" transform="translate(1791.748047 0)"/>
     <use xlink:href="#DejaVuSans-61" transform="translate(1855.224609 0)"/>
     <use xlink:href="#DejaVuSans-74" transform="translate(1916.503906 0)"/>
     <use xlink:href="#DejaVuSans-68" transform="translate(1955.712891 0)"/>
     <use xlink:href="#DejaVuSans-73" transform="translate(2019.091797 0)"/>
     <use xlink:href="#DejaVuSans-2f" transform="translate(2071.191406 0)"/>
     <use xlink:href="#DejaVuSans-72" transform="translate(2104.882812 0)"/>
     <use xlink:href="#DejaVuSans-65" transform="translate(2143.746094 0)"/>
     <use xlink:href="#DejaVuSans-70" transform="translate(2205.269531 0)"/>
     <use xlink:href="#DejaVuSans-29" transform="translate(2268.746094 0)"/>
    </g>
   </g>
   <g id="legend_1">
    <g id="patch_7">
     <path d="M 225.732031 307.28 
L 307.717969 307.28 
Q 309.717969 307.28 309.717969 305.28 
L 309.717969 203.533125 
Q 309.717969 201.533125 307.717969 201.533125 
L 225.732031 201.533125 
Q 223.732031 201.533125 223.732031 203.533125 
L 223.732031 305.28 
Q 223.732031 307.28 225.732031 307.28 
z
" style="fill: #ffffff; opacity: 0.8; stroke: #cccccc; stroke-linejoin: miter"/>
    </g>
    <g id="text_16">
     <!-- Scaling -->
     <g transform="translate(248.616406 213.131563) scale(0.1 -0.1)">
      <defs>
       <path id="DejaVuSans-53" d="M 3425 4513 
L 3425 3897 
Q 3066 4069 2747 4153 
Q 2428 4238 2131 4238 
Q 1616 4238 1336 4038 
Q 1056 3838 1056 3469 
Q 1056 3159 1242 3001 
Q 1428 2844 1947 2747 
L 2328 2669 
Q 3034 2534 3370 2195 
Q 3706 1856 3706 1288 
Q 3706 609 3251 259 
Q 2797 -91 1919 -91 
Q 1588 -91 1214 -16 
Q 841 59 441 206 
L 441 856 
Q 825 641 1194 531 
Q 1563 422 1919 422 
Q 2459 422 2753 634 
Q 3047 847 3047 1241 
Q 3047 1584 2836 1778 
Q 2625 1972 2144 2069 
L 1759 2144 
Q 1053 2284 737 2584 
Q 422 2884 422 3419 
Q 422 4038 858 4394 
Q 1294 4750 2059 4750 
Q 2388 4750 2728 4690 
Q 3069 4631 3425 4513 
z
" transform="scale(0.015625)"/>
       <path id="DejaVuSans-63" d="M 3122 3366 
L 3122 2828 
Q 2878 2963 2633 3030 
Q 2388 3097 2138 3097 
Q 1578 3097 1268 2742 
Q 959 2388 959 1747 
Q 959 1106 1268 751 
Q 1578 397 2138 397 
Q 2388 397 2633 464 
Q 2878 531 3122 666 
L 3122 134 
Q 2881 22 2623 -34 
Q 2366 -91 2075 -91 
Q 1284 -91 818 406 
Q 353 903 353 1747 
Q 353 2603 823 3093 
Q 1294 3584 2113 3584 
Q 2378 3584 2631 3529 
Q 2884 3475 3122 3366 
z
" transform="scale(0.015625)"/>
       <path id="DejaVuSans-6e" d="M 3513 2113 
L 3513 0 
L 2938 0 
L 2938 2094 
Q 2938 2591 2744 2837 
Q 2550 3084 2163 3084 
Q 1697 3084 1428 2787 
Q 1159 2491 1159 1978 
L 1159 0 
L 581 0 
L 581 3500 
L 1159 3500 
L 1159 2956 
Q 1366 3272 1645 3428 
Q 1925 3584 2291 3584 
Q 2894 3584 3203 3211 
Q 3513 2838 3513 2113 
z
" transform="scale(0.015625)"/>
       <path id="DejaVuSans-67" d="M 2906 1791 
Q 2906 2416 2648 2759 
Q 2391 3103 1925 3103 
Q 1463 3103 1205 2759 
Q 947 2416 947 1791 
Q 947 1169 1205 825 
Q 1463 481 1925 481 
Q 2391 481 2648 825 
Q 2906 1169 2906 1791 
z
M 3481 434 
Q 3481 -459 3084 -895 
Q 2688 -1331 1869 -1331 
Q 1566 -1331 1297 -1286 
Q 1028 -1241 775 -1147 
L 775 -588 
Q 1028 -725 1275 -790 
Q 1522 -856 1778 -856 
Q 2344 -856 2625 -561 
Q 2906 -266 2906 331 
L 2906 616 
Q 2728 306 2450 153 
Q 2172 0 1784 0 
Q 1141 0 747 490 
Q 353 981 353 1791 
Q 353 2603 747 3093 
Q 1141 3584 1784 3584 
Q 2172 3584 2450 3431 
Q 2728 3278 2906 2969 
L 2906 3500 
L 3481 3500 
L 3481 434 
z
" transform="scale(0.015625)"/>
      </defs>
      <use xlink:href="#DejaVuSans-53"/>
      <use xlink:href="#DejaVuSans-63" transform="translate(63.476562 0)"/>
      <use xlink:href="#DejaVuSans-61" transform="translate(118.457031 0)"/>
      <use xlink:href="#DejaVuSans-6c" transform="translate(179.736328 0)"/>
      <use xlink:href="#DejaVuSans-69" transform="translate(207.519531 0)"/>
      <use xlink:href="#DejaVuSans-6e" transform="translate(235.302734 0)"/>
      <use xlink:href="#DejaVuSans-67" transform="translate(298.681641 0)"/>
     </g>
    </g>
    <g id="line2d_31">
     <path d="M 227.732031 224.309688 
L 237.732031 224.309688 
L 247.732031 224.309688 
" style="fill: none; stroke: #440154; stroke-width: 1.5; stroke-linecap: square"/>
     <g>
      <use xlink:href="#m7c5494a20b" x="237.732031" y="224.309688" style="fill: #440154; stroke: #440154"/>
     </g>
    </g>
    <g id="text_17">
     <!-- Scale: 0.5 -->
     <g transform="translate(255.732031 227.809688) scale(0.1 -0.1)">
      <defs>
       <path id="DejaVuSans-3a" d="M 750 794 
L 1409 794 
L 1409 0 
L 750 0 
L 750 794 
z
M 750 3309 
L 1409 3309 
L 1409 2516 
L 750 2516 
L 750 3309 
z
" transform="scale(0.015625)"/>
       <path id="DejaVuSans-2e" d="M 684 794 
L 1344 794 
L 1344 0 
L 684 0 
L 684 794 
z
" transform="scale(0.015625)"/>
      </defs>
      <use xlink:href="#DejaVuSans-53"/>
      <use xlink:href="#DejaVuSans-63" transform="translate(63.476562 0)"/>
      <use xlink:href="#DejaVuSans-61" transform="translate(118.457031 0)"/>
      <use xlink:href="#DejaVuSans-6c" transform="translate(179.736328 0)"/>
      <use xlink:href="#DejaVuSans-65" transform="translate(207.519531 0)"/>
      <use xlink:href="#DejaVuSans-3a" transform="translate(269.042969 0)"/>
      <use xlink:href="#DejaVuSans-20" transform="translate(302.734375 0)"/>
      <use xlink:href="#DejaVuSans-30" transform="translate(334.521484 0)"/>
      <use xlink:href="#DejaVuSans-2e" transform="translate(398.144531 0)"/>
      <use xlink:href="#DejaVuSans-35" transform="translate(429.931641 0)"/>
     </g>
    </g>
    <g id="line2d_32">
     <path d="M 227.732031 238.987813 
L 237.732031 238.987813 
L 247.732031 238.987813 
" style="fill: none; stroke: #3e4a89; stroke-width: 1.5; stroke-linecap: square"/>
     <g>
      <use xlink:href="#m708803e2bd" x="237.732031" y="238.987813" style="fill: #3e4a89; stroke: #3e4a89"/>
     </g>
    </g>
    <g id="text_18">
     <!-- Scale: 1.0 -->
     <g transform="translate(255.732031 242.487813) scale(0.1 -0.1)">
      <use xlink:href="#DejaVuSans-53"/>
      <use xlink:href="#DejaVuSans-63" transform="translate(63.476562 0)"/>
      <use xlink:href="#DejaVuSans-61" transform="translate(118.457031 0)"/>
      <use xlink:href="#DejaVuSans-6c" transform="translate(179.736328 0)"/>
      <use xlink:href="#DejaVuSans-65" transform="translate(207.519531 0)"/>
      <use xlink:href="#DejaVuSans-3a" transform="translate(269.042969 0)"/>
      <use xlink:href="#DejaVuSans-20" transform="translate(302.734375 0)"/>
      <use xlink:href="#DejaVuSans-31" transform="translate(334.521484 0)"/>
      <use xlink:href="#DejaVuSans-2e" transform="translate(398.144531 0)"/>
      <use xlink:href="#DejaVuSans-30" transform="translate(429.931641 0)"/>
     </g>
    </g>
    <g id="line2d_33">
     <path d="M 227.732031 253.665938 
L 237.732031 253.665938 
L 247.732031 253.665938 
" style="fill: none; stroke: #25848e; stroke-width: 1.5; stroke-linecap: square"/>
     <g>
      <use xlink:href="#m850b71debb" x="237.732031" y="253.665938" style="fill: #25848e; stroke: #25848e"/>
     </g>
    </g>
    <g id="text_19">
     <!-- Scale: 2.0 -->
     <g transform="translate(255.732031 257.165938) scale(0.1 -0.1)">
      <use xlink:href="#DejaVuSans-53"/>
      <use xlink:href="#DejaVuSans-63" transform="translate(63.476562 0)"/>
      <use xlink:href="#DejaVuSans-61" transform="translate(118.457031 0)"/>
      <use xlink:href="#DejaVuSans-6c" transform="translate(179.736328 0)"/>
      <use xlink:href="#DejaVuSans-65" transform="translate(207.519531 0)"/>
      <use xlink:href="#DejaVuSans-3a" transform="translate(269.042969 0)"/>
      <use xlink:href="#DejaVuSans-20" transform="translate(302.734375 0)"/>
      <use xlink:href="#DejaVuSans-32" transform="translate(334.521484 0)"/>
      <use xlink:href="#DejaVuSans-2e" transform="translate(398.144531 0)"/>
      <use xlink:href="#DejaVuSans-30" transform="translate(429.931641 0)"/>
     </g>
    </g>
    <g id="line2d_34">
     <path d="M 227.732031 268.344063 
L 237.732031 268.344063 
L 247.732031 268.344063 
" style="fill: none; stroke: #38b977; stroke-width: 1.5; stroke-linecap: square"/>
     <g>
      <use xlink:href="#mf0f3603c20" x="237.732031" y="268.344063" style="fill: #38b977; stroke: #38b977"/>
     </g>
    </g>
    <g id="text_20">
     <!-- Scale: 3.0 -->
     <g transform="translate(255.732031 271.844063) scale(0.1 -0.1)">
      <use xlink:href="#DejaVuSans-53"/>
      <use xlink:href="#DejaVuSans-63" transform="translate(63.476562 0)"/>
      <use xlink:href="#DejaVuSans-61" transform="translate(118.457031 0)"/>
      <use xlink:href="#DejaVuSans-6c" transform="translate(179.736328 0)"/>
      <use xlink:href="#DejaVuSans-65" transform="translate(207.519531 0)"/>
      <use xlink:href="#DejaVuSans-3a" transform="translate(269.042969 0)"/>
      <use xlink:href="#DejaVuSans-20" transform="translate(302.734375 0)"/>
      <use xlink:href="#DejaVuSans-33" transform="translate(334.521484 0)"/>
      <use xlink:href="#DejaVuSans-2e" transform="translate(398.144531 0)"/>
      <use xlink:href="#DejaVuSans-30" transform="translate(429.931641 0)"/>
     </g>
    </g>
    <g id="line2d_35">
     <path d="M 227.732031 283.022188 
L 237.732031 283.022188 
L 247.732031 283.022188 
" style="fill: none; stroke: #bddf26; stroke-width: 1.5; stroke-linecap: square"/>
     <g>
      <use xlink:href="#m6bbdbe035b" x="237.732031" y="283.022188" style="fill: #bddf26; stroke: #bddf26"/>
     </g>
    </g>
    <g id="text_21">
     <!-- Scale: 4.0 -->
     <g transform="translate(255.732031 286.522188) scale(0.1 -0.1)">
      <use xlink:href="#DejaVuSans-53"/>
      <use xlink:href="#DejaVuSans-63" transform="translate(63.476562 0)"/>
      <use xlink:href="#DejaVuSans-61" transform="translate(118.457031 0)"/>
      <use xlink:href="#DejaVuSans-6c" transform="translate(179.736328 0)"/>
      <use xlink:href="#DejaVuSans-65" transform="translate(207.519531 0)"/>
      <use xlink:href="#DejaVuSans-3a" transform="translate(269.042969 0)"/>
      <use xlink:href="#DejaVuSans-20" transform="translate(302.734375 0)"/>
      <use xlink:href="#DejaVuSans-34" transform="translate(334.521484 0)"/>
      <use xlink:href="#DejaVuSans-2e" transform="translate(398.144531 0)"/>
      <use xlink:href="#DejaVuSans-30" transform="translate(429.931641 0)"/>
     </g>
    </g>
    <g id="line2d_36">
     <path d="M 227.732031 297.700313 
L 237.732031 297.700313 
L 247.732031 297.700313 
" style="fill: none; stroke-dasharray: 5.55,2.4; stroke-dashoffset: 0; stroke: #ff0000; stroke-width: 1.5"/>
    </g>
    <g id="text_22">
     <!-- 5% Target -->
     <g transform="translate(255.732031 301.200313) scale(0.1 -0.1)">
      <use xlink:href="#DejaVuSans-35"/>
      <use xlink:href="#DejaVuSans-25" transform="translate(63.623047 0)"/>
      <use xlink:href="#DejaVuSans-20" transform="translate(158.642578 0)"/>
      <use xlink:href="#DejaVuSans-54" transform="translate(190.429688 0)"/>
      <use xlink:href="#DejaVuSans-61" transform="translate(235.013672 0)"/>
      <use xlink:href="#DejaVuSans-72" transform="translate(296.292969 0)"/>
      <use xlink:href="#DejaVuSans-67" transform="translate(335.65625 0)"/>
      <use xlink:href="#DejaVuSans-65" transform="translate(399.132812 0)"/>
      <use xlink:href="#DejaVuSans-74" transform="translate(460.65625 0)"/>
     </g>
    </g>
   </g>
  </g>
  <g id="axes_2">
   <g id="patch_8">
    <path d="M 546.05 312.28 
L 997.2 312.28 
L 997.2 26.88 
L 546.05 26.88 
z
" style="fill: #ffffff"/>
   </g>
   <g id="FillBetweenPolyCollection_6">
    <defs>
     <path id="md2c15a2e48" d="M 566.556818 -100.157823 
L 566.556818 -68.121147 
L 634.912879 -90.287407 
L 703.268939 -237.12567 
L 771.625 -279.556213 
L 839.981061 -189.501293 
L 908.337121 -62.949026 
L 976.693182 -62.795671 
L 976.693182 -62.795671 
L 976.693182 -62.795671 
L 908.337121 -112.675198 
L 839.981061 -257.577927 
L 771.625 -314.002253 
L 703.268939 -289.686802 
L 634.912879 -157.299004 
L 566.556818 -100.157823 
z
" style="stroke: #440154; stroke-opacity: 0.2"/>
    </defs>
    <g clip-path="url(#p298227a678)">
     <use xlink:href="#md2c15a2e48" x="0" y="360" style="fill: #440154; fill-opacity: 0.2; stroke: #440154; stroke-opacity: 0.2"/>
    </g>
   </g>
   <g id="FillBetweenPolyCollection_7">
    <defs>
     <path id="m934d5c538e" d="M 566.556818 -121.905736 
L 566.556818 -81.183346 
L 634.912879 -105.038515 
L 703.268939 -236.387768 
L 771.625 -282.129348 
L 839.981061 -169.405934 
L 908.337121 -65.370028 
L 976.693182 -62.795671 
L 976.693182 -62.795671 
L 976.693182 -62.795671 
L 908.337121 -115.363937 
L 839.981061 -247.547105 
L 771.625 -306.638736 
L 703.268939 -287.444023 
L 634.912879 -181.509672 
L 566.556818 -121.905736 
z
" style="stroke: #3e4a89; stroke-opacity: 0.2"/>
    </defs>
    <g clip-path="url(#p298227a678)">
     <use xlink:href="#m934d5c538e" x="0" y="360" style="fill: #3e4a89; fill-opacity: 0.2; stroke: #3e4a89; stroke-opacity: 0.2"/>
    </g>
   </g>
   <g id="FillBetweenPolyCollection_8">
    <defs>
     <path id="m9c986f76c3" d="M 566.556818 -194.363151 
L 566.556818 -125.185447 
L 634.912879 -175.270897 
L 703.268939 -255.854944 
L 771.625 -271.566861 
L 839.981061 -150.666595 
L 908.337121 -77.428925 
L 976.693182 -62.614535 
L 976.693182 -63.296166 
L 976.693182 -63.296166 
L 908.337121 -124.595627 
L 839.981061 -254.470167 
L 771.625 -305.597853 
L 703.268939 -292.567475 
L 634.912879 -251.475812 
L 566.556818 -194.363151 
z
" style="stroke: #25848e; stroke-opacity: 0.2"/>
    </defs>
    <g clip-path="url(#p298227a678)">
     <use xlink:href="#m9c986f76c3" x="0" y="360" style="fill: #25848e; fill-opacity: 0.2; stroke: #25848e; stroke-opacity: 0.2"/>
    </g>
   </g>
   <g id="FillBetweenPolyCollection_9">
    <defs>
     <path id="m06410ffb04" d="M 566.556818 -261.860753 
L 566.556818 -190.860473 
L 634.912879 -238.941793 
L 703.268939 -284.626125 
L 771.625 -259.544979 
L 839.981061 -155.677282 
L 908.337121 -79.833939 
L 976.693182 -62.582765 
L 976.693182 -64.498918 
L 976.693182 -64.498918 
L 908.337121 -144.332825 
L 839.981061 -265.320968 
L 771.625 -317.406828 
L 703.268939 -313.829176 
L 634.912879 -296.493368 
L 566.556818 -261.860753 
z
" style="stroke: #38b977; stroke-opacity: 0.2"/>
    </defs>
    <g clip-path="url(#p298227a678)">
     <use xlink:href="#m06410ffb04" x="0" y="360" style="fill: #38b977; fill-opacity: 0.2; stroke: #38b977; stroke-opacity: 0.2"/>
    </g>
   </g>
   <g id="FillBetweenPolyCollection_10">
    <defs>
     <path id="m930e9d0c75" d="M 566.556818 -292.080729 
L 566.556818 -226.002602 
L 634.912879 -268.048683 
L 703.268939 -299.734482 
L 771.625 -255.420646 
L 839.981061 -157.557263 
L 908.337121 -78.861725 
L 976.693182 -60.692727 
L 976.693182 -70.647073 
L 976.693182 -70.647073 
L 908.337121 -153.608368 
L 839.981061 -278.983116 
L 771.625 -320.147273 
L 703.268939 -317.137177 
L 634.912879 -311.457994 
L 566.556818 -292.080729 
z
" style="stroke: #bddf26; stroke-opacity: 0.2"/>
    </defs>
    <g clip-path="url(#p298227a678)">
     <use xlink:href="#m930e9d0c75" x="0" y="360" style="fill: #bddf26; fill-opacity: 0.2; stroke: #bddf26; stroke-opacity: 0.2"/>
    </g>
   </g>
   <g id="matplotlib.axis_3">
    <g id="xtick_8">
     <g id="line2d_37">
      <path d="M 566.556818 312.28 
L 566.556818 26.88 
" clip-path="url(#p298227a678)" style="fill: none; stroke-dasharray: 2.96,1.28; stroke-dashoffset: 0; stroke: #b0b0b0; stroke-opacity: 0.6; stroke-width: 0.8"/>
     </g>
     <g id="line2d_38">
      <g>
       <use xlink:href="#ma8dfdd5838" x="566.556818" y="312.28" style="stroke: #000000; stroke-width: 0.8"/>
      </g>
     </g>
     <g id="text_23">
      <!-- 2 -->
      <g transform="translate(563.375568 326.878438) scale(0.1 -0.1)">
       <use xlink:href="#DejaVuSans-32"/>
      </g>
     </g>
    </g>
    <g id="xtick_9">
     <g id="line2d_39">
      <path d="M 634.912879 312.28 
L 634.912879 26.88 
" clip-path="url(#p298227a678)" style="fill: none; stroke-dasharray: 2.96,1.28; stroke-dashoffset: 0; stroke: #b0b0b0; stroke-opacity: 0.6; stroke-width: 0.8"/>
     </g>
     <g id="line2d_40">
      <g>
       <use xlink:href="#ma8dfdd5838" x="634.912879" y="312.28" style="stroke: #000000; stroke-width: 0.8"/>
      </g>
     </g>
     <g id="text_24">
      <!-- 3 -->
      <g transform="translate(631.731629 326.878438) scale(0.1 -0.1)">
       <use xlink:href="#DejaVuSans-33"/>
      </g>
     </g>
    </g>
    <g id="xtick_10">
     <g id="line2d_41">
      <path d="M 703.268939 312.28 
L 703.268939 26.88 
" clip-path="url(#p298227a678)" style="fill: none; stroke-dasharray: 2.96,1.28; stroke-dashoffset: 0; stroke: #b0b0b0; stroke-opacity: 0.6; stroke-width: 0.8"/>
     </g>
     <g id="line2d_42">
      <g>
       <use xlink:href="#ma8dfdd5838" x="703.268939" y="312.28" style="stroke: #000000; stroke-width: 0.8"/>
      </g>
     </g>
     <g id="text_25">
      <!-- 4 -->
      <g transform="translate(700.087689 326.878438) scale(0.1 -0.1)">
       <use xlink:href="#DejaVuSans-34"/>
      </g>
     </g>
    </g>
    <g id="xtick_11">
     <g id="line2d_43">
      <path d="M 771.625 312.28 
L 771.625 26.88 
" clip-path="url(#p298227a678)" style="fill: none; stroke-dasharray: 2.96,1.28; stroke-dashoffset: 0; stroke: #b0b0b0; stroke-opacity: 0.6; stroke-width: 0.8"/>
     </g>
     <g id="line2d_44">
      <g>
       <use xlink:href="#ma8dfdd5838" x="771.625" y="312.28" style="stroke: #000000; stroke-width: 0.8"/>
      </g>
     </g>
     <g id="text_26">
      <!-- 5 -->
      <g transform="translate(768.44375 326.878438) scale(0.1 -0.1)">
       <use xlink:href="#DejaVuSans-35"/>
      </g>
     </g>
    </g>
    <g id="xtick_12">
     <g id="line2d_45">
      <path d="M 839.981061 312.28 
L 839.981061 26.88 
" clip-path="url(#p298227a678)" style="fill: none; stroke-dasharray: 2.96,1.28; stroke-dashoffset: 0; stroke: #b0b0b0; stroke-opacity: 0.6; stroke-width: 0.8"/>
     </g>
     <g id="line2d_46">
      <g>
       <use xlink:href="#ma8dfdd5838" x="839.981061" y="312.28" style="stroke: #000000; stroke-width: 0.8"/>
      </g>
     </g>
     <g id="text_27">
      <!-- 6 -->
      <g transform="translate(836.799811 326.878438) scale(0.1 -0.1)">
       <use xlink:href="#DejaVuSans-36"/>
      </g>
     </g>
    </g>
    <g id="xtick_13">
     <g id="line2d_47">
      <path d="M 908.337121 312.28 
L 908.337121 26.88 
" clip-path="url(#p298227a678)" style="fill: none; stroke-dasharray: 2.96,1.28; stroke-dashoffset: 0; stroke: #b0b0b0; stroke-opacity: 0.6; stroke-width: 0.8"/>
     </g>
     <g id="line2d_48">
      <g>
       <use xlink:href="#ma8dfdd5838" x="908.337121" y="312.28" style="stroke: #000000; stroke-width: 0.8"/>
      </g>
     </g>
     <g id="text_28">
      <!-- 7 -->
      <g transform="translate(905.155871 326.878438) scale(0.1 -0.1)">
       <use xlink:href="#DejaVuSans-37"/>
      </g>
     </g>
    </g>
    <g id="xtick_14">
     <g id="line2d_49">
      <path d="M 976.693182 312.28 
L 976.693182 26.88 
" clip-path="url(#p298227a678)" style="fill: none; stroke-dasharray: 2.96,1.28; stroke-dashoffset: 0; stroke: #b0b0b0; stroke-opacity: 0.6; stroke-width: 0.8"/>
     </g>
     <g id="line2d_50">
      <g>
       <use xlink:href="#ma8dfdd5838" x="976.693182" y="312.28" style="stroke: #000000; stroke-width: 0.8"/>
      </g>
     </g>
     <g id="text_29">
      <!-- 8 -->
      <g transform="translate(973.511932 326.878438) scale(0.1 -0.1)">
       <use xlink:href="#DejaVuSans-38"/>
      </g>
     </g>
    </g>
    <g id="text_30">
     <!-- $\alpha_1$ (with $\mu_1 = 100 - 10\alpha_1$) -->
     <g transform="translate(696.325 342.078125) scale(0.12 -0.12)">
      <use xlink:href="#DejaVuSans-Oblique-3b1" transform="translate(0 0.015625)"/>
      <use xlink:href="#DejaVuSans-31" transform="translate(65.917969 -16.390625) scale(0.7)"/>
      <use xlink:href="#DejaVuSans-20" transform="translate(113.188477 0.015625)"/>
      <use xlink:href="#DejaVuSans-28" transform="translate(144.975586 0.015625)"/>
      <use xlink:href="#DejaVuSans-77" transform="translate(183.989258 0.015625)"/>
      <use xlink:href="#DejaVuSans-69" transform="translate(265.776367 0.015625)"/>
      <use xlink:href="#DejaVuSans-74" transform="translate(293.55957 0.015625)"/>
      <use xlink:href="#DejaVuSans-68" transform="translate(332.768555 0.015625)"/>
      <use xlink:href="#DejaVuSans-20" transform="translate(396.147461 0.015625)"/>
      <use xlink:href="#DejaVuSans-Oblique-3bc" transform="translate(427.93457 0.015625)"/>
      <use xlink:href="#DejaVuSans-31" transform="translate(491.557617 -16.390625) scale(0.7)"/>
      <use xlink:href="#DejaVuSans-3d" transform="translate(558.310547 0.015625)"/>
      <use xlink:href="#DejaVuSans-31" transform="translate(661.582031 0.015625)"/>
      <use xlink:href="#DejaVuSans-30" transform="translate(725.205078 0.015625)"/>
      <use xlink:href="#DejaVuSans-30" transform="translate(788.828125 0.015625)"/>
      <use xlink:href="#DejaVuSans-2212" transform="translate(871.933594 0.015625)"/>
      <use xlink:href="#DejaVuSans-31" transform="translate(975.205078 0.015625)"/>
      <use xlink:href="#DejaVuSans-30" transform="translate(1038.828125 0.015625)"/>
      <use xlink:href="#DejaVuSans-Oblique-3b1" transform="translate(1102.451172 0.015625)"/>
      <use xlink:href="#DejaVuSans-31" transform="translate(1168.369141 -16.390625) scale(0.7)"/>
      <use xlink:href="#DejaVuSans-29" transform="translate(1215.639648 0.015625)"/>
     </g>
    </g>
   </g>
   <g id="matplotlib.axis_4">
    <g id="ytick_6">
     <g id="line2d_51">
      <path d="M 546.05 297.204329 
L 997.2 297.204329 
" clip-path="url(#p298227a678)" style="fill: none; stroke-dasharray: 2.96,1.28; stroke-dashoffset: 0; stroke: #b0b0b0; stroke-opacity: 0.6; stroke-width: 0.8"/>
     </g>
     <g id="line2d_52">
      <g>
       <use xlink:href="#m023d9161fb" x="546.05" y="297.204329" style="stroke: #000000; stroke-width: 0.8"/>
      </g>
     </g>
     <g id="text_31">
      <!-- 0 -->
      <g transform="translate(532.6875 301.003548) scale(0.1 -0.1)">
       <use xlink:href="#DejaVuSans-30"/>
      </g>
     </g>
    </g>
    <g id="ytick_7">
     <g id="line2d_53">
      <path d="M 546.05 243.977859 
L 997.2 243.977859 
" clip-path="url(#p298227a678)" style="fill: none; stroke-dasharray: 2.96,1.28; stroke-dashoffset: 0; stroke: #b0b0b0; stroke-opacity: 0.6; stroke-width: 0.8"/>
     </g>
     <g id="line2d_54">
      <g>
       <use xlink:href="#m023d9161fb" x="546.05" y="243.977859" style="stroke: #000000; stroke-width: 0.8"/>
      </g>
     </g>
     <g id="text_32">
      <!-- 20 -->
      <g transform="translate(526.325 247.777078) scale(0.1 -0.1)">
       <use xlink:href="#DejaVuSans-32"/>
       <use xlink:href="#DejaVuSans-30" transform="translate(63.623047 0)"/>
      </g>
     </g>
    </g>
    <g id="ytick_8">
     <g id="line2d_55">
      <path d="M 546.05 190.751389 
L 997.2 190.751389 
" clip-path="url(#p298227a678)" style="fill: none; stroke-dasharray: 2.96,1.28; stroke-dashoffset: 0; stroke: #b0b0b0; stroke-opacity: 0.6; stroke-width: 0.8"/>
     </g>
     <g id="line2d_56">
      <g>
       <use xlink:href="#m023d9161fb" x="546.05" y="190.751389" style="stroke: #000000; stroke-width: 0.8"/>
      </g>
     </g>
     <g id="text_33">
      <!-- 40 -->
      <g transform="translate(526.325 194.550608) scale(0.1 -0.1)">
       <use xlink:href="#DejaVuSans-34"/>
       <use xlink:href="#DejaVuSans-30" transform="translate(63.623047 0)"/>
      </g>
     </g>
    </g>
    <g id="ytick_9">
     <g id="line2d_57">
      <path d="M 546.05 137.524919 
L 997.2 137.524919 
" clip-path="url(#p298227a678)" style="fill: none; stroke-dasharray: 2.96,1.28; stroke-dashoffset: 0; stroke: #b0b0b0; stroke-opacity: 0.6; stroke-width: 0.8"/>
     </g>
     <g id="line2d_58">
      <g>
       <use xlink:href="#m023d9161fb" x="546.05" y="137.524919" style="stroke: #000000; stroke-width: 0.8"/>
      </g>
     </g>
     <g id="text_34">
      <!-- 60 -->
      <g transform="translate(526.325 141.324138) scale(0.1 -0.1)">
       <use xlink:href="#DejaVuSans-36"/>
       <use xlink:href="#DejaVuSans-30" transform="translate(63.623047 0)"/>
      </g>
     </g>
    </g>
    <g id="ytick_10">
     <g id="line2d_59">
      <path d="M 546.05 84.298449 
L 997.2 84.298449 
" clip-path="url(#p298227a678)" style="fill: none; stroke-dasharray: 2.96,1.28; stroke-dashoffset: 0; stroke: #b0b0b0; stroke-opacity: 0.6; stroke-width: 0.8"/>
     </g>
     <g id="line2d_60">
      <g>
       <use xlink:href="#m023d9161fb" x="546.05" y="84.298449" style="stroke: #000000; stroke-width: 0.8"/>
      </g>
     </g>
     <g id="text_35">
      <!-- 80 -->
      <g transform="translate(526.325 88.097668) scale(0.1 -0.1)">
       <use xlink:href="#DejaVuSans-38"/>
       <use xlink:href="#DejaVuSans-30" transform="translate(63.623047 0)"/>
      </g>
     </g>
    </g>
    <g id="ytick_11">
     <g id="line2d_61">
      <path d="M 546.05 31.071979 
L 997.2 31.071979 
" clip-path="url(#p298227a678)" style="fill: none; stroke-dasharray: 2.96,1.28; stroke-dashoffset: 0; stroke: #b0b0b0; stroke-opacity: 0.6; stroke-width: 0.8"/>
     </g>
     <g id="line2d_62">
      <g>
       <use xlink:href="#m023d9161fb" x="546.05" y="31.071979" style="stroke: #000000; stroke-width: 0.8"/>
      </g>
     </g>
     <g id="text_36">
      <!-- 100 -->
      <g transform="translate(519.9625 34.871198) scale(0.1 -0.1)">
       <use xlink:href="#DejaVuSans-31"/>
       <use xlink:href="#DejaVuSans-30" transform="translate(63.623047 0)"/>
       <use xlink:href="#DejaVuSans-30" transform="translate(127.246094 0)"/>
      </g>
     </g>
    </g>
    <g id="text_37">
     <!-- P[Type 2 Error] (%) -->
     <g transform="translate(513.466875 226.202187) rotate(-90) scale(0.12 -0.12)">
      <use xlink:href="#DejaVuSans-50"/>
      <use xlink:href="#DejaVuSans-5b" transform="translate(60.302734 0)"/>
      <use xlink:href="#DejaVuSans-54" transform="translate(99.316406 0)"/>
      <use xlink:href="#DejaVuSans-79" transform="translate(144.775391 0)"/>
      <use xlink:href="#DejaVuSans-70" transform="translate(203.955078 0)"/>
      <use xlink:href="#DejaVuSans-65" transform="translate(267.431641 0)"/>
      <use xlink:href="#DejaVuSans-20" transform="translate(328.955078 0)"/>
      <use xlink:href="#DejaVuSans-32" transform="translate(360.742188 0)"/>
      <use xlink:href="#DejaVuSans-20" transform="translate(424.365234 0)"/>
      <use xlink:href="#DejaVuSans-45" transform="translate(456.152344 0)"/>
      <use xlink:href="#DejaVuSans-72" transform="translate(519.335938 0)"/>
      <use xlink:href="#DejaVuSans-72" transform="translate(558.699219 0)"/>
      <use xlink:href="#DejaVuSans-6f" transform="translate(597.5625 0)"/>
      <use xlink:href="#DejaVuSans-72" transform="translate(658.744141 0)"/>
      <use xlink:href="#DejaVuSans-5d" transform="translate(699.857422 0)"/>
      <use xlink:href="#DejaVuSans-20" transform="translate(738.871094 0)"/>
      <use xlink:href="#DejaVuSans-28" transform="translate(770.658203 0)"/>
      <use xlink:href="#DejaVuSans-25" transform="translate(809.671875 0)"/>
      <use xlink:href="#DejaVuSans-29" transform="translate(904.691406 0)"/>
     </g>
    </g>
   </g>
   <g id="line2d_63">
    <path d="M 566.556818 275.860515 
L 634.912879 236.206794 
L 703.268939 96.593764 
L 771.625 63.220767 
L 839.981061 136.46039 
L 908.337121 272.187888 
L 976.693182 297.204329 
" clip-path="url(#p298227a678)" style="fill: none; stroke: #440154; stroke-width: 1.5; stroke-linecap: square"/>
    <g clip-path="url(#p298227a678)">
     <use xlink:href="#m7c5494a20b" x="566.556818" y="275.860515" style="fill: #440154; stroke: #440154"/>
     <use xlink:href="#m7c5494a20b" x="634.912879" y="236.206794" style="fill: #440154; stroke: #440154"/>
     <use xlink:href="#m7c5494a20b" x="703.268939" y="96.593764" style="fill: #440154; stroke: #440154"/>
     <use xlink:href="#m7c5494a20b" x="771.625" y="63.220767" style="fill: #440154; stroke: #440154"/>
     <use xlink:href="#m7c5494a20b" x="839.981061" y="136.46039" style="fill: #440154; stroke: #440154"/>
     <use xlink:href="#m7c5494a20b" x="908.337121" y="272.187888" style="fill: #440154; stroke: #440154"/>
     <use xlink:href="#m7c5494a20b" x="976.693182" y="297.204329" style="fill: #440154; stroke: #440154"/>
    </g>
   </g>
   <g id="line2d_64">
    <path d="M 566.556818 258.455459 
L 634.912879 216.725906 
L 703.268939 98.084105 
L 771.625 65.615958 
L 839.981061 151.523481 
L 908.337121 269.633018 
L 976.693182 297.204329 
" clip-path="url(#p298227a678)" style="fill: none; stroke: #3e4a89; stroke-width: 1.5; stroke-linecap: square"/>
    <g clip-path="url(#p298227a678)">
     <use xlink:href="#m708803e2bd" x="566.556818" y="258.455459" style="fill: #3e4a89; stroke: #3e4a89"/>
     <use xlink:href="#m708803e2bd" x="634.912879" y="216.725906" style="fill: #3e4a89; stroke: #3e4a89"/>
     <use xlink:href="#m708803e2bd" x="703.268939" y="98.084105" style="fill: #3e4a89; stroke: #3e4a89"/>
     <use xlink:href="#m708803e2bd" x="771.625" y="65.615958" style="fill: #3e4a89; stroke: #3e4a89"/>
     <use xlink:href="#m708803e2bd" x="839.981061" y="151.523481" style="fill: #3e4a89; stroke: #3e4a89"/>
     <use xlink:href="#m708803e2bd" x="908.337121" y="269.633018" style="fill: #3e4a89; stroke: #3e4a89"/>
     <use xlink:href="#m708803e2bd" x="976.693182" y="297.204329" style="fill: #3e4a89; stroke: #3e4a89"/>
    </g>
   </g>
   <g id="line2d_65">
    <path d="M 566.556818 200.225701 
L 634.912879 146.626646 
L 703.268939 85.78879 
L 771.625 71.417643 
L 839.981061 157.431619 
L 908.337121 258.987724 
L 976.693182 297.04465 
" clip-path="url(#p298227a678)" style="fill: none; stroke: #25848e; stroke-width: 1.5; stroke-linecap: square"/>
    <g clip-path="url(#p298227a678)">
     <use xlink:href="#m850b71debb" x="566.556818" y="200.225701" style="fill: #25848e; stroke: #25848e"/>
     <use xlink:href="#m850b71debb" x="634.912879" y="146.626646" style="fill: #25848e; stroke: #25848e"/>
     <use xlink:href="#m850b71debb" x="703.268939" y="85.78879" style="fill: #25848e; stroke: #25848e"/>
     <use xlink:href="#m850b71debb" x="771.625" y="71.417643" style="fill: #25848e; stroke: #25848e"/>
     <use xlink:href="#m850b71debb" x="839.981061" y="157.431619" style="fill: #25848e; stroke: #25848e"/>
     <use xlink:href="#m850b71debb" x="908.337121" y="258.987724" style="fill: #25848e; stroke: #25848e"/>
     <use xlink:href="#m850b71debb" x="976.693182" y="297.04465" style="fill: #25848e; stroke: #25848e"/>
    </g>
   </g>
   <g id="line2d_66">
    <path d="M 566.556818 133.639387 
L 634.912879 92.28242 
L 703.268939 60.772349 
L 771.625 71.524096 
L 839.981061 149.500875 
L 908.337121 247.916618 
L 976.693182 296.459159 
" clip-path="url(#p298227a678)" style="fill: none; stroke: #38b977; stroke-width: 1.5; stroke-linecap: square"/>
    <g clip-path="url(#p298227a678)">
     <use xlink:href="#mf0f3603c20" x="566.556818" y="133.639387" style="fill: #38b977; stroke: #38b977"/>
     <use xlink:href="#mf0f3603c20" x="634.912879" y="92.28242" style="fill: #38b977; stroke: #38b977"/>
     <use xlink:href="#mf0f3603c20" x="703.268939" y="60.772349" style="fill: #38b977; stroke: #38b977"/>
     <use xlink:href="#mf0f3603c20" x="771.625" y="71.524096" style="fill: #38b977; stroke: #38b977"/>
     <use xlink:href="#mf0f3603c20" x="839.981061" y="149.500875" style="fill: #38b977; stroke: #38b977"/>
     <use xlink:href="#mf0f3603c20" x="908.337121" y="247.916618" style="fill: #38b977; stroke: #38b977"/>
     <use xlink:href="#mf0f3603c20" x="976.693182" y="296.459159" style="fill: #38b977; stroke: #38b977"/>
    </g>
   </g>
   <g id="line2d_67">
    <path d="M 566.556818 100.958334 
L 634.912879 70.246661 
L 703.268939 51.56417 
L 771.625 72.216041 
L 839.981061 141.72981 
L 908.337121 243.764953 
L 976.693182 294.3301 
" clip-path="url(#p298227a678)" style="fill: none; stroke: #bddf26; stroke-width: 1.5; stroke-linecap: square"/>
    <g clip-path="url(#p298227a678)">
     <use xlink:href="#m6bbdbe035b" x="566.556818" y="100.958334" style="fill: #bddf26; stroke: #bddf26"/>
     <use xlink:href="#m6bbdbe035b" x="634.912879" y="70.246661" style="fill: #bddf26; stroke: #bddf26"/>
     <use xlink:href="#m6bbdbe035b" x="703.268939" y="51.56417" style="fill: #bddf26; stroke: #bddf26"/>
     <use xlink:href="#m6bbdbe035b" x="771.625" y="72.216041" style="fill: #bddf26; stroke: #bddf26"/>
     <use xlink:href="#m6bbdbe035b" x="839.981061" y="141.72981" style="fill: #bddf26; stroke: #bddf26"/>
     <use xlink:href="#m6bbdbe035b" x="908.337121" y="243.764953" style="fill: #bddf26; stroke: #bddf26"/>
     <use xlink:href="#m6bbdbe035b" x="976.693182" y="294.3301" style="fill: #bddf26; stroke: #bddf26"/>
    </g>
   </g>
   <g id="patch_9">
    <path d="M 546.05 312.28 
L 546.05 26.88 
" style="fill: none; stroke: #000000; stroke-width: 0.8; stroke-linejoin: miter; stroke-linecap: square"/>
   </g>
   <g id="patch_10">
    <path d="M 997.2 312.28 
L 997.2 26.88 
" style="fill: none; stroke: #000000; stroke-width: 0.8; stroke-linejoin: miter; stroke-linecap: square"/>
   </g>
   <g id="patch_11">
    <path d="M 546.05 312.28 
L 997.2 312.28 
" style="fill: none; stroke: #000000; stroke-width: 0.8; stroke-linejoin: miter; stroke-linecap: square"/>
   </g>
   <g id="patch_12">
    <path d="M 546.05 26.88 
L 997.2 26.88 
" style="fill: none; stroke: #000000; stroke-width: 0.8; stroke-linejoin: miter; stroke-linecap: square"/>
   </g>
   <g id="text_38">
    <!-- Type 2 Error vs Alpha (10 reps, 512 paths/rep) -->
    <g transform="translate(621.62125 20.88) scale(0.13 -0.13)">
     <use xlink:href="#DejaVuSans-54"/>
     <use xlink:href="#DejaVuSans-79" transform="translate(45.458984 0)"/>
     <use xlink:href="#DejaVuSans-70" transform="translate(104.638672 0)"/>
     <use xlink:href="#DejaVuSans-65" transform="translate(168.115234 0)"/>
     <use xlink:href="#DejaVuSans-20" transform="translate(229.638672 0)"/>
     <use xlink:href="#DejaVuSans-32" transform="translate(261.425781 0)"/>
     <use xlink:href="#DejaVuSans-20" transform="translate(325.048828 0)"/>
     <use xlink:href="#DejaVuSans-45" transform="translate(356.835938 0)"/>
     <use xlink:href="#DejaVuSans-72" transform="translate(420.019531 0)"/>
     <use xlink:href="#DejaVuSans-72" transform="translate(459.382812 0)"/>
     <use xlink:href="#DejaVuSans-6f" transform="translate(498.246094 0)"/>
     <use xlink:href="#DejaVuSans-72" transform="translate(559.427734 0)"/>
     <use xlink:href="#DejaVuSans-20" transform="translate(600.541016 0)"/>
     <use xlink:href="#DejaVuSans-76" transform="translate(632.328125 0)"/>
     <use xlink:href="#DejaVuSans-73" transform="translate(691.507812 0)"/>
     <use xlink:href="#DejaVuSans-20" transform="translate(743.607422 0)"/>
     <use xlink:href="#DejaVuSans-41" transform="translate(775.394531 0)"/>
     <use xlink:href="#DejaVuSans-6c" transform="translate(843.802734 0)"/>
     <use xlink:href="#DejaVuSans-70" transform="translate(871.585938 0)"/>
     <use xlink:href="#DejaVuSans-68" transform="translate(935.0625 0)"/>
     <use xlink:href="#DejaVuSans-61" transform="translate(998.441406 0)"/>
     <use xlink:href="#DejaVuSans-20" transform="translate(1059.720703 0)"/>
     <use xlink:href="#DejaVuSans-28" transform="translate(1091.507812 0)"/>
     <use xlink:href="#DejaVuSans-31" transform="translate(1130.521484 0)"/>
     <use xlink:href="#DejaVuSans-30" transform="translate(1194.144531 0)"/>
     <use xlink:href="#DejaVuSans-20" transform="translate(1257.767578 0)"/>
     <use xlink:href="#DejaVuSans-72" transform="translate(1289.554688 0)"/>
     <use xlink:href="#DejaVuSans-65" transform="translate(1328.417969 0)"/>
     <use xlink:href="#DejaVuSans-70" transform="translate(1389.941406 0)"/>
     <use xlink:href="#DejaVuSans-73" transform="translate(1453.417969 0)"/>
     <use xlink:href="#DejaVuSans-2c" transform="translate(1505.517578 0)"/>
     <use xlink:href="#DejaVuSans-20" transform="translate(1537.304688 0)"/>
     <use xlink:href="#DejaVuSans-35" transform="translate(1569.091797 0)"/>
     <use xlink:href="#DejaVuSans-31" transform="translate(1632.714844 0)"/>
     <use xlink:href="#DejaVuSans-32" transform="translate(1696.337891 0)"/>
     <use xlink:href="#DejaVuSans-20" transform="translate(1759.960938 0)"/>
     <use xlink:href="#DejaVuSans-70" transform="translate(1791.748047 0)"/>
     <use xlink:href="#DejaVuSans-61" transform="translate(1855.224609 0)"/>
     <use xlink:href="#DejaVuSans-74" transform="translate(1916.503906 0)"/>
     <use xlink:href="#DejaVuSans-68" transform="translate(1955.712891 0)"/>
     <use xlink:href="#DejaVuSans-73" transform="translate(2019.091797 0)"/>
     <use xlink:href="#DejaVuSans-2f" transform="translate(2071.191406 0)"/>
     <use xlink:href="#DejaVuSans-72" transform="translate(2104.882812 0)"/>
     <use xlink:href="#DejaVuSans-65" transform="translate(2143.746094 0)"/>
     <use xlink:href="#DejaVuSans-70" transform="translate(2205.269531 0)"/>
     <use xlink:href="#DejaVuSans-29" transform="translate(2268.746094 0)"/>
    </g>
   </g>
   <g id="legend_2">
    <g id="patch_13">
     <path d="M 908.84375 122.94875 
L 990.2 122.94875 
Q 992.2 122.94875 992.2 120.94875 
L 992.2 33.88 
Q 992.2 31.88 990.2 31.88 
L 908.84375 31.88 
Q 906.84375 31.88 906.84375 33.88 
L 906.84375 120.94875 
Q 906.84375 122.94875 908.84375 122.94875 
z
" style="fill: #ffffff; opacity: 0.8; stroke: #cccccc; stroke-linejoin: miter"/>
    </g>
    <g id="text_39">
     <!-- Scaling -->
     <g transform="translate(931.413281 43.478437) scale(0.1 -0.1)">
      <use xlink:href="#DejaVuSans-53"/>
      <use xlink:href="#DejaVuSans-63" transform="translate(63.476562 0)"/>
      <use xlink:href="#DejaVuSans-61" transform="translate(118.457031 0)"/>
      <use xlink:href="#DejaVuSans-6c" transform="translate(179.736328 0)"/>
      <use xlink:href="#DejaVuSans-69" transform="translate(207.519531 0)"/>
      <use xlink:href="#DejaVuSans-6e" transform="translate(235.302734 0)"/>
      <use xlink:href="#DejaVuSans-67" transform="translate(298.681641 0)"/>
     </g>
    </g>
    <g id="line2d_68">
     <path d="M 910.84375 54.656563 
L 920.84375 54.656563 
L 930.84375 54.656563 
" style="fill: none; stroke: #440154; stroke-width: 1.5; stroke-linecap: square"/>
     <g>
      <use xlink:href="#m7c5494a20b" x="920.84375" y="54.656563" style="fill: #440154; stroke: #440154"/>
     </g>
    </g>
    <g id="text_40">
     <!-- Scale: 0.5 -->
     <g transform="translate(938.84375 58.156563) scale(0.1 -0.1)">
      <use xlink:href="#DejaVuSans-53"/>
      <use xlink:href="#DejaVuSans-63" transform="translate(63.476562 0)"/>
      <use xlink:href="#DejaVuSans-61" transform="translate(118.457031 0)"/>
      <use xlink:href="#DejaVuSans-6c" transform="translate(179.736328 0)"/>
      <use xlink:href="#DejaVuSans-65" transform="translate(207.519531 0)"/>
      <use xlink:href="#DejaVuSans-3a" transform="translate(269.042969 0)"/>
      <use xlink:href="#DejaVuSans-20" transform="translate(302.734375 0)"/>
      <use xlink:href="#DejaVuSans-30" transform="translate(334.521484 0)"/>
      <use xlink:href="#DejaVuSans-2e" transform="translate(398.144531 0)"/>
      <use xlink:href="#DejaVuSans-35" transform="translate(429.931641 0)"/>
     </g>
    </g>
    <g id="line2d_69">
     <path d="M 910.84375 69.334688 
L 920.84375 69.334688 
L 930.84375 69.334688 
" style="fill: none; stroke: #3e4a89; stroke-width: 1.5; stroke-linecap: square"/>
     <g>
      <use xlink:href="#m708803e2bd" x="920.84375" y="69.334688" style="fill: #3e4a89; stroke: #3e4a89"/>
     </g>
    </g>
    <g id="text_41">
     <!-- Scale: 1.0 -->
     <g transform="translate(938.84375 72.834688) scale(0.1 -0.1)">
      <use xlink:href="#DejaVuSans-53"/>
      <use xlink:href="#DejaVuSans-63" transform="translate(63.476562 0)"/>
      <use xlink:href="#DejaVuSans-61" transform="translate(118.457031 0)"/>
      <use xlink:href="#DejaVuSans-6c" transform="translate(179.736328 0)"/>
      <use xlink:href="#DejaVuSans-65" transform="translate(207.519531 0)"/>
      <use xlink:href="#DejaVuSans-3a" transform="translate(269.042969 0)"/>
      <use xlink:href="#DejaVuSans-20" transform="translate(302.734375 0)"/>
      <use xlink:href="#DejaVuSans-31" transform="translate(334.521484 0)"/>
      <use xlink:href="#DejaVuSans-2e" transform="translate(398.144531 0)"/>
      <use xlink:href="#DejaVuSans-30" transform="translate(429.931641 0)"/>
     </g>
    </g>
    <g id="line2d_70">
     <path d="M 910.84375 84.012812 
L 920.84375 84.012812 
L 930.84375 84.012812 
" style="fill: none; stroke: #25848e; stroke-width: 1.5; stroke-linecap: square"/>
     <g>
      <use xlink:href="#m850b71debb" x="920.84375" y="84.012812" style="fill: #25848e; stroke: #25848e"/>
     </g>
    </g>
    <g id="text_42">
     <!-- Scale: 2.0 -->
     <g transform="translate(938.84375 87.512812) scale(0.1 -0.1)">
      <use xlink:href="#DejaVuSans-53"/>
      <use xlink:href="#DejaVuSans-63" transform="translate(63.476562 0)"/>
      <use xlink:href="#DejaVuSans-61" transform="translate(118.457031 0)"/>
      <use xlink:href="#DejaVuSans-6c" transform="translate(179.736328 0)"/>
      <use xlink:href="#DejaVuSans-65" transform="translate(207.519531 0)"/>
      <use xlink:href="#DejaVuSans-3a" transform="translate(269.042969 0)"/>
      <use xlink:href="#DejaVuSans-20" transform="translate(302.734375 0)"/>
      <use xlink:href="#DejaVuSans-32" transform="translate(334.521484 0)"/>
      <use xlink:href="#DejaVuSans-2e" transform="translate(398.144531 0)"/>
      <use xlink:href="#DejaVuSans-30" transform="translate(429.931641 0)"/>
     </g>
    </g>
    <g id="line2d_71">
     <path d="M 910.84375 98.690938 
L 920.84375 98.690938 
L 930.84375 98.690938 
" style="fill: none; stroke: #38b977; stroke-width: 1.5; stroke-linecap: square"/>
     <g>
      <use xlink:href="#mf0f3603c20" x="920.84375" y="98.690938" style="fill: #38b977; stroke: #38b977"/>
     </g>
    </g>
    <g id="text_43">
     <!-- Scale: 3.0 -->
     <g transform="translate(938.84375 102.190938) scale(0.1 -0.1)">
      <use xlink:href="#DejaVuSans-53"/>
      <use xlink:href="#DejaVuSans-63" transform="translate(63.476562 0)"/>
      <use xlink:href="#DejaVuSans-61" transform="translate(118.457031 0)"/>
      <use xlink:href="#DejaVuSans-6c" transform="translate(179.736328 0)"/>
      <use xlink:href="#DejaVuSans-65" transform="translate(207.519531 0)"/>
      <use xlink:href="#DejaVuSans-3a" transform="translate(269.042969 0)"/>
      <use xlink:href="#DejaVuSans-20" transform="translate(302.734375 0)"/>
      <use xlink:href="#DejaVuSans-33" transform="translate(334.521484 0)"/>
      <use xlink:href="#DejaVuSans-2e" transform="translate(398.144531 0)"/>
      <use xlink:href="#DejaVuSans-30" transform="translate(429.931641 0)"/>
     </g>
    </g>
    <g id="line2d_72">
     <path d="M 910.84375 113.369063 
L 920.84375 113.369063 
L 930.84375 113.369063 
" style="fill: none; stroke: #bddf26; stroke-width: 1.5; stroke-linecap: square"/>
     <g>
      <use xlink:href="#m6bbdbe035b" x="920.84375" y="113.369063" style="fill: #bddf26; stroke: #bddf26"/>
     </g>
    </g>
    <g id="text_44">
     <!-- Scale: 4.0 -->
     <g transform="translate(938.84375 116.869063) scale(0.1 -0.1)">
      <use xlink:href="#DejaVuSans-53"/>
      <use xlink:href="#DejaVuSans-63" transform="translate(63.476562 0)"/>
      <use xlink:href="#DejaVuSans-61" transform="translate(118.457031 0)"/>
      <use xlink:href="#DejaVuSans-6c" transform="translate(179.736328 0)"/>
      <use xlink:href="#DejaVuSans-65" transform="translate(207.519531 0)"/>
      <use xlink:href="#DejaVuSans-3a" transform="translate(269.042969 0)"/>
      <use xlink:href="#DejaVuSans-20" transform="translate(302.734375 0)"/>
      <use xlink:href="#DejaVuSans-34" transform="translate(334.521484 0)"/>
      <use xlink:href="#DejaVuSans-2e" transform="translate(398.144531 0)"/>
      <use xlink:href="#DejaVuSans-30" transform="translate(429.931641 0)"/>
     </g>
    </g>
   </g>
  </g>
 </g>
 <defs>
  <clipPath id="pd69218f01b">
   <rect x="41.15" y="26.88" width="451.15" height="285.4"/>
  </clipPath>
  <clipPath id="p298227a678">
   <rect x="546.05" y="26.88" width="451.15" height="285.4"/>
  </clipPath>
 </defs>
</svg>
