<?xml version="1.0" encoding="utf-8" standalone="no"?>
<!DOCTYPE svg PUBLIC "-//W3C//DTD SVG 1.1//EN"
  "http://www.w3.org/Graphics/SVG/1.1/DTD/svg11.dtd">
<svg xmlns:xlink="http://www.w3.org/1999/xlink" width="453.635pt" height="337.03625pt" viewBox="0 0 453.635 337.03625" xmlns="http://www.w3.org/2000/svg" version="1.1">
 <metadata>
  <rdf:RDF xmlns:dc="http://purl.org/dc/elements/1.1/" xmlns:cc="http://creativecommons.org/ns#" xmlns:rdf="http://www.w3.org/1999/02/22-rdf-syntax-ns#">
   <cc:Work>
    <dc:type rdf:resource="http://purl.org/dc/dcmitype/StillImage"/>
    <dc:date>2026-03-11T17:21:32.781486</dc:date>
    <dc:format>image/svg+xml</dc:format>
    <dc:creator>
     <cc:Agent>
      <dc:title>Matplotlib v3.10.8, https://matplotlib.org/</dc:title>
     </cc:Agent>
    </dc:creator>
   </cc:Work>
  </rdf:RDF>
 </metadata>
 <defs>
  <style type="text/css">*{stroke-linejoin: round; stroke-linecap: butt}</style>
 </defs>
 <g id="figure_1">
  <g id="patch_1">
   <path d="M 0 337.03625 
L 453.635 337.03625 
L 453.635 0 
L 0 0 
z
" style="fill: #ffffff"/>
  </g>
  <g id="axes_1">
   <g id="patch_2">
    <path d="M 26.925 313.158125 
L 446.435 313.158125 
L 446.435 22.318125 
L 26.925 22.318125 
z
" style="fill: #ffffff"/>
   </g>
   <g id="matplotlib.axis_1">
    <g id="xtick_1">
     <g id="line2d_1">
      <path d="M 45.993636 313.158125 
L 45.993636 22.318125 
" clip-path="url(#pa1415600fb)" style="fill: none; stroke-dasharray: 1,1.65; stroke-dashoffset: 0; stroke: #808080; stroke-opacity: 0.3"/>
     </g>
     <g id="line2d_2">
      <defs>
       <path id="m61823d879f" d="M 0 0 
L 0 3.5 
" style="stroke: #000000; stroke-width: 0.8"/>
      </defs>
      <g>
       <use xlink:href="#m61823d879f" x="45.993636" y="313.158125" style="stroke: #000000; stroke-width: 0.8"/>
      </g>
     </g>
     <g id="text_1">
      <!-- 0.0 -->
      <g transform="translate(38.042074 327.756562) scale(0.1 -0.1)">
       <defs>
        <path id="DejaVuSans-30" d="M 2034 4250 
Q 1547 4250 1301 3770 
Q 1056 3291 1056 2328 
Q 1056 1369 1301 889 
Q 1547 409 2034 409 
Q 2525 409 2770 889 
Q 3016 1369 3016 2328 
Q 3016 3291 2770 3770 
Q 2525 4250 2034 4250 
z
M 2034 4750 
Q 2819 4750 3233 4129 
Q 3647 3509 3647 2328 
Q 3647 1150 3233 529 
Q 2819 -91 2034 -91 
Q 1250 -91 836 529 
Q 422 1150 422 2328 
Q 422 3509 836 4129 
Q 1250 4750 2034 4750 
z
" transform="scale(0.015625)"/>
        <path id="DejaVuSans-2e" d="M 684 794 
L 1344 794 
L 1344 0 
L 684 0 
L 684 794 
z
" transform="scale(0.015625)"/>
       </defs>
       <use xlink:href="#DejaVuSans-30"/>
       <use xlink:href="#DejaVuSans-2e" transform="translate(63.623047 0)"/>
       <use xlink:href="#DejaVuSans-30" transform="translate(95.410156 0)"/>
      </g>
     </g>
    </g>
    <g id="xtick_2">
     <g id="line2d_3">
      <path d="M 122.268182 313.158125 
L 122.268182 22.318125 
" clip-path="url(#pa1415600fb)" style="fill: none; stroke-dasharray: 1,1.65; stroke-dashoffset: 0; stroke: #808080; stroke-opacity: 0.3"/>
     </g>
     <g id="line2d_4">
      <g>
       <use xlink:href="#m61823d879f" x="122.268182" y="313.158125" style="stroke: #000000; stroke-width: 0.8"/>
      </g>
     </g>
     <g id="text_2">
      <!-- 0.2 -->
      <g transform="translate(114.316619 327.756562) scale(0.1 -0.1)">
       <defs>
        <path id="DejaVuSans-32" d="M 1228 531 
L 3431 531 
L 3431 0 
L 469 0 
L 469 531 
Q 828 903 1448 1529 
Q 2069 2156 2228 2338 
Q 2531 2678 2651 2914 
Q 2772 3150 2772 3378 
Q 2772 3750 2511 3984 
Q 2250 4219 1831 4219 
Q 1534 4219 1204 4116 
Q 875 4013 500 3803 
L 500 4441 
Q 881 4594 1212 4672 
Q 1544 4750 1819 4750 
Q 2544 4750 2975 4387 
Q 3406 4025 3406 3419 
Q 3406 3131 3298 2873 
Q 3191 2616 2906 2266 
Q 2828 2175 2409 1742 
Q 1991 1309 1228 531 
z
" transform="scale(0.015625)"/>
       </defs>
       <use xlink:href="#DejaVuSans-30"/>
       <use xlink:href="#DejaVuSans-2e" transform="translate(63.623047 0)"/>
       <use xlink:href="#DejaVuSans-32" transform="translate(95.410156 0)"/>
      </g>
     </g>
    </g>
    <g id="xtick_3">
     <g id="line2d_5">
      <path d="M 198.542727 313.158125 
L 198.542727 22.318125 
" clip-path="url(#pa1415600fb)" style="fill: none; stroke-dasharray: 1,1.65; stroke-dashoffset: 0; stroke: #808080; stroke-opacity: 0.3"/>
     </g>
     <g id="line2d_6">
      <g>
       <use xlink:href="#m61823d879f" x="198.542727" y="313.158125" style="stroke: #000000; stroke-width: 0.8"/>
      </g>
     </g>
     <g id="text_3">
      <!-- 0.4 -->
      <g transform="translate(190.591165 327.756562) scale(0.1 -0.1)">
       <defs>
        <path id="DejaVuSans-34" d="M 2419 4116 
L 825 1625 
L 2419 1625 
L 2419 4116 
z
M 2253 4666 
L 3047 4666 
L 3047 1625 
L 3713 1625 
L 3713 1100 
L 3047 1100 
L 3047 0 
L 2419 0 
L 2419 1100 
L 313 1100 
L 313 1709 
L 2253 4666 
z
" transform="scale(0.015625)"/>
       </defs>
       <use xlink:href="#DejaVuSans-30"/>
       <use xlink:href="#DejaVuSans-2e" transform="translate(63.623047 0)"/>
       <use xlink:href="#DejaVuSans-34" transform="translate(95.410156 0)"/>
      </g>
     </g>
    </g>
    <g id="xtick_4">
     <g id="line2d_7">
      <path d="M 274.817273 313.158125 
L 274.817273 22.318125 
" clip-path="url(#pa1415600fb)" style="fill: none; stroke-dasharray: 1,1.65; stroke-dashoffset: 0; stroke: #808080; stroke-opacity: 0.3"/>
     </g>
     <g id="line2d_8">
      <g>
       <use xlink:href="#m61823d879f" x="274.817273" y="313.158125" style="stroke: #000000; stroke-width: 0.8"/>
      </g>
     </g>
     <g id="text_4">
      <!-- 0.6 -->
      <g transform="translate(266.86571 327.756562) scale(0.1 -0.1)">
       <defs>
        <path id="DejaVuSans-36" d="M 2113 2584 
Q 1688 2584 1439 2293 
Q 1191 2003 1191 1497 
Q 1191 994 1439 701 
Q 1688 409 2113 409 
Q 2538 409 2786 701 
Q 3034 994 3034 1497 
Q 3034 2003 2786 2293 
Q 2538 2584 2113 2584 
z
M 3366 4563 
L 3366 3988 
Q 3128 4100 2886 4159 
Q 2644 4219 2406 4219 
Q 1781 4219 1451 3797 
Q 1122 3375 1075 2522 
Q 1259 2794 1537 2939 
Q 1816 3084 2150 3084 
Q 2853 3084 3261 2657 
Q 3669 2231 3669 1497 
Q 3669 778 3244 343 
Q 2819 -91 2113 -91 
Q 1303 -91 875 529 
Q 447 1150 447 2328 
Q 447 3434 972 4092 
Q 1497 4750 2381 4750 
Q 2619 4750 2861 4703 
Q 3103 4656 3366 4563 
z
" transform="scale(0.015625)"/>
       </defs>
       <use xlink:href="#DejaVuSans-30"/>
       <use xlink:href="#DejaVuSans-2e" transform="translate(63.623047 0)"/>
       <use xlink:href="#DejaVuSans-36" transform="translate(95.410156 0)"/>
      </g>
     </g>
    </g>
    <g id="xtick_5">
     <g id="line2d_9">
      <path d="M 351.091818 313.158125 
L 351.091818 22.318125 
" clip-path="url(#pa1415600fb)" style="fill: none; stroke-dasharray: 1,1.65; stroke-dashoffset: 0; stroke: #808080; stroke-opacity: 0.3"/>
     </g>
     <g id="line2d_10">
      <g>
       <use xlink:href="#m61823d879f" x="351.091818" y="313.158125" style="stroke: #000000; stroke-width: 0.8"/>
      </g>
     </g>
     <g id="text_5">
      <!-- 0.8 -->
      <g transform="translate(343.140256 327.756562) scale(0.1 -0.1)">
       <defs>
        <path id="DejaVuSans-38" d="M 2034 2216 
Q 1584 2216 1326 1975 
Q 1069 1734 1069 1313 
Q 1069 891 1326 650 
Q 1584 409 2034 409 
Q 2484 409 2743 651 
Q 3003 894 3003 1313 
Q 3003 1734 2745 1975 
Q 2488 2216 2034 2216 
z
M 1403 2484 
Q 997 2584 770 2862 
Q 544 3141 544 3541 
Q 544 4100 942 4425 
Q 1341 4750 2034 4750 
Q 2731 4750 3128 4425 
Q 3525 4100 3525 3541 
Q 3525 3141 3298 2862 
Q 3072 2584 2669 2484 
Q 3125 2378 3379 2068 
Q 3634 1759 3634 1313 
Q 3634 634 3220 271 
Q 2806 -91 2034 -91 
Q 1263 -91 848 271 
Q 434 634 434 1313 
Q 434 1759 690 2068 
Q 947 2378 1403 2484 
z
M 1172 3481 
Q 1172 3119 1398 2916 
Q 1625 2713 2034 2713 
Q 2441 2713 2670 2916 
Q 2900 3119 2900 3481 
Q 2900 3844 2670 4047 
Q 2441 4250 2034 4250 
Q 1625 4250 1398 4047 
Q 1172 3844 1172 3481 
z
" transform="scale(0.015625)"/>
       </defs>
       <use xlink:href="#DejaVuSans-30"/>
       <use xlink:href="#DejaVuSans-2e" transform="translate(63.623047 0)"/>
       <use xlink:href="#DejaVuSans-38" transform="translate(95.410156 0)"/>
      </g>
     </g>
    </g>
    <g id="xtick_6">
     <g id="line2d_11">
      <path d="M 427.366364 313.158125 
L 427.366364 22.318125 
" clip-path="url(#pa1415600fb)" style="fill: none; stroke-dasharray: 1,1.65; stroke-dashoffset: 0; stroke: #808080; stroke-opacity: 0.3"/>
     </g>
     <g id="line2d_12">
      <g>
       <use xlink:href="#m61823d879f" x="427.366364" y="313.158125" style="stroke: #000000; stroke-width: 0.8"/>
      </g>
     </g>
     <g id="text_6">
      <!-- 1.0 -->
      <g transform="translate(419.414801 327.756562) scale(0.1 -0.1)">
       <defs>
        <path id="DejaVuSans-31" d="M 794 531 
L 1825 531 
L 1825 4091 
L 703 3866 
L 703 4441 
L 1819 4666 
L 2450 4666 
L 2450 531 
L 3481 531 
L 3481 0 
L 794 0 
L 794 531 
z
" transform="scale(0.015625)"/>
       </defs>
       <use xlink:href="#DejaVuSans-31"/>
       <use xlink:href="#DejaVuSans-2e" transform="translate(63.623047 0)"/>
       <use xlink:href="#DejaVuSans-30" transform="translate(95.410156 0)"/>
      </g>
     </g>
    </g>
    <g id="xtick_7">
     <g id="line2d_13">
      <path d="M 26.925 313.158125 
L 26.925 22.318125 
" clip-path="url(#pa1415600fb)" style="fill: none; stroke-dasharray: 1,1.65; stroke-dashoffset: 0; stroke: #808080; stroke-opacity: 0.1"/>
     </g>
     <g id="line2d_14">
      <defs>
       <path id="me19a65894b" d="M 0 0 
L 0 2 
" style="stroke: #000000; stroke-width: 0.6"/>
      </defs>
      <g>
       <use xlink:href="#me19a65894b" x="26.925" y="313.158125" style="stroke: #000000; stroke-width: 0.6"/>
      </g>
     </g>
    </g>
    <g id="xtick_8">
     <g id="line2d_15">
      <path d="M 65.062273 313.158125 
L 65.062273 22.318125 
" clip-path="url(#pa1415600fb)" style="fill: none; stroke-dasharray: 1,1.65; stroke-dashoffset: 0; stroke: #808080; stroke-opacity: 0.1"/>
     </g>
     <g id="line2d_16">
      <g>
       <use xlink:href="#me19a65894b" x="65.062273" y="313.158125" style="stroke: #000000; stroke-width: 0.6"/>
      </g>
     </g>
    </g>
    <g id="xtick_9">
     <g id="line2d_17">
      <path d="M 84.130909 313.158125 
L 84.130909 22.318125 
" clip-path="url(#pa1415600fb)" style="fill: none; stroke-dasharray: 1,1.65; stroke-dashoffset: 0; stroke: #808080; stroke-opacity: 0.1"/>
     </g>
     <g id="line2d_18">
      <g>
       <use xlink:href="#me19a65894b" x="84.130909" y="313.158125" style="stroke: #000000; stroke-width: 0.6"/>
      </g>
     </g>
    </g>
    <g id="xtick_10">
     <g id="line2d_19">
      <path d="M 103.199545 313.158125 
L 103.199545 22.318125 
" clip-path="url(#pa1415600fb)" style="fill: none; stroke-dasharray: 1,1.65; stroke-dashoffset: 0; stroke: #808080; stroke-opacity: 0.1"/>
     </g>
     <g id="line2d_20">
      <g>
       <use xlink:href="#me19a65894b" x="103.199545" y="313.158125" style="stroke: #000000; stroke-width: 0.6"/>
      </g>
     </g>
    </g>
    <g id="xtick_11">
     <g id="line2d_21">
      <path d="M 141.336818 313.158125 
L 141.336818 22.318125 
" clip-path="url(#pa1415600fb)" style="fill: none; stroke-dasharray: 1,1.65; stroke-dashoffset: 0; stroke: #808080; stroke-opacity: 0.1"/>
     </g>
     <g id="line2d_22">
      <g>
       <use xlink:href="#me19a65894b" x="141.336818" y="313.158125" style="stroke: #000000; stroke-width: 0.6"/>
      </g>
     </g>
    </g>
    <g id="xtick_12">
     <g id="line2d_23">
      <path d="M 160.405455 313.158125 
L 160.405455 22.318125 
" clip-path="url(#pa1415600fb)" style="fill: none; stroke-dasharray: 1,1.65; stroke-dashoffset: 0; stroke: #808080; stroke-opacity: 0.1"/>
     </g>
     <g id="line2d_24">
      <g>
       <use xlink:href="#me19a65894b" x="160.405455" y="313.158125" style="stroke: #000000; stroke-width: 0.6"/>
      </g>
     </g>
    </g>
    <g id="xtick_13">
     <g id="line2d_25">
      <path d="M 179.474091 313.158125 
L 179.474091 22.318125 
" clip-path="url(#pa1415600fb)" style="fill: none; stroke-dasharray: 1,1.65; stroke-dashoffset: 0; stroke: #808080; stroke-opacity: 0.1"/>
     </g>
     <g id="line2d_26">
      <g>
       <use xlink:href="#me19a65894b" x="179.474091" y="313.158125" style="stroke: #000000; stroke-width: 0.6"/>
      </g>
     </g>
    </g>
    <g id="xtick_14">
     <g id="line2d_27">
      <path d="M 217.611364 313.158125 
L 217.611364 22.318125 
" clip-path="url(#pa1415600fb)" style="fill: none; stroke-dasharray: 1,1.65; stroke-dashoffset: 0; stroke: #808080; stroke-opacity: 0.1"/>
     </g>
     <g id="line2d_28">
      <g>
       <use xlink:href="#me19a65894b" x="217.611364" y="313.158125" style="stroke: #000000; stroke-width: 0.6"/>
      </g>
     </g>
    </g>
    <g id="xtick_15">
     <g id="line2d_29">
      <path d="M 236.68 313.158125 
L 236.68 22.318125 
" clip-path="url(#pa1415600fb)" style="fill: none; stroke-dasharray: 1,1.65; stroke-dashoffset: 0; stroke: #808080; stroke-opacity: 0.1"/>
     </g>
     <g id="line2d_30">
      <g>
       <use xlink:href="#me19a65894b" x="236.68" y="313.158125" style="stroke: #000000; stroke-width: 0.6"/>
      </g>
     </g>
    </g>
    <g id="xtick_16">
     <g id="line2d_31">
      <path d="M 255.748636 313.158125 
L 255.748636 22.318125 
" clip-path="url(#pa1415600fb)" style="fill: none; stroke-dasharray: 1,1.65; stroke-dashoffset: 0; stroke: #808080; stroke-opacity: 0.1"/>
     </g>
     <g id="line2d_32">
      <g>
       <use xlink:href="#me19a65894b" x="255.748636" y="313.158125" style="stroke: #000000; stroke-width: 0.6"/>
      </g>
     </g>
    </g>
    <g id="xtick_17">
     <g id="line2d_33">
      <path d="M 293.885909 313.158125 
L 293.885909 22.318125 
" clip-path="url(#pa1415600fb)" style="fill: none; stroke-dasharray: 1,1.65; stroke-dashoffset: 0; stroke: #808080; stroke-opacity: 0.1"/>
     </g>
     <g id="line2d_34">
      <g>
       <use xlink:href="#me19a65894b" x="293.885909" y="313.158125" style="stroke: #000000; stroke-width: 0.6"/>
      </g>
     </g>
    </g>
    <g id="xtick_18">
     <g id="line2d_35">
      <path d="M 312.954545 313.158125 
L 312.954545 22.318125 
" clip-path="url(#pa1415600fb)" style="fill: none; stroke-dasharray: 1,1.65; stroke-dashoffset: 0; stroke: #808080; stroke-opacity: 0.1"/>
     </g>
     <g id="line2d_36">
      <g>
       <use xlink:href="#me19a65894b" x="312.954545" y="313.158125" style="stroke: #000000; stroke-width: 0.6"/>
      </g>
     </g>
    </g>
    <g id="xtick_19">
     <g id="line2d_37">
      <path d="M 332.023182 313.158125 
L 332.023182 22.318125 
" clip-path="url(#pa1415600fb)" style="fill: none; stroke-dasharray: 1,1.65; stroke-dashoffset: 0; stroke: #808080; stroke-opacity: 0.1"/>
     </g>
     <g id="line2d_38">
      <g>
       <use xlink:href="#me19a65894b" x="332.023182" y="313.158125" style="stroke: #000000; stroke-width: 0.6"/>
      </g>
     </g>
    </g>
    <g id="xtick_20">
     <g id="line2d_39">
      <path d="M 370.160455 313.158125 
L 370.160455 22.318125 
" clip-path="url(#pa1415600fb)" style="fill: none; stroke-dasharray: 1,1.65; stroke-dashoffset: 0; stroke: #808080; stroke-opacity: 0.1"/>
     </g>
     <g id="line2d_40">
      <g>
       <use xlink:href="#me19a65894b" x="370.160455" y="313.158125" style="stroke: #000000; stroke-width: 0.6"/>
      </g>
     </g>
    </g>
    <g id="xtick_21">
     <g id="line2d_41">
      <path d="M 389.229091 313.158125 
L 389.229091 22.318125 
" clip-path="url(#pa1415600fb)" style="fill: none; stroke-dasharray: 1,1.65; stroke-dashoffset: 0; stroke: #808080; stroke-opacity: 0.1"/>
     </g>
     <g id="line2d_42">
      <g>
       <use xlink:href="#me19a65894b" x="389.229091" y="313.158125" style="stroke: #000000; stroke-width: 0.6"/>
      </g>
     </g>
    </g>
    <g id="xtick_22">
     <g id="line2d_43">
      <path d="M 408.297727 313.158125 
L 408.297727 22.318125 
" clip-path="url(#pa1415600fb)" style="fill: none; stroke-dasharray: 1,1.65; stroke-dashoffset: 0; stroke: #808080; stroke-opacity: 0.1"/>
     </g>
     <g id="line2d_44">
      <g>
       <use xlink:href="#me19a65894b" x="408.297727" y="313.158125" style="stroke: #000000; stroke-width: 0.6"/>
      </g>
     </g>
    </g>
    <g id="xtick_23">
     <g id="line2d_45">
      <path d="M 446.435 313.158125 
L 446.435 22.318125 
" clip-path="url(#pa1415600fb)" style="fill: none; stroke-dasharray: 1,1.65; stroke-dashoffset: 0; stroke: #808080; stroke-opacity: 0.1"/>
     </g>
     <g id="line2d_46">
      <g>
       <use xlink:href="#me19a65894b" x="446.435" y="313.158125" style="stroke: #000000; stroke-width: 0.6"/>
      </g>
     </g>
    </g>
   </g>
   <g id="matplotlib.axis_2">
    <g id="ytick_1">
     <g id="line2d_47">
      <path d="M 26.925 299.938125 
L 446.435 299.938125 
" clip-path="url(#pa1415600fb)" style="fill: none; stroke-dasharray: 1,1.65; stroke-dashoffset: 0; stroke: #808080; stroke-opacity: 0.3"/>
     </g>
     <g id="line2d_48">
      <defs>
       <path id="md3650cafa6" d="M 0 0 
L -3.5 0 
" style="stroke: #000000; stroke-width: 0.8"/>
      </defs>
      <g>
       <use xlink:href="#md3650cafa6" x="26.925" y="299.938125" style="stroke: #000000; stroke-width: 0.8"/>
      </g>
     </g>
     <g id="text_7">
      <!-- 0 -->
      <g transform="translate(13.5625 303.737344) scale(0.1 -0.1)">
       <use xlink:href="#DejaVuSans-30"/>
      </g>
     </g>
    </g>
    <g id="ytick_2">
     <g id="line2d_49">
      <path d="M 26.925 262.166696 
L 446.435 262.166696 
" clip-path="url(#pa1415600fb)" style="fill: none; stroke-dasharray: 1,1.65; stroke-dashoffset: 0; stroke: #808080; stroke-opacity: 0.3"/>
     </g>
     <g id="line2d_50">
      <g>
       <use xlink:href="#md3650cafa6" x="26.925" y="262.166696" style="stroke: #000000; stroke-width: 0.8"/>
      </g>
     </g>
     <g id="text_8">
      <!-- 2 -->
      <g transform="translate(13.5625 265.965915) scale(0.1 -0.1)">
       <use xlink:href="#DejaVuSans-32"/>
      </g>
     </g>
    </g>
    <g id="ytick_3">
     <g id="line2d_51">
      <path d="M 26.925 224.395268 
L 446.435 224.395268 
" clip-path="url(#pa1415600fb)" style="fill: none; stroke-dasharray: 1,1.65; stroke-dashoffset: 0; stroke: #808080; stroke-opacity: 0.3"/>
     </g>
     <g id="line2d_52">
      <g>
       <use xlink:href="#md3650cafa6" x="26.925" y="224.395268" style="stroke: #000000; stroke-width: 0.8"/>
      </g>
     </g>
     <g id="text_9">
      <!-- 4 -->
      <g transform="translate(13.5625 228.194487) scale(0.1 -0.1)">
       <use xlink:href="#DejaVuSans-34"/>
      </g>
     </g>
    </g>
    <g id="ytick_4">
     <g id="line2d_53">
      <path d="M 26.925 186.623839 
L 446.435 186.623839 
" clip-path="url(#pa1415600fb)" style="fill: none; stroke-dasharray: 1,1.65; stroke-dashoffset: 0; stroke: #808080; stroke-opacity: 0.3"/>
     </g>
     <g id="line2d_54">
      <g>
       <use xlink:href="#md3650cafa6" x="26.925" y="186.623839" style="stroke: #000000; stroke-width: 0.8"/>
      </g>
     </g>
     <g id="text_10">
      <!-- 6 -->
      <g transform="translate(13.5625 190.423058) scale(0.1 -0.1)">
       <use xlink:href="#DejaVuSans-36"/>
      </g>
     </g>
    </g>
    <g id="ytick_5">
     <g id="line2d_55">
      <path d="M 26.925 148.852411 
L 446.435 148.852411 
" clip-path="url(#pa1415600fb)" style="fill: none; stroke-dasharray: 1,1.65; stroke-dashoffset: 0; stroke: #808080; stroke-opacity: 0.3"/>
     </g>
     <g id="line2d_56">
      <g>
       <use xlink:href="#md3650cafa6" x="26.925" y="148.852411" style="stroke: #000000; stroke-width: 0.8"/>
      </g>
     </g>
     <g id="text_11">
      <!-- 8 -->
      <g transform="translate(13.5625 152.651629) scale(0.1 -0.1)">
       <use xlink:href="#DejaVuSans-38"/>
      </g>
     </g>
    </g>
    <g id="ytick_6">
     <g id="line2d_57">
      <path d="M 26.925 111.080982 
L 446.435 111.080982 
" clip-path="url(#pa1415600fb)" style="fill: none; stroke-dasharray: 1,1.65; stroke-dashoffset: 0; stroke: #808080; stroke-opacity: 0.3"/>
     </g>
     <g id="line2d_58">
      <g>
       <use xlink:href="#md3650cafa6" x="26.925" y="111.080982" style="stroke: #000000; stroke-width: 0.8"/>
      </g>
     </g>
     <g id="text_12">
      <!-- 10 -->
      <g transform="translate(7.2 114.880201) scale(0.1 -0.1)">
       <use xlink:href="#DejaVuSans-31"/>
       <use xlink:href="#DejaVuSans-30" transform="translate(63.623047 0)"/>
      </g>
     </g>
    </g>
    <g id="ytick_7">
     <g id="line2d_59">
      <path d="M 26.925 73.309554 
L 446.435 73.309554 
" clip-path="url(#pa1415600fb)" style="fill: none; stroke-dasharray: 1,1.65; stroke-dashoffset: 0; stroke: #808080; stroke-opacity: 0.3"/>
     </g>
     <g id="line2d_60">
      <g>
       <use xlink:href="#md3650cafa6" x="26.925" y="73.309554" style="stroke: #000000; stroke-width: 0.8"/>
      </g>
     </g>
     <g id="text_13">
      <!-- 12 -->
      <g transform="translate(7.2 77.108772) scale(0.1 -0.1)">
       <use xlink:href="#DejaVuSans-31"/>
       <use xlink:href="#DejaVuSans-32" transform="translate(63.623047 0)"/>
      </g>
     </g>
    </g>
    <g id="ytick_8">
     <g id="line2d_61">
      <path d="M 26.925 35.538125 
L 446.435 35.538125 
" clip-path="url(#pa1415600fb)" style="fill: none; stroke-dasharray: 1,1.65; stroke-dashoffset: 0; stroke: #808080; stroke-opacity: 0.3"/>
     </g>
     <g id="line2d_62">
      <g>
       <use xlink:href="#md3650cafa6" x="26.925" y="35.538125" style="stroke: #000000; stroke-width: 0.8"/>
      </g>
     </g>
     <g id="text_14">
      <!-- 14 -->
      <g transform="translate(7.2 39.337344) scale(0.1 -0.1)">
       <use xlink:href="#DejaVuSans-31"/>
       <use xlink:href="#DejaVuSans-34" transform="translate(63.623047 0)"/>
      </g>
     </g>
    </g>
    <g id="ytick_9">
     <g id="line2d_63">
      <path d="M 26.925 309.380982 
L 446.435 309.380982 
" clip-path="url(#pa1415600fb)" style="fill: none; stroke-dasharray: 1,1.65; stroke-dashoffset: 0; stroke: #808080; stroke-opacity: 0.1"/>
     </g>
     <g id="line2d_64">
      <defs>
       <path id="m77ea27966b" d="M 0 0 
L -2 0 
" style="stroke: #000000; stroke-width: 0.6"/>
      </defs>
      <g>
       <use xlink:href="#m77ea27966b" x="26.925" y="309.380982" style="stroke: #000000; stroke-width: 0.6"/>
      </g>
     </g>
    </g>
    <g id="ytick_10">
     <g id="line2d_65">
      <path d="M 26.925 290.495268 
L 446.435 290.495268 
" clip-path="url(#pa1415600fb)" style="fill: none; stroke-dasharray: 1,1.65; stroke-dashoffset: 0; stroke: #808080; stroke-opacity: 0.1"/>
     </g>
     <g id="line2d_66">
      <g>
       <use xlink:href="#m77ea27966b" x="26.925" y="290.495268" style="stroke: #000000; stroke-width: 0.6"/>
      </g>
     </g>
    </g>
    <g id="ytick_11">
     <g id="line2d_67">
      <path d="M 26.925 281.052411 
L 446.435 281.052411 
" clip-path="url(#pa1415600fb)" style="fill: none; stroke-dasharray: 1,1.65; stroke-dashoffset: 0; stroke: #808080; stroke-opacity: 0.1"/>
     </g>
     <g id="line2d_68">
      <g>
       <use xlink:href="#m77ea27966b" x="26.925" y="281.052411" style="stroke: #000000; stroke-width: 0.6"/>
      </g>
     </g>
    </g>
    <g id="ytick_12">
     <g id="line2d_69">
      <path d="M 26.925 271.609554 
L 446.435 271.609554 
" clip-path="url(#pa1415600fb)" style="fill: none; stroke-dasharray: 1,1.65; stroke-dashoffset: 0; stroke: #808080; stroke-opacity: 0.1"/>
     </g>
     <g id="line2d_70">
      <g>
       <use xlink:href="#m77ea27966b" x="26.925" y="271.609554" style="stroke: #000000; stroke-width: 0.6"/>
      </g>
     </g>
    </g>
    <g id="ytick_13">
     <g id="line2d_71">
      <path d="M 26.925 252.723839 
L 446.435 252.723839 
" clip-path="url(#pa1415600fb)" style="fill: none; stroke-dasharray: 1,1.65; stroke-dashoffset: 0; stroke: #808080; stroke-opacity: 0.1"/>
     </g>
     <g id="line2d_72">
      <g>
       <use xlink:href="#m77ea27966b" x="26.925" y="252.723839" style="stroke: #000000; stroke-width: 0.6"/>
      </g>
     </g>
    </g>
    <g id="ytick_14">
     <g id="line2d_73">
      <path d="M 26.925 243.280982 
L 446.435 243.280982 
" clip-path="url(#pa1415600fb)" style="fill: none; stroke-dasharray: 1,1.65; stroke-dashoffset: 0; stroke: #808080; stroke-opacity: 0.1"/>
     </g>
     <g id="line2d_74">
      <g>
       <use xlink:href="#m77ea27966b" x="26.925" y="243.280982" style="stroke: #000000; stroke-width: 0.6"/>
      </g>
     </g>
    </g>
    <g id="ytick_15">
     <g id="line2d_75">
      <path d="M 26.925 233.838125 
L 446.435 233.838125 
" clip-path="url(#pa1415600fb)" style="fill: none; stroke-dasharray: 1,1.65; stroke-dashoffset: 0; stroke: #808080; stroke-opacity: 0.1"/>
     </g>
     <g id="line2d_76">
      <g>
       <use xlink:href="#m77ea27966b" x="26.925" y="233.838125" style="stroke: #000000; stroke-width: 0.6"/>
      </g>
     </g>
    </g>
    <g id="ytick_16">
     <g id="line2d_77">
      <path d="M 26.925 214.952411 
L 446.435 214.952411 
" clip-path="url(#pa1415600fb)" style="fill: none; stroke-dasharray: 1,1.65; stroke-dashoffset: 0; stroke: #808080; stroke-opacity: 0.1"/>
     </g>
     <g id="line2d_78">
      <g>
       <use xlink:href="#m77ea27966b" x="26.925" y="214.952411" style="stroke: #000000; stroke-width: 0.6"/>
      </g>
     </g>
    </g>
    <g id="ytick_17">
     <g id="line2d_79">
      <path d="M 26.925 205.509554 
L 446.435 205.509554 
" clip-path="url(#pa1415600fb)" style="fill: none; stroke-dasharray: 1,1.65; stroke-dashoffset: 0; stroke: #808080; stroke-opacity: 0.1"/>
     </g>
     <g id="line2d_80">
      <g>
       <use xlink:href="#m77ea27966b" x="26.925" y="205.509554" style="stroke: #000000; stroke-width: 0.6"/>
      </g>
     </g>
    </g>
    <g id="ytick_18">
     <g id="line2d_81">
      <path d="M 26.925 196.066696 
L 446.435 196.066696 
" clip-path="url(#pa1415600fb)" style="fill: none; stroke-dasharray: 1,1.65; stroke-dashoffset: 0; stroke: #808080; stroke-opacity: 0.1"/>
     </g>
     <g id="line2d_82">
      <g>
       <use xlink:href="#m77ea27966b" x="26.925" y="196.066696" style="stroke: #000000; stroke-width: 0.6"/>
      </g>
     </g>
    </g>
    <g id="ytick_19">
     <g id="line2d_83">
      <path d="M 26.925 177.180982 
L 446.435 177.180982 
" clip-path="url(#pa1415600fb)" style="fill: none; stroke-dasharray: 1,1.65; stroke-dashoffset: 0; stroke: #808080; stroke-opacity: 0.1"/>
     </g>
     <g id="line2d_84">
      <g>
       <use xlink:href="#m77ea27966b" x="26.925" y="177.180982" style="stroke: #000000; stroke-width: 0.6"/>
      </g>
     </g>
    </g>
    <g id="ytick_20">
     <g id="line2d_85">
      <path d="M 26.925 167.738125 
L 446.435 167.738125 
" clip-path="url(#pa1415600fb)" style="fill: none; stroke-dasharray: 1,1.65; stroke-dashoffset: 0; stroke: #808080; stroke-opacity: 0.1"/>
     </g>
     <g id="line2d_86">
      <g>
       <use xlink:href="#m77ea27966b" x="26.925" y="167.738125" style="stroke: #000000; stroke-width: 0.6"/>
      </g>
     </g>
    </g>
    <g id="ytick_21">
     <g id="line2d_87">
      <path d="M 26.925 158.295268 
L 446.435 158.295268 
" clip-path="url(#pa1415600fb)" style="fill: none; stroke-dasharray: 1,1.65; stroke-dashoffset: 0; stroke: #808080; stroke-opacity: 0.1"/>
     </g>
     <g id="line2d_88">
      <g>
       <use xlink:href="#m77ea27966b" x="26.925" y="158.295268" style="stroke: #000000; stroke-width: 0.6"/>
      </g>
     </g>
    </g>
    <g id="ytick_22">
     <g id="line2d_89">
      <path d="M 26.925 139.409554 
L 446.435 139.409554 
" clip-path="url(#pa1415600fb)" style="fill: none; stroke-dasharray: 1,1.65; stroke-dashoffset: 0; stroke: #808080; stroke-opacity: 0.1"/>
     </g>
     <g id="line2d_90">
      <g>
       <use xlink:href="#m77ea27966b" x="26.925" y="139.409554" style="stroke: #000000; stroke-width: 0.6"/>
      </g>
     </g>
    </g>
    <g id="ytick_23">
     <g id="line2d_91">
      <path d="M 26.925 129.966696 
L 446.435 129.966696 
" clip-path="url(#pa1415600fb)" style="fill: none; stroke-dasharray: 1,1.65; stroke-dashoffset: 0; stroke: #808080; stroke-opacity: 0.1"/>
     </g>
     <g id="line2d_92">
      <g>
       <use xlink:href="#m77ea27966b" x="26.925" y="129.966696" style="stroke: #000000; stroke-width: 0.6"/>
      </g>
     </g>
    </g>
    <g id="ytick_24">
     <g id="line2d_93">
      <path d="M 26.925 120.523839 
L 446.435 120.523839 
" clip-path="url(#pa1415600fb)" style="fill: none; stroke-dasharray: 1,1.65; stroke-dashoffset: 0; stroke: #808080; stroke-opacity: 0.1"/>
     </g>
     <g id="line2d_94">
      <g>
       <use xlink:href="#m77ea27966b" x="26.925" y="120.523839" style="stroke: #000000; stroke-width: 0.6"/>
      </g>
     </g>
    </g>
    <g id="ytick_25">
     <g id="line2d_95">
      <path d="M 26.925 101.638125 
L 446.435 101.638125 
" clip-path="url(#pa1415600fb)" style="fill: none; stroke-dasharray: 1,1.65; stroke-dashoffset: 0; stroke: #808080; stroke-opacity: 0.1"/>
     </g>
     <g id="line2d_96">
      <g>
       <use xlink:href="#m77ea27966b" x="26.925" y="101.638125" style="stroke: #000000; stroke-width: 0.6"/>
      </g>
     </g>
    </g>
    <g id="ytick_26">
     <g id="line2d_97">
      <path d="M 26.925 92.195268 
L 446.435 92.195268 
" clip-path="url(#pa1415600fb)" style="fill: none; stroke-dasharray: 1,1.65; stroke-dashoffset: 0; stroke: #808080; stroke-opacity: 0.1"/>
     </g>
     <g id="line2d_98">
      <g>
       <use xlink:href="#m77ea27966b" x="26.925" y="92.195268" style="stroke: #000000; stroke-width: 0.6"/>
      </g>
     </g>
    </g>
    <g id="ytick_27">
     <g id="line2d_99">
      <path d="M 26.925 82.752411 
L 446.435 82.752411 
" clip-path="url(#pa1415600fb)" style="fill: none; stroke-dasharray: 1,1.65; stroke-dashoffset: 0; stroke: #808080; stroke-opacity: 0.1"/>
     </g>
     <g id="line2d_100">
      <g>
       <use xlink:href="#m77ea27966b" x="26.925" y="82.752411" style="stroke: #000000; stroke-width: 0.6"/>
      </g>
     </g>
    </g>
    <g id="ytick_28">
     <g id="line2d_101">
      <path d="M 26.925 63.866696 
L 446.435 63.866696 
" clip-path="url(#pa1415600fb)" style="fill: none; stroke-dasharray: 1,1.65; stroke-dashoffset: 0; stroke: #808080; stroke-opacity: 0.1"/>
     </g>
     <g id="line2d_102">
      <g>
       <use xlink:href="#m77ea27966b" x="26.925" y="63.866696" style="stroke: #000000; stroke-width: 0.6"/>
      </g>
     </g>
    </g>
    <g id="ytick_29">
     <g id="line2d_103">
      <path d="M 26.925 54.423839 
L 446.435 54.423839 
" clip-path="url(#pa1415600fb)" style="fill: none; stroke-dasharray: 1,1.65; stroke-dashoffset: 0; stroke: #808080; stroke-opacity: 0.1"/>
     </g>
     <g id="line2d_104">
      <g>
       <use xlink:href="#m77ea27966b" x="26.925" y="54.423839" style="stroke: #000000; stroke-width: 0.6"/>
      </g>
     </g>
    </g>
    <g id="ytick_30">
     <g id="line2d_105">
      <path d="M 26.925 44.980982 
L 446.435 44.980982 
" clip-path="url(#pa1415600fb)" style="fill: none; stroke-dasharray: 1,1.65; stroke-dashoffset: 0; stroke: #808080; stroke-opacity: 0.1"/>
     </g>
     <g id="line2d_106">
      <g>
       <use xlink:href="#m77ea27966b" x="26.925" y="44.980982" style="stroke: #000000; stroke-width: 0.6"/>
      </g>
     </g>
    </g>
    <g id="ytick_31">
     <g id="line2d_107">
      <path d="M 26.925 26.095268 
L 446.435 26.095268 
" clip-path="url(#pa1415600fb)" style="fill: none; stroke-dasharray: 1,1.65; stroke-dashoffset: 0; stroke: #808080; stroke-opacity: 0.1"/>
     </g>
     <g id="line2d_108">
      <g>
       <use xlink:href="#m77ea27966b" x="26.925" y="26.095268" style="stroke: #000000; stroke-width: 0.6"/>
      </g>
     </g>
    </g>
   </g>
   <g id="line2d_109">
    <path d="M 45.993636 299.938125 
L 66.065885 281.052411 
L 86.138134 281.052411 
L 106.21038 262.166696 
L 126.282632 262.166696 
L 146.354884 262.166696 
L 166.427124 243.280982 
L 186.499376 243.280982 
L 206.571628 243.280982 
L 226.64388 205.509554 
L 246.716132 205.509554 
L 266.788372 205.509554 
L 286.860612 205.509554 
L 306.932876 205.509554 
L 327.005116 186.623839 
L 347.077379 167.738125 
L 367.14962 148.852411 
L 387.22186 148.852411 
L 407.294123 111.080982 
L 427.366364 92.195268 
" clip-path="url(#pa1415600fb)" style="fill: none; stroke: #1e90ff; stroke-opacity: 0.75; stroke-width: 1.5; stroke-linecap: square"/>
   </g>
   <g id="line2d_110">
    <path d="M 45.993636 299.938125 
L 66.065885 281.052411 
L 86.138134 281.052411 
L 106.21038 224.395268 
L 126.282632 224.395268 
L 146.354884 224.395268 
L 166.427124 224.395268 
L 186.499376 205.509554 
L 206.571628 186.623839 
L 226.64388 186.623839 
L 246.716132 167.738125 
L 266.788372 148.852411 
L 286.860612 129.966696 
L 306.932876 92.195268 
L 327.005116 92.195268 
L 347.077379 92.195268 
L 367.14962 92.195268 
L 387.22186 92.195268 
L 407.294123 92.195268 
L 427.366364 73.309554 
" clip-path="url(#pa1415600fb)" style="fill: none; stroke: #ff6347; stroke-opacity: 0.75; stroke-width: 1.5; stroke-linecap: square"/>
   </g>
   <g id="line2d_111">
    <path d="M 45.993636 299.938125 
L 66.065885 299.938125 
L 86.138134 299.938125 
L 106.21038 299.938125 
L 126.282632 299.938125 
L 146.354884 299.938125 
L 166.427124 299.938125 
L 186.499376 281.052411 
L 206.571628 281.052411 
L 226.64388 281.052411 
L 246.716132 281.052411 
L 266.788372 281.052411 
L 286.860612 281.052411 
L 306.932876 262.166696 
L 327.005116 243.280982 
L 347.077379 243.280982 
L 367.14962 243.280982 
L 387.22186 243.280982 
L 407.294123 224.395268 
L 427.366364 224.395268 
" clip-path="url(#pa1415600fb)" style="fill: none; stroke: #1e90ff; stroke-opacity: 0.75; stroke-width: 1.5; stroke-linecap: square"/>
   </g>
   <g id="line2d_112">
    <path d="M 45.993636 299.938125 
L 66.065885 281.052411 
L 86.138134 281.052411 
L 106.21038 243.280982 
L 126.282632 224.395268 
L 146.354884 224.395268 
L 166.427124 205.509554 
L 186.499376 186.623839 
L 206.571628 148.852411 
L 226.64388 148.852411 
L 246.716132 129.966696 
L 266.788372 129.966696 
L 286.860612 129.966696 
L 306.932876 129.966696 
L 327.005116 129.966696 
L 347.077379 111.080982 
L 367.14962 73.309554 
L 387.22186 54.423839 
L 407.294123 54.423839 
L 427.366364 54.423839 
" clip-path="url(#pa1415600fb)" style="fill: none; stroke: #ff6347; stroke-opacity: 0.75; stroke-width: 1.5; stroke-linecap: square"/>
   </g>
   <g id="line2d_113">
    <path d="M 45.993636 299.938125 
L 66.065885 281.052411 
L 86.138134 262.166696 
L 106.21038 262.166696 
L 126.282632 224.395268 
L 146.354884 224.395268 
L 166.427124 205.509554 
L 186.499376 205.509554 
L 206.571628 205.509554 
L 226.64388 205.509554 
L 246.716132 186.623839 
L 266.788372 167.738125 
L 286.860612 167.738125 
L 306.932876 167.738125 
L 327.005116 167.738125 
L 347.077379 129.966696 
L 367.14962 92.195268 
L 387.22186 92.195268 
L 407.294123 92.195268 
L 427.366364 92.195268 
" clip-path="url(#pa1415600fb)" style="fill: none; stroke: #1e90ff; stroke-opacity: 0.75; stroke-width: 1.5; stroke-linecap: square"/>
   </g>
   <g id="line2d_114">
    <path d="M 45.993636 299.938125 
L 66.065885 299.938125 
L 86.138134 299.938125 
L 106.21038 299.938125 
L 126.282632 281.052411 
L 146.354884 281.052411 
L 166.427124 262.166696 
L 186.499376 243.280982 
L 206.571628 243.280982 
L 226.64388 243.280982 
L 246.716132 243.280982 
L 266.788372 243.280982 
L 286.860612 243.280982 
L 306.932876 243.280982 
L 327.005116 224.395268 
L 347.077379 205.509554 
L 367.14962 186.623839 
L 387.22186 167.738125 
L 407.294123 167.738125 
L 427.366364 167.738125 
" clip-path="url(#pa1415600fb)" style="fill: none; stroke: #ff6347; stroke-opacity: 0.75; stroke-width: 1.5; stroke-linecap: square"/>
   </g>
   <g id="line2d_115">
    <path d="M 45.993636 299.938125 
L 66.065885 299.938125 
L 86.138134 281.052411 
L 106.21038 281.052411 
L 126.282632 281.052411 
L 146.354884 262.166696 
L 166.427124 262.166696 
L 186.499376 243.280982 
L 206.571628 224.395268 
L 226.64388 205.509554 
L 246.716132 167.738125 
L 266.788372 167.738125 
L 286.860612 148.852411 
L 306.932876 111.080982 
L 327.005116 111.080982 
L 347.077379 92.195268 
L 367.14962 92.195268 
L 387.22186 92.195268 
L 407.294123 92.195268 
L 427.366364 92.195268 
" clip-path="url(#pa1415600fb)" style="fill: none; stroke: #1e90ff; stroke-opacity: 0.75; stroke-width: 1.5; stroke-linecap: square"/>
   </g>
   <g id="line2d_116">
    <path d="M 45.993636 299.938125 
L 66.065885 299.938125 
L 86.138134 281.052411 
L 106.21038 281.052411 
L 126.282632 281.052411 
L 146.354884 262.166696 
L 166.427124 243.280982 
L 186.499376 224.395268 
L 206.571628 186.623839 
L 226.64388 167.738125 
L 246.716132 167.738125 
L 266.788372 167.738125 
L 286.860612 148.852411 
L 306.932876 148.852411 
L 327.005116 148.852411 
L 347.077379 111.080982 
L 367.14962 92.195268 
L 387.22186 73.309554 
L 407.294123 35.538125 
L 427.366364 35.538125 
" clip-path="url(#pa1415600fb)" style="fill: none; stroke: #ff6347; stroke-opacity: 0.75; stroke-width: 1.5; stroke-linecap: square"/>
   </g>
   <g id="line2d_117">
    <path d="M 45.993636 299.938125 
L 66.065885 299.938125 
L 86.138134 299.938125 
L 106.21038 281.052411 
L 126.282632 262.166696 
L 146.354884 262.166696 
L 166.427124 262.166696 
L 186.499376 262.166696 
L 206.571628 243.280982 
L 226.64388 205.509554 
L 246.716132 205.509554 
L 266.788372 167.738125 
L 286.860612 167.738125 
L 306.932876 167.738125 
L 327.005116 167.738125 
L 347.077379 167.738125 
L 367.14962 148.852411 
L 387.22186 148.852411 
L 407.294123 129.966696 
L 427.366364 129.966696 
" clip-path="url(#pa1415600fb)" style="fill: none; stroke: #1e90ff; stroke-opacity: 0.75; stroke-width: 1.5; stroke-linecap: square"/>
   </g>
   <g id="line2d_118">
    <path d="M 45.993636 299.938125 
L 66.065885 299.938125 
L 86.138134 299.938125 
L 106.21038 299.938125 
L 126.282632 281.052411 
L 146.354884 281.052411 
L 166.427124 281.052411 
L 186.499376 262.166696 
L 206.571628 262.166696 
L 226.64388 224.395268 
L 246.716132 224.395268 
L 266.788372 224.395268 
L 286.860612 205.509554 
L 306.932876 205.509554 
L 327.005116 167.738125 
L 347.077379 148.852411 
L 367.14962 148.852411 
L 387.22186 148.852411 
L 407.294123 148.852411 
L 427.366364 111.080982 
" clip-path="url(#pa1415600fb)" style="fill: none; stroke: #ff6347; stroke-opacity: 0.75; stroke-width: 1.5; stroke-linecap: square"/>
   </g>
   <g id="patch_3">
    <path d="M 26.925 313.158125 
L 26.925 22.318125 
" style="fill: none; stroke: #000000; stroke-width: 0.8; stroke-linejoin: miter; stroke-linecap: square"/>
   </g>
   <g id="patch_4">
    <path d="M 446.435 313.158125 
L 446.435 22.318125 
" style="fill: none; stroke: #000000; stroke-width: 0.8; stroke-linejoin: miter; stroke-linecap: square"/>
   </g>
   <g id="patch_5">
    <path d="M 26.925 313.158125 
L 446.435 313.158125 
" style="fill: none; stroke: #000000; stroke-width: 0.8; stroke-linejoin: miter; stroke-linecap: square"/>
   </g>
   <g id="patch_6">
    <path d="M 26.925 22.318125 
L 446.435 22.318125 
" style="fill: none; stroke: #000000; stroke-width: 0.8; stroke-linejoin: miter; stroke-linecap: square"/>
   </g>
   <g id="text_15">
    <!-- Sample paths — lam_0=10.0, lam_1=12.0 -->
    <g transform="translate(109.095625 16.318125) scale(0.12 -0.12)">
     <defs>
      <path id="DejaVuSans-53" d="M 3425 4513 
L 3425 3897 
Q 3066 4069 2747 4153 
Q 2428 4238 2131 4238 
Q 1616 4238 1336 4038 
Q 1056 3838 1056 3469 
Q 1056 3159 1242 3001 
Q 1428 2844 1947 2747 
L 2328 2669 
Q 3034 2534 3370 2195 
Q 3706 1856 3706 1288 
Q 3706 609 3251 259 
Q 2797 -91 1919 -91 
Q 1588 -91 1214 -16 
Q 841 59 441 206 
L 441 856 
Q 825 641 1194 531 
Q 1563 422 1919 422 
Q 2459 422 2753 634 
Q 3047 847 3047 1241 
Q 3047 1584 2836 1778 
Q 2625 1972 2144 2069 
L 1759 2144 
Q 1053 2284 737 2584 
Q 422 2884 422 3419 
Q 422 4038 858 4394 
Q 1294 4750 2059 4750 
Q 2388 4750 2728 4690 
Q 3069 4631 3425 4513 
z
" transform="scale(0.015625)"/>
      <path id="DejaVuSans-61" d="M 2194 1759 
Q 1497 1759 1228 1600 
Q 959 1441 959 1056 
Q 959 750 1161 570 
Q 1363 391 1709 391 
Q 2188 391 2477 730 
Q 2766 1069 2766 1631 
L 2766 1759 
L 2194 1759 
z
M 3341 1997 
L 3341 0 
L 2766 0 
L 2766 531 
Q 2569 213 2275 61 
Q 1981 -91 1556 -91 
Q 1019 -91 701 211 
Q 384 513 384 1019 
Q 384 1609 779 1909 
Q 1175 2209 1959 2209 
L 2766 2209 
L 2766 2266 
Q 2766 2663 2505 2880 
Q 2244 3097 1772 3097 
Q 1472 3097 1187 3025 
Q 903 2953 641 2809 
L 641 3341 
Q 956 3463 1253 3523 
Q 1550 3584 1831 3584 
Q 2591 3584 2966 3190 
Q 3341 2797 3341 1997 
z
" transform="scale(0.015625)"/>
      <path id="DejaVuSans-6d" d="M 3328 2828 
Q 3544 3216 3844 3400 
Q 4144 3584 4550 3584 
Q 5097 3584 5394 3201 
Q 5691 2819 5691 2113 
L 5691 0 
L 5113 0 
L 5113 2094 
Q 5113 2597 4934 2840 
Q 4756 3084 4391 3084 
Q 3944 3084 3684 2787 
Q 3425 2491 3425 1978 
L 3425 0 
L 2847 0 
L 2847 2094 
Q 2847 2600 2669 2842 
Q 2491 3084 2119 3084 
Q 1678 3084 1418 2786 
Q 1159 2488 1159 1978 
L 1159 0 
L 581 0 
L 581 3500 
L 1159 3500 
L 1159 2956 
Q 1356 3278 1631 3431 
Q 1906 3584 2284 3584 
Q 2666 3584 2933 3390 
Q 3200 3197 3328 2828 
z
" transform="scale(0.015625)"/>
      <path id="DejaVuSans-70" d="M 1159 525 
L 1159 -1331 
L 581 -1331 
L 581 3500 
L 1159 3500 
L 1159 2969 
Q 1341 3281 1617 3432 
Q 1894 3584 2278 3584 
Q 2916 3584 3314 3078 
Q 3713 2572 3713 1747 
Q 3713 922 3314 415 
Q 2916 -91 2278 -91 
Q 1894 -91 1617 61 
Q 1341 213 1159 525 
z
M 3116 1747 
Q 3116 2381 2855 2742 
Q 2594 3103 2138 3103 
Q 1681 3103 1420 2742 
Q 1159 2381 1159 1747 
Q 1159 1113 1420 752 
Q 1681 391 2138 391 
Q 2594 391 2855 752 
Q 3116 1113 3116 1747 
z
" transform="scale(0.015625)"/>
      <path id="DejaVuSans-6c" d="M 603 4863 
L 1178 4863 
L 1178 0 
L 603 0 
L 603 4863 
z
" transform="scale(0.015625)"/>
      <path id="DejaVuSans-65" d="M 3597 1894 
L 3597 1613 
L 953 1613 
Q 991 1019 1311 708 
Q 1631 397 2203 397 
Q 2534 397 2845 478 
Q 3156 559 3463 722 
L 3463 178 
Q 3153 47 2828 -22 
Q 2503 -91 2169 -91 
Q 1331 -91 842 396 
Q 353 884 353 1716 
Q 353 2575 817 3079 
Q 1281 3584 2069 3584 
Q 2775 3584 3186 3129 
Q 3597 2675 3597 1894 
z
M 3022 2063 
Q 3016 2534 2758 2815 
Q 2500 3097 2075 3097 
Q 1594 3097 1305 2825 
Q 1016 2553 972 2059 
L 3022 2063 
z
" transform="scale(0.015625)"/>
      <path id="DejaVuSans-20" transform="scale(0.015625)"/>
      <path id="DejaVuSans-74" d="M 1172 4494 
L 1172 3500 
L 2356 3500 
L 2356 3053 
L 1172 3053 
L 1172 1153 
Q 1172 725 1289 603 
Q 1406 481 1766 481 
L 2356 481 
L 2356 0 
L 1766 0 
Q 1100 0 847 248 
Q 594 497 594 1153 
L 594 3053 
L 172 3053 
L 172 3500 
L 594 3500 
L 594 4494 
L 1172 4494 
z
" transform="scale(0.015625)"/>
      <path id="DejaVuSans-68" d="M 3513 2113 
L 3513 0 
L 2938 0 
L 2938 2094 
Q 2938 2591 2744 2837 
Q 2550 3084 2163 3084 
Q 1697 3084 1428 2787 
Q 1159 2491 1159 1978 
L 1159 0 
L 581 0 
L 581 4863 
L 1159 4863 
L 1159 2956 
Q 1366 3272 1645 3428 
Q 1925 3584 2291 3584 
Q 2894 3584 3203 3211 
Q 3513 2838 3513 2113 
z
" transform="scale(0.015625)"/>
      <path id="DejaVuSans-73" d="M 2834 3397 
L 2834 2853 
Q 2591 2978 2328 3040 
Q 2066 3103 1784 3103 
Q 1356 3103 1142 2972 
Q 928 2841 928 2578 
Q 928 2378 1081 2264 
Q 1234 2150 1697 2047 
L 1894 2003 
Q 2506 1872 2764 1633 
Q 3022 1394 3022 966 
Q 3022 478 2636 193 
Q 2250 -91 1575 -91 
Q 1294 -91 989 -36 
Q 684 19 347 128 
L 347 722 
Q 666 556 975 473 
Q 1284 391 1588 391 
Q 1994 391 2212 530 
Q 2431 669 2431 922 
Q 2431 1156 2273 1281 
Q 2116 1406 1581 1522 
L 1381 1569 
Q 847 1681 609 1914 
Q 372 2147 372 2553 
Q 372 3047 722 3315 
Q 1072 3584 1716 3584 
Q 2034 3584 2315 3537 
Q 2597 3491 2834 3397 
z
" transform="scale(0.015625)"/>
      <path id="DejaVuSans-2014" d="M 313 1978 
L 6088 1978 
L 6088 1528 
L 313 1528 
L 313 1978 
z
" transform="scale(0.015625)"/>
      <path id="DejaVuSans-5f" d="M 3263 -1063 
L 3263 -1509 
L -63 -1509 
L -63 -1063 
L 3263 -1063 
z
" transform="scale(0.015625)"/>
      <path id="DejaVuSans-3d" d="M 678 2906 
L 4684 2906 
L 4684 2381 
L 678 2381 
L 678 2906 
z
M 678 1631 
L 4684 1631 
L 4684 1100 
L 678 1100 
L 678 1631 
z
" transform="scale(0.015625)"/>
      <path id="DejaVuSans-2c" d="M 750 794 
L 1409 794 
L 1409 256 
L 897 -744 
L 494 -744 
L 750 256 
L 750 794 
z
" transform="scale(0.015625)"/>
     </defs>
     <use xlink:href="#DejaVuSans-53"/>
     <use xlink:href="#DejaVuSans-61" transform="translate(63.476562 0)"/>
     <use xlink:href="#DejaVuSans-6d" transform="translate(124.755859 0)"/>
     <use xlink:href="#DejaVuSans-70" transform="translate(222.167969 0)"/>
     <use xlink:href="#DejaVuSans-6c" transform="translate(285.644531 0)"/>
     <use xlink:href="#DejaVuSans-65" transform="translate(313.427734 0)"/>
     <use xlink:href="#DejaVuSans-20" transform="translate(374.951172 0)"/>
     <use xlink:href="#DejaVuSans-70" transform="translate(406.738281 0)"/>
     <use xlink:href="#DejaVuSans-61" transform="translate(470.214844 0)"/>
     <use xlink:href="#DejaVuSans-74" transform="translate(531.494141 0)"/>
     <use xlink:href="#DejaVuSans-68" transform="translate(570.703125 0)"/>
     <use xlink:href="#DejaVuSans-73" transform="translate(634.082031 0)"/>
     <use xlink:href="#DejaVuSans-20" transform="translate(686.181641 0)"/>
     <use xlink:href="#DejaVuSans-2014" transform="translate(717.96875 0)"/>
     <use xlink:href="#DejaVuSans-20" transform="translate(817.96875 0)"/>
     <use xlink:href="#DejaVuSans-6c" transform="translate(849.755859 0)"/>
     <use xlink:href="#DejaVuSans-61" transform="translate(877.539062 0)"/>
     <use xlink:href="#DejaVuSans-6d" transform="translate(938.818359 0)"/>
     <use xlink:href="#DejaVuSans-5f" transform="translate(1036.230469 0)"/>
     <use xlink:href="#DejaVuSans-30" transform="translate(1086.230469 0)"/>
     <use xlink:href="#DejaVuSans-3d" transform="translate(1149.853516 0)"/>
     <use xlink:href="#DejaVuSans-31" transform="translate(1233.642578 0)"/>
     <use xlink:href="#DejaVuSans-30" transform="translate(1297.265625 0)"/>
     <use xlink:href="#DejaVuSans-2e" transform="translate(1360.888672 0)"/>
     <use xlink:href="#DejaVuSans-30" transform="translate(1392.675781 0)"/>
     <use xlink:href="#DejaVuSans-2c" transform="translate(1456.298828 0)"/>
     <use xlink:href="#DejaVuSans-20" transform="translate(1488.085938 0)"/>
     <use xlink:href="#DejaVuSans-6c" transform="translate(1519.873047 0)"/>
     <use xlink:href="#DejaVuSans-61" transform="translate(1547.65625 0)"/>
     <use xlink:href="#DejaVuSans-6d" transform="translate(1608.935547 0)"/>
     <use xlink:href="#DejaVuSans-5f" transform="translate(1706.347656 0)"/>
     <use xlink:href="#DejaVuSans-31" transform="translate(1756.347656 0)"/>
     <use xlink:href="#DejaVuSans-3d" transform="translate(1819.970703 0)"/>
     <use xlink:href="#DejaVuSans-31" transform="translate(1903.759766 0)"/>
     <use xlink:href="#DejaVuSans-32" transform="translate(1967.382812 0)"/>
     <use xlink:href="#DejaVuSans-2e" transform="translate(2031.005859 0)"/>
     <use xlink:href="#DejaVuSans-30" transform="translate(2062.792969 0)"/>
    </g>
   </g>
   <g id="legend_1">
    <g id="patch_7">
     <path d="M 33.925 59.674375 
L 79.125 59.674375 
Q 81.125 59.674375 81.125 57.674375 
L 81.125 29.318125 
Q 81.125 27.318125 79.125 27.318125 
L 33.925 27.318125 
Q 31.925 27.318125 31.925 29.318125 
L 31.925 57.674375 
Q 31.925 59.674375 33.925 59.674375 
z
" style="fill: #ffffff; opacity: 0.8; stroke: #cccccc; stroke-linejoin: miter"/>
    </g>
    <g id="line2d_119">
     <path d="M 35.925 35.416562 
L 45.925 35.416562 
L 55.925 35.416562 
" style="fill: none; stroke: #1e90ff; stroke-opacity: 0.75; stroke-width: 1.5; stroke-linecap: square"/>
    </g>
    <g id="text_16">
     <!-- $\mathcal{H}_0$ -->
     <g transform="translate(63.925 38.916562) scale(0.1 -0.1)">
      <defs>
       <path id="STIXNonUnicode-Italic-e234" d="M 5408 4237 
L 5344 4083 
Q 5152 4083 5075 3964 
Q 4998 3846 4902 3494 
L 4134 762 
Q 4090 614 4090 429 
Q 4090 166 4435 166 
Q 4659 166 4838 339 
L 4934 218 
Q 4787 51 4531 -41 
Q 4275 -134 4051 -134 
Q 3802 -134 3587 -3 
Q 3373 128 3373 403 
Q 3373 525 3405 627 
L 3859 2240 
Q 3674 2157 3667 2157 
L 2016 2157 
L 1581 595 
Q 1472 218 1209 109 
Q 947 0 371 0 
L 435 154 
Q 634 173 739 294 
Q 845 416 934 717 
L 1542 2899 
Q 1562 2957 1638 3280 
Q 1715 3603 1715 3674 
Q 1715 3789 1664 3840 
Q 1613 3891 1466 3891 
Q 922 3891 365 3411 
L 262 3526 
Q 518 3821 966 4035 
Q 1414 4250 1978 4250 
Q 2221 4250 2329 4131 
Q 2438 4013 2438 3770 
Q 2438 3584 2304 3117 
L 2074 2330 
Q 2106 2336 2170 2374 
Q 2234 2413 2266 2413 
L 3910 2413 
L 4269 3654 
Q 4384 4051 4605 4144 
Q 4826 4237 5408 4237 
z
" transform="scale(0.015625)"/>
      </defs>
      <use xlink:href="#STIXNonUnicode-Italic-e234" transform="translate(0 0.59375)"/>
      <use xlink:href="#DejaVuSans-30" transform="translate(84.057022 -15.8125) scale(0.7)"/>
     </g>
    </g>
    <g id="line2d_120">
     <path d="M 35.925 50.094687 
L 45.925 50.094687 
L 55.925 50.094687 
" style="fill: none; stroke: #ff6347; stroke-opacity: 0.75; stroke-width: 1.5; stroke-linecap: square"/>
    </g>
    <g id="text_17">
     <!-- $\mathcal{H}_1$ -->
     <g transform="translate(63.925 53.594687) scale(0.1 -0.1)">
      <use xlink:href="#STIXNonUnicode-Italic-e234" transform="translate(0 0.59375)"/>
      <use xlink:href="#DejaVuSans-31" transform="translate(84.057022 -15.8125) scale(0.7)"/>
     </g>
    </g>
   </g>
  </g>
 </g>
 <defs>
  <clipPath id="pa1415600fb">
   <rect x="26.925" y="22.318125" width="419.51" height="290.84"/>
  </clipPath>
 </defs>
</svg>
