<?xml version="1.0" encoding="utf-8" standalone="no"?>
<!DOCTYPE svg PUBLIC "-//W3C//DTD SVG 1.1//EN"
  "http://www.w3.org/Graphics/SVG/1.1/DTD/svg11.dtd">
<svg xmlns:xlink="http://www.w3.org/1999/xlink" width="1008pt" height="360pt" viewBox="0 0 1008 360" xmlns="http://www.w3.org/2000/svg" version="1.1">
 <metadata>
  <rdf:RDF xmlns:dc="http://purl.org/dc/elements/1.1/" xmlns:cc="http://creativecommons.org/ns#" xmlns:rdf="http://www.w3.org/1999/02/22-rdf-syntax-ns#">
   <cc:Work>
    <dc:type rdf:resource="http://purl.org/dc/dcmitype/StillImage"/>
    <dc:date>2026-04-04T01:11:41.843632</dc:date>
    <dc:format>image/svg+xml</dc:format>
    <dc:creator>
     <cc:Agent>
      <dc:title>Matplotlib v3.10.8, https://matplotlib.org/</dc:title>
     </cc:Agent>
    </dc:creator>
   </cc:Work>
  </rdf:RDF>
 </metadata>
 <defs>
  <style type="text/css">*{stroke-linejoin: round; stroke-linecap: butt}</style>
 </defs>
 <g id="figure_1">
  <g id="patch_1">
   <path d="M 0 360 
L 1008 360 
L 1008 0 
L 0 0 
z
" style="fill: #ffffff"/>
  </g>
  <g id="axes_1">
   <g id="patch_2">
    <path d="M 50.6 312.28 
L 500.175 312.28 
L 500.175 26.88 
L 50.6 26.88 
z
" style="fill: #ffffff"/>
   </g>
   <g id="FillBetweenPolyCollection_1">
    <defs>
     <path id="mecb8b2796f" d="M 71.035227 -229.547709 
L 71.035227 -118.924856 
L 139.152652 -134.73169 
L 207.270076 -65.059626 
L 275.3875 -74.251633 
L 343.504924 -106.057796 
L 411.622348 -87.765591 
L 479.739773 -60.692727 
L 479.739773 -202.325091 
L 479.739773 -202.325091 
L 411.622348 -264.267588 
L 343.504924 -297.604293 
L 275.3875 -226.152637 
L 207.270076 -206.859728 
L 139.152652 -254.68794 
L 71.035227 -229.547709 
z
" style="stroke: #440154; stroke-opacity: 0.2"/>
    </defs>
    <g clip-path="url(#p3c4c64f148)">
     <use xlink:href="#mecb8b2796f" x="0" y="360" style="fill: #440154; fill-opacity: 0.2; stroke: #440154; stroke-opacity: 0.2"/>
    </g>
   </g>
   <g id="FillBetweenPolyCollection_2">
    <defs>
     <path id="m183a76e6f2" d="M 71.035227 -303.02398 
L 71.035227 -136.244252 
L 139.152652 -155.777714 
L 207.270076 -125.934294 
L 275.3875 -103.159968 
L 343.504924 -135.959677 
L 411.622348 -118.836369 
L 479.739773 -80.06135 
L 479.739773 -232.80507 
L 479.739773 -232.80507 
L 411.622348 -220.73466 
L 343.504924 -205.391659 
L 275.3875 -272.017205 
L 207.270076 -299.091481 
L 139.152652 -290.611747 
L 71.035227 -303.02398 
z
" style="stroke: #3e4a89; stroke-opacity: 0.2"/>
    </defs>
    <g clip-path="url(#p3c4c64f148)">
     <use xlink:href="#m183a76e6f2" x="0" y="360" style="fill: #3e4a89; fill-opacity: 0.2; stroke: #3e4a89; stroke-opacity: 0.2"/>
    </g>
   </g>
   <g id="FillBetweenPolyCollection_3">
    <defs>
     <path id="m682995cca0" d="M 71.035227 -278.405197 
L 71.035227 -127.037199 
L 139.152652 -113.119735 
L 207.270076 -113.003344 
L 275.3875 -123.641507 
L 343.504924 -133.683644 
L 411.622348 -96.581645 
L 479.739773 -81.744911 
L 479.739773 -259.606424 
L 479.739773 -259.606424 
L 411.622348 -276.815221 
L 343.504924 -223.690456 
L 275.3875 -299.603961 
L 207.270076 -247.931371 
L 139.152652 -269.178667 
L 71.035227 -278.405197 
z
" style="stroke: #25848e; stroke-opacity: 0.2"/>
    </defs>
    <g clip-path="url(#p3c4c64f148)">
     <use xlink:href="#m682995cca0" x="0" y="360" style="fill: #25848e; fill-opacity: 0.2; stroke: #25848e; stroke-opacity: 0.2"/>
    </g>
   </g>
   <g id="FillBetweenPolyCollection_4">
    <defs>
     <path id="m31169f0b17" d="M 71.035227 -272.529156 
L 71.035227 -143.595083 
L 139.152652 -74.61328 
L 207.270076 -101.834818 
L 275.3875 -106.024087 
L 343.504924 -118.882349 
L 411.622348 -148.371698 
L 479.739773 -163.507956 
L 479.739773 -282.881505 
L 479.739773 -282.881505 
L 411.622348 -274.87377 
L 343.504924 -249.173595 
L 275.3875 -269.153086 
L 207.270076 -292.925734 
L 139.152652 -320.147273 
L 71.035227 -272.529156 
z
" style="stroke: #38b977; stroke-opacity: 0.2"/>
    </defs>
    <g clip-path="url(#p3c4c64f148)">
     <use xlink:href="#m31169f0b17" x="0" y="360" style="fill: #38b977; fill-opacity: 0.2; stroke: #38b977; stroke-opacity: 0.2"/>
    </g>
   </g>
   <g id="FillBetweenPolyCollection_5">
    <defs>
     <path id="m65a69ee6a3" d="M 71.035227 -300.964705 
L 71.035227 -65.310932 
L 139.152652 -97.898712 
L 207.270076 -123.909836 
L 275.3875 -89.976461 
L 343.504924 -96.487737 
L 411.622348 -126.13527 
L 479.739773 -159.629115 
L 479.739773 -309.904341 
L 479.739773 -309.904341 
L 411.622348 -247.261596 
L 343.504924 -273.348514 
L 275.3875 -297.662862 
L 207.270076 -238.805187 
L 139.152652 -263.036003 
L 71.035227 -300.964705 
z
" style="stroke: #bddf26; stroke-opacity: 0.2"/>
    </defs>
    <g clip-path="url(#p3c4c64f148)">
     <use xlink:href="#m65a69ee6a3" x="0" y="360" style="fill: #bddf26; fill-opacity: 0.2; stroke: #bddf26; stroke-opacity: 0.2"/>
    </g>
   </g>
   <g id="matplotlib.axis_1">
    <g id="xtick_1">
     <g id="line2d_1">
      <path d="M 71.035227 312.28 
L 71.035227 26.88 
" clip-path="url(#p3c4c64f148)" style="fill: none; stroke-dasharray: 2.96,1.28; stroke-dashoffset: 0; stroke: #b0b0b0; stroke-opacity: 0.6; stroke-width: 0.8"/>
     </g>
     <g id="line2d_2">
      <defs>
       <path id="m1f51c451a8" d="M 0 0 
L 0 3.5 
" style="stroke: #000000; stroke-width: 0.8"/>
      </defs>
      <g>
       <use xlink:href="#m1f51c451a8" x="71.035227" y="312.28" style="stroke: #000000; stroke-width: 0.8"/>
      </g>
     </g>
     <g id="text_1">
      <!-- 2 -->
      <g transform="translate(67.853977 326.878438) scale(0.1 -0.1)">
       <defs>
        <path id="DejaVuSans-32" d="M 1228 531 
L 3431 531 
L 3431 0 
L 469 0 
L 469 531 
Q 828 903 1448 1529 
Q 2069 2156 2228 2338 
Q 2531 2678 2651 2914 
Q 2772 3150 2772 3378 
Q 2772 3750 2511 3984 
Q 2250 4219 1831 4219 
Q 1534 4219 1204 4116 
Q 875 4013 500 3803 
L 500 4441 
Q 881 4594 1212 4672 
Q 1544 4750 1819 4750 
Q 2544 4750 2975 4387 
Q 3406 4025 3406 3419 
Q 3406 3131 3298 2873 
Q 3191 2616 2906 2266 
Q 2828 2175 2409 1742 
Q 1991 1309 1228 531 
z
" transform="scale(0.015625)"/>
       </defs>
       <use xlink:href="#DejaVuSans-32"/>
      </g>
     </g>
    </g>
    <g id="xtick_2">
     <g id="line2d_3">
      <path d="M 139.152652 312.28 
L 139.152652 26.88 
" clip-path="url(#p3c4c64f148)" style="fill: none; stroke-dasharray: 2.96,1.28; stroke-dashoffset: 0; stroke: #b0b0b0; stroke-opacity: 0.6; stroke-width: 0.8"/>
     </g>
     <g id="line2d_4">
      <g>
       <use xlink:href="#m1f51c451a8" x="139.152652" y="312.28" style="stroke: #000000; stroke-width: 0.8"/>
      </g>
     </g>
     <g id="text_2">
      <!-- 3 -->
      <g transform="translate(135.971402 326.878438) scale(0.1 -0.1)">
       <defs>
        <path id="DejaVuSans-33" d="M 2597 2516 
Q 3050 2419 3304 2112 
Q 3559 1806 3559 1356 
Q 3559 666 3084 287 
Q 2609 -91 1734 -91 
Q 1441 -91 1130 -33 
Q 819 25 488 141 
L 488 750 
Q 750 597 1062 519 
Q 1375 441 1716 441 
Q 2309 441 2620 675 
Q 2931 909 2931 1356 
Q 2931 1769 2642 2001 
Q 2353 2234 1838 2234 
L 1294 2234 
L 1294 2753 
L 1863 2753 
Q 2328 2753 2575 2939 
Q 2822 3125 2822 3475 
Q 2822 3834 2567 4026 
Q 2313 4219 1838 4219 
Q 1578 4219 1281 4162 
Q 984 4106 628 3988 
L 628 4550 
Q 988 4650 1302 4700 
Q 1616 4750 1894 4750 
Q 2613 4750 3031 4423 
Q 3450 4097 3450 3541 
Q 3450 3153 3228 2886 
Q 3006 2619 2597 2516 
z
" transform="scale(0.015625)"/>
       </defs>
       <use xlink:href="#DejaVuSans-33"/>
      </g>
     </g>
    </g>
    <g id="xtick_3">
     <g id="line2d_5">
      <path d="M 207.270076 312.28 
L 207.270076 26.88 
" clip-path="url(#p3c4c64f148)" style="fill: none; stroke-dasharray: 2.96,1.28; stroke-dashoffset: 0; stroke: #b0b0b0; stroke-opacity: 0.6; stroke-width: 0.8"/>
     </g>
     <g id="line2d_6">
      <g>
       <use xlink:href="#m1f51c451a8" x="207.270076" y="312.28" style="stroke: #000000; stroke-width: 0.8"/>
      </g>
     </g>
     <g id="text_3">
      <!-- 4 -->
      <g transform="translate(204.088826 326.878438) scale(0.1 -0.1)">
       <defs>
        <path id="DejaVuSans-34" d="M 2419 4116 
L 825 1625 
L 2419 1625 
L 2419 4116 
z
M 2253 4666 
L 3047 4666 
L 3047 1625 
L 3713 1625 
L 3713 1100 
L 3047 1100 
L 3047 0 
L 2419 0 
L 2419 1100 
L 313 1100 
L 313 1709 
L 2253 4666 
z
" transform="scale(0.015625)"/>
       </defs>
       <use xlink:href="#DejaVuSans-34"/>
      </g>
     </g>
    </g>
    <g id="xtick_4">
     <g id="line2d_7">
      <path d="M 275.3875 312.28 
L 275.3875 26.88 
" clip-path="url(#p3c4c64f148)" style="fill: none; stroke-dasharray: 2.96,1.28; stroke-dashoffset: 0; stroke: #b0b0b0; stroke-opacity: 0.6; stroke-width: 0.8"/>
     </g>
     <g id="line2d_8">
      <g>
       <use xlink:href="#m1f51c451a8" x="275.3875" y="312.28" style="stroke: #000000; stroke-width: 0.8"/>
      </g>
     </g>
     <g id="text_4">
      <!-- 5 -->
      <g transform="translate(272.20625 326.878438) scale(0.1 -0.1)">
       <defs>
        <path id="DejaVuSans-35" d="M 691 4666 
L 3169 4666 
L 3169 4134 
L 1269 4134 
L 1269 2991 
Q 1406 3038 1543 3061 
Q 1681 3084 1819 3084 
Q 2600 3084 3056 2656 
Q 3513 2228 3513 1497 
Q 3513 744 3044 326 
Q 2575 -91 1722 -91 
Q 1428 -91 1123 -41 
Q 819 9 494 109 
L 494 744 
Q 775 591 1075 516 
Q 1375 441 1709 441 
Q 2250 441 2565 725 
Q 2881 1009 2881 1497 
Q 2881 1984 2565 2268 
Q 2250 2553 1709 2553 
Q 1456 2553 1204 2497 
Q 953 2441 691 2322 
L 691 4666 
z
" transform="scale(0.015625)"/>
       </defs>
       <use xlink:href="#DejaVuSans-35"/>
      </g>
     </g>
    </g>
    <g id="xtick_5">
     <g id="line2d_9">
      <path d="M 343.504924 312.28 
L 343.504924 26.88 
" clip-path="url(#p3c4c64f148)" style="fill: none; stroke-dasharray: 2.96,1.28; stroke-dashoffset: 0; stroke: #b0b0b0; stroke-opacity: 0.6; stroke-width: 0.8"/>
     </g>
     <g id="line2d_10">
      <g>
       <use xlink:href="#m1f51c451a8" x="343.504924" y="312.28" style="stroke: #000000; stroke-width: 0.8"/>
      </g>
     </g>
     <g id="text_5">
      <!-- 6 -->
      <g transform="translate(340.323674 326.878438) scale(0.1 -0.1)">
       <defs>
        <path id="DejaVuSans-36" d="M 2113 2584 
Q 1688 2584 1439 2293 
Q 1191 2003 1191 1497 
Q 1191 994 1439 701 
Q 1688 409 2113 409 
Q 2538 409 2786 701 
Q 3034 994 3034 1497 
Q 3034 2003 2786 2293 
Q 2538 2584 2113 2584 
z
M 3366 4563 
L 3366 3988 
Q 3128 4100 2886 4159 
Q 2644 4219 2406 4219 
Q 1781 4219 1451 3797 
Q 1122 3375 1075 2522 
Q 1259 2794 1537 2939 
Q 1816 3084 2150 3084 
Q 2853 3084 3261 2657 
Q 3669 2231 3669 1497 
Q 3669 778 3244 343 
Q 2819 -91 2113 -91 
Q 1303 -91 875 529 
Q 447 1150 447 2328 
Q 447 3434 972 4092 
Q 1497 4750 2381 4750 
Q 2619 4750 2861 4703 
Q 3103 4656 3366 4563 
z
" transform="scale(0.015625)"/>
       </defs>
       <use xlink:href="#DejaVuSans-36"/>
      </g>
     </g>
    </g>
    <g id="xtick_6">
     <g id="line2d_11">
      <path d="M 411.622348 312.28 
L 411.622348 26.88 
" clip-path="url(#p3c4c64f148)" style="fill: none; stroke-dasharray: 2.96,1.28; stroke-dashoffset: 0; stroke: #b0b0b0; stroke-opacity: 0.6; stroke-width: 0.8"/>
     </g>
     <g id="line2d_12">
      <g>
       <use xlink:href="#m1f51c451a8" x="411.622348" y="312.28" style="stroke: #000000; stroke-width: 0.8"/>
      </g>
     </g>
     <g id="text_6">
      <!-- 7 -->
      <g transform="translate(408.441098 326.878438) scale(0.1 -0.1)">
       <defs>
        <path id="DejaVuSans-37" d="M 525 4666 
L 3525 4666 
L 3525 4397 
L 1831 0 
L 1172 0 
L 2766 4134 
L 525 4134 
L 525 4666 
z
" transform="scale(0.015625)"/>
       </defs>
       <use xlink:href="#DejaVuSans-37"/>
      </g>
     </g>
    </g>
    <g id="xtick_7">
     <g id="line2d_13">
      <path d="M 479.739773 312.28 
L 479.739773 26.88 
" clip-path="url(#p3c4c64f148)" style="fill: none; stroke-dasharray: 2.96,1.28; stroke-dashoffset: 0; stroke: #b0b0b0; stroke-opacity: 0.6; stroke-width: 0.8"/>
     </g>
     <g id="line2d_14">
      <g>
       <use xlink:href="#m1f51c451a8" x="479.739773" y="312.28" style="stroke: #000000; stroke-width: 0.8"/>
      </g>
     </g>
     <g id="text_7">
      <!-- 8 -->
      <g transform="translate(476.558523 326.878438) scale(0.1 -0.1)">
       <defs>
        <path id="DejaVuSans-38" d="M 2034 2216 
Q 1584 2216 1326 1975 
Q 1069 1734 1069 1313 
Q 1069 891 1326 650 
Q 1584 409 2034 409 
Q 2484 409 2743 651 
Q 3003 894 3003 1313 
Q 3003 1734 2745 1975 
Q 2488 2216 2034 2216 
z
M 1403 2484 
Q 997 2584 770 2862 
Q 544 3141 544 3541 
Q 544 4100 942 4425 
Q 1341 4750 2034 4750 
Q 2731 4750 3128 4425 
Q 3525 4100 3525 3541 
Q 3525 3141 3298 2862 
Q 3072 2584 2669 2484 
Q 3125 2378 3379 2068 
Q 3634 1759 3634 1313 
Q 3634 634 3220 271 
Q 2806 -91 2034 -91 
Q 1263 -91 848 271 
Q 434 634 434 1313 
Q 434 1759 690 2068 
Q 947 2378 1403 2484 
z
M 1172 3481 
Q 1172 3119 1398 2916 
Q 1625 2713 2034 2713 
Q 2441 2713 2670 2916 
Q 2900 3119 2900 3481 
Q 2900 3844 2670 4047 
Q 2441 4250 2034 4250 
Q 1625 4250 1398 4047 
Q 1172 3844 1172 3481 
z
" transform="scale(0.015625)"/>
       </defs>
       <use xlink:href="#DejaVuSans-38"/>
      </g>
     </g>
    </g>
    <g id="text_8">
     <!-- $\alpha_1$ (with $\mu_1 = 100 - 10\alpha_1$) -->
     <g transform="translate(200.0875 342.078125) scale(0.12 -0.12)">
      <defs>
       <path id="DejaVuSans-Oblique-3b1" d="M 2619 1628 
L 2622 2350 
Q 2625 3088 2069 3091 
Q 1653 3094 1394 2747 
Q 1069 2319 959 1747 
Q 825 1059 994 731 
Q 1169 397 1547 397 
Q 1966 397 2319 1063 
L 2619 1628 
z
M 2166 3578 
Q 3141 3594 3128 2584 
Q 3128 2584 3616 3500 
L 4128 3500 
L 3119 1603 
L 3109 919 
Q 3109 766 3194 638 
Q 3291 488 3391 488 
L 3669 488 
L 3575 0 
L 3228 0 
Q 2934 0 2722 263 
Q 2622 394 2619 669 
Q 2416 334 2066 50 
Q 1900 -81 1453 -78 
Q 722 -72 456 397 
Q 184 884 353 1747 
Q 534 2675 1009 3097 
Q 1544 3569 2166 3578 
z
" transform="scale(0.015625)"/>
       <path id="DejaVuSans-31" d="M 794 531 
L 1825 531 
L 1825 4091 
L 703 3866 
L 703 4441 
L 1819 4666 
L 2450 4666 
L 2450 531 
L 3481 531 
L 3481 0 
L 794 0 
L 794 531 
z
" transform="scale(0.015625)"/>
       <path id="DejaVuSans-20" transform="scale(0.015625)"/>
       <path id="DejaVuSans-28" d="M 1984 4856 
Q 1566 4138 1362 3434 
Q 1159 2731 1159 2009 
Q 1159 1288 1364 580 
Q 1569 -128 1984 -844 
L 1484 -844 
Q 1016 -109 783 600 
Q 550 1309 550 2009 
Q 550 2706 781 3412 
Q 1013 4119 1484 4856 
L 1984 4856 
z
" transform="scale(0.015625)"/>
       <path id="DejaVuSans-77" d="M 269 3500 
L 844 3500 
L 1563 769 
L 2278 3500 
L 2956 3500 
L 3675 769 
L 4391 3500 
L 4966 3500 
L 4050 0 
L 3372 0 
L 2619 2869 
L 1863 0 
L 1184 0 
L 269 3500 
z
" transform="scale(0.015625)"/>
       <path id="DejaVuSans-69" d="M 603 3500 
L 1178 3500 
L 1178 0 
L 603 0 
L 603 3500 
z
M 603 4863 
L 1178 4863 
L 1178 4134 
L 603 4134 
L 603 4863 
z
" transform="scale(0.015625)"/>
       <path id="DejaVuSans-74" d="M 1172 4494 
L 1172 3500 
L 2356 3500 
L 2356 3053 
L 1172 3053 
L 1172 1153 
Q 1172 725 1289 603 
Q 1406 481 1766 481 
L 2356 481 
L 2356 0 
L 1766 0 
Q 1100 0 847 248 
Q 594 497 594 1153 
L 594 3053 
L 172 3053 
L 172 3500 
L 594 3500 
L 594 4494 
L 1172 4494 
z
" transform="scale(0.015625)"/>
       <path id="DejaVuSans-68" d="M 3513 2113 
L 3513 0 
L 2938 0 
L 2938 2094 
Q 2938 2591 2744 2837 
Q 2550 3084 2163 3084 
Q 1697 3084 1428 2787 
Q 1159 2491 1159 1978 
L 1159 0 
L 581 0 
L 581 4863 
L 1159 4863 
L 1159 2956 
Q 1366 3272 1645 3428 
Q 1925 3584 2291 3584 
Q 2894 3584 3203 3211 
Q 3513 2838 3513 2113 
z
" transform="scale(0.015625)"/>
       <path id="DejaVuSans-Oblique-3bc" d="M -84 -1331 
L 856 3500 
L 1434 3500 
L 1009 1322 
Q 997 1256 987 1175 
Q 978 1094 978 1013 
Q 978 722 1161 565 
Q 1344 409 1684 409 
Q 2147 409 2431 671 
Q 2716 934 2816 1459 
L 3213 3500 
L 3788 3500 
L 3266 809 
Q 3253 750 3248 706 
Q 3244 663 3244 628 
Q 3244 531 3283 486 
Q 3322 441 3406 441 
Q 3438 441 3492 456 
Q 3547 472 3647 513 
L 3559 50 
Q 3422 -19 3297 -55 
Q 3172 -91 3053 -91 
Q 2847 -91 2730 40 
Q 2613 172 2613 403 
Q 2438 153 2195 31 
Q 1953 -91 1625 -91 
Q 1334 -91 1117 43 
Q 900 178 831 397 
L 494 -1331 
L -84 -1331 
z
" transform="scale(0.015625)"/>
       <path id="DejaVuSans-3d" d="M 678 2906 
L 4684 2906 
L 4684 2381 
L 678 2381 
L 678 2906 
z
M 678 1631 
L 4684 1631 
L 4684 1100 
L 678 1100 
L 678 1631 
z
" transform="scale(0.015625)"/>
       <path id="DejaVuSans-30" d="M 2034 4250 
Q 1547 4250 1301 3770 
Q 1056 3291 1056 2328 
Q 1056 1369 1301 889 
Q 1547 409 2034 409 
Q 2525 409 2770 889 
Q 3016 1369 3016 2328 
Q 3016 3291 2770 3770 
Q 2525 4250 2034 4250 
z
M 2034 4750 
Q 2819 4750 3233 4129 
Q 3647 3509 3647 2328 
Q 3647 1150 3233 529 
Q 2819 -91 2034 -91 
Q 1250 -91 836 529 
Q 422 1150 422 2328 
Q 422 3509 836 4129 
Q 1250 4750 2034 4750 
z
" transform="scale(0.015625)"/>
       <path id="DejaVuSans-2212" d="M 678 2272 
L 4684 2272 
L 4684 1741 
L 678 1741 
L 678 2272 
z
" transform="scale(0.015625)"/>
       <path id="DejaVuSans-29" d="M 513 4856 
L 1013 4856 
Q 1481 4119 1714 3412 
Q 1947 2706 1947 2009 
Q 1947 1309 1714 600 
Q 1481 -109 1013 -844 
L 513 -844 
Q 928 -128 1133 580 
Q 1338 1288 1338 2009 
Q 1338 2731 1133 3434 
Q 928 4138 513 4856 
z
" transform="scale(0.015625)"/>
      </defs>
      <use xlink:href="#DejaVuSans-Oblique-3b1" transform="translate(0 0.015625)"/>
      <use xlink:href="#DejaVuSans-31" transform="translate(65.917969 -16.390625) scale(0.7)"/>
      <use xlink:href="#DejaVuSans-20" transform="translate(113.188477 0.015625)"/>
      <use xlink:href="#DejaVuSans-28" transform="translate(144.975586 0.015625)"/>
      <use xlink:href="#DejaVuSans-77" transform="translate(183.989258 0.015625)"/>
      <use xlink:href="#DejaVuSans-69" transform="translate(265.776367 0.015625)"/>
      <use xlink:href="#DejaVuSans-74" transform="translate(293.55957 0.015625)"/>
      <use xlink:href="#DejaVuSans-68" transform="translate(332.768555 0.015625)"/>
      <use xlink:href="#DejaVuSans-20" transform="translate(396.147461 0.015625)"/>
      <use xlink:href="#DejaVuSans-Oblique-3bc" transform="translate(427.93457 0.015625)"/>
      <use xlink:href="#DejaVuSans-31" transform="translate(491.557617 -16.390625) scale(0.7)"/>
      <use xlink:href="#DejaVuSans-3d" transform="translate(558.310547 0.015625)"/>
      <use xlink:href="#DejaVuSans-31" transform="translate(661.582031 0.015625)"/>
      <use xlink:href="#DejaVuSans-30" transform="translate(725.205078 0.015625)"/>
      <use xlink:href="#DejaVuSans-30" transform="translate(788.828125 0.015625)"/>
      <use xlink:href="#DejaVuSans-2212" transform="translate(871.933594 0.015625)"/>
      <use xlink:href="#DejaVuSans-31" transform="translate(975.205078 0.015625)"/>
      <use xlink:href="#DejaVuSans-30" transform="translate(1038.828125 0.015625)"/>
      <use xlink:href="#DejaVuSans-Oblique-3b1" transform="translate(1102.451172 0.015625)"/>
      <use xlink:href="#DejaVuSans-31" transform="translate(1168.369141 -16.390625) scale(0.7)"/>
      <use xlink:href="#DejaVuSans-29" transform="translate(1215.639648 0.015625)"/>
     </g>
    </g>
   </g>
   <g id="matplotlib.axis_2">
    <g id="ytick_1">
     <g id="line2d_15">
      <path d="M 50.6 307.714763 
L 500.175 307.714763 
" clip-path="url(#p3c4c64f148)" style="fill: none; stroke-dasharray: 2.96,1.28; stroke-dashoffset: 0; stroke: #b0b0b0; stroke-opacity: 0.6; stroke-width: 0.8"/>
     </g>
     <g id="line2d_16">
      <defs>
       <path id="m7b0e67f467" d="M 0 0 
L -3.5 0 
" style="stroke: #000000; stroke-width: 0.8"/>
      </defs>
      <g>
       <use xlink:href="#m7b0e67f467" x="50.6" y="307.714763" style="stroke: #000000; stroke-width: 0.8"/>
      </g>
     </g>
     <g id="text_9">
      <!-- 3.5 -->
      <g transform="translate(27.696875 311.513981) scale(0.1 -0.1)">
       <defs>
        <path id="DejaVuSans-2e" d="M 684 794 
L 1344 794 
L 1344 0 
L 684 0 
L 684 794 
z
" transform="scale(0.015625)"/>
       </defs>
       <use xlink:href="#DejaVuSans-33"/>
       <use xlink:href="#DejaVuSans-2e" transform="translate(63.623047 0)"/>
       <use xlink:href="#DejaVuSans-35" transform="translate(95.410156 0)"/>
      </g>
     </g>
    </g>
    <g id="ytick_2">
     <g id="line2d_17">
      <path d="M 50.6 263.207082 
L 500.175 263.207082 
" clip-path="url(#p3c4c64f148)" style="fill: none; stroke-dasharray: 2.96,1.28; stroke-dashoffset: 0; stroke: #b0b0b0; stroke-opacity: 0.6; stroke-width: 0.8"/>
     </g>
     <g id="line2d_18">
      <g>
       <use xlink:href="#m7b0e67f467" x="50.6" y="263.207082" style="stroke: #000000; stroke-width: 0.8"/>
      </g>
     </g>
     <g id="text_10">
      <!-- 4.0 -->
      <g transform="translate(27.696875 267.006301) scale(0.1 -0.1)">
       <use xlink:href="#DejaVuSans-34"/>
       <use xlink:href="#DejaVuSans-2e" transform="translate(63.623047 0)"/>
       <use xlink:href="#DejaVuSans-30" transform="translate(95.410156 0)"/>
      </g>
     </g>
    </g>
    <g id="ytick_3">
     <g id="line2d_19">
      <path d="M 50.6 218.699401 
L 500.175 218.699401 
" clip-path="url(#p3c4c64f148)" style="fill: none; stroke-dasharray: 2.96,1.28; stroke-dashoffset: 0; stroke: #b0b0b0; stroke-opacity: 0.6; stroke-width: 0.8"/>
     </g>
     <g id="line2d_20">
      <g>
       <use xlink:href="#m7b0e67f467" x="50.6" y="218.699401" style="stroke: #000000; stroke-width: 0.8"/>
      </g>
     </g>
     <g id="text_11">
      <!-- 4.5 -->
      <g transform="translate(27.696875 222.49862) scale(0.1 -0.1)">
       <use xlink:href="#DejaVuSans-34"/>
       <use xlink:href="#DejaVuSans-2e" transform="translate(63.623047 0)"/>
       <use xlink:href="#DejaVuSans-35" transform="translate(95.410156 0)"/>
      </g>
     </g>
    </g>
    <g id="ytick_4">
     <g id="line2d_21">
      <path d="M 50.6 174.191721 
L 500.175 174.191721 
" clip-path="url(#p3c4c64f148)" style="fill: none; stroke-dasharray: 2.96,1.28; stroke-dashoffset: 0; stroke: #b0b0b0; stroke-opacity: 0.6; stroke-width: 0.8"/>
     </g>
     <g id="line2d_22">
      <g>
       <use xlink:href="#m7b0e67f467" x="50.6" y="174.191721" style="stroke: #000000; stroke-width: 0.8"/>
      </g>
     </g>
     <g id="text_12">
      <!-- 5.0 -->
      <g transform="translate(27.696875 177.99094) scale(0.1 -0.1)">
       <use xlink:href="#DejaVuSans-35"/>
       <use xlink:href="#DejaVuSans-2e" transform="translate(63.623047 0)"/>
       <use xlink:href="#DejaVuSans-30" transform="translate(95.410156 0)"/>
      </g>
     </g>
    </g>
    <g id="ytick_5">
     <g id="line2d_23">
      <path d="M 50.6 129.68404 
L 500.175 129.68404 
" clip-path="url(#p3c4c64f148)" style="fill: none; stroke-dasharray: 2.96,1.28; stroke-dashoffset: 0; stroke: #b0b0b0; stroke-opacity: 0.6; stroke-width: 0.8"/>
     </g>
     <g id="line2d_24">
      <g>
       <use xlink:href="#m7b0e67f467" x="50.6" y="129.68404" style="stroke: #000000; stroke-width: 0.8"/>
      </g>
     </g>
     <g id="text_13">
      <!-- 5.5 -->
      <g transform="translate(27.696875 133.483259) scale(0.1 -0.1)">
       <use xlink:href="#DejaVuSans-35"/>
       <use xlink:href="#DejaVuSans-2e" transform="translate(63.623047 0)"/>
       <use xlink:href="#DejaVuSans-35" transform="translate(95.410156 0)"/>
      </g>
     </g>
    </g>
    <g id="ytick_6">
     <g id="line2d_25">
      <path d="M 50.6 85.17636 
L 500.175 85.17636 
" clip-path="url(#p3c4c64f148)" style="fill: none; stroke-dasharray: 2.96,1.28; stroke-dashoffset: 0; stroke: #b0b0b0; stroke-opacity: 0.6; stroke-width: 0.8"/>
     </g>
     <g id="line2d_26">
      <g>
       <use xlink:href="#m7b0e67f467" x="50.6" y="85.17636" style="stroke: #000000; stroke-width: 0.8"/>
      </g>
     </g>
     <g id="text_14">
      <!-- 6.0 -->
      <g transform="translate(27.696875 88.975578) scale(0.1 -0.1)">
       <use xlink:href="#DejaVuSans-36"/>
       <use xlink:href="#DejaVuSans-2e" transform="translate(63.623047 0)"/>
       <use xlink:href="#DejaVuSans-30" transform="translate(95.410156 0)"/>
      </g>
     </g>
    </g>
    <g id="ytick_7">
     <g id="line2d_27">
      <path d="M 50.6 40.668679 
L 500.175 40.668679 
" clip-path="url(#p3c4c64f148)" style="fill: none; stroke-dasharray: 2.96,1.28; stroke-dashoffset: 0; stroke: #b0b0b0; stroke-opacity: 0.6; stroke-width: 0.8"/>
     </g>
     <g id="line2d_28">
      <g>
       <use xlink:href="#m7b0e67f467" x="50.6" y="40.668679" style="stroke: #000000; stroke-width: 0.8"/>
      </g>
     </g>
     <g id="text_15">
      <!-- 6.5 -->
      <g transform="translate(27.696875 44.467898) scale(0.1 -0.1)">
       <use xlink:href="#DejaVuSans-36"/>
       <use xlink:href="#DejaVuSans-2e" transform="translate(63.623047 0)"/>
       <use xlink:href="#DejaVuSans-35" transform="translate(95.410156 0)"/>
      </g>
     </g>
    </g>
    <g id="text_16">
     <!-- P[Type 1 Error] (%) -->
     <g transform="translate(21.20125 226.202187) rotate(-90) scale(0.12 -0.12)">
      <defs>
       <path id="DejaVuSans-50" d="M 1259 4147 
L 1259 2394 
L 2053 2394 
Q 2494 2394 2734 2622 
Q 2975 2850 2975 3272 
Q 2975 3691 2734 3919 
Q 2494 4147 2053 4147 
L 1259 4147 
z
M 628 4666 
L 2053 4666 
Q 2838 4666 3239 4311 
Q 3641 3956 3641 3272 
Q 3641 2581 3239 2228 
Q 2838 1875 2053 1875 
L 1259 1875 
L 1259 0 
L 628 0 
L 628 4666 
z
" transform="scale(0.015625)"/>
       <path id="DejaVuSans-5b" d="M 550 4863 
L 1875 4863 
L 1875 4416 
L 1125 4416 
L 1125 -397 
L 1875 -397 
L 1875 -844 
L 550 -844 
L 550 4863 
z
" transform="scale(0.015625)"/>
       <path id="DejaVuSans-54" d="M -19 4666 
L 3928 4666 
L 3928 4134 
L 2272 4134 
L 2272 0 
L 1638 0 
L 1638 4134 
L -19 4134 
L -19 4666 
z
" transform="scale(0.015625)"/>
       <path id="DejaVuSans-79" d="M 2059 -325 
Q 1816 -950 1584 -1140 
Q 1353 -1331 966 -1331 
L 506 -1331 
L 506 -850 
L 844 -850 
Q 1081 -850 1212 -737 
Q 1344 -625 1503 -206 
L 1606 56 
L 191 3500 
L 800 3500 
L 1894 763 
L 2988 3500 
L 3597 3500 
L 2059 -325 
z
" transform="scale(0.015625)"/>
       <path id="DejaVuSans-70" d="M 1159 525 
L 1159 -1331 
L 581 -1331 
L 581 3500 
L 1159 3500 
L 1159 2969 
Q 1341 3281 1617 3432 
Q 1894 3584 2278 3584 
Q 2916 3584 3314 3078 
Q 3713 2572 3713 1747 
Q 3713 922 3314 415 
Q 2916 -91 2278 -91 
Q 1894 -91 1617 61 
Q 1341 213 1159 525 
z
M 3116 1747 
Q 3116 2381 2855 2742 
Q 2594 3103 2138 3103 
Q 1681 3103 1420 2742 
Q 1159 2381 1159 1747 
Q 1159 1113 1420 752 
Q 1681 391 2138 391 
Q 2594 391 2855 752 
Q 3116 1113 3116 1747 
z
" transform="scale(0.015625)"/>
       <path id="DejaVuSans-65" d="M 3597 1894 
L 3597 1613 
L 953 1613 
Q 991 1019 1311 708 
Q 1631 397 2203 397 
Q 2534 397 2845 478 
Q 3156 559 3463 722 
L 3463 178 
Q 3153 47 2828 -22 
Q 2503 -91 2169 -91 
Q 1331 -91 842 396 
Q 353 884 353 1716 
Q 353 2575 817 3079 
Q 1281 3584 2069 3584 
Q 2775 3584 3186 3129 
Q 3597 2675 3597 1894 
z
M 3022 2063 
Q 3016 2534 2758 2815 
Q 2500 3097 2075 3097 
Q 1594 3097 1305 2825 
Q 1016 2553 972 2059 
L 3022 2063 
z
" transform="scale(0.015625)"/>
       <path id="DejaVuSans-45" d="M 628 4666 
L 3578 4666 
L 3578 4134 
L 1259 4134 
L 1259 2753 
L 3481 2753 
L 3481 2222 
L 1259 2222 
L 1259 531 
L 3634 531 
L 3634 0 
L 628 0 
L 628 4666 
z
" transform="scale(0.015625)"/>
       <path id="DejaVuSans-72" d="M 2631 2963 
Q 2534 3019 2420 3045 
Q 2306 3072 2169 3072 
Q 1681 3072 1420 2755 
Q 1159 2438 1159 1844 
L 1159 0 
L 581 0 
L 581 3500 
L 1159 3500 
L 1159 2956 
Q 1341 3275 1631 3429 
Q 1922 3584 2338 3584 
Q 2397 3584 2469 3576 
Q 2541 3569 2628 3553 
L 2631 2963 
z
" transform="scale(0.015625)"/>
       <path id="DejaVuSans-6f" d="M 1959 3097 
Q 1497 3097 1228 2736 
Q 959 2375 959 1747 
Q 959 1119 1226 758 
Q 1494 397 1959 397 
Q 2419 397 2687 759 
Q 2956 1122 2956 1747 
Q 2956 2369 2687 2733 
Q 2419 3097 1959 3097 
z
M 1959 3584 
Q 2709 3584 3137 3096 
Q 3566 2609 3566 1747 
Q 3566 888 3137 398 
Q 2709 -91 1959 -91 
Q 1206 -91 779 398 
Q 353 888 353 1747 
Q 353 2609 779 3096 
Q 1206 3584 1959 3584 
z
" transform="scale(0.015625)"/>
       <path id="DejaVuSans-5d" d="M 1947 4863 
L 1947 -844 
L 622 -844 
L 622 -397 
L 1369 -397 
L 1369 4416 
L 622 4416 
L 622 4863 
L 1947 4863 
z
" transform="scale(0.015625)"/>
       <path id="DejaVuSans-25" d="M 4653 2053 
Q 4381 2053 4226 1822 
Q 4072 1591 4072 1178 
Q 4072 772 4226 539 
Q 4381 306 4653 306 
Q 4919 306 5073 539 
Q 5228 772 5228 1178 
Q 5228 1588 5073 1820 
Q 4919 2053 4653 2053 
z
M 4653 2450 
Q 5147 2450 5437 2106 
Q 5728 1763 5728 1178 
Q 5728 594 5436 251 
Q 5144 -91 4653 -91 
Q 4153 -91 3862 251 
Q 3572 594 3572 1178 
Q 3572 1766 3864 2108 
Q 4156 2450 4653 2450 
z
M 1428 4353 
Q 1159 4353 1004 4120 
Q 850 3888 850 3481 
Q 850 3069 1003 2837 
Q 1156 2606 1428 2606 
Q 1700 2606 1854 2837 
Q 2009 3069 2009 3481 
Q 2009 3884 1853 4118 
Q 1697 4353 1428 4353 
z
M 4250 4750 
L 4750 4750 
L 1831 -91 
L 1331 -91 
L 4250 4750 
z
M 1428 4750 
Q 1922 4750 2215 4408 
Q 2509 4066 2509 3481 
Q 2509 2891 2217 2550 
Q 1925 2209 1428 2209 
Q 931 2209 642 2551 
Q 353 2894 353 3481 
Q 353 4063 643 4406 
Q 934 4750 1428 4750 
z
" transform="scale(0.015625)"/>
      </defs>
      <use xlink:href="#DejaVuSans-50"/>
      <use xlink:href="#DejaVuSans-5b" transform="translate(60.302734 0)"/>
      <use xlink:href="#DejaVuSans-54" transform="translate(99.316406 0)"/>
      <use xlink:href="#DejaVuSans-79" transform="translate(144.775391 0)"/>
      <use xlink:href="#DejaVuSans-70" transform="translate(203.955078 0)"/>
      <use xlink:href="#DejaVuSans-65" transform="translate(267.431641 0)"/>
      <use xlink:href="#DejaVuSans-20" transform="translate(328.955078 0)"/>
      <use xlink:href="#DejaVuSans-31" transform="translate(360.742188 0)"/>
      <use xlink:href="#DejaVuSans-20" transform="translate(424.365234 0)"/>
      <use xlink:href="#DejaVuSans-45" transform="translate(456.152344 0)"/>
      <use xlink:href="#DejaVuSans-72" transform="translate(519.335938 0)"/>
      <use xlink:href="#DejaVuSans-72" transform="translate(558.699219 0)"/>
      <use xlink:href="#DejaVuSans-6f" transform="translate(597.5625 0)"/>
      <use xlink:href="#DejaVuSans-72" transform="translate(658.744141 0)"/>
      <use xlink:href="#DejaVuSans-5d" transform="translate(699.857422 0)"/>
      <use xlink:href="#DejaVuSans-20" transform="translate(738.871094 0)"/>
      <use xlink:href="#DejaVuSans-28" transform="translate(770.658203 0)"/>
      <use xlink:href="#DejaVuSans-25" transform="translate(809.671875 0)"/>
      <use xlink:href="#DejaVuSans-29" transform="translate(904.691406 0)"/>
     </g>
    </g>
   </g>
   <g id="line2d_29">
    <path d="M 71.035227 185.763718 
L 139.152652 165.290185 
L 207.270076 224.040323 
L 275.3875 209.797865 
L 343.504924 158.168956 
L 411.622348 183.983411 
L 479.739773 228.491091 
" clip-path="url(#p3c4c64f148)" style="fill: none; stroke: #440154; stroke-width: 1.5; stroke-linecap: square"/>
    <defs>
     <path id="me94951ff45" d="M 0 3 
C 0.795609 3 1.55874 2.683901 2.12132 2.12132 
C 2.683901 1.55874 3 0.795609 3 0 
C 3 -0.795609 2.683901 -1.55874 2.12132 -2.12132 
C 1.55874 -2.683901 0.795609 -3 0 -3 
C -0.795609 -3 -1.55874 -2.683901 -2.12132 -2.12132 
C -2.683901 -1.55874 -3 -0.795609 -3 0 
C -3 0.795609 -2.683901 1.55874 -2.12132 2.12132 
C -1.55874 2.683901 -0.795609 3 0 3 
z
" style="stroke: #440154"/>
    </defs>
    <g clip-path="url(#p3c4c64f148)">
     <use xlink:href="#me94951ff45" x="71.035227" y="185.763718" style="fill: #440154; stroke: #440154"/>
     <use xlink:href="#me94951ff45" x="139.152652" y="165.290185" style="fill: #440154; stroke: #440154"/>
     <use xlink:href="#me94951ff45" x="207.270076" y="224.040323" style="fill: #440154; stroke: #440154"/>
     <use xlink:href="#me94951ff45" x="275.3875" y="209.797865" style="fill: #440154; stroke: #440154"/>
     <use xlink:href="#me94951ff45" x="343.504924" y="158.168956" style="fill: #440154; stroke: #440154"/>
     <use xlink:href="#me94951ff45" x="411.622348" y="183.983411" style="fill: #440154; stroke: #440154"/>
     <use xlink:href="#me94951ff45" x="479.739773" y="228.491091" style="fill: #440154; stroke: #440154"/>
    </g>
   </g>
   <g id="line2d_30">
    <path d="M 71.035227 140.365884 
L 139.152652 136.805269 
L 207.270076 147.487112 
L 275.3875 172.411414 
L 343.504924 189.324332 
L 411.622348 190.214486 
L 479.739773 203.56679 
" clip-path="url(#p3c4c64f148)" style="fill: none; stroke: #3e4a89; stroke-width: 1.5; stroke-linecap: square"/>
    <defs>
     <path id="mca13ea8b95" d="M 0 3 
C 0.795609 3 1.55874 2.683901 2.12132 2.12132 
C 2.683901 1.55874 3 0.795609 3 0 
C 3 -0.795609 2.683901 -1.55874 2.12132 -2.12132 
C 1.55874 -2.683901 0.795609 -3 0 -3 
C -0.795609 -3 -1.55874 -2.683901 -2.12132 -2.12132 
C -2.683901 -1.55874 -3 -0.795609 -3 0 
C -3 0.795609 -2.683901 1.55874 -2.12132 2.12132 
C -1.55874 2.683901 -0.795609 3 0 3 
z
" style="stroke: #3e4a89"/>
    </defs>
    <g clip-path="url(#p3c4c64f148)">
     <use xlink:href="#mca13ea8b95" x="71.035227" y="140.365884" style="fill: #3e4a89; stroke: #3e4a89"/>
     <use xlink:href="#mca13ea8b95" x="139.152652" y="136.805269" style="fill: #3e4a89; stroke: #3e4a89"/>
     <use xlink:href="#mca13ea8b95" x="207.270076" y="147.487112" style="fill: #3e4a89; stroke: #3e4a89"/>
     <use xlink:href="#mca13ea8b95" x="275.3875" y="172.411414" style="fill: #3e4a89; stroke: #3e4a89"/>
     <use xlink:href="#mca13ea8b95" x="343.504924" y="189.324332" style="fill: #3e4a89; stroke: #3e4a89"/>
     <use xlink:href="#mca13ea8b95" x="411.622348" y="190.214486" style="fill: #3e4a89; stroke: #3e4a89"/>
     <use xlink:href="#mca13ea8b95" x="479.739773" y="203.56679" style="fill: #3e4a89; stroke: #3e4a89"/>
    </g>
   </g>
   <g id="line2d_31">
    <path d="M 71.035227 157.278802 
L 139.152652 168.850799 
L 207.270076 179.532642 
L 275.3875 148.377266 
L 343.504924 181.31295 
L 411.622348 173.301567 
L 479.739773 189.324332 
" clip-path="url(#p3c4c64f148)" style="fill: none; stroke: #25848e; stroke-width: 1.5; stroke-linecap: square"/>
    <defs>
     <path id="me713ce6459" d="M 0 3 
C 0.795609 3 1.55874 2.683901 2.12132 2.12132 
C 2.683901 1.55874 3 0.795609 3 0 
C 3 -0.795609 2.683901 -1.55874 2.12132 -2.12132 
C 1.55874 -2.683901 0.795609 -3 0 -3 
C -0.795609 -3 -1.55874 -2.683901 -2.12132 -2.12132 
C -2.683901 -1.55874 -3 -0.795609 -3 0 
C -3 0.795609 -2.683901 1.55874 -2.12132 2.12132 
C -1.55874 2.683901 -0.795609 3 0 3 
z
" style="stroke: #25848e"/>
    </defs>
    <g clip-path="url(#p3c4c64f148)">
     <use xlink:href="#me713ce6459" x="71.035227" y="157.278802" style="fill: #25848e; stroke: #25848e"/>
     <use xlink:href="#me713ce6459" x="139.152652" y="168.850799" style="fill: #25848e; stroke: #25848e"/>
     <use xlink:href="#me713ce6459" x="207.270076" y="179.532642" style="fill: #25848e; stroke: #25848e"/>
     <use xlink:href="#me713ce6459" x="275.3875" y="148.377266" style="fill: #25848e; stroke: #25848e"/>
     <use xlink:href="#me713ce6459" x="343.504924" y="181.31295" style="fill: #25848e; stroke: #25848e"/>
     <use xlink:href="#me713ce6459" x="411.622348" y="173.301567" style="fill: #25848e; stroke: #25848e"/>
     <use xlink:href="#me713ce6459" x="479.739773" y="189.324332" style="fill: #25848e; stroke: #25848e"/>
    </g>
   </g>
   <g id="line2d_32">
    <path d="M 71.035227 151.93788 
L 139.152652 162.619724 
L 207.270076 162.619724 
L 275.3875 172.411414 
L 343.504924 175.972028 
L 411.622348 148.377266 
L 479.739773 136.805269 
" clip-path="url(#p3c4c64f148)" style="fill: none; stroke: #38b977; stroke-width: 1.5; stroke-linecap: square"/>
    <defs>
     <path id="mde25288969" d="M 0 3 
C 0.795609 3 1.55874 2.683901 2.12132 2.12132 
C 2.683901 1.55874 3 0.795609 3 0 
C 3 -0.795609 2.683901 -1.55874 2.12132 -2.12132 
C 1.55874 -2.683901 0.795609 -3 0 -3 
C -0.795609 -3 -1.55874 -2.683901 -2.12132 -2.12132 
C -2.683901 -1.55874 -3 -0.795609 -3 0 
C -3 0.795609 -2.683901 1.55874 -2.12132 2.12132 
C -1.55874 2.683901 -0.795609 3 0 3 
z
" style="stroke: #38b977"/>
    </defs>
    <g clip-path="url(#p3c4c64f148)">
     <use xlink:href="#mde25288969" x="71.035227" y="151.93788" style="fill: #38b977; stroke: #38b977"/>
     <use xlink:href="#mde25288969" x="139.152652" y="162.619724" style="fill: #38b977; stroke: #38b977"/>
     <use xlink:href="#mde25288969" x="207.270076" y="162.619724" style="fill: #38b977; stroke: #38b977"/>
     <use xlink:href="#mde25288969" x="275.3875" y="172.411414" style="fill: #38b977; stroke: #38b977"/>
     <use xlink:href="#mde25288969" x="343.504924" y="175.972028" style="fill: #38b977; stroke: #38b977"/>
     <use xlink:href="#mde25288969" x="411.622348" y="148.377266" style="fill: #38b977; stroke: #38b977"/>
     <use xlink:href="#mde25288969" x="479.739773" y="136.805269" style="fill: #38b977; stroke: #38b977"/>
    </g>
   </g>
   <g id="line2d_33">
    <path d="M 71.035227 176.862182 
L 139.152652 179.532642 
L 207.270076 178.642489 
L 275.3875 166.180338 
L 343.504924 175.081874 
L 411.622348 173.301567 
L 479.739773 125.233272 
" clip-path="url(#p3c4c64f148)" style="fill: none; stroke: #bddf26; stroke-width: 1.5; stroke-linecap: square"/>
    <defs>
     <path id="m7f519ad8a2" d="M 0 3 
C 0.795609 3 1.55874 2.683901 2.12132 2.12132 
C 2.683901 1.55874 3 0.795609 3 0 
C 3 -0.795609 2.683901 -1.55874 2.12132 -2.12132 
C 1.55874 -2.683901 0.795609 -3 0 -3 
C -0.795609 -3 -1.55874 -2.683901 -2.12132 -2.12132 
C -2.683901 -1.55874 -3 -0.795609 -3 0 
C -3 0.795609 -2.683901 1.55874 -2.12132 2.12132 
C -1.55874 2.683901 -0.795609 3 0 3 
z
" style="stroke: #bddf26"/>
    </defs>
    <g clip-path="url(#p3c4c64f148)">
     <use xlink:href="#m7f519ad8a2" x="71.035227" y="176.862182" style="fill: #bddf26; stroke: #bddf26"/>
     <use xlink:href="#m7f519ad8a2" x="139.152652" y="179.532642" style="fill: #bddf26; stroke: #bddf26"/>
     <use xlink:href="#m7f519ad8a2" x="207.270076" y="178.642489" style="fill: #bddf26; stroke: #bddf26"/>
     <use xlink:href="#m7f519ad8a2" x="275.3875" y="166.180338" style="fill: #bddf26; stroke: #bddf26"/>
     <use xlink:href="#m7f519ad8a2" x="343.504924" y="175.081874" style="fill: #bddf26; stroke: #bddf26"/>
     <use xlink:href="#m7f519ad8a2" x="411.622348" y="173.301567" style="fill: #bddf26; stroke: #bddf26"/>
     <use xlink:href="#m7f519ad8a2" x="479.739773" y="125.233272" style="fill: #bddf26; stroke: #bddf26"/>
    </g>
   </g>
   <g id="line2d_34">
    <path d="M 50.6 174.191721 
L 500.175 174.191721 
" clip-path="url(#p3c4c64f148)" style="fill: none; stroke-dasharray: 5.55,2.4; stroke-dashoffset: 0; stroke: #ff0000; stroke-width: 1.5"/>
   </g>
   <g id="line2d_35">
    <path d="M 275.3875 312.28 
L 275.3875 26.88 
" clip-path="url(#p3c4c64f148)" style="fill: none; stroke-dasharray: 5.55,2.4; stroke-dashoffset: 0; stroke: #808080; stroke-width: 1.5"/>
   </g>
   <g id="patch_3">
    <path d="M 50.6 312.28 
L 50.6 26.88 
" style="fill: none; stroke: #000000; stroke-width: 0.8; stroke-linejoin: miter; stroke-linecap: square"/>
   </g>
   <g id="patch_4">
    <path d="M 500.175 312.28 
L 500.175 26.88 
" style="fill: none; stroke: #000000; stroke-width: 0.8; stroke-linejoin: miter; stroke-linecap: square"/>
   </g>
   <g id="patch_5">
    <path d="M 50.6 312.28 
L 500.175 312.28 
" style="fill: none; stroke: #000000; stroke-width: 0.8; stroke-linejoin: miter; stroke-linecap: square"/>
   </g>
   <g id="patch_6">
    <path d="M 50.6 26.88 
L 500.175 26.88 
" style="fill: none; stroke: #000000; stroke-width: 0.8; stroke-linejoin: miter; stroke-linecap: square"/>
   </g>
   <g id="text_17">
    <!-- Type 1 Error vs Alpha (10 reps, 1024 paths/rep) -->
    <g transform="translate(121.248125 20.88) scale(0.13 -0.13)">
     <defs>
      <path id="DejaVuSans-76" d="M 191 3500 
L 800 3500 
L 1894 563 
L 2988 3500 
L 3597 3500 
L 2284 0 
L 1503 0 
L 191 3500 
z
" transform="scale(0.015625)"/>
      <path id="DejaVuSans-73" d="M 2834 3397 
L 2834 2853 
Q 2591 2978 2328 3040 
Q 2066 3103 1784 3103 
Q 1356 3103 1142 2972 
Q 928 2841 928 2578 
Q 928 2378 1081 2264 
Q 1234 2150 1697 2047 
L 1894 2003 
Q 2506 1872 2764 1633 
Q 3022 1394 3022 966 
Q 3022 478 2636 193 
Q 2250 -91 1575 -91 
Q 1294 -91 989 -36 
Q 684 19 347 128 
L 347 722 
Q 666 556 975 473 
Q 1284 391 1588 391 
Q 1994 391 2212 530 
Q 2431 669 2431 922 
Q 2431 1156 2273 1281 
Q 2116 1406 1581 1522 
L 1381 1569 
Q 847 1681 609 1914 
Q 372 2147 372 2553 
Q 372 3047 722 3315 
Q 1072 3584 1716 3584 
Q 2034 3584 2315 3537 
Q 2597 3491 2834 3397 
z
" transform="scale(0.015625)"/>
      <path id="DejaVuSans-41" d="M 2188 4044 
L 1331 1722 
L 3047 1722 
L 2188 4044 
z
M 1831 4666 
L 2547 4666 
L 4325 0 
L 3669 0 
L 3244 1197 
L 1141 1197 
L 716 0 
L 50 0 
L 1831 4666 
z
" transform="scale(0.015625)"/>
      <path id="DejaVuSans-6c" d="M 603 4863 
L 1178 4863 
L 1178 0 
L 603 0 
L 603 4863 
z
" transform="scale(0.015625)"/>
      <path id="DejaVuSans-61" d="M 2194 1759 
Q 1497 1759 1228 1600 
Q 959 1441 959 1056 
Q 959 750 1161 570 
Q 1363 391 1709 391 
Q 2188 391 2477 730 
Q 2766 1069 2766 1631 
L 2766 1759 
L 2194 1759 
z
M 3341 1997 
L 3341 0 
L 2766 0 
L 2766 531 
Q 2569 213 2275 61 
Q 1981 -91 1556 -91 
Q 1019 -91 701 211 
Q 384 513 384 1019 
Q 384 1609 779 1909 
Q 1175 2209 1959 2209 
L 2766 2209 
L 2766 2266 
Q 2766 2663 2505 2880 
Q 2244 3097 1772 3097 
Q 1472 3097 1187 3025 
Q 903 2953 641 2809 
L 641 3341 
Q 956 3463 1253 3523 
Q 1550 3584 1831 3584 
Q 2591 3584 2966 3190 
Q 3341 2797 3341 1997 
z
" transform="scale(0.015625)"/>
      <path id="DejaVuSans-2c" d="M 750 794 
L 1409 794 
L 1409 256 
L 897 -744 
L 494 -744 
L 750 256 
L 750 794 
z
" transform="scale(0.015625)"/>
      <path id="DejaVuSans-2f" d="M 1625 4666 
L 2156 4666 
L 531 -594 
L 0 -594 
L 1625 4666 
z
" transform="scale(0.015625)"/>
     </defs>
     <use xlink:href="#DejaVuSans-54"/>
     <use xlink:href="#DejaVuSans-79" transform="translate(45.458984 0)"/>
     <use xlink:href="#DejaVuSans-70" transform="translate(104.638672 0)"/>
     <use xlink:href="#DejaVuSans-65" transform="translate(168.115234 0)"/>
     <use xlink:href="#DejaVuSans-20" transform="translate(229.638672 0)"/>
     <use xlink:href="#DejaVuSans-31" transform="translate(261.425781 0)"/>
     <use xlink:href="#DejaVuSans-20" transform="translate(325.048828 0)"/>
     <use xlink:href="#DejaVuSans-45" transform="translate(356.835938 0)"/>
     <use xlink:href="#DejaVuSans-72" transform="translate(420.019531 0)"/>
     <use xlink:href="#DejaVuSans-72" transform="translate(459.382812 0)"/>
     <use xlink:href="#DejaVuSans-6f" transform="translate(498.246094 0)"/>
     <use xlink:href="#DejaVuSans-72" transform="translate(559.427734 0)"/>
     <use xlink:href="#DejaVuSans-20" transform="translate(600.541016 0)"/>
     <use xlink:href="#DejaVuSans-76" transform="translate(632.328125 0)"/>
     <use xlink:href="#DejaVuSans-73" transform="translate(691.507812 0)"/>
     <use xlink:href="#DejaVuSans-20" transform="translate(743.607422 0)"/>
     <use xlink:href="#DejaVuSans-41" transform="translate(775.394531 0)"/>
     <use xlink:href="#DejaVuSans-6c" transform="translate(843.802734 0)"/>
     <use xlink:href="#DejaVuSans-70" transform="translate(871.585938 0)"/>
     <use xlink:href="#DejaVuSans-68" transform="translate(935.0625 0)"/>
     <use xlink:href="#DejaVuSans-61" transform="translate(998.441406 0)"/>
     <use xlink:href="#DejaVuSans-20" transform="translate(1059.720703 0)"/>
     <use xlink:href="#DejaVuSans-28" transform="translate(1091.507812 0)"/>
     <use xlink:href="#DejaVuSans-31" transform="translate(1130.521484 0)"/>
     <use xlink:href="#DejaVuSans-30" transform="translate(1194.144531 0)"/>
     <use xlink:href="#DejaVuSans-20" transform="translate(1257.767578 0)"/>
     <use xlink:href="#DejaVuSans-72" transform="translate(1289.554688 0)"/>
     <use xlink:href="#DejaVuSans-65" transform="translate(1328.417969 0)"/>
     <use xlink:href="#DejaVuSans-70" transform="translate(1389.941406 0)"/>
     <use xlink:href="#DejaVuSans-73" transform="translate(1453.417969 0)"/>
     <use xlink:href="#DejaVuSans-2c" transform="translate(1505.517578 0)"/>
     <use xlink:href="#DejaVuSans-20" transform="translate(1537.304688 0)"/>
     <use xlink:href="#DejaVuSans-31" transform="translate(1569.091797 0)"/>
     <use xlink:href="#DejaVuSans-30" transform="translate(1632.714844 0)"/>
     <use xlink:href="#DejaVuSans-32" transform="translate(1696.337891 0)"/>
     <use xlink:href="#DejaVuSans-34" transform="translate(1759.960938 0)"/>
     <use xlink:href="#DejaVuSans-20" transform="translate(1823.583984 0)"/>
     <use xlink:href="#DejaVuSans-70" transform="translate(1855.371094 0)"/>
     <use xlink:href="#DejaVuSans-61" transform="translate(1918.847656 0)"/>
     <use xlink:href="#DejaVuSans-74" transform="translate(1980.126953 0)"/>
     <use xlink:href="#DejaVuSans-68" transform="translate(2019.335938 0)"/>
     <use xlink:href="#DejaVuSans-73" transform="translate(2082.714844 0)"/>
     <use xlink:href="#DejaVuSans-2f" transform="translate(2134.814453 0)"/>
     <use xlink:href="#DejaVuSans-72" transform="translate(2168.505859 0)"/>
     <use xlink:href="#DejaVuSans-65" transform="translate(2207.369141 0)"/>
     <use xlink:href="#DejaVuSans-70" transform="translate(2268.892578 0)"/>
     <use xlink:href="#DejaVuSans-29" transform="translate(2332.369141 0)"/>
    </g>
   </g>
   <g id="legend_1">
    <g id="patch_7">
     <path d="M 57.6 307.28 
L 206.448437 307.28 
Q 208.448437 307.28 208.448437 305.28 
L 208.448437 188.576875 
Q 208.448437 186.576875 206.448437 186.576875 
L 57.6 186.576875 
Q 55.6 186.576875 55.6 188.576875 
L 55.6 305.28 
Q 55.6 307.28 57.6 307.28 
z
" style="fill: #ffffff; opacity: 0.8; stroke: #cccccc; stroke-linejoin: miter"/>
    </g>
    <g id="text_18">
     <!-- Scaling -->
     <g transform="translate(113.915625 198.175313) scale(0.1 -0.1)">
      <defs>
       <path id="DejaVuSans-53" d="M 3425 4513 
L 3425 3897 
Q 3066 4069 2747 4153 
Q 2428 4238 2131 4238 
Q 1616 4238 1336 4038 
Q 1056 3838 1056 3469 
Q 1056 3159 1242 3001 
Q 1428 2844 1947 2747 
L 2328 2669 
Q 3034 2534 3370 2195 
Q 3706 1856 3706 1288 
Q 3706 609 3251 259 
Q 2797 -91 1919 -91 
Q 1588 -91 1214 -16 
Q 841 59 441 206 
L 441 856 
Q 825 641 1194 531 
Q 1563 422 1919 422 
Q 2459 422 2753 634 
Q 3047 847 3047 1241 
Q 3047 1584 2836 1778 
Q 2625 1972 2144 2069 
L 1759 2144 
Q 1053 2284 737 2584 
Q 422 2884 422 3419 
Q 422 4038 858 4394 
Q 1294 4750 2059 4750 
Q 2388 4750 2728 4690 
Q 3069 4631 3425 4513 
z
" transform="scale(0.015625)"/>
       <path id="DejaVuSans-63" d="M 3122 3366 
L 3122 2828 
Q 2878 2963 2633 3030 
Q 2388 3097 2138 3097 
Q 1578 3097 1268 2742 
Q 959 2388 959 1747 
Q 959 1106 1268 751 
Q 1578 397 2138 397 
Q 2388 397 2633 464 
Q 2878 531 3122 666 
L 3122 134 
Q 2881 22 2623 -34 
Q 2366 -91 2075 -91 
Q 1284 -91 818 406 
Q 353 903 353 1747 
Q 353 2603 823 3093 
Q 1294 3584 2113 3584 
Q 2378 3584 2631 3529 
Q 2884 3475 3122 3366 
z
" transform="scale(0.015625)"/>
       <path id="DejaVuSans-6e" d="M 3513 2113 
L 3513 0 
L 2938 0 
L 2938 2094 
Q 2938 2591 2744 2837 
Q 2550 3084 2163 3084 
Q 1697 3084 1428 2787 
Q 1159 2491 1159 1978 
L 1159 0 
L 581 0 
L 581 3500 
L 1159 3500 
L 1159 2956 
Q 1366 3272 1645 3428 
Q 1925 3584 2291 3584 
Q 2894 3584 3203 3211 
Q 3513 2838 3513 2113 
z
" transform="scale(0.015625)"/>
       <path id="DejaVuSans-67" d="M 2906 1791 
Q 2906 2416 2648 2759 
Q 2391 3103 1925 3103 
Q 1463 3103 1205 2759 
Q 947 2416 947 1791 
Q 947 1169 1205 825 
Q 1463 481 1925 481 
Q 2391 481 2648 825 
Q 2906 1169 2906 1791 
z
M 3481 434 
Q 3481 -459 3084 -895 
Q 2688 -1331 1869 -1331 
Q 1566 -1331 1297 -1286 
Q 1028 -1241 775 -1147 
L 775 -588 
Q 1028 -725 1275 -790 
Q 1522 -856 1778 -856 
Q 2344 -856 2625 -561 
Q 2906 -266 2906 331 
L 2906 616 
Q 2728 306 2450 153 
Q 2172 0 1784 0 
Q 1141 0 747 490 
Q 353 981 353 1791 
Q 353 2603 747 3093 
Q 1141 3584 1784 3584 
Q 2172 3584 2450 3431 
Q 2728 3278 2906 2969 
L 2906 3500 
L 3481 3500 
L 3481 434 
z
" transform="scale(0.015625)"/>
      </defs>
      <use xlink:href="#DejaVuSans-53"/>
      <use xlink:href="#DejaVuSans-63" transform="translate(63.476562 0)"/>
      <use xlink:href="#DejaVuSans-61" transform="translate(118.457031 0)"/>
      <use xlink:href="#DejaVuSans-6c" transform="translate(179.736328 0)"/>
      <use xlink:href="#DejaVuSans-69" transform="translate(207.519531 0)"/>
      <use xlink:href="#DejaVuSans-6e" transform="translate(235.302734 0)"/>
      <use xlink:href="#DejaVuSans-67" transform="translate(298.681641 0)"/>
     </g>
    </g>
    <g id="line2d_36">
     <path d="M 59.6 209.353438 
L 69.6 209.353438 
L 79.6 209.353438 
" style="fill: none; stroke: #440154; stroke-width: 1.5; stroke-linecap: square"/>
     <g>
      <use xlink:href="#me94951ff45" x="69.6" y="209.353438" style="fill: #440154; stroke: #440154"/>
     </g>
    </g>
    <g id="text_19">
     <!-- Scale: 0.1 -->
     <g transform="translate(87.6 212.853438) scale(0.1 -0.1)">
      <defs>
       <path id="DejaVuSans-3a" d="M 750 794 
L 1409 794 
L 1409 0 
L 750 0 
L 750 794 
z
M 750 3309 
L 1409 3309 
L 1409 2516 
L 750 2516 
L 750 3309 
z
" transform="scale(0.015625)"/>
      </defs>
      <use xlink:href="#DejaVuSans-53"/>
      <use xlink:href="#DejaVuSans-63" transform="translate(63.476562 0)"/>
      <use xlink:href="#DejaVuSans-61" transform="translate(118.457031 0)"/>
      <use xlink:href="#DejaVuSans-6c" transform="translate(179.736328 0)"/>
      <use xlink:href="#DejaVuSans-65" transform="translate(207.519531 0)"/>
      <use xlink:href="#DejaVuSans-3a" transform="translate(269.042969 0)"/>
      <use xlink:href="#DejaVuSans-20" transform="translate(302.734375 0)"/>
      <use xlink:href="#DejaVuSans-30" transform="translate(334.521484 0)"/>
      <use xlink:href="#DejaVuSans-2e" transform="translate(398.144531 0)"/>
      <use xlink:href="#DejaVuSans-31" transform="translate(429.931641 0)"/>
     </g>
    </g>
    <g id="line2d_37">
     <path d="M 59.6 224.031563 
L 69.6 224.031563 
L 79.6 224.031563 
" style="fill: none; stroke: #3e4a89; stroke-width: 1.5; stroke-linecap: square"/>
     <g>
      <use xlink:href="#mca13ea8b95" x="69.6" y="224.031563" style="fill: #3e4a89; stroke: #3e4a89"/>
     </g>
    </g>
    <g id="text_20">
     <!-- Scale: 0.25 -->
     <g transform="translate(87.6 227.531563) scale(0.1 -0.1)">
      <use xlink:href="#DejaVuSans-53"/>
      <use xlink:href="#DejaVuSans-63" transform="translate(63.476562 0)"/>
      <use xlink:href="#DejaVuSans-61" transform="translate(118.457031 0)"/>
      <use xlink:href="#DejaVuSans-6c" transform="translate(179.736328 0)"/>
      <use xlink:href="#DejaVuSans-65" transform="translate(207.519531 0)"/>
      <use xlink:href="#DejaVuSans-3a" transform="translate(269.042969 0)"/>
      <use xlink:href="#DejaVuSans-20" transform="translate(302.734375 0)"/>
      <use xlink:href="#DejaVuSans-30" transform="translate(334.521484 0)"/>
      <use xlink:href="#DejaVuSans-2e" transform="translate(398.144531 0)"/>
      <use xlink:href="#DejaVuSans-32" transform="translate(429.931641 0)"/>
      <use xlink:href="#DejaVuSans-35" transform="translate(493.554688 0)"/>
     </g>
    </g>
    <g id="line2d_38">
     <path d="M 59.6 238.709688 
L 69.6 238.709688 
L 79.6 238.709688 
" style="fill: none; stroke: #25848e; stroke-width: 1.5; stroke-linecap: square"/>
     <g>
      <use xlink:href="#me713ce6459" x="69.6" y="238.709688" style="fill: #25848e; stroke: #25848e"/>
     </g>
    </g>
    <g id="text_21">
     <!-- Scale: 0.5 -->
     <g transform="translate(87.6 242.209688) scale(0.1 -0.1)">
      <use xlink:href="#DejaVuSans-53"/>
      <use xlink:href="#DejaVuSans-63" transform="translate(63.476562 0)"/>
      <use xlink:href="#DejaVuSans-61" transform="translate(118.457031 0)"/>
      <use xlink:href="#DejaVuSans-6c" transform="translate(179.736328 0)"/>
      <use xlink:href="#DejaVuSans-65" transform="translate(207.519531 0)"/>
      <use xlink:href="#DejaVuSans-3a" transform="translate(269.042969 0)"/>
      <use xlink:href="#DejaVuSans-20" transform="translate(302.734375 0)"/>
      <use xlink:href="#DejaVuSans-30" transform="translate(334.521484 0)"/>
      <use xlink:href="#DejaVuSans-2e" transform="translate(398.144531 0)"/>
      <use xlink:href="#DejaVuSans-35" transform="translate(429.931641 0)"/>
     </g>
    </g>
    <g id="line2d_39">
     <path d="M 59.6 253.387813 
L 69.6 253.387813 
L 79.6 253.387813 
" style="fill: none; stroke: #38b977; stroke-width: 1.5; stroke-linecap: square"/>
     <g>
      <use xlink:href="#mde25288969" x="69.6" y="253.387813" style="fill: #38b977; stroke: #38b977"/>
     </g>
    </g>
    <g id="text_22">
     <!-- Scale: 1.0 -->
     <g transform="translate(87.6 256.887813) scale(0.1 -0.1)">
      <use xlink:href="#DejaVuSans-53"/>
      <use xlink:href="#DejaVuSans-63" transform="translate(63.476562 0)"/>
      <use xlink:href="#DejaVuSans-61" transform="translate(118.457031 0)"/>
      <use xlink:href="#DejaVuSans-6c" transform="translate(179.736328 0)"/>
      <use xlink:href="#DejaVuSans-65" transform="translate(207.519531 0)"/>
      <use xlink:href="#DejaVuSans-3a" transform="translate(269.042969 0)"/>
      <use xlink:href="#DejaVuSans-20" transform="translate(302.734375 0)"/>
      <use xlink:href="#DejaVuSans-31" transform="translate(334.521484 0)"/>
      <use xlink:href="#DejaVuSans-2e" transform="translate(398.144531 0)"/>
      <use xlink:href="#DejaVuSans-30" transform="translate(429.931641 0)"/>
     </g>
    </g>
    <g id="line2d_40">
     <path d="M 59.6 268.065938 
L 69.6 268.065938 
L 79.6 268.065938 
" style="fill: none; stroke: #bddf26; stroke-width: 1.5; stroke-linecap: square"/>
     <g>
      <use xlink:href="#m7f519ad8a2" x="69.6" y="268.065938" style="fill: #bddf26; stroke: #bddf26"/>
     </g>
    </g>
    <g id="text_23">
     <!-- Scale: 2.0 -->
     <g transform="translate(87.6 271.565938) scale(0.1 -0.1)">
      <use xlink:href="#DejaVuSans-53"/>
      <use xlink:href="#DejaVuSans-63" transform="translate(63.476562 0)"/>
      <use xlink:href="#DejaVuSans-61" transform="translate(118.457031 0)"/>
      <use xlink:href="#DejaVuSans-6c" transform="translate(179.736328 0)"/>
      <use xlink:href="#DejaVuSans-65" transform="translate(207.519531 0)"/>
      <use xlink:href="#DejaVuSans-3a" transform="translate(269.042969 0)"/>
      <use xlink:href="#DejaVuSans-20" transform="translate(302.734375 0)"/>
      <use xlink:href="#DejaVuSans-32" transform="translate(334.521484 0)"/>
      <use xlink:href="#DejaVuSans-2e" transform="translate(398.144531 0)"/>
      <use xlink:href="#DejaVuSans-30" transform="translate(429.931641 0)"/>
     </g>
    </g>
    <g id="line2d_41">
     <path d="M 59.6 282.744063 
L 69.6 282.744063 
L 79.6 282.744063 
" style="fill: none; stroke-dasharray: 5.55,2.4; stroke-dashoffset: 0; stroke: #ff0000; stroke-width: 1.5"/>
    </g>
    <g id="text_24">
     <!-- 5% Target -->
     <g transform="translate(87.6 286.244063) scale(0.1 -0.1)">
      <use xlink:href="#DejaVuSans-35"/>
      <use xlink:href="#DejaVuSans-25" transform="translate(63.623047 0)"/>
      <use xlink:href="#DejaVuSans-20" transform="translate(158.642578 0)"/>
      <use xlink:href="#DejaVuSans-54" transform="translate(190.429688 0)"/>
      <use xlink:href="#DejaVuSans-61" transform="translate(235.013672 0)"/>
      <use xlink:href="#DejaVuSans-72" transform="translate(296.292969 0)"/>
      <use xlink:href="#DejaVuSans-67" transform="translate(335.65625 0)"/>
      <use xlink:href="#DejaVuSans-65" transform="translate(399.132812 0)"/>
      <use xlink:href="#DejaVuSans-74" transform="translate(460.65625 0)"/>
     </g>
    </g>
    <g id="line2d_42">
     <path d="M 59.6 297.422188 
L 69.6 297.422188 
L 79.6 297.422188 
" style="fill: none; stroke-dasharray: 5.55,2.4; stroke-dashoffset: 0; stroke: #808080; stroke-width: 1.5"/>
    </g>
    <g id="text_25">
     <!-- alpha_1=5.0 (H1 = H0) -->
     <g transform="translate(87.6 300.922188) scale(0.1 -0.1)">
      <defs>
       <path id="DejaVuSans-5f" d="M 3263 -1063 
L 3263 -1509 
L -63 -1509 
L -63 -1063 
L 3263 -1063 
z
" transform="scale(0.015625)"/>
       <path id="DejaVuSans-48" d="M 628 4666 
L 1259 4666 
L 1259 2753 
L 3553 2753 
L 3553 4666 
L 4184 4666 
L 4184 0 
L 3553 0 
L 3553 2222 
L 1259 2222 
L 1259 0 
L 628 0 
L 628 4666 
z
" transform="scale(0.015625)"/>
      </defs>
      <use xlink:href="#DejaVuSans-61"/>
      <use xlink:href="#DejaVuSans-6c" transform="translate(61.279297 0)"/>
      <use xlink:href="#DejaVuSans-70" transform="translate(89.0625 0)"/>
      <use xlink:href="#DejaVuSans-68" transform="translate(152.539062 0)"/>
      <use xlink:href="#DejaVuSans-61" transform="translate(215.917969 0)"/>
      <use xlink:href="#DejaVuSans-5f" transform="translate(277.197266 0)"/>
      <use xlink:href="#DejaVuSans-31" transform="translate(327.197266 0)"/>
      <use xlink:href="#DejaVuSans-3d" transform="translate(390.820312 0)"/>
      <use xlink:href="#DejaVuSans-35" transform="translate(474.609375 0)"/>
      <use xlink:href="#DejaVuSans-2e" transform="translate(538.232422 0)"/>
      <use xlink:href="#DejaVuSans-30" transform="translate(570.019531 0)"/>
      <use xlink:href="#DejaVuSans-20" transform="translate(633.642578 0)"/>
      <use xlink:href="#DejaVuSans-28" transform="translate(665.429688 0)"/>
      <use xlink:href="#DejaVuSans-48" transform="translate(704.443359 0)"/>
      <use xlink:href="#DejaVuSans-31" transform="translate(779.638672 0)"/>
      <use xlink:href="#DejaVuSans-20" transform="translate(843.261719 0)"/>
      <use xlink:href="#DejaVuSans-3d" transform="translate(875.048828 0)"/>
      <use xlink:href="#DejaVuSans-20" transform="translate(958.837891 0)"/>
      <use xlink:href="#DejaVuSans-48" transform="translate(990.625 0)"/>
      <use xlink:href="#DejaVuSans-30" transform="translate(1065.820312 0)"/>
      <use xlink:href="#DejaVuSans-29" transform="translate(1129.443359 0)"/>
     </g>
    </g>
   </g>
  </g>
  <g id="axes_2">
   <g id="patch_8">
    <path d="M 547.625 312.28 
L 997.2 312.28 
L 997.2 26.88 
L 547.625 26.88 
z
" style="fill: #ffffff"/>
   </g>
   <g id="FillBetweenPolyCollection_6">
    <defs>
     <path id="me069fcad00" d="M 568.060227 -61.997552 
L 568.060227 -61.997552 
L 636.177652 -62.193201 
L 704.295076 -124.45273 
L 772.4125 -279.055992 
L 840.529924 -73.683456 
L 908.647348 -61.997552 
L 976.764773 -61.997552 
L 976.764773 -61.997552 
L 976.764773 -61.997552 
L 908.647348 -61.997552 
L 840.529924 -164.17501 
L 772.4125 -319.943199 
L 704.295076 -224.538562 
L 636.177652 -67.972915 
L 568.060227 -61.997552 
z
" style="stroke: #440154; stroke-opacity: 0.2"/>
    </defs>
    <g clip-path="url(#p6c6cf9df23)">
     <use xlink:href="#me069fcad00" x="0" y="360" style="fill: #440154; fill-opacity: 0.2; stroke: #440154; stroke-opacity: 0.2"/>
    </g>
   </g>
   <g id="FillBetweenPolyCollection_7">
    <defs>
     <path id="m2b35b23c02" d="M 568.060227 -62.106774 
L 568.060227 -61.942941 
L 636.177652 -62.338141 
L 704.295076 -126.408945 
L 772.4125 -285.514427 
L 840.529924 -75.328074 
L 908.647348 -61.997552 
L 976.764773 -61.997552 
L 976.764773 -61.997552 
L 976.764773 -61.997552 
L 908.647348 -61.997552 
L 840.529924 -165.260929 
L 772.4125 -320.147273 
L 704.295076 -223.565339 
L 636.177652 -69.247854 
L 568.060227 -62.106774 
z
" style="stroke: #3e4a89; stroke-opacity: 0.2"/>
    </defs>
    <g clip-path="url(#p6c6cf9df23)">
     <use xlink:href="#m2b35b23c02" x="0" y="360" style="fill: #3e4a89; fill-opacity: 0.2; stroke: #3e4a89; stroke-opacity: 0.2"/>
    </g>
   </g>
   <g id="FillBetweenPolyCollection_8">
    <defs>
     <path id="m27ef6099c9" d="M 568.060227 -61.997552 
L 568.060227 -61.997552 
L 636.177652 -62.059427 
L 704.295076 -142.202314 
L 772.4125 -285.624201 
L 840.529924 -71.253021 
L 908.647348 -61.997552 
L 976.764773 -61.997552 
L 976.764773 -61.997552 
L 976.764773 -61.997552 
L 908.647348 -61.997552 
L 840.529924 -167.206163 
L 772.4125 -318.453787 
L 704.295076 -229.616261 
L 636.177652 -70.673393 
L 568.060227 -61.997552 
z
" style="stroke: #25848e; stroke-opacity: 0.2"/>
    </defs>
    <g clip-path="url(#p6c6cf9df23)">
     <use xlink:href="#m27ef6099c9" x="0" y="360" style="fill: #25848e; fill-opacity: 0.2; stroke: #25848e; stroke-opacity: 0.2"/>
    </g>
   </g>
   <g id="FillBetweenPolyCollection_9">
    <defs>
     <path id="m7780c430ab" d="M 568.060227 -62.254308 
L 568.060227 -61.904629 
L 636.177652 -61.628422 
L 704.295076 -141.599784 
L 772.4125 -291.756135 
L 840.529924 -78.722072 
L 908.647348 -61.997552 
L 976.764773 -61.997552 
L 976.764773 -61.997552 
L 976.764773 -61.997552 
L 908.647348 -61.997552 
L 840.529924 -169.457821 
L 772.4125 -316.636101 
L 704.295076 -230.328012 
L 636.177652 -87.706058 
L 568.060227 -62.254308 
z
" style="stroke: #38b977; stroke-opacity: 0.2"/>
    </defs>
    <g clip-path="url(#p6c6cf9df23)">
     <use xlink:href="#m7780c430ab" x="0" y="360" style="fill: #38b977; fill-opacity: 0.2; stroke: #38b977; stroke-opacity: 0.2"/>
    </g>
   </g>
   <g id="FillBetweenPolyCollection_10">
    <defs>
     <path id="me88552417a" d="M 568.060227 -76.026676 
L 568.060227 -60.692727 
L 636.177652 -79.551145 
L 704.295076 -154.025862 
L 772.4125 -294.949587 
L 840.529924 -84.814166 
L 908.647348 -61.954339 
L 976.764773 -61.997552 
L 976.764773 -61.997552 
L 976.764773 -61.997552 
L 908.647348 -62.204597 
L 840.529924 -153.590407 
L 772.4125 -318.903721 
L 704.295076 -242.149096 
L 636.177652 -121.445082 
L 568.060227 -76.026676 
z
" style="stroke: #bddf26; stroke-opacity: 0.2"/>
    </defs>
    <g clip-path="url(#p6c6cf9df23)">
     <use xlink:href="#me88552417a" x="0" y="360" style="fill: #bddf26; fill-opacity: 0.2; stroke: #bddf26; stroke-opacity: 0.2"/>
    </g>
   </g>
   <g id="matplotlib.axis_3">
    <g id="xtick_8">
     <g id="line2d_43">
      <path d="M 568.060227 312.28 
L 568.060227 26.88 
" clip-path="url(#p6c6cf9df23)" style="fill: none; stroke-dasharray: 2.96,1.28; stroke-dashoffset: 0; stroke: #b0b0b0; stroke-opacity: 0.6; stroke-width: 0.8"/>
     </g>
     <g id="line2d_44">
      <g>
       <use xlink:href="#m1f51c451a8" x="568.060227" y="312.28" style="stroke: #000000; stroke-width: 0.8"/>
      </g>
     </g>
     <g id="text_26">
      <!-- 2 -->
      <g transform="translate(564.878977 326.878438) scale(0.1 -0.1)">
       <use xlink:href="#DejaVuSans-32"/>
      </g>
     </g>
    </g>
    <g id="xtick_9">
     <g id="line2d_45">
      <path d="M 636.177652 312.28 
L 636.177652 26.88 
" clip-path="url(#p6c6cf9df23)" style="fill: none; stroke-dasharray: 2.96,1.28; stroke-dashoffset: 0; stroke: #b0b0b0; stroke-opacity: 0.6; stroke-width: 0.8"/>
     </g>
     <g id="line2d_46">
      <g>
       <use xlink:href="#m1f51c451a8" x="636.177652" y="312.28" style="stroke: #000000; stroke-width: 0.8"/>
      </g>
     </g>
     <g id="text_27">
      <!-- 3 -->
      <g transform="translate(632.996402 326.878438) scale(0.1 -0.1)">
       <use xlink:href="#DejaVuSans-33"/>
      </g>
     </g>
    </g>
    <g id="xtick_10">
     <g id="line2d_47">
      <path d="M 704.295076 312.28 
L 704.295076 26.88 
" clip-path="url(#p6c6cf9df23)" style="fill: none; stroke-dasharray: 2.96,1.28; stroke-dashoffset: 0; stroke: #b0b0b0; stroke-opacity: 0.6; stroke-width: 0.8"/>
     </g>
     <g id="line2d_48">
      <g>
       <use xlink:href="#m1f51c451a8" x="704.295076" y="312.28" style="stroke: #000000; stroke-width: 0.8"/>
      </g>
     </g>
     <g id="text_28">
      <!-- 4 -->
      <g transform="translate(701.113826 326.878438) scale(0.1 -0.1)">
       <use xlink:href="#DejaVuSans-34"/>
      </g>
     </g>
    </g>
    <g id="xtick_11">
     <g id="line2d_49">
      <path d="M 772.4125 312.28 
L 772.4125 26.88 
" clip-path="url(#p6c6cf9df23)" style="fill: none; stroke-dasharray: 2.96,1.28; stroke-dashoffset: 0; stroke: #b0b0b0; stroke-opacity: 0.6; stroke-width: 0.8"/>
     </g>
     <g id="line2d_50">
      <g>
       <use xlink:href="#m1f51c451a8" x="772.4125" y="312.28" style="stroke: #000000; stroke-width: 0.8"/>
      </g>
     </g>
     <g id="text_29">
      <!-- 5 -->
      <g transform="translate(769.23125 326.878438) scale(0.1 -0.1)">
       <use xlink:href="#DejaVuSans-35"/>
      </g>
     </g>
    </g>
    <g id="xtick_12">
     <g id="line2d_51">
      <path d="M 840.529924 312.28 
L 840.529924 26.88 
" clip-path="url(#p6c6cf9df23)" style="fill: none; stroke-dasharray: 2.96,1.28; stroke-dashoffset: 0; stroke: #b0b0b0; stroke-opacity: 0.6; stroke-width: 0.8"/>
     </g>
     <g id="line2d_52">
      <g>
       <use xlink:href="#m1f51c451a8" x="840.529924" y="312.28" style="stroke: #000000; stroke-width: 0.8"/>
      </g>
     </g>
     <g id="text_30">
      <!-- 6 -->
      <g transform="translate(837.348674 326.878438) scale(0.1 -0.1)">
       <use xlink:href="#DejaVuSans-36"/>
      </g>
     </g>
    </g>
    <g id="xtick_13">
     <g id="line2d_53">
      <path d="M 908.647348 312.28 
L 908.647348 26.88 
" clip-path="url(#p6c6cf9df23)" style="fill: none; stroke-dasharray: 2.96,1.28; stroke-dashoffset: 0; stroke: #b0b0b0; stroke-opacity: 0.6; stroke-width: 0.8"/>
     </g>
     <g id="line2d_54">
      <g>
       <use xlink:href="#m1f51c451a8" x="908.647348" y="312.28" style="stroke: #000000; stroke-width: 0.8"/>
      </g>
     </g>
     <g id="text_31">
      <!-- 7 -->
      <g transform="translate(905.466098 326.878438) scale(0.1 -0.1)">
       <use xlink:href="#DejaVuSans-37"/>
      </g>
     </g>
    </g>
    <g id="xtick_14">
     <g id="line2d_55">
      <path d="M 976.764773 312.28 
L 976.764773 26.88 
" clip-path="url(#p6c6cf9df23)" style="fill: none; stroke-dasharray: 2.96,1.28; stroke-dashoffset: 0; stroke: #b0b0b0; stroke-opacity: 0.6; stroke-width: 0.8"/>
     </g>
     <g id="line2d_56">
      <g>
       <use xlink:href="#m1f51c451a8" x="976.764773" y="312.28" style="stroke: #000000; stroke-width: 0.8"/>
      </g>
     </g>
     <g id="text_32">
      <!-- 8 -->
      <g transform="translate(973.583523 326.878438) scale(0.1 -0.1)">
       <use xlink:href="#DejaVuSans-38"/>
      </g>
     </g>
    </g>
    <g id="text_33">
     <!-- $\alpha_1$ (with $\mu_1 = 100 - 10\alpha_1$) -->
     <g transform="translate(697.1125 342.078125) scale(0.12 -0.12)">
      <use xlink:href="#DejaVuSans-Oblique-3b1" transform="translate(0 0.015625)"/>
      <use xlink:href="#DejaVuSans-31" transform="translate(65.917969 -16.390625) scale(0.7)"/>
      <use xlink:href="#DejaVuSans-20" transform="translate(113.188477 0.015625)"/>
      <use xlink:href="#DejaVuSans-28" transform="translate(144.975586 0.015625)"/>
      <use xlink:href="#DejaVuSans-77" transform="translate(183.989258 0.015625)"/>
      <use xlink:href="#DejaVuSans-69" transform="translate(265.776367 0.015625)"/>
      <use xlink:href="#DejaVuSans-74" transform="translate(293.55957 0.015625)"/>
      <use xlink:href="#DejaVuSans-68" transform="translate(332.768555 0.015625)"/>
      <use xlink:href="#DejaVuSans-20" transform="translate(396.147461 0.015625)"/>
      <use xlink:href="#DejaVuSans-Oblique-3bc" transform="translate(427.93457 0.015625)"/>
      <use xlink:href="#DejaVuSans-31" transform="translate(491.557617 -16.390625) scale(0.7)"/>
      <use xlink:href="#DejaVuSans-3d" transform="translate(558.310547 0.015625)"/>
      <use xlink:href="#DejaVuSans-31" transform="translate(661.582031 0.015625)"/>
      <use xlink:href="#DejaVuSans-30" transform="translate(725.205078 0.015625)"/>
      <use xlink:href="#DejaVuSans-30" transform="translate(788.828125 0.015625)"/>
      <use xlink:href="#DejaVuSans-2212" transform="translate(871.933594 0.015625)"/>
      <use xlink:href="#DejaVuSans-31" transform="translate(975.205078 0.015625)"/>
      <use xlink:href="#DejaVuSans-30" transform="translate(1038.828125 0.015625)"/>
      <use xlink:href="#DejaVuSans-Oblique-3b1" transform="translate(1102.451172 0.015625)"/>
      <use xlink:href="#DejaVuSans-31" transform="translate(1168.369141 -16.390625) scale(0.7)"/>
      <use xlink:href="#DejaVuSans-29" transform="translate(1215.639648 0.015625)"/>
     </g>
    </g>
   </g>
   <g id="matplotlib.axis_4">
    <g id="ytick_8">
     <g id="line2d_57">
      <path d="M 547.625 298.002448 
L 997.2 298.002448 
" clip-path="url(#p6c6cf9df23)" style="fill: none; stroke-dasharray: 2.96,1.28; stroke-dashoffset: 0; stroke: #b0b0b0; stroke-opacity: 0.6; stroke-width: 0.8"/>
     </g>
     <g id="line2d_58">
      <g>
       <use xlink:href="#m7b0e67f467" x="547.625" y="298.002448" style="stroke: #000000; stroke-width: 0.8"/>
      </g>
     </g>
     <g id="text_34">
      <!-- 0 -->
      <g transform="translate(534.2625 301.801667) scale(0.1 -0.1)">
       <use xlink:href="#DejaVuSans-30"/>
      </g>
     </g>
    </g>
    <g id="ytick_9">
     <g id="line2d_59">
      <path d="M 547.625 243.391723 
L 997.2 243.391723 
" clip-path="url(#p6c6cf9df23)" style="fill: none; stroke-dasharray: 2.96,1.28; stroke-dashoffset: 0; stroke: #b0b0b0; stroke-opacity: 0.6; stroke-width: 0.8"/>
     </g>
     <g id="line2d_60">
      <g>
       <use xlink:href="#m7b0e67f467" x="547.625" y="243.391723" style="stroke: #000000; stroke-width: 0.8"/>
      </g>
     </g>
     <g id="text_35">
      <!-- 20 -->
      <g transform="translate(527.9 247.190942) scale(0.1 -0.1)">
       <use xlink:href="#DejaVuSans-32"/>
       <use xlink:href="#DejaVuSans-30" transform="translate(63.623047 0)"/>
      </g>
     </g>
    </g>
    <g id="ytick_10">
     <g id="line2d_61">
      <path d="M 547.625 188.780998 
L 997.2 188.780998 
" clip-path="url(#p6c6cf9df23)" style="fill: none; stroke-dasharray: 2.96,1.28; stroke-dashoffset: 0; stroke: #b0b0b0; stroke-opacity: 0.6; stroke-width: 0.8"/>
     </g>
     <g id="line2d_62">
      <g>
       <use xlink:href="#m7b0e67f467" x="547.625" y="188.780998" style="stroke: #000000; stroke-width: 0.8"/>
      </g>
     </g>
     <g id="text_36">
      <!-- 40 -->
      <g transform="translate(527.9 192.580216) scale(0.1 -0.1)">
       <use xlink:href="#DejaVuSans-34"/>
       <use xlink:href="#DejaVuSans-30" transform="translate(63.623047 0)"/>
      </g>
     </g>
    </g>
    <g id="ytick_11">
     <g id="line2d_63">
      <path d="M 547.625 134.170273 
L 997.2 134.170273 
" clip-path="url(#p6c6cf9df23)" style="fill: none; stroke-dasharray: 2.96,1.28; stroke-dashoffset: 0; stroke: #b0b0b0; stroke-opacity: 0.6; stroke-width: 0.8"/>
     </g>
     <g id="line2d_64">
      <g>
       <use xlink:href="#m7b0e67f467" x="547.625" y="134.170273" style="stroke: #000000; stroke-width: 0.8"/>
      </g>
     </g>
     <g id="text_37">
      <!-- 60 -->
      <g transform="translate(527.9 137.969491) scale(0.1 -0.1)">
       <use xlink:href="#DejaVuSans-36"/>
       <use xlink:href="#DejaVuSans-30" transform="translate(63.623047 0)"/>
      </g>
     </g>
    </g>
    <g id="ytick_12">
     <g id="line2d_65">
      <path d="M 547.625 79.559547 
L 997.2 79.559547 
" clip-path="url(#p6c6cf9df23)" style="fill: none; stroke-dasharray: 2.96,1.28; stroke-dashoffset: 0; stroke: #b0b0b0; stroke-opacity: 0.6; stroke-width: 0.8"/>
     </g>
     <g id="line2d_66">
      <g>
       <use xlink:href="#m7b0e67f467" x="547.625" y="79.559547" style="stroke: #000000; stroke-width: 0.8"/>
      </g>
     </g>
     <g id="text_38">
      <!-- 80 -->
      <g transform="translate(527.9 83.358766) scale(0.1 -0.1)">
       <use xlink:href="#DejaVuSans-38"/>
       <use xlink:href="#DejaVuSans-30" transform="translate(63.623047 0)"/>
      </g>
     </g>
    </g>
    <g id="text_39">
     <!-- P[Type 2 Error] (%) -->
     <g transform="translate(521.404375 226.202187) rotate(-90) scale(0.12 -0.12)">
      <use xlink:href="#DejaVuSans-50"/>
      <use xlink:href="#DejaVuSans-5b" transform="translate(60.302734 0)"/>
      <use xlink:href="#DejaVuSans-54" transform="translate(99.316406 0)"/>
      <use xlink:href="#DejaVuSans-79" transform="translate(144.775391 0)"/>
      <use xlink:href="#DejaVuSans-70" transform="translate(203.955078 0)"/>
      <use xlink:href="#DejaVuSans-65" transform="translate(267.431641 0)"/>
      <use xlink:href="#DejaVuSans-20" transform="translate(328.955078 0)"/>
      <use xlink:href="#DejaVuSans-32" transform="translate(360.742188 0)"/>
      <use xlink:href="#DejaVuSans-20" transform="translate(424.365234 0)"/>
      <use xlink:href="#DejaVuSans-45" transform="translate(456.152344 0)"/>
      <use xlink:href="#DejaVuSans-72" transform="translate(519.335938 0)"/>
      <use xlink:href="#DejaVuSans-72" transform="translate(558.699219 0)"/>
      <use xlink:href="#DejaVuSans-6f" transform="translate(597.5625 0)"/>
      <use xlink:href="#DejaVuSans-72" transform="translate(658.744141 0)"/>
      <use xlink:href="#DejaVuSans-5d" transform="translate(699.857422 0)"/>
      <use xlink:href="#DejaVuSans-20" transform="translate(738.871094 0)"/>
      <use xlink:href="#DejaVuSans-28" transform="translate(770.658203 0)"/>
      <use xlink:href="#DejaVuSans-25" transform="translate(809.671875 0)"/>
      <use xlink:href="#DejaVuSans-29" transform="translate(904.691406 0)"/>
     </g>
    </g>
   </g>
   <g id="line2d_67">
    <path d="M 568.060227 298.002448 
L 636.177652 294.916942 
L 704.295076 185.504354 
L 772.4125 60.500404 
L 840.529924 241.070767 
L 908.647348 298.002448 
L 976.764773 298.002448 
" clip-path="url(#p6c6cf9df23)" style="fill: none; stroke: #440154; stroke-width: 1.5; stroke-linecap: square"/>
    <g clip-path="url(#p6c6cf9df23)">
     <use xlink:href="#me94951ff45" x="568.060227" y="298.002448" style="fill: #440154; stroke: #440154"/>
     <use xlink:href="#me94951ff45" x="636.177652" y="294.916942" style="fill: #440154; stroke: #440154"/>
     <use xlink:href="#me94951ff45" x="704.295076" y="185.504354" style="fill: #440154; stroke: #440154"/>
     <use xlink:href="#me94951ff45" x="772.4125" y="60.500404" style="fill: #440154; stroke: #440154"/>
     <use xlink:href="#me94951ff45" x="840.529924" y="241.070767" style="fill: #440154; stroke: #440154"/>
     <use xlink:href="#me94951ff45" x="908.647348" y="298.002448" style="fill: #440154; stroke: #440154"/>
     <use xlink:href="#me94951ff45" x="976.764773" y="298.002448" style="fill: #440154; stroke: #440154"/>
    </g>
   </g>
   <g id="line2d_68">
    <path d="M 568.060227 297.975143 
L 636.177652 294.207002 
L 704.295076 185.012858 
L 772.4125 57.16915 
L 840.529924 239.705499 
L 908.647348 298.002448 
L 976.764773 298.002448 
" clip-path="url(#p6c6cf9df23)" style="fill: none; stroke: #3e4a89; stroke-width: 1.5; stroke-linecap: square"/>
    <g clip-path="url(#p6c6cf9df23)">
     <use xlink:href="#mca13ea8b95" x="568.060227" y="297.975143" style="fill: #3e4a89; stroke: #3e4a89"/>
     <use xlink:href="#mca13ea8b95" x="636.177652" y="294.207002" style="fill: #3e4a89; stroke: #3e4a89"/>
     <use xlink:href="#mca13ea8b95" x="704.295076" y="185.012858" style="fill: #3e4a89; stroke: #3e4a89"/>
     <use xlink:href="#mca13ea8b95" x="772.4125" y="57.16915" style="fill: #3e4a89; stroke: #3e4a89"/>
     <use xlink:href="#mca13ea8b95" x="840.529924" y="239.705499" style="fill: #3e4a89; stroke: #3e4a89"/>
     <use xlink:href="#mca13ea8b95" x="908.647348" y="298.002448" style="fill: #3e4a89; stroke: #3e4a89"/>
     <use xlink:href="#mca13ea8b95" x="976.764773" y="298.002448" style="fill: #3e4a89; stroke: #3e4a89"/>
    </g>
   </g>
   <g id="line2d_69">
    <path d="M 568.060227 298.002448 
L 636.177652 293.63359 
L 704.295076 174.090713 
L 772.4125 57.961006 
L 840.529924 240.770408 
L 908.647348 298.002448 
L 976.764773 298.002448 
" clip-path="url(#p6c6cf9df23)" style="fill: none; stroke: #25848e; stroke-width: 1.5; stroke-linecap: square"/>
    <g clip-path="url(#p6c6cf9df23)">
     <use xlink:href="#me713ce6459" x="568.060227" y="298.002448" style="fill: #25848e; stroke: #25848e"/>
     <use xlink:href="#me713ce6459" x="636.177652" y="293.63359" style="fill: #25848e; stroke: #25848e"/>
     <use xlink:href="#me713ce6459" x="704.295076" y="174.090713" style="fill: #25848e; stroke: #25848e"/>
     <use xlink:href="#me713ce6459" x="772.4125" y="57.961006" style="fill: #25848e; stroke: #25848e"/>
     <use xlink:href="#me713ce6459" x="840.529924" y="240.770408" style="fill: #25848e; stroke: #25848e"/>
     <use xlink:href="#me713ce6459" x="908.647348" y="298.002448" style="fill: #25848e; stroke: #25848e"/>
     <use xlink:href="#me713ce6459" x="976.764773" y="298.002448" style="fill: #25848e; stroke: #25848e"/>
    </g>
   </g>
   <g id="line2d_70">
    <path d="M 568.060227 297.920532 
L 636.177652 285.33276 
L 704.295076 174.036102 
L 772.4125 55.803882 
L 840.529924 235.910053 
L 908.647348 298.002448 
L 976.764773 298.002448 
" clip-path="url(#p6c6cf9df23)" style="fill: none; stroke: #38b977; stroke-width: 1.5; stroke-linecap: square"/>
    <g clip-path="url(#p6c6cf9df23)">
     <use xlink:href="#mde25288969" x="568.060227" y="297.920532" style="fill: #38b977; stroke: #38b977"/>
     <use xlink:href="#mde25288969" x="636.177652" y="285.33276" style="fill: #38b977; stroke: #38b977"/>
     <use xlink:href="#mde25288969" x="704.295076" y="174.036102" style="fill: #38b977; stroke: #38b977"/>
     <use xlink:href="#mde25288969" x="772.4125" y="55.803882" style="fill: #38b977; stroke: #38b977"/>
     <use xlink:href="#mde25288969" x="840.529924" y="235.910053" style="fill: #38b977; stroke: #38b977"/>
     <use xlink:href="#mde25288969" x="908.647348" y="298.002448" style="fill: #38b977; stroke: #38b977"/>
     <use xlink:href="#mde25288969" x="976.764773" y="298.002448" style="fill: #38b977; stroke: #38b977"/>
    </g>
   </g>
   <g id="line2d_71">
    <path d="M 568.060227 291.640298 
L 636.177652 259.501887 
L 704.295076 161.912521 
L 772.4125 53.073346 
L 840.529924 240.797713 
L 908.647348 297.920532 
L 976.764773 298.002448 
" clip-path="url(#p6c6cf9df23)" style="fill: none; stroke: #bddf26; stroke-width: 1.5; stroke-linecap: square"/>
    <g clip-path="url(#p6c6cf9df23)">
     <use xlink:href="#m7f519ad8a2" x="568.060227" y="291.640298" style="fill: #bddf26; stroke: #bddf26"/>
     <use xlink:href="#m7f519ad8a2" x="636.177652" y="259.501887" style="fill: #bddf26; stroke: #bddf26"/>
     <use xlink:href="#m7f519ad8a2" x="704.295076" y="161.912521" style="fill: #bddf26; stroke: #bddf26"/>
     <use xlink:href="#m7f519ad8a2" x="772.4125" y="53.073346" style="fill: #bddf26; stroke: #bddf26"/>
     <use xlink:href="#m7f519ad8a2" x="840.529924" y="240.797713" style="fill: #bddf26; stroke: #bddf26"/>
     <use xlink:href="#m7f519ad8a2" x="908.647348" y="297.920532" style="fill: #bddf26; stroke: #bddf26"/>
     <use xlink:href="#m7f519ad8a2" x="976.764773" y="298.002448" style="fill: #bddf26; stroke: #bddf26"/>
    </g>
   </g>
   <g id="line2d_72">
    <path d="M 772.4125 312.28 
L 772.4125 26.88 
" clip-path="url(#p6c6cf9df23)" style="fill: none; stroke-dasharray: 5.55,2.4; stroke-dashoffset: 0; stroke: #808080; stroke-width: 1.5"/>
   </g>
   <g id="patch_9">
    <path d="M 547.625 312.28 
L 547.625 26.88 
" style="fill: none; stroke: #000000; stroke-width: 0.8; stroke-linejoin: miter; stroke-linecap: square"/>
   </g>
   <g id="patch_10">
    <path d="M 997.2 312.28 
L 997.2 26.88 
" style="fill: none; stroke: #000000; stroke-width: 0.8; stroke-linejoin: miter; stroke-linecap: square"/>
   </g>
   <g id="patch_11">
    <path d="M 547.625 312.28 
L 997.2 312.28 
" style="fill: none; stroke: #000000; stroke-width: 0.8; stroke-linejoin: miter; stroke-linecap: square"/>
   </g>
   <g id="patch_12">
    <path d="M 547.625 26.88 
L 997.2 26.88 
" style="fill: none; stroke: #000000; stroke-width: 0.8; stroke-linejoin: miter; stroke-linecap: square"/>
   </g>
   <g id="text_40">
    <!-- Type 2 Error vs Alpha (10 reps, 1024 paths/rep) -->
    <g transform="translate(618.273125 20.88) scale(0.13 -0.13)">
     <use xlink:href="#DejaVuSans-54"/>
     <use xlink:href="#DejaVuSans-79" transform="translate(45.458984 0)"/>
     <use xlink:href="#DejaVuSans-70" transform="translate(104.638672 0)"/>
     <use xlink:href="#DejaVuSans-65" transform="translate(168.115234 0)"/>
     <use xlink:href="#DejaVuSans-20" transform="translate(229.638672 0)"/>
     <use xlink:href="#DejaVuSans-32" transform="translate(261.425781 0)"/>
     <use xlink:href="#DejaVuSans-20" transform="translate(325.048828 0)"/>
     <use xlink:href="#DejaVuSans-45" transform="translate(356.835938 0)"/>
     <use xlink:href="#DejaVuSans-72" transform="translate(420.019531 0)"/>
     <use xlink:href="#DejaVuSans-72" transform="translate(459.382812 0)"/>
     <use xlink:href="#DejaVuSans-6f" transform="translate(498.246094 0)"/>
     <use xlink:href="#DejaVuSans-72" transform="translate(559.427734 0)"/>
     <use xlink:href="#DejaVuSans-20" transform="translate(600.541016 0)"/>
     <use xlink:href="#DejaVuSans-76" transform="translate(632.328125 0)"/>
     <use xlink:href="#DejaVuSans-73" transform="translate(691.507812 0)"/>
     <use xlink:href="#DejaVuSans-20" transform="translate(743.607422 0)"/>
     <use xlink:href="#DejaVuSans-41" transform="translate(775.394531 0)"/>
     <use xlink:href="#DejaVuSans-6c" transform="translate(843.802734 0)"/>
     <use xlink:href="#DejaVuSans-70" transform="translate(871.585938 0)"/>
     <use xlink:href="#DejaVuSans-68" transform="translate(935.0625 0)"/>
     <use xlink:href="#DejaVuSans-61" transform="translate(998.441406 0)"/>
     <use xlink:href="#DejaVuSans-20" transform="translate(1059.720703 0)"/>
     <use xlink:href="#DejaVuSans-28" transform="translate(1091.507812 0)"/>
     <use xlink:href="#DejaVuSans-31" transform="translate(1130.521484 0)"/>
     <use xlink:href="#DejaVuSans-30" transform="translate(1194.144531 0)"/>
     <use xlink:href="#DejaVuSans-20" transform="translate(1257.767578 0)"/>
     <use xlink:href="#DejaVuSans-72" transform="translate(1289.554688 0)"/>
     <use xlink:href="#DejaVuSans-65" transform="translate(1328.417969 0)"/>
     <use xlink:href="#DejaVuSans-70" transform="translate(1389.941406 0)"/>
     <use xlink:href="#DejaVuSans-73" transform="translate(1453.417969 0)"/>
     <use xlink:href="#DejaVuSans-2c" transform="translate(1505.517578 0)"/>
     <use xlink:href="#DejaVuSans-20" transform="translate(1537.304688 0)"/>
     <use xlink:href="#DejaVuSans-31" transform="translate(1569.091797 0)"/>
     <use xlink:href="#DejaVuSans-30" transform="translate(1632.714844 0)"/>
     <use xlink:href="#DejaVuSans-32" transform="translate(1696.337891 0)"/>
     <use xlink:href="#DejaVuSans-34" transform="translate(1759.960938 0)"/>
     <use xlink:href="#DejaVuSans-20" transform="translate(1823.583984 0)"/>
     <use xlink:href="#DejaVuSans-70" transform="translate(1855.371094 0)"/>
     <use xlink:href="#DejaVuSans-61" transform="translate(1918.847656 0)"/>
     <use xlink:href="#DejaVuSans-74" transform="translate(1980.126953 0)"/>
     <use xlink:href="#DejaVuSans-68" transform="translate(2019.335938 0)"/>
     <use xlink:href="#DejaVuSans-73" transform="translate(2082.714844 0)"/>
     <use xlink:href="#DejaVuSans-2f" transform="translate(2134.814453 0)"/>
     <use xlink:href="#DejaVuSans-72" transform="translate(2168.505859 0)"/>
     <use xlink:href="#DejaVuSans-65" transform="translate(2207.369141 0)"/>
     <use xlink:href="#DejaVuSans-70" transform="translate(2268.892578 0)"/>
     <use xlink:href="#DejaVuSans-29" transform="translate(2332.369141 0)"/>
    </g>
   </g>
   <g id="legend_2">
    <g id="patch_13">
     <path d="M 841.351562 137.905 
L 990.2 137.905 
Q 992.2 137.905 992.2 135.905 
L 992.2 33.88 
Q 992.2 31.88 990.2 31.88 
L 841.351562 31.88 
Q 839.351562 31.88 839.351562 33.88 
L 839.351562 135.905 
Q 839.351562 137.905 841.351562 137.905 
z
" style="fill: #ffffff; opacity: 0.8; stroke: #cccccc; stroke-linejoin: miter"/>
    </g>
    <g id="text_41">
     <!-- Scaling -->
     <g transform="translate(897.667187 43.478437) scale(0.1 -0.1)">
      <use xlink:href="#DejaVuSans-53"/>
      <use xlink:href="#DejaVuSans-63" transform="translate(63.476562 0)"/>
      <use xlink:href="#DejaVuSans-61" transform="translate(118.457031 0)"/>
      <use xlink:href="#DejaVuSans-6c" transform="translate(179.736328 0)"/>
      <use xlink:href="#DejaVuSans-69" transform="translate(207.519531 0)"/>
      <use xlink:href="#DejaVuSans-6e" transform="translate(235.302734 0)"/>
      <use xlink:href="#DejaVuSans-67" transform="translate(298.681641 0)"/>
     </g>
    </g>
    <g id="line2d_73">
     <path d="M 843.351562 54.656563 
L 853.351562 54.656563 
L 863.351562 54.656563 
" style="fill: none; stroke: #440154; stroke-width: 1.5; stroke-linecap: square"/>
     <g>
      <use xlink:href="#me94951ff45" x="853.351562" y="54.656563" style="fill: #440154; stroke: #440154"/>
     </g>
    </g>
    <g id="text_42">
     <!-- Scale: 0.1 -->
     <g transform="translate(871.351562 58.156563) scale(0.1 -0.1)">
      <use xlink:href="#DejaVuSans-53"/>
      <use xlink:href="#DejaVuSans-63" transform="translate(63.476562 0)"/>
      <use xlink:href="#DejaVuSans-61" transform="translate(118.457031 0)"/>
      <use xlink:href="#DejaVuSans-6c" transform="translate(179.736328 0)"/>
      <use xlink:href="#DejaVuSans-65" transform="translate(207.519531 0)"/>
      <use xlink:href="#DejaVuSans-3a" transform="translate(269.042969 0)"/>
      <use xlink:href="#DejaVuSans-20" transform="translate(302.734375 0)"/>
      <use xlink:href="#DejaVuSans-30" transform="translate(334.521484 0)"/>
      <use xlink:href="#DejaVuSans-2e" transform="translate(398.144531 0)"/>
      <use xlink:href="#DejaVuSans-31" transform="translate(429.931641 0)"/>
     </g>
    </g>
    <g id="line2d_74">
     <path d="M 843.351562 69.334688 
L 853.351562 69.334688 
L 863.351562 69.334688 
" style="fill: none; stroke: #3e4a89; stroke-width: 1.5; stroke-linecap: square"/>
     <g>
      <use xlink:href="#mca13ea8b95" x="853.351562" y="69.334688" style="fill: #3e4a89; stroke: #3e4a89"/>
     </g>
    </g>
    <g id="text_43">
     <!-- Scale: 0.25 -->
     <g transform="translate(871.351562 72.834688) scale(0.1 -0.1)">
      <use xlink:href="#DejaVuSans-53"/>
      <use xlink:href="#DejaVuSans-63" transform="translate(63.476562 0)"/>
      <use xlink:href="#DejaVuSans-61" transform="translate(118.457031 0)"/>
      <use xlink:href="#DejaVuSans-6c" transform="translate(179.736328 0)"/>
      <use xlink:href="#DejaVuSans-65" transform="translate(207.519531 0)"/>
      <use xlink:href="#DejaVuSans-3a" transform="translate(269.042969 0)"/>
      <use xlink:href="#DejaVuSans-20" transform="translate(302.734375 0)"/>
      <use xlink:href="#DejaVuSans-30" transform="translate(334.521484 0)"/>
      <use xlink:href="#DejaVuSans-2e" transform="translate(398.144531 0)"/>
      <use xlink:href="#DejaVuSans-32" transform="translate(429.931641 0)"/>
      <use xlink:href="#DejaVuSans-35" transform="translate(493.554688 0)"/>
     </g>
    </g>
    <g id="line2d_75">
     <path d="M 843.351562 84.012812 
L 853.351562 84.012812 
L 863.351562 84.012812 
" style="fill: none; stroke: #25848e; stroke-width: 1.5; stroke-linecap: square"/>
     <g>
      <use xlink:href="#me713ce6459" x="853.351562" y="84.012812" style="fill: #25848e; stroke: #25848e"/>
     </g>
    </g>
    <g id="text_44">
     <!-- Scale: 0.5 -->
     <g transform="translate(871.351562 87.512812) scale(0.1 -0.1)">
      <use xlink:href="#DejaVuSans-53"/>
      <use xlink:href="#DejaVuSans-63" transform="translate(63.476562 0)"/>
      <use xlink:href="#DejaVuSans-61" transform="translate(118.457031 0)"/>
      <use xlink:href="#DejaVuSans-6c" transform="translate(179.736328 0)"/>
      <use xlink:href="#DejaVuSans-65" transform="translate(207.519531 0)"/>
      <use xlink:href="#DejaVuSans-3a" transform="translate(269.042969 0)"/>
      <use xlink:href="#DejaVuSans-20" transform="translate(302.734375 0)"/>
      <use xlink:href="#DejaVuSans-30" transform="translate(334.521484 0)"/>
      <use xlink:href="#DejaVuSans-2e" transform="translate(398.144531 0)"/>
      <use xlink:href="#DejaVuSans-35" transform="translate(429.931641 0)"/>
     </g>
    </g>
    <g id="line2d_76">
     <path d="M 843.351562 98.690938 
L 853.351562 98.690938 
L 863.351562 98.690938 
" style="fill: none; stroke: #38b977; stroke-width: 1.5; stroke-linecap: square"/>
     <g>
      <use xlink:href="#mde25288969" x="853.351562" y="98.690938" style="fill: #38b977; stroke: #38b977"/>
     </g>
    </g>
    <g id="text_45">
     <!-- Scale: 1.0 -->
     <g transform="translate(871.351562 102.190938) scale(0.1 -0.1)">
      <use xlink:href="#DejaVuSans-53"/>
      <use xlink:href="#DejaVuSans-63" transform="translate(63.476562 0)"/>
      <use xlink:href="#DejaVuSans-61" transform="translate(118.457031 0)"/>
      <use xlink:href="#DejaVuSans-6c" transform="translate(179.736328 0)"/>
      <use xlink:href="#DejaVuSans-65" transform="translate(207.519531 0)"/>
      <use xlink:href="#DejaVuSans-3a" transform="translate(269.042969 0)"/>
      <use xlink:href="#DejaVuSans-20" transform="translate(302.734375 0)"/>
      <use xlink:href="#DejaVuSans-31" transform="translate(334.521484 0)"/>
      <use xlink:href="#DejaVuSans-2e" transform="translate(398.144531 0)"/>
      <use xlink:href="#DejaVuSans-30" transform="translate(429.931641 0)"/>
     </g>
    </g>
    <g id="line2d_77">
     <path d="M 843.351562 113.369063 
L 853.351562 113.369063 
L 863.351562 113.369063 
" style="fill: none; stroke: #bddf26; stroke-width: 1.5; stroke-linecap: square"/>
     <g>
      <use xlink:href="#m7f519ad8a2" x="853.351562" y="113.369063" style="fill: #bddf26; stroke: #bddf26"/>
     </g>
    </g>
    <g id="text_46">
     <!-- Scale: 2.0 -->
     <g transform="translate(871.351562 116.869063) scale(0.1 -0.1)">
      <use xlink:href="#DejaVuSans-53"/>
      <use xlink:href="#DejaVuSans-63" transform="translate(63.476562 0)"/>
      <use xlink:href="#DejaVuSans-61" transform="translate(118.457031 0)"/>
      <use xlink:href="#DejaVuSans-6c" transform="translate(179.736328 0)"/>
      <use xlink:href="#DejaVuSans-65" transform="translate(207.519531 0)"/>
      <use xlink:href="#DejaVuSans-3a" transform="translate(269.042969 0)"/>
      <use xlink:href="#DejaVuSans-20" transform="translate(302.734375 0)"/>
      <use xlink:href="#DejaVuSans-32" transform="translate(334.521484 0)"/>
      <use xlink:href="#DejaVuSans-2e" transform="translate(398.144531 0)"/>
      <use xlink:href="#DejaVuSans-30" transform="translate(429.931641 0)"/>
     </g>
    </g>
    <g id="line2d_78">
     <path d="M 843.351562 128.047188 
L 853.351562 128.047188 
L 863.351562 128.047188 
" style="fill: none; stroke-dasharray: 5.55,2.4; stroke-dashoffset: 0; stroke: #808080; stroke-width: 1.5"/>
    </g>
    <g id="text_47">
     <!-- alpha_1=5.0 (H1 = H0) -->
     <g transform="translate(871.351562 131.547188) scale(0.1 -0.1)">
      <use xlink:href="#DejaVuSans-61"/>
      <use xlink:href="#DejaVuSans-6c" transform="translate(61.279297 0)"/>
      <use xlink:href="#DejaVuSans-70" transform="translate(89.0625 0)"/>
      <use xlink:href="#DejaVuSans-68" transform="translate(152.539062 0)"/>
      <use xlink:href="#DejaVuSans-61" transform="translate(215.917969 0)"/>
      <use xlink:href="#DejaVuSans-5f" transform="translate(277.197266 0)"/>
      <use xlink:href="#DejaVuSans-31" transform="translate(327.197266 0)"/>
      <use xlink:href="#DejaVuSans-3d" transform="translate(390.820312 0)"/>
      <use xlink:href="#DejaVuSans-35" transform="translate(474.609375 0)"/>
      <use xlink:href="#DejaVuSans-2e" transform="translate(538.232422 0)"/>
      <use xlink:href="#DejaVuSans-30" transform="translate(570.019531 0)"/>
      <use xlink:href="#DejaVuSans-20" transform="translate(633.642578 0)"/>
      <use xlink:href="#DejaVuSans-28" transform="translate(665.429688 0)"/>
      <use xlink:href="#DejaVuSans-48" transform="translate(704.443359 0)"/>
      <use xlink:href="#DejaVuSans-31" transform="translate(779.638672 0)"/>
      <use xlink:href="#DejaVuSans-20" transform="translate(843.261719 0)"/>
      <use xlink:href="#DejaVuSans-3d" transform="translate(875.048828 0)"/>
      <use xlink:href="#DejaVuSans-20" transform="translate(958.837891 0)"/>
      <use xlink:href="#DejaVuSans-48" transform="translate(990.625 0)"/>
      <use xlink:href="#DejaVuSans-30" transform="translate(1065.820312 0)"/>
      <use xlink:href="#DejaVuSans-29" transform="translate(1129.443359 0)"/>
     </g>
    </g>
   </g>
  </g>
 </g>
 <defs>
  <clipPath id="p3c4c64f148">
   <rect x="50.6" y="26.88" width="449.575" height="285.4"/>
  </clipPath>
  <clipPath id="p6c6cf9df23">
   <rect x="547.625" y="26.88" width="449.575" height="285.4"/>
  </clipPath>
 </defs>
</svg>
